<?xml version="1.0" standalone="no"?>
<!DOCTYPE svg PUBLIC "-//W3C//DTD SVG 20010904//EN"
 "http://www.w3.org/TR/2001/REC-SVG-20010904/DTD/svg10.dtd">
<svg version="1.0" xmlns="http://www.w3.org/2000/svg"
 width="500.000000pt" height="559.000000pt" viewBox="0 0 500.000000 559.000000"
 preserveAspectRatio="xMidYMid meet">

<g transform="translate(0.000000,559.000000) scale(0.100000,-0.100000)"
fill="#000000" stroke="none">
<path d="M2404 5515 c-4 -8 -19 -15 -35 -15 -53 0 -131 -22 -153 -44 -11 -11
-52 -35 -91 -51 -45 -20 -69 -36 -68 -45 1 -8 -15 -27 -37 -43 -89 -63 -179
-199 -201 -306 -16 -76 -7 -302 14 -361 15 -40 15 -49 1 -88 -21 -65 -14 -214
14 -269 22 -42 65 -83 87 -83 6 0 20 -28 29 -62 38 -135 135 -282 231 -348 65
-45 179 -79 275 -83 14 -1 57 9 95 20 179 56 331 201 370 354 37 146 32 136
62 132 45 -6 91 30 121 95 22 48 26 70 26 142 -1 87 -14 130 -39 130 -18 0
-18 0 0 37 35 69 45 341 16 416 -10 26 -9 28 8 22 45 -14 27 21 -51 99 -46 45
-100 109 -122 140 -28 42 -58 71 -112 106 -86 56 -138 75 -250 90 -45 6 -96
15 -115 20 -47 14 -69 12 -75 -5z m167 -30 c122 -18 158 -29 219 -63 75 -43
120 -84 163 -147 23 -33 69 -87 104 -119 35 -33 60 -62 55 -65 -15 -10 -19
-35 -11 -66 18 -60 21 -144 10 -254 -10 -92 -18 -125 -43 -177 -21 -43 -37
-64 -49 -64 -9 0 -20 -6 -22 -12 -3 -7 -6 32 -6 87 -1 77 -5 106 -19 126 -9
15 -39 58 -65 98 -36 53 -48 79 -47 103 5 82 2 89 -27 82 -16 -4 -38 -18 -50
-33 -12 -14 -22 -20 -23 -13 0 9 -7 11 -19 7 -11 -3 -22 -1 -26 5 -3 5 -18 10
-32 10 -15 0 -35 7 -45 17 -15 13 -23 14 -43 5 -15 -7 -27 -8 -30 -2 -10 17
-51 11 -80 -11 -22 -18 -29 -20 -36 -8 -8 11 -14 9 -34 -14 -17 -19 -25 -23
-25 -13 0 22 -9 20 -29 -6 l-18 -22 -7 38 c-5 28 -11 36 -23 32 -8 -3 -28 2
-45 11 -29 18 -30 18 -50 -7 -17 -22 -21 -23 -29 -8 -7 13 -20 16 -60 12 -61
-5 -69 -9 -69 -37 0 -25 -59 -153 -90 -198 -16 -22 -22 -51 -27 -137 l-6 -110
-23 27 c-29 34 -43 21 -15 -15 15 -19 21 -41 21 -75 0 -45 11 -62 24 -41 3 5
10 80 16 166 10 134 14 162 33 189 12 18 38 67 57 108 30 65 40 78 75 92 39
17 40 17 57 -5 18 -23 19 -23 33 -4 8 11 15 23 15 28 0 30 82 -31 94 -70 8
-24 21 -29 31 -11 4 6 14 8 22 5 8 -3 24 6 38 22 14 15 25 21 25 15 0 -22 23
-14 58 20 l33 32 20 -24 c19 -23 20 -23 39 -6 18 16 22 17 38 3 16 -15 65 -28
105 -29 9 0 17 -4 17 -10 0 -18 28 -8 44 16 9 14 24 25 34 25 14 0 16 -8 14
-48 -3 -42 1 -54 37 -107 23 -33 52 -73 64 -88 20 -26 22 -42 25 -163 2 -74 8
-134 12 -134 5 0 13 12 18 28 6 15 11 21 11 15 2 -27 30 -11 41 22 8 23 18 35
30 35 20 0 30 -27 29 -80 l-1 -35 -10 28 c-11 31 -33 37 -25 7 3 -11 1 -20 -4
-20 -5 0 -9 -11 -9 -24 0 -35 -16 -72 -34 -79 -13 -5 -15 2 -13 41 1 26 -2 49
-8 52 -10 5 -13 -14 -19 -110 -4 -78 -4 -80 -20 -80 -10 0 -21 -30 -36 -97
-27 -121 -63 -184 -152 -268 -173 -164 -394 -188 -581 -63 -87 59 -172 194
-215 341 -15 52 -21 61 -52 73 -41 17 -71 54 -43 54 18 0 53 28 53 42 0 13
-30 9 -30 -4 0 -8 -7 -5 -15 6 -19 25 -19 79 0 130 15 42 10 62 -21 87 -16 13
-17 12 -10 -6 17 -42 17 -54 3 -96 l-15 -43 -7 42 c-9 55 2 120 23 131 14 8
15 13 4 31 -41 66 -56 302 -27 415 9 32 28 81 43 109 32 60 120 157 168 187
21 13 33 27 30 35 -3 9 21 23 79 45 58 22 82 36 78 45 -3 8 -4 14 -2 15 2 0
54 9 114 19 61 9 110 18 111 19 0 0 47 -6 105 -14z m542 -1123 c-3 -12 -12
-22 -21 -22 -8 0 -20 -7 -27 -17 -7 -9 -17 -13 -23 -10 -11 8 33 60 58 69 20
7 20 6 13 -20z m-1249 -32 l7 -25 -15 25 c-9 14 -15 32 -15 40 0 13 1 13 8 0
5 -8 12 -26 15 -40z m1226 -29 c-15 -28 -60 -61 -83 -61 -19 0 -19 1 -4 18 10
10 17 24 17 32 0 10 3 10 16 0 13 -11 19 -10 37 8 26 27 31 28 17 3z"/>
<path d="M2092 4742 c-18 -15 -32 -29 -32 -32 0 -3 59 -5 130 -5 109 0 130 2
128 15 -4 17 -60 34 -138 44 -50 5 -58 4 -88 -22z"/>
<path d="M2635 4751 c-94 -38 -87 -51 28 -50 50 0 109 -2 130 -6 23 -5 37 -3
37 3 0 23 -99 74 -139 71 -9 -1 -34 -8 -56 -18z"/>
<path d="M2148 4633 c-37 -15 -55 -41 -20 -29 11 4 9 0 -5 -10 -32 -23 -29
-35 10 -34 17 0 69 -2 115 -3 57 -3 82 0 82 8 0 17 -51 62 -83 74 -37 14 -54
13 -99 -6z m42 -38 c0 -8 -4 -15 -10 -15 -5 0 -10 7 -10 15 0 8 5 15 10 15 6
0 10 -7 10 -15z m90 -5 c0 -5 -7 -10 -16 -10 -8 0 -12 5 -9 10 3 6 10 10 16
10 5 0 9 -4 9 -10z"/>
<path d="M2632 4633 c-29 -14 -82 -69 -82 -85 0 -3 42 -3 93 -1 50 3 107 6
125 7 30 1 48 26 20 26 -10 0 -10 2 0 9 19 11 -6 29 -64 47 -57 17 -52 17 -92
-3z m-3 -62 c-15 -5 -22 6 -14 19 6 9 10 9 16 -1 5 -8 4 -15 -2 -18z m101 14
c-7 -8 -16 -15 -21 -15 -5 0 -9 7 -9 15 0 9 9 15 21 15 18 0 19 -2 9 -15z"/>
<path d="M2367 4513 c-6 -58 -13 -76 -52 -133 -53 -77 -60 -128 -23 -154 25
-18 48 -21 48 -7 0 5 -11 12 -25 15 -24 6 -31 24 -25 66 1 8 19 40 40 71 39
56 59 116 60 177 0 59 -17 33 -23 -35z"/>
<path d="M2530 4355 c0 -2 11 -21 25 -41 36 -53 19 -99 -33 -91 -12 3 -25 0
-28 -4 -8 -14 70 -11 84 3 19 19 14 69 -10 105 -20 29 -38 42 -38 28z"/>
<path d="M2317 4263 c-13 -13 -7 -21 12 -16 11 3 28 -4 40 -16 24 -24 73 -28
91 -6 7 8 25 15 41 15 16 0 29 5 29 10 0 15 -56 12 -69 -4 -21 -25 -50 -26
-78 0 -25 23 -53 31 -66 17z"/>
<path d="M2278 4103 c-54 -5 -61 -20 -26 -52 24 -23 105 -57 114 -48 4 3 -11
13 -32 22 -22 8 -45 24 -51 34 -11 17 -8 20 26 29 25 6 45 6 56 0 9 -6 41 -7
70 -3 52 6 135 -9 135 -25 0 -7 -41 -29 -80 -43 -8 -3 -1 -6 16 -6 36 -1 124
44 124 64 0 18 -129 33 -217 25 -10 -1 -34 0 -53 3 -19 2 -56 2 -82 0z"/>
<path d="M2320 4062 c0 -15 38 -22 127 -22 47 0 85 5 88 11 5 7 -21 9 -82 7
-48 -1 -98 1 -110 6 -13 4 -23 3 -23 -2z"/>
<path d="M3965 4216 c-27 -12 -67 -40 -87 -62 -35 -35 -38 -43 -38 -97 0 -42
-5 -66 -19 -83 -17 -22 -18 -28 -4 -86 8 -35 23 -72 33 -83 25 -28 60 -100 60
-126 0 -61 -59 -132 -126 -153 -109 -33 -298 -107 -316 -122 -53 -49 -98 -167
-109 -289 -12 -139 -37 -324 -57 -425 -13 -65 -16 -132 -14 -286 2 -224 10
-189 -71 -308 -13 -19 -32 -71 -41 -116 -26 -118 -1 -132 61 -34 10 15 12 0
10 -83 -1 -70 2 -106 11 -114 15 -16 32 -1 49 44 l11 32 1 -43 c2 -74 32 -107
51 -56 8 21 13 24 25 14 20 -17 33 -5 41 36 5 26 9 32 15 22 8 -10 13 -9 25 7
25 32 14 252 -16 323 -19 45 -22 64 -17 125 3 40 18 110 32 157 18 56 30 125
35 203 8 98 15 131 44 205 19 48 41 119 48 157 l12 70 8 -50 c5 -27 17 -86 28
-130 11 -44 29 -135 41 -202 l21 -123 -36 -92 c-68 -179 -71 -199 -70 -458 0
-274 14 -383 75 -585 21 -71 39 -141 39 -156 0 -15 -14 -85 -32 -156 -46 -186
-43 -247 17 -438 70 -220 75 -243 75 -325 0 -86 -9 -107 -78 -188 -96 -111
-90 -124 54 -130 89 -4 95 -3 131 24 53 39 63 53 63 92 0 18 4 41 9 50 4 10 4
98 -1 202 -8 169 -7 196 13 309 21 118 21 133 9 265 -7 81 -9 158 -5 181 5 22
7 94 6 161 -1 87 4 149 19 225 11 57 25 167 30 244 5 77 10 141 10 142 0 1 9
7 20 13 13 7 26 7 38 1 16 -9 20 -28 26 -135 3 -68 18 -186 32 -261 22 -119
24 -148 16 -219 -7 -64 -6 -92 6 -135 13 -46 14 -70 4 -161 -16 -142 -15 -231
4 -315 10 -44 15 -110 13 -175 -3 -177 0 -332 7 -388 6 -49 11 -57 53 -88 44
-33 49 -34 131 -33 149 2 161 20 74 120 -83 96 -87 105 -82 223 4 89 11 120
58 261 52 154 54 164 54 270 0 92 -5 130 -32 235 l-32 126 21 74 c11 41 31
110 44 153 31 97 52 257 60 462 9 210 -4 304 -61 474 -35 101 -45 143 -41 170
4 20 11 68 17 106 6 39 22 116 35 171 14 56 25 120 25 143 0 60 17 42 25 -27
4 -31 22 -93 40 -137 33 -81 55 -187 55 -267 0 -24 13 -89 29 -146 43 -148 49
-227 22 -279 -34 -68 -48 -305 -19 -340 8 -10 14 -10 24 -2 11 9 14 6 14 -14
0 -36 10 -57 26 -57 8 0 17 7 21 16 4 12 9 8 20 -17 12 -30 15 -31 29 -17 9 9
19 40 24 69 5 37 8 44 9 22 1 -40 27 -69 47 -52 10 8 14 39 14 113 l1 101 22
-37 c24 -41 37 -50 56 -39 9 6 7 28 -8 90 -14 64 -30 98 -67 152 l-47 69 2
198 c1 145 -2 219 -14 279 -22 115 -55 378 -55 439 0 64 -30 162 -70 231 -36
63 -53 72 -255 144 -82 29 -158 59 -169 68 -26 23 -56 85 -56 119 0 32 36 112
57 127 14 11 43 104 43 143 0 12 -7 25 -15 28 -11 5 -15 23 -15 74 0 67 0 68
-46 109 -63 59 -115 81 -194 81 -47 0 -79 -7 -115 -24z m-96 -344 c18 -61 31
-83 75 -128 l52 -54 82 0 82 0 45 41 c25 23 45 47 45 54 0 6 9 20 19 29 11 10
25 41 31 69 15 62 29 93 29 62 0 -35 -24 -113 -41 -132 -36 -41 -60 -106 -55
-148 4 -42 58 -135 78 -135 10 0 139 -46 274 -98 41 -15 83 -40 101 -58 50
-52 84 -150 95 -278 12 -144 36 -331 55 -426 10 -53 14 -133 13 -270 -2 -212
-3 -210 61 -295 25 -34 77 -191 66 -202 -2 -2 -17 19 -34 47 -17 27 -36 50
-42 50 -6 0 -10 -44 -10 -121 0 -121 -12 -152 -23 -60 -3 28 -11 61 -18 73
-12 22 -12 22 -20 3 -4 -11 -8 -47 -8 -80 -2 -93 -20 -106 -22 -15 -2 93 -2
94 -14 98 -5 2 -15 -30 -21 -70 -7 -40 -13 -75 -15 -78 -1 -3 -5 32 -8 78 -3
45 -10 83 -15 85 -6 1 -15 -20 -21 -48 l-11 -50 -7 42 c-11 64 10 239 35 286
26 52 21 125 -21 282 -16 60 -34 160 -39 220 -8 88 -16 123 -41 179 -17 37
-34 87 -37 110 -9 60 -35 156 -44 156 -10 0 -30 -71 -30 -106 0 -17 -7 -54
-15 -84 -26 -95 -67 -334 -62 -365 3 -16 23 -82 46 -145 56 -160 66 -252 52
-511 -12 -222 -27 -315 -86 -507 l-37 -123 33 -127 c29 -109 34 -142 33 -237
-1 -105 -4 -117 -58 -283 -51 -158 -56 -181 -56 -263 0 -101 15 -142 70 -194
40 -38 73 -92 65 -105 -3 -6 -46 -10 -96 -10 -83 0 -94 2 -129 28 -34 24 -39
33 -44 77 -7 60 -10 243 -6 380 2 69 -3 125 -15 179 -15 67 -17 100 -10 205 5
69 8 158 7 196 -1 39 -4 135 -5 215 -2 95 -11 181 -25 250 -11 58 -24 158 -28
223 l-6 117 53 0 c52 0 139 32 139 51 0 13 -5 12 -47 -11 -42 -22 -112 -26
-162 -9 -29 10 -31 14 -31 60 0 27 -4 49 -10 49 -5 0 -10 -22 -10 -49 0 -46
-2 -50 -31 -60 -49 -17 -116 -13 -159 9 -44 23 -50 24 -50 11 0 -19 87 -51
136 -51 l49 0 -6 -132 c-4 -73 -16 -181 -28 -240 -15 -75 -21 -143 -21 -230 0
-67 -1 -161 -1 -208 -1 -47 0 -143 2 -215 3 -97 -1 -149 -13 -205 -14 -63 -16
-108 -12 -260 7 -213 7 -199 -2 -268 -6 -45 -12 -57 -44 -82 -35 -28 -44 -30
-123 -30 -106 0 -121 5 -106 32 6 12 28 39 49 62 79 86 90 111 90 198 0 87
-12 143 -66 303 -70 210 -73 289 -19 493 14 51 25 109 25 127 0 18 -18 93 -40
167 -52 171 -69 286 -76 533 -8 234 3 308 67 487 l39 111 -21 131 c-11 72 -29
158 -39 191 -10 33 -21 90 -25 127 -4 37 -13 75 -20 85 -11 15 -15 12 -28 -34
-9 -29 -19 -74 -23 -100 -3 -26 -19 -75 -34 -109 -31 -69 -50 -163 -50 -246 0
-34 -12 -95 -30 -154 -17 -55 -34 -134 -37 -176 -5 -66 -3 -85 16 -128 17 -40
24 -79 28 -177 5 -94 3 -124 -5 -119 -7 4 -12 18 -12 31 0 32 -10 56 -21 49
-5 -3 -9 -38 -9 -79 0 -94 -16 -106 -25 -18 -8 82 -12 96 -25 88 -5 -3 -10
-44 -10 -91 0 -49 -4 -84 -10 -84 -5 0 -10 21 -11 48 0 64 -12 123 -24 123
-10 1 -17 -25 -30 -105 -13 -78 -24 -13 -18 104 l6 115 -23 -20 c-12 -11 -31
-37 -42 -58 -11 -22 -22 -37 -24 -34 -3 2 3 38 12 78 12 56 28 92 66 149 l50
75 -6 165 c-4 93 -2 191 3 225 37 226 53 349 66 480 13 142 16 153 55 233 48
96 37 89 275 173 150 54 174 69 205 134 33 67 26 95 -46 205 -13 19 -26 59
-30 90 -9 74 7 56 35 -38z"/>
<path d="M785 4202 c-33 -16 -74 -45 -92 -63 -27 -29 -32 -44 -38 -107 -4 -39
-11 -75 -16 -78 -5 -3 -9 -18 -9 -33 0 -36 28 -131 39 -131 5 0 21 -25 36 -56
32 -65 29 -102 -14 -160 -24 -34 -42 -45 -132 -78 -250 -92 -256 -95 -288
-145 -43 -67 -81 -188 -81 -258 0 -63 -29 -302 -55 -453 -13 -71 -16 -140 -13
-275 l3 -181 -47 -69 c-37 -55 -50 -87 -63 -148 -8 -43 -13 -82 -10 -88 12
-18 30 -8 52 29 l22 37 1 -96 c0 -73 4 -100 15 -109 22 -18 45 4 46 44 1 32 3
27 13 -34 9 -52 21 -67 40 -51 9 8 16 23 17 35 0 20 1 20 10 -2 13 -34 32 -22
45 29 7 27 13 38 17 29 5 -13 8 -12 22 5 24 28 16 239 -11 305 -29 70 -24 193
11 305 16 54 29 119 31 163 4 101 20 176 53 257 16 39 32 95 35 125 10 84 22
91 30 17 3 -36 12 -85 20 -109 7 -24 23 -108 36 -185 l24 -142 -42 -123 c-60
-181 -66 -226 -59 -492 7 -260 17 -329 76 -537 l41 -146 -30 -124 c-17 -68
-33 -160 -36 -204 -6 -86 6 -143 81 -383 29 -93 35 -129 35 -201 0 -96 -5
-108 -97 -221 -24 -28 -43 -58 -43 -66 0 -24 37 -34 126 -34 85 0 88 1 129 35
54 44 57 59 56 352 -1 161 3 241 14 293 18 85 19 177 4 320 -10 90 -10 112 4
158 14 44 14 66 5 136 -9 72 -7 96 11 192 19 95 40 296 41 391 0 34 24 50 59
38 17 -5 20 -20 25 -123 4 -64 16 -173 28 -242 13 -75 23 -181 25 -265 1 -77
4 -169 5 -205 0 -36 -2 -121 -7 -190 -6 -100 -4 -141 9 -205 12 -61 16 -133
16 -300 -1 -293 1 -306 55 -350 41 -34 44 -35 132 -35 142 0 153 22 63 124
-72 83 -80 102 -80 200 0 73 7 106 49 243 85 275 87 314 31 542 l-30 123 45
162 c58 210 65 258 72 523 7 262 -1 326 -59 492 -29 83 -39 124 -35 150 25
174 40 257 52 292 9 23 18 73 22 111 7 78 19 73 29 -12 3 -30 19 -86 35 -125
33 -81 49 -156 53 -257 2 -44 15 -109 31 -163 35 -111 40 -235 12 -303 -12
-29 -19 -84 -23 -165 -5 -105 -4 -125 11 -142 13 -17 17 -18 22 -5 4 9 10 -2
17 -29 12 -49 34 -65 43 -31 6 21 7 20 19 -9 7 -17 17 -31 23 -31 12 0 31 55
32 99 l2 36 6 -39 c7 -45 36 -70 51 -46 5 8 10 58 10 110 l1 95 22 -37 c12
-21 30 -38 40 -38 21 0 21 2 1 98 -12 60 -25 92 -62 147 l-47 69 3 186 c3 141
0 207 -12 272 -22 117 -56 392 -56 454 0 66 -33 174 -73 243 -36 60 -45 65
-266 146 -119 44 -137 54 -161 87 -43 59 -47 100 -13 164 15 30 31 54 35 54
10 0 38 97 38 131 0 15 -4 30 -9 33 -5 4 -12 39 -16 80 -7 68 -10 77 -44 109
-52 51 -116 80 -180 85 -46 2 -67 -2 -116 -26z m274 -185 c17 -43 31 -87 31
-97 0 -33 17 -31 24 2 4 20 10 28 15 22 15 -14 -12 -114 -43 -158 -14 -21 -26
-44 -26 -51 0 -7 -25 -38 -56 -69 l-56 -56 -55 4 c-45 4 -63 12 -100 42 -26
21 -53 51 -62 67 -9 16 -27 46 -40 66 -26 39 -53 139 -43 156 3 5 11 -10 18
-35 11 -40 12 -41 13 -15 2 55 12 70 68 108 42 27 67 37 97 37 59 1 125 18
154 41 14 10 26 18 27 17 2 -2 17 -38 34 -81z m-163 -417 c59 0 67 3 104 36
36 33 40 34 40 15 0 -22 28 -81 53 -114 8 -9 45 -28 83 -42 225 -79 287 -108
313 -144 50 -70 72 -141 81 -261 5 -63 23 -212 41 -330 28 -194 30 -232 26
-385 -5 -187 -3 -196 63 -287 27 -36 70 -182 58 -194 -3 -2 -20 19 -39 48
l-34 53 -3 -122 c-1 -68 -6 -123 -10 -123 -4 0 -13 30 -19 66 -19 108 -32 103
-40 -16 -6 -86 -23 -121 -23 -47 0 64 -11 137 -21 137 -5 0 -9 -13 -9 -29 0
-50 -12 -121 -21 -121 -5 0 -9 36 -9 79 0 44 -4 82 -9 85 -10 6 -21 -26 -21
-61 0 -12 -5 -25 -12 -29 -8 -5 -10 26 -5 123 4 104 10 141 28 182 18 44 21
61 15 122 -4 39 -21 117 -37 175 -16 57 -29 126 -29 152 -1 81 -20 184 -44
238 -13 29 -27 67 -30 85 -35 183 -54 217 -69 123 -4 -27 -14 -80 -22 -119 -8
-38 -26 -136 -41 -218 l-26 -147 36 -103 c68 -194 70 -211 69 -442 -1 -254
-19 -393 -73 -582 -22 -76 -40 -152 -40 -170 0 -17 14 -87 30 -155 48 -197 43
-254 -46 -533 -40 -123 -55 -257 -35 -316 6 -20 34 -62 62 -95 52 -60 76 -100
67 -109 -2 -3 -43 -7 -91 -9 -82 -4 -88 -3 -125 25 -51 38 -55 63 -54 337 1
153 -3 234 -13 284 -17 81 -19 229 -5 346 9 67 8 95 -4 140 -10 41 -12 81 -8
137 8 89 4 134 -27 308 -12 69 -21 162 -21 221 l0 102 -32 16 c-29 13 -35 13
-60 -1 -28 -16 -28 -17 -28 -118 0 -64 -10 -157 -26 -250 -19 -114 -25 -176
-23 -268 1 -71 -2 -138 -10 -164 -9 -32 -9 -63 -1 -118 14 -106 12 -270 -5
-351 -10 -50 -14 -131 -13 -284 1 -274 -3 -301 -53 -338 -37 -26 -44 -28 -120
-24 -83 4 -99 8 -99 24 0 4 25 39 56 77 84 102 87 111 81 222 -4 79 -14 125
-57 261 -71 223 -75 293 -30 475 37 153 37 176 -12 340 -52 174 -69 314 -70
567 -1 235 8 291 74 463 l31 80 -26 150 c-15 82 -34 182 -42 220 -7 39 -18 92
-22 119 -4 27 -13 51 -19 53 -11 4 -44 -115 -44 -157 0 -12 -13 -52 -30 -90
-30 -69 -49 -166 -50 -253 0 -26 -13 -96 -30 -155 -16 -59 -32 -139 -36 -177
-6 -61 -3 -77 15 -114 19 -36 23 -65 27 -184 4 -102 3 -138 -5 -127 -6 8 -11
25 -11 37 0 28 -10 53 -21 53 -5 0 -9 -36 -9 -80 0 -44 -4 -80 -9 -80 -9 0
-21 71 -21 121 0 16 -4 29 -9 29 -5 0 -13 -40 -17 -90 -3 -49 -10 -88 -14 -85
-4 3 -9 41 -12 85 -7 118 -22 124 -41 16 -6 -36 -15 -66 -19 -66 -4 0 -9 55
-10 123 l-3 122 -34 -53 c-19 -29 -36 -50 -39 -48 -2 3 3 38 12 79 12 52 28
92 54 128 59 86 60 88 55 274 -4 153 -1 192 27 385 17 118 35 265 40 325 9
117 30 189 75 257 31 47 48 55 304 147 46 17 90 38 97 48 28 35 54 93 54 118
0 27 0 27 46 -14 44 -39 50 -41 110 -41z"/>
<path d="M841 2991 c-18 -43 -25 -49 -58 -55 -70 -13 -114 -27 -109 -35 4 -6
85 8 143 25 17 4 65 102 54 108 -5 3 -18 -16 -30 -43z"/>
<path d="M946 3008 c24 -81 28 -84 104 -102 84 -19 90 -19 90 -7 0 5 -17 12
-37 15 -100 18 -111 24 -132 71 -21 47 -37 61 -25 23z"/>
<path d="M1538 2740 c-27 -8 -48 -19 -48 -23 0 -11 56 1 89 18 37 19 11 22
-41 5z"/>
<path d="M210 2723 c0 -11 44 -33 65 -33 23 0 17 17 -7 23 -13 2 -31 8 -40 12
-10 4 -18 3 -18 -2z"/>
</g>
</svg>
