<?xml version="1.0" encoding="utf-8"?>
<!-- Generator: Adobe Illustrator 23.0.2, SVG Export Plug-In . SVG Version: 6.00 Build 0)  -->
<svg version="1.1" id="图层_1" xmlns="http://www.w3.org/2000/svg" xmlns:xlink="http://www.w3.org/1999/xlink" x="0px" y="0px"
	 viewBox="0 0 595.28 841.89" style="enable-background:new 0 0 595.28 841.89;" xml:space="preserve">
<style type="text/css">
	.st0{fill:none;stroke:#000000;stroke-width:2;stroke-linecap:round;stroke-linejoin:round;stroke-miterlimit:10;}
	.st1{fill:none;stroke:#000000;stroke-width:2;stroke-linecap:round;stroke-linejoin:round;}
	.st2{fill:none;stroke:#000000;stroke-width:2;stroke-linecap:round;stroke-linejoin:round;stroke-dasharray:3.9965,3.9965;}
	
		.st3{fill:none;stroke:#000000;stroke-width:2;stroke-linecap:round;stroke-linejoin:round;stroke-miterlimit:10;stroke-dasharray:4,4;}
</style>
<path class="st0" d="M245,37.39c0,0,5.5,42.5-97,83.5c0,0-57,17.5-69.5,49s-13,28-15.5,47s-2.5,40,0,49s1,14.5,1,14.5"/>
<path class="st0" d="M371,40.39c0,0,10.5,47,27.5,49c0,0,37,13.5,44.5,22s78.5,49,81,53.5s35.5,44.5,28.5,92.5s-10.5,49.5-10.5,49.5
	"/>
<path class="st0" d="M481.33,247.89c0,0-17.33,40.67-22.67,106.67c-5.33,66-23.33,116.67-19.33,150.67s19.43,104,20.71,151.33
	c1.29,47.33,10.71,75.33,0,146.67"/>
<path class="st0" d="M135,255.89c0,0,19.18,119,18.09,152s16.91,61,9.91,91c0,0-1.88,30-13.19,58.5s-14.31,125.5-18.81,140
	s-1.5,85,0,94"/>
<path class="st0" d="M177.5,772.39c0,0,113.78,24.5,120.14-33.5c0,0,6.86,47.78,108.36,38.64"/>
<g>
	<g>
		<line class="st1" x1="364" y1="75.89" x2="363.98" y2="77.89"/>
		<polyline class="st2" points="363.94,81.89 358.67,621.22 355.42,767.23 		"/>
		<line class="st1" x1="355.38" y1="769.22" x2="355.33" y2="771.22"/>
	</g>
</g>
<polyline class="st3" points="306.67,66.56 306.04,129.56 301.33,606.56 "/>
<path class="st3" d="M201.67,169.22c-37.67-18-31.33-20.67-31.33-20.67c-1,0.33-49.33-20-54-3.67c-4.67,16.33,55.33,3.67,62,5.33
	c6.67,1.67,23.33,12,28.67,15.67s17.67,9,33.67,0c0,0,6-0.33,2.67,20c-3.33,20.33,0.33,35-1,43c-1.33,8-16,47.33-25.33,51.5
	c-9.33,4.17-14,2.17-33.33-25.83c0,0-5.67-21-11.67-25.67s-18.82-17-18.91-45.67c0,0-2.42-19.67-13.42-27c0,0,26.33,29,28,34.67
	c1.67,5.67-4.58,10.33,12.54,31c0,0,3.46,6,4.46,9.33c1,3.33,11.02-10.6,1.67-12c0,0-29-5-36.67-14.67
	c-7.67-9.67-7-27.83-6.33-30.92c0.67-3.08-11.52-21.42-27.26-9.42c0,0,6.26,3-14.07,3.33c0,0-5.67-1-7,31.67c0,0,8,10,7,40
	s0.33,29,0.33,29"/>
<path class="st3" d="M130.67,202.22c-2.67-1-1.67-17.33-9-20.33c0,0-5.33,0-4,4"/>
<path class="st3" d="M149.67,204.56c0,0-27.09,4-21.04,67"/>
<path class="st3" d="M306.04,129.56c0,0-8.71-28.67-32.71-26c0,0-7.9-2.33-28.28,16.33c0,0-10.72,7.33-33.05,2"/>
<path class="st3" d="M306.04,152.89c0,0-6.1-1.33-8.41-19.33c0,0,1.7-4.51-20.3-17.09c0,0-6.33-12.67-34.67,18.21
	c0,0-1.18,0.36-3.66,0.65c-0.77,0.09-1.66,0.17-2.68,0.23c-4.95,0.28-12.93,0.07-24.33-2.16"/>
<path class="st3" d="M245.05,129.56c0,0-15.22,13.33-19.97,13.5c-4.75,0.17,5.75,7,5.75,7s32-20.5,39-19.67c0,0-1.33-10.33,0-10.33
	c1.33,0,17.33,2,23.83,10.33s5.08,9.52,5.08,9.52"/>
<path class="st3" d="M269.5,131.22c0,0,11.17-5,21.17,9.5s7.17,22.5,10.67,24.67s4.35,0.84,4.35,0.84"/>
<path class="st3" d="M230.33,151.06c0,0,3.67,12.67,15.67,1.83s24.33-10.17,27.5-15.83c0,0,11.15-1.43,15.83,3.83"/>
<path class="st3" d="M301.33,165.39c0,0-5.17,0.17-17.33-15.33c0,0-10.5-8.33-32.5,7.67l-9.32,8.91"/>
<path class="st3" d="M245.05,173.56c0,0,34.18-29.67,47.28-6c0,0,6.09,23.84,13.05,29.34"/>
<path class="st3" d="M243.54,184.59c0,0,34.8-27.03,42.13-10.36c0,0,3.31,8.41-11.27,12.07c-1.45,0.36-3.07,0.68-4.89,0.93
	c-20.17,2.83-27.32,15-27.32,15"/>
<path class="st3" d="M276.34,185.74c0,0-4.5,7.82,0,11.82c0,0-33.48,6.64-34.33,12.73"/>
<path class="st3" d="M276.34,197.56c0,0,17.84,4.67,0,16c0,0-2.79-0.28-6.84,0.03c-8.12,0.63-21.31,3.64-27.32,16.11
	c0,0-3.18,11.02,19.49-3.31c0,0,3.5-1.83,12.17-3.17c0,0,1.17-7.5-5-8.67"/>
<path class="st3" d="M273.83,223.22c0,0,7.67,3.33,15.5-5c7.83-8.33,15.83,0.5,15.77,6.67"/>
<path class="st3" d="M282.53,182.68c0,0-3.03,3.71,13.22,11.96c0,0,4.03,0.8,1.89,15.65l0.63,4.53"/>
<path class="st3" d="M178.47,239.4c0,0,3.03,3.49-7.72,28.49s-2.5,29-2.5,29s2.29-4.65,5.5-10.39c5.44-9.71,13.51-22.53,17.55-21.21
	"/>
<path class="st3" d="M202.56,278.32c0,0-20.63,3.17-28.06,10.32c-7.44,7.15-15.3,18.25-9.27,44l1.27,5.25c0,0,11.5-9,8.75-23
	s25.25-31.18,36.5-32.84c11.25-1.66,37.75-9.16,42.75-11.66s42.53-15.25,43.76,17.25c0,0,3.99,15.5,5.74,9.25"/>
<path class="st3" d="M234.03,252.9c0,0,23.25-19.01,50.23-16.01c0,0,12.52-4.15-5.03-13.1"/>
<path class="st3" d="M289.33,218.22c0,0,7.69,9.42,8.3,17.17s5.07,16,7.47,19.25"/>
<path class="st3" d="M224.8,271.56c0,0,30.21-21.17,46.95-20.17v-14.42"/>
<path class="st3" d="M271.75,251.39c0,0,11.43-5.83,15.84,16.84"/>
<path class="st3" d="M304.58,277.39c0,0-4.33,3-7.37-17.92c-3.03-20.92-12.95-22.58-12.95-22.58"/>
<path class="st3" d="M172.99,329.76c0,0,34.29-45.04,56.39-51.59"/>
<path class="st3" d="M166.5,337.89c0,0-6.38,8.67-1.27,31.33c0,0,7.75-5.33,7.76-19c0,0,0.34-13,26.01-34.67c0,0,28-29,52.33-31.33
	c24.33-2.33,28.98-6.67,34.66,2c5.68,8.67-1.72,7-1.72,7"/>
<path class="st3" d="M273.83,265.88c0,0-0.32,10.92-2.08,15.63"/>
<path class="st3" d="M303.81,355.57c-8.52-7.32-9.39-20.68-9.39-20.68c6.76-31.67-2.09-35.33-10.16-43.33
	c-3.78-3.75-17.08,0.92-30.14,6.94c-14.81,6.83-29.32,15.39-29.32,15.39c-36.53,17.33-44.47,36-44.47,36
	c-3.33,13-15.11,19.33-15.11,19.33s0.45,31,4.45,42.67c4,11.67-2.34,20.33,6.66,32.67s8.33,17.33,8.33,17.33s1.67,5,4.67,0
	s13.68-81.33,90.34-97.67c0,0-13.67-9-10.01-11.67c3.67-2.67,16.85-1.33,17.92-0.33s10.35,13.55,10.05,24.94
	c0,0,4.09,9.74,5.89,7.07"/>
<path class="st3" d="M259.17,296.25c0,0,7.83,5.64,10.16,5.61c2.33-0.03,8.33-4.97,8.33-4.97c20,6.33-3.83,15.33-3.83,15.33
	c-38.17,0-101.54,44.73-98.83,72c2.71,27.27-4.14,32.74-4.14,32.74s19.19-82.24,111.17-91.82"/>
<path class="st3" d="M279.67,309.42c0,0,5.28,1.47,2.64,13.13c-2.64,11.67,13.47,5.07,13.47,5.07"/>
<path class="st3" d="M180.8,451.34c0,0-5.2-48.65,32.54-84.12s75.46-35.33,74.39-16.67"/>
<path class="st3" d="M275.22,326c0,0,1.78,6.22-1.38,10.56"/>
<path class="st3" d="M183.74,418.91c0,0,3.88,12.98,7.57-3.35c0,0,11.69-29,60.02-55.33c0,0,9.35-6.11,18.33-7.67"/>
<path class="st3" d="M278.65,351c0,0-5.36,11.15,2.91,13.71c1.18,0.37,2.64,0.56,4.43,0.52c0,0,1.03,8.16-4.29,14.52
	c-1.22,1.46-2.78,2.82-4.76,3.98c-1.17,0.68-12.9-3.04-51.25,31.83c0,0-10.69,20-9.02,26.33c1.67,6.33,22.56-23.67,31.61-29
	c9.06-5.33,23.17-20.86,23.72-24.71c0,0-6.99,20.38,7.67,10.55c0,0,0.43-0.69,0.98-1.84c1.53-3.17,4.03-9.87,1.34-15.49
	c0,0,1,11.83,10.67,9.33c0,0,8.17-3.5,1.33,11.67c0,0,8.12,9,9.31,4"/>
<path class="st3" d="M280.18,397.81c0,0,5.82,3.58,3.48,12.41c0,0,5.5,4.83,11,8.67c0,0-3.47,15.17,8.35,17.34"/>
<path class="st3" d="M281.83,410.06c0,0-1.5,7.17,1.83,12.17c0,0-6.67,2.83-18.17,2.83s2.33,20.33,9.08,12s15.08,10.74-0.08,14.28
	c-15.17,3.55-14.17,16.49,4.33,12.77"/>
<path class="st3" d="M278.83,458.06c-2.33-2.17,7.32,7.17,6.83,15.83c0,0-6.99,3-9.49,7s-12.5-0.5-13.67,0s-10.33,13.33,9.17,12.67
	c0,0,9.5,2.83,2.67-9c0,0,1.99,11.17,11.33,10.67s-6.83,21-20.16,16.67c-13.33-4.33-14.5,5.5-4.41,14.5s26.41-1.67,25.41,2.83
	s-17.5,14.17-26.17,14.17c-8.67,0-5.01,20.67,11.08,14.33c16.09-6.33,12.92-1,13.59-6.17c0,0-3.33,2.67-7.17,13.33
	c0,0-2.68,7.83-6.42,6.33c-3.74-1.5,7.76,12.17,16.34,2.83c8.58-9.33,13.58-6,13.58-6"/>
<path class="st3" d="M277.86,434.99c0,0-0.69-6.9,9.89,0c10.58,6.9,7.42,5.07,7.58,19.4c0,0,6.61,7.37,7.47,3.35"/>
<path class="st3" d="M285.66,473.89c0,0,2.67,9.83,8.67,4.5v-11.67c0,0-0.39,21.17,8.47,17.33"/>
<path class="st3" d="M302.46,492.23c0,0-17.54,12.33,0,30.5"/>
<path class="st3" d="M301.93,545.73c0,0-21.01,6.22-21.97-9.97"/>
<path class="st3" d="M281.81,340.28c0,0,3.87-3.89,13.02-2.39"/>
<path class="st3" d="M276.75,594.14c0,0,14.5-0.25,12.25,9.5s-15.5-2.75-20.5-2.25s1.5-28.75-8.5-32.5s-7-25.75-15-31
	s-16.75,1.75-31.25-7.5s-37.51,5.5-49.13,40c0,0-5.12,47.5,30.38,58.25c0,0,18,36-7.75,50.25c0,0-4.75-7.25-13.75-10.25
	s-28,11-21.75,35.25c0,0-2.26,23.5,12.87,33.5s10.13,47.5,10.13,47.5"/>
<path class="st3" d="M193.25,613.89c0,0-31.75-14.5-13.5-55s61.75,0.75,63.5,10.5s1,31,0,32.5"/>
<path class="st3" d="M200.64,659.92c0,0,12.11,24.47,22.86,31.72c0,0,5.25,9.75-2.5,22.25c0,0,6.5-17-10-14.75s-7.25,30.25-7.75,33
	s-3.75,20.75-6,20.75s8.07,11.04,6.66,23.4"/>
<path class="st3" d="M166.75,689.64c0,0,13.75-2.75,19.5,11.25s13.55,23.28,15.65,22.52"/>
<path class="st3" d="M221,713.89c0,0,9.5,3.75,9.75,13s15.25,27.75,39.75,14s29.22-33.44,7.36-51.47c0,0-4.86-12.53,9.39-6.03
	c0,0,5,3.5,7,11.75"/>
<path class="st3" d="M298,727.14c0,0,3-8.7-6.25-13.48"/>
<path class="st3" d="M291.75,626.14c0,0-11,3.75-9.75-6s7.24,2.25,7.24,2.25L291.75,626.14z"/>
<path class="st3" d="M268.5,601.39h-10.88l-1.13,16c0,0,5.5,2,8-5.75s4,2.25,4,3.5s11,40,17.25,37.25s16.28,2.3,1.08-12
	c-15.2-14.3-8.96-5-8.96-5"/>
<path class="st3" d="M285.66,545.33c0,0,12.84,5.56,10.34-12.19s5.93-13.5,5.93-13.5s-4.38-11.83-20.03-12.17"/>
</svg>
