<?xml version="1.0" encoding="UTF-8" standalone="no"?>
<!-- Generator: Adobe Illustrator 23.0.2, SVG Export Plug-In . SVG Version: 6.00 Build 0)  -->

<svg
   xmlns:dc="http://purl.org/dc/elements/1.1/"
   xmlns:cc="http://creativecommons.org/ns#"
   xmlns:rdf="http://www.w3.org/1999/02/22-rdf-syntax-ns#"
   xmlns:svg="http://www.w3.org/2000/svg"
   xmlns="http://www.w3.org/2000/svg"
   xmlns:sodipodi="http://sodipodi.sourceforge.net/DTD/sodipodi-0.dtd"
   xmlns:inkscape="http://www.inkscape.org/namespaces/inkscape"
   version="1.1"
   id="图层_1"
   x="0px"
   y="0px"
   viewBox="0 0 595.28 841.89"
   style="enable-background:new 0 0 595.28 841.89;"
   xml:space="preserve"
   sodipodi:docname="0a27a039956f950f07bc0e7390984d0a_26c5773627f9728f8666c1ae1bcef08a_8.svg"
   inkscape:version="0.92.4 (5da689c313, 2019-01-14)"><metadata
   id="metadata106"><rdf:RDF><cc:Work
       rdf:about=""><dc:format>image/svg+xml</dc:format><dc:type
         rdf:resource="http://purl.org/dc/dcmitype/StillImage" /></cc:Work></rdf:RDF></metadata><defs
   id="defs104" /><sodipodi:namedview
   pagecolor="#ffffff"
   bordercolor="#666666"
   borderopacity="1"
   objecttolerance="10"
   gridtolerance="10"
   guidetolerance="10"
   inkscape:pageopacity="0"
   inkscape:pageshadow="2"
   inkscape:window-width="1920"
   inkscape:window-height="986"
   id="namedview102"
   showgrid="false"
   inkscape:zoom="0.90510635"
   inkscape:cx="256.05562"
   inkscape:cy="401.32203"
   inkscape:window-x="-11"
   inkscape:window-y="-11"
   inkscape:window-maximized="1"
   inkscape:current-layer="图层_1" />
<style
   type="text/css"
   id="style59">
	.st0{fill:none;stroke:#000000;stroke-width:3;stroke-linecap:round;stroke-linejoin:round;stroke-miterlimit:10;}
	.st1{fill:none;stroke:#000000;stroke-width:3;stroke-miterlimit:10;}
	.st2{fill:none;stroke:#000000;stroke-width:6;stroke-linecap:round;stroke-linejoin:round;stroke-miterlimit:10;}
	.st3{fill:#080808;}
	.st4{fill:#2C2C2A;}
	.st5{fill:#252525;}
	.st6{fill:#262625;}
	.st7{fill:#40403E;}
	.st8{fill:#5B5B5B;}
	.st9{fill:#3D3D3B;}
	.st10{fill:#2C2C2B;}
</style>
<path
   class="st0"
   d="M159.5,691.64c0,0,52.59-66.97,11.98-184.62c-0.31-0.89-0.79-1.71-1.43-2.4  c-7.54-8.19-57.88-65.35-74.05-148.99c0,0-12.5-53.5-3.5-94.5c8.98-40.91,81.67-139.55,149.54-135.03c0.3,0.02,0.6,0.02,0.91,0  c6.3-0.48,77.15-5.85,90.05-3.47c0,0,110.75,15.4,126.84,100.14c0.11,0.57,0.29,1.13,0.54,1.65c1.36,2.83,6.15,12.81,10.61,21.8  c0.44,0.88,0.87,1.75,1.3,2.6c1.08,2.17,6.19,11.98,6.88,12.98c3,4.33-2.33,20.17-3.17,26.5s5.83,21.67,16.67,30.17  c10.83,8.5,23.5,25.67,26.5,30.17c2.54,3.81,11.07,12.18,14.22,15.35c0.79,0.8,1.37,1.77,1.69,2.85c1.26,4.18,3.55,15.21-4.41,22.64  c-9.92,9.26-26.72,19.83-11.39,36.58c0.27,0.29,0.56,0.56,0.87,0.8c0.64,0.5,1.78,1.35,2.53,1.72c0.23,0.12,0.43,0.19,0.56,0.19  c0.21,0,0.08-0.3-0.44-0.56c-1.35-0.69-5.35-1.17-12.94,4.44c-2.72,2.01-14.08,13.84-22.38,21c-4.45,3.84-8.31,1.55-8.75,5.5  c-0.46,4.11,14.75-0.5,26.38,4.75c0,0,6.46,4.4,13.95,1.86c2.31-0.79,4.05-2.7,4.56-5.09c0.63-2.98,0.82-7.22-2.27-9.5  c-1.09-0.81-2.45-1.16-3.81-1.15c-5.66,0.03-26.53,0.77-37.06,10.01c0,0,14.22-10.71,30.14-10.08c0.64,0.03,1.28-0.02,1.9-0.18  c3.38-0.87,13.38-4.8,10.46-20.77"
   id="path61" />
<path
   class="st1"
   d="M523.07,462.27c0,0-7.82,4.37-7.32,8.12s-1.75,22,5.5,32.25s-1.3,37-5.52,42.25  c-4.23,5.25-16.23,12.5-50.73,26.75c0,0-26.83,14.17-22.83,58.83c0,0-3.33,16-23.67,35.67c0,0-12.33,21.67-13.67,68  c-1.33,46.33,0,10.33,0,10.33"
   id="path63" />
<path
   class="st1"
   d="M185.8,571.14c0,0,4.37-32,29.7-51.67c0,0,13.33-14.67,26.33-47.67c0,0,9.33-15.67-3-35.33  c-12.33-19.67-21.33-63-11.33-88s47.67-14,61.33-5.67c13.67,8.33,27.33,24.67,32,25.33c4.67,0.67,11.67,2.33,17-15.33  c5.33-17.67,14.67-86.67,11-123.33c-3.67-36.67,33.67-33.67,41.67-36c8-2.33,42.48-9.48,47.07-17.24"
   id="path65" />
<path
   class="st0"
   d="M234.26,427.77c0,0,4.57,19.37,35.91,36.04c0,0,10,5,17.33,13.67c0,0,13,11.55,28-4.06l5-7.61  c0,0-7.75,11.33-10.75,11.75c0,0,5.42,0.42,9.75,8.17s38.75,64.17,80.25,71.67"
   id="path67" />
<path
   class="st0"
   d="M292,353.14c0,0,0.25,9.5,11.5,17.25"
   id="path69" />
<path
   class="st0"
   d="M296,433.89c0,0,7.75-10.5-6.75-14s-11.25-12-1.25-25c0,0-15.21,14.93-2.5-7.05c0,0,4-8.95-3-26.07  s-43.5-14.53-44,11.92s15.75,49.7,15.75,49.7S270,440.14,285,442.64c0,0,7.25,3,8.75,5.5"
   id="path71" />
<path
   class="st0"
   d="M280.35,447.14c0,0,11.15,7.5,21.9,12.25"
   id="path73" />
<path
   class="st0"
   d="M479,259.47l-2.07-1.73c0,0,5.24,5.56,8.91,8.06c0,0,1.67,1.83,1,4c-0.67,2.17-9.18,15.63-10.34,15.73"
   id="path75" />
<path
   class="st2"
   d="M402.17,288.14c0,0,14.33-0.17,20-4.67c0,0,19-4.83,28.5,0c0,0,14.17,4.85,17.5,1.26  c3.33-3.59-5.17-1.93-5.17-1.93s-14-4.5-19.33-8c-5.33-3.5-22.83-0.5-30.17,8.5c0,0-7.28,4.3-9.38,4.58s15.19-4.63,17-5.78  s15.56-4.47,18.09-4.06s21.81,5.94,23.53,6.22s4.94-0.56,4.94-0.56L448,281.58l-14.06-1.88l-17.72,2.66l14.56-5.84l9.38-0.34l9,2.88  "
   id="path77" />
<path
   class="st3"
   d="M458.07,347.99c-0.47,1.06-1.4,1.82-2.36,1.22c-0.83-0.53,0.06-1.1,0.7-1.39c0.56-1.04,0.52-2.29,1.22-3.28  c1.71-1.01,1.52-3.21,2.94-4.55c1-0.95-0.08-1.99-1.33-1.97c-9.85,0.18-18.71-4.7-28.35-5.55c-0.56-0.05-1.45-0.79-1.55,0.46  c-0.03,0.32,0.54,0.69,0.84,1.04c0.39,0.59,0.32,0.96-0.47,1.01c-1.8-0.85-3.24-0.86-4.3,1.25c-0.44,0.87-1.53,1.39-2.3,2.1  c-0.95,0.89-1.89,0.29-2.46-0.3c-0.95-0.96,0.29-1.17,0.8-1.72c3.84-4.22,7.64-8.5,11.41-12.79c3.94-4.49,8.65-8.08,13.46-11.54  c2.73-1.97,5.37-4.03,7.65-6.51c0.53-0.58,1.77-1.02,1.14-2.24c-0.69-1.33-1.9-0.62-2.8-0.5c-3.08,0.4-5.11,2.8-7.61,4.3  c-0.7,0.43-1.25,0.98-2.2,0.86c-0.59-1.43,0.76-1.86,1.39-2.35c2.05-1.63,4.1-3.44,6.47-4.44c3.59-1.51,2.53-3.14,0.7-5.08  c-1.65-1.77-3.36-3.49-5.03-5.24c-0.46-0.72-0.22-1.1,0.58-1.23c3.27,1.41,6.11,3.52,7.43,6.79c1.03,2.57,3.63,2.12,5.08,3.63  c1.43,0.44,1.9,2.05,3.21,2.63c1.42-0.51,2.83-1.03,4.26-1.55c1.03-0.47,2.21-1.75,2.67,0.54c-2.04,2.67-5.21,2.81-8.08,3.37  c-2.27,0.45-3.08,1.17-2.18,3.45c3.22,8.14,2.65,16.24-0.31,24.32c-0.16,0.45-0.08,0.92-0.71,0.81c-0.31-0.05-0.66-0.24-0.86-0.48  c-0.69-0.81-0.53-1.7-0.2-2.63c2.35-6.66,0.39-13.24-0.41-19.84c-0.19-1.54-0.89-1.31-2.15-0.86c-3.76,1.33-6.19,4.43-9.25,6.67  c-4.63,3.4-9.53,6.58-12.72,11.59c-0.43,0.67-0.75,1.4-1.25,2.35c6.55,0.35,12.3,2.96,18.32,4.52c2.74,0.71,5.51,0.57,8.22,1.14  c1.87,0.39,4.17-0.32,5.12,2.02c0.96,2.36-0.52,4.22-1.76,6.04c-0.25,0.38-0.62,0.69-0.93,1.02  C459.96,346.46,459.12,347.29,458.07,347.99z"
   id="path79" />
<path
   class="st4"
   d="M458.07,347.99c0.67-0.96,1.34-1.92,2.01-2.88c3.77,4.54,3.79,9.81,3.03,15.25c-0.66,0.69-1.26,1.03-1.59-0.27  c-0.84-3.56,0.06-7.38-1.69-10.84C459.4,348.38,459.39,347.44,458.07,347.99z"
   id="path81" />
<path
   class="st5"
   d="M446.59,289.56c-0.19,0.41-0.39,0.82-0.58,1.23c-1.88-1.24-3.76-2.48-5.64-3.71  C443.05,286.51,444.82,288.03,446.59,289.56z"
   id="path83" />
<path
   class="st6"
   d="M469.24,301.61c-0.64-1.39-1.77-0.44-2.67-0.54c1.65-1.33,3.74-1.66,5.81-2.68  C472.24,300.63,470.85,301.22,469.24,301.61z"
   id="path85" />
<path
   class="st7"
   d="M462.31,302.62c-1.85,0.08-2.47-1.34-3.21-2.63c1.39,0.01,1.9-1.75,3.48-1.65  C462.98,299.79,460.52,301.14,462.31,302.62z"
   id="path87" />
<path
   class="st8"
   d="M461.52,360.09c0.47,0.45,1.02,0.4,1.59,0.27c0.96,1.92-0.97,3.4-0.63,5.25  C461,363.9,461.65,361.94,461.52,360.09z"
   id="path89" />
<path
   class="st9"
   d="M429.71,334.99c0.16-0.34,0.31-0.67,0.47-1.01c2.01,0.7,3.94,1.52,5.95,3.5  C433.24,337.33,431.66,335.66,429.71,334.99z"
   id="path91" />
<path
   class="st10"
   d="M457.63,344.53c0.75,1.53-0.06,2.47-1.22,3.28c-0.1-1.38-1.88-0.55-2.31-2.04  C455.25,345.37,456.44,344.95,457.63,344.53z"
   id="path93" />
<path
   class="st1"
   d="M486.99,378.14c0,0-8.18,12.67,0,19.67c8.18,7,2.84,7.33,10.84,6"
   id="path95" />
<path
   class="st1"
   d="M507.75,396.14v1l-0.88-0.5l0.21-0.71l0.92,0.6c0,0-9.38,8.35-8.25-1.27s11.88-1.13,16.88-5  s10.79-3.91,6.52,5.92"
   id="path97" />
<path
   class="st3"
   d="M451.84,334.47L451.84,334.47c-4.8,0.27-8.96-3.43-9.23-8.24l-0.25-4.4c-0.27-4.8,3.43-8.96,8.24-9.23l0,0  c4.8-0.27,8.96,3.43,9.23,8.24l0.25,4.4C460.35,330.04,456.64,334.19,451.84,334.47z"
   id="path99" />
<text
   xml:space="preserve"
   style="font-style:normal;font-weight:normal;font-size:40px;line-height:1.25;font-family:sans-serif;letter-spacing:0px;word-spacing:0px;fill:#000000;fill-opacity:1;stroke:none"
   x="413.66745"
   y="416.50394"
   id="text3813"><tspan
     sodipodi:role="line"
     id="tspan3811"
     x="413.66745"
     y="416.50394">面</tspan></text>
</svg>