<?xml version="1.0" encoding="utf-8"?>
<!-- Generator: Adobe Illustrator 23.0.2, SVG Export Plug-In . SVG Version: 6.00 Build 0)  -->
<svg version="1.1" id="图层_1" xmlns="http://www.w3.org/2000/svg" xmlns:xlink="http://www.w3.org/1999/xlink" x="0px" y="0px"
	 viewBox="0 0 595.28 841.89" style="enable-background:new 0 0 595.28 841.89;" xml:space="preserve">
<style type="text/css">
	.st0{fill:none;stroke:#000000;stroke-width:6;stroke-linecap:round;stroke-linejoin:round;stroke-miterlimit:10;}
	.st1{fill:none;stroke:#000000;stroke-width:3;stroke-linecap:round;stroke-linejoin:round;stroke-miterlimit:10;}
	.st2{fill:none;stroke:#000000;stroke-width:4;stroke-linecap:round;stroke-linejoin:round;stroke-miterlimit:10;}
</style>
<path class="st0" d="M53.67,724.56c0,0,124.67-54,110.67-167s-24-94.67-28-101.33c-4-6.67-9.33-22-12.67-40
	c-3.33-18-7-14.67-8.67-18.33"/>
<path class="st0" d="M165.43,574.22c0,0-9.43,3.67-17.76-45.33c-8.33-49-30.67-58.33-46-74.33s-28-21.33-28.67-47
	s-2.33-47.33,11.67-58c0,0,6.67-6,15,4c0,0,12.67,0.67,12.33,7s2.67,12.33,5,13.33s-11.33-23.33-15.67-77.33
	c-4.33-54,6.67-135.33,91.67-188c0,0,22.61-17.33,104.64-18c82.03-0.67,160.03,35.67,179.36,146.33c0,0,7.33,25.33,5.67,54.33
	c-1.67,29-7.67,50.33-4.67,60c0,0-8,18.67-8,27.67l8.25-32c0,0,2.38,11.5,12.63,5c0,0-9.75,4,0-8.5s26.63,4.5,25.63,18.38
	s3.63,10.63,3.5,26.38s-7.5,40-38.63,69.38c0,0-4.75,8.38-8.13,17.25s-19.25,16.63-32.13,14.75s20.88,0.38,15.54,5.21
	c0,0-6.83,19.83-8.17,32.5s-14.83,34.67-18.67,35"/>
<path class="st0" d="M462,397.89c0,0-6.5,13-5.75,44c0,0-21.5,49.75-22.75,60.5s-8.25,65.75-4.5,74.5s-5.75,73.25,45,108.5
	s55.75,38.75,55.75,38.75"/>
<path class="st1" d="M140,490.64c0,0,4.04,0.97,8.75,0"/>
<path class="st2" d="M491,360.39c0,0,7.25-3.75,4,12.5"/>
<path class="st2" d="M508.25,360.02c0,0-6,1.87-5.75,5.12s-0.01,12.75-0.01,12.75"/>
<path class="st2" d="M491,410.39c0,0-5.75,5.75-8.5,19"/>
<path class="st2" d="M468.75,451.39c0,0-5,10.5-10.25,15.5"/>
<path class="st0" d="M257.75,427.64c0,0,17.75-2.5,27,6s22-2.75,25-4.25s8-5,13.25-4.75"/>
<path class="st2" d="M259.33,505.22c0,0,12.33,40.67,7.67,72.33c-4.67,31.67-15.33,46.67-16.33,49.67"/>
<path class="st2" d="M329,516.22c0,0-2.67,65.33,10.67,95.33"/>
</svg>
