<?xml version="1.0" encoding="utf-8"?>
<!-- Generator: Adobe Illustrator 23.0.2, SVG Export Plug-In . SVG Version: 6.00 Build 0)  -->
<svg version="1.1" id="图层_1" xmlns="http://www.w3.org/2000/svg" xmlns:xlink="http://www.w3.org/1999/xlink" x="0px" y="0px"
	 viewBox="0 0 595.28 841.89" style="enable-background:new 0 0 595.28 841.89;" xml:space="preserve">
<style type="text/css">
	.st0{fill:#FFFFFF;}
	.st1{fill:none;stroke:#000000;stroke-width:4;stroke-linecap:round;stroke-linejoin:round;stroke-miterlimit:10;}
	.st2{fill:none;stroke:#000000;stroke-width:3;stroke-linecap:round;stroke-linejoin:round;stroke-miterlimit:10;}
	.st3{fill:none;stroke:#000000;stroke-width:2;stroke-linecap:round;stroke-linejoin:round;stroke-miterlimit:10;}
	.st4{fill:none;stroke:#000000;stroke-width:2;stroke-miterlimit:10;}
	.st5{fill:none;stroke:#000000;stroke-width:3;stroke-linecap:round;stroke-miterlimit:10;}
	.st6{fill:none;stroke:#000000;stroke-width:2;stroke-linecap:round;stroke-linejoin:round;}
	.st7{fill:none;stroke:#000000;stroke-width:2;stroke-linecap:round;stroke-linejoin:round;stroke-dasharray:3.7986,6.6476;}
	.st8{fill:none;stroke:#000000;stroke-width:2;stroke-linecap:round;stroke-linejoin:round;stroke-dasharray:4.2062,4.2062;}
	.st9{fill:none;stroke:#000000;stroke-width:2;stroke-linecap:round;stroke-linejoin:round;stroke-dasharray:4.0543,4.0543;}
	.st10{fill:none;stroke:#000000;stroke-width:2;stroke-linecap:round;stroke-linejoin:round;stroke-dasharray:3.8081,3.8081;}
	.st11{fill:none;stroke:#000000;stroke-width:2;stroke-linecap:round;stroke-linejoin:round;stroke-dasharray:3.8681,3.8681;}
	.st12{fill:none;stroke:#000000;stroke-width:2;stroke-linecap:round;stroke-linejoin:round;stroke-dasharray:4.0036,4.0036;}
	.st13{fill:none;stroke:#000000;stroke-width:2;stroke-linecap:round;stroke-linejoin:round;stroke-dasharray:3.8358,3.8358;}
	.st14{fill:none;stroke:#000000;stroke-width:2;stroke-linecap:round;stroke-linejoin:round;stroke-dasharray:4.029,7.0508;}
	
		.st15{fill:none;stroke:#000000;stroke-width:2;stroke-linecap:round;stroke-linejoin:round;stroke-miterlimit:10;stroke-dasharray:4,7;}
	
		.st16{fill:none;stroke:#000000;stroke-width:2;stroke-linecap:round;stroke-linejoin:round;stroke-miterlimit:10;stroke-dasharray:4,5;}
	
		.st17{fill:none;stroke:#000000;stroke-width:2;stroke-linecap:round;stroke-linejoin:round;stroke-miterlimit:10;stroke-dasharray:4,4;}
	.st18{fill:none;stroke:#000000;stroke-width:2;stroke-linecap:round;stroke-linejoin:round;stroke-dasharray:3.4998,3.4998;}
</style>
<g>
	<path class="st0" d="M506.64,110.1"/>
	<path class="st1" d="M506.64,110.1c0,0-9,31.33-15.33,47.67s-25.67,33.67-28.33,46c-2.67,12.33-6.33,79-2,86.33
		c0,0,4.67,2.33,9.67,42s31.33,143.67,40,161.33c0,0,2.67,12.33,0,46.33c0,0,0,19-36.33,68s-10.33,109.67-4.33,119.33
		c6,9.67,2.33,24,2.33,24"/>
	<path class="st1" d="M586.47,109.1c0,0-12.33,30.33-12.67,37.5c-0.33,7.17-22.33,51.5-25.67,55s-9.83,15-8.67,17"/>
	<path class="st1" d="M570.12,157.74c0,0,1.11-3.81,12.11,9.44s24.75,18.75,35.75,20"/>
	<path class="st1" d="M552.22,194.93"/>
	<path class="st1" d="M554.27,191.09c0,0-4.44,6.67,8.63,27.51c0,0,7.61,10.83,7.21,21.33"/>
	<path class="st1" d="M570.13,220.93c0,0,13.09,14.5,29.09,13.5c0,0,10.25,0.75,15.5,7.25"/>
	<path class="st1" d="M572.72,229.18c0,0,1.5,4.25,1.75,6.5"/>
	<path class="st1" d="M609.47,225.43c0,0,5.75,8.25,8.5,9s3.75,0,4.75,0"/>
	<path class="st2" d="M650.97,124.93c0,0,1.58,0.67-1,3.5c-2.58,2.83-3.17,3.75-0.92,7.5s4.42,2.58,6.83,0s5.5-1.58,6.17-1.25"/>
	<path class="st2" d="M665.56,115.93c0,0,3.5,8.92,6.25,11.33c0,0,2.83,4.33-3.5,8.58c-6.33,4.25-8.67,5.92-7.33,10.08
		c1.33,4.17,1.08,6.08-1,7.58c-0.16,0.12-0.38,0.24-0.65,0.37c-0.3,0.15-0.66,0.3-1.07,0.46c-3.92,1.54-12.43,3.59-16.53,4.08"/>
	<path class="st2" d="M658.47,155.01c0,0,0.17,2.5,2.42,4.33c2.25,1.83-1,4.83-2.42,5.92c-1.42,1.08-5,4.33-3.25,11.92
		s-9.25,16.75-13.17,16.42c-3.92-0.33-15.58,5.83-15.92,15.33s0,24.75,9.33,28.58c0,0,3.08,1.83,6.5,9.92
		c3.42,8.08,6.17,3.42,12.25,9.33c6.08,5.92,15.25,18.33,16.58,25.08c1.33,6.75,1.17,14.25,0.83,15.25s-16.83-31.92-16.83-31.92
		s31.42,57.92,32.58,61.83c1.17,3.92,5.17,13.08,5.17,14.75c0,1.67-6.17-1-6.17-1l1.67,1.29c0,0,0.83,0.38,4.5,0.88
		c0,0,2.42,3.25-2,11.92c-4.42,8.67-5.25,16.33-4.5,27.42c0,0,3,24.92,3.17,37.75c0.17,12.83-3.83,29.58-4.33,32.5
		c-0.5,2.92-3.58,28-4.83,31.42s-9.67,25.25-8.83,56c0.83,30.75,2.75,58.5-31.25,101.5c0,0-31.25,45.5-30.75,58.5
		s0.24,49.83-0.01,51.17c-0.24,1.33,0.51-65.67-1.24-73.42s-10.75-42.25-6.25-59.75"/>
	<path class="st2" d="M653.22,752.43c0,0,0-51.5-3.75-79.5c0,0-5.41-27.59,7.67-57.04"/>
	<path class="st3" d="M660.75,146.19c0,0-2.62,2.04-5.61,1.5c-3-0.54-6.82,7.7-11.28,8.7"/>
	<path class="st4" d="M661.53,161.59c0,0-1.22,4.76-8.89,1.51s-9.08-4.42-10.92-4"/>
	<path class="st2" d="M522.97,188.43c0,0-4.75,18.91-15,27.08c0,0-3.75,6.17-4.25,9.92"/>
	<path class="st2" d="M513.35,215.51c0,0-8.54,13.34-8.21,15.8c0.33,2.46-0.01,5.63-0.01,5.63"/>
	<path class="st2" d="M510.47,229.18c0,0-0.67,6.75,0,7.75"/>
	<path class="st2" d="M540.81,270.26c0,0,10.17-1,18.17,25.5s25,44.17,44.17,51.5"/>
	<path class="st5" d="M639.35,281.81c0,0,6.63,11.75,8,16.5"/>
	<path class="st3" d="M659.35,332.81c0,0,2.75,0,5.25,7.63s6,14.75,7,15"/>
	<path class="st3" d="M655.72,329.68c0,0,2.38,10-7.63,18.88"/>
</g>
<path class="st3" d="M290.72,591.56c0,0,38,35.21,42,92.6"/>
<path class="st4" d="M414.22,591.56c0,0-46.5,55-40.5,86.5"/>
<path class="st4" d="M321.47,637.86c0,0,27.09-21.2,61.92,0"/>
<path class="st3" d="M275.22,704.56c0,0,37,27.5,68,12c0,0,10.5-9.13,20.88,0.13c0,0,36.38,16.25,64.13-18.13"/>
<g>
	<g>
		<path class="st6" d="M350.47,676.06c0,0,0.01,0.74,0.02,2"/>
		<path class="st7" d="M350.6,684.7c0.1,5.54,0.29,12.6,0.6,17.56"/>
		<path class="st6" d="M351.45,705.58c0.08,0.83,0.17,1.5,0.27,1.98"/>
	</g>
</g>
<path class="st2" d="M54.72,139.06c0,0,1.5,27-37,40c0,0-26,9-33.5,16s-26.83,0.17-38,11.33c-11.17,11.17-17.33,3-28,28.67
	s-20.5,66.67-14.17,83.67c0,0,3.67,7-2,26.33"/>
<path class="st1" d="M164.06,146.72c0,0,10,38,35,40.33s45.67,21.67,68.67,24.33c0,0,21.5,5.83,30.17,29
	c8.67,23.17,17.83,33.67,12.83,73.67s-4.83,14.33-5.83,46.17"/>
<path class="st2" d="M16.72,354.31c-16-0.25-34.75-4.75-40.75-32.75s-14.75-38-14.75-38s18.17,9.17,10.83,76.67
	s6.33,75.83,8.33,134.5s-19,60.33-19.17,129c0,0-8.17,59.33-7.17,74.67"/>
<g>
	<g>
		<path class="st6" d="M264.72,229.31c-0.46-0.23-1.08-0.5-1.84-0.77"/>
		<path class="st8" d="M258.87,227.27c-6.86-1.86-17.94-3.65-28.9-2.22c-10.6,1.39-21.2,4.96-26.68,7"/>
		<path class="st6" d="M201.32,232.81c-1.19,0.47-1.85,0.75-1.85,0.75s0.44-0.15,1.84,0.71"/>
		<path class="st9" d="M204.51,236.74c0.78,0.69,1.68,1.54,2.71,2.56c6.25,6.25,11-0.75,20-3.25s23.75,3.25,23.75,3.25
			c36-5,34.25-16.25,9.42-23.75c-24.83-7.5-40-0.33-40-0.33c-9,7.5-24,8.83-31,9.33s-33.67,6.17-48-3.06
			c-14.33-9.22,7.33-9.44,15.33-4.44c5.17,3.23,12.16,5.63,16.45,6.92"/>
		<path class="st6" d="M175.13,224.54c1.21,0.34,1.93,0.51,1.93,0.51c-0.59,0.16-1.25,0.29-1.96,0.41"/>
		<path class="st10" d="M171.31,225.84c-8.52,0.48-20.25-0.78-20.25-0.78c-18.88-3.83-38.16-1.79-46.16-0.63"/>
		<path class="st6" d="M103.02,224.71c-1.27,0.21-1.97,0.34-1.97,0.34s0.72-0.25,1.93-0.52"/>
		<path class="st11" d="M106.8,223.94c5.59-0.49,13.94,0.45,18.92,8.86c8,13.5,16,0.75,32.75,1.75c0.82,0.05,1.64,0.1,2.45,0.15
			c3.73,0.22,7.3,0.42,10.66,0.58c8.14,0.39,14.99,0.51,19.77-0.02"/>
		<path class="st6" d="M193.27,234.99c0.71-0.12,1.37-0.27,1.95-0.44"/>
	</g>
</g>
<g>
	<g>
		<path class="st6" d="M161.22,235.72c0,0-0.4,0.65-1.14,1.64"/>
		<path class="st12" d="M157.54,240.45c-3.08,3.34-7.88,7.3-13.65,7.77c-10.17,0.83-21.17,10.33-20.83,12.67
			c0.33,2.33,5.83-2.17,15.33,0c8.79,2.01,35.46-6.16,34.09-21.71"/>
		<path class="st6" d="M172.16,237.2c-0.15-0.63-0.34-1.27-0.58-1.91"/>
	</g>
</g>
<g>
	<g>
		<path class="st6" d="M183.39,235.62c0,0,0.04,0.74,0.01,2"/>
		<path class="st13" d="M183.11,241.44c-1.04,8.6-5.5,24.21-23.88,28.95c0,0-7.5,3.83-34.5,1.33c0,0-2.66-2.45-2.45-7"/>
		<path class="st6" d="M122.51,262.81c0.13-0.61,0.31-1.25,0.54-1.92"/>
	</g>
</g>
<g>
	<g>
		<path class="st6" d="M184.67,241.15c-0.47-0.53-0.94-1-1.4-1.43c0,0,0.13,0.72,0.31,1.97"/>
		<path class="st14" d="M184.33,248.71c0.76,10.59,0.23,27.05-9.94,29.51c-15.17,3.67-2.17,10-45.83,3.33c0,0-18.83,1.5,3.83,12.83
			c22.67,11.33,48.03,0.17,57.43-14.67c1.07-1.68,1.9-3.42,2.52-5.18c3.93-11.14-0.44-23.38-5.49-30.61"/>
	</g>
</g>
<path class="st15" d="M126.6,291.16c0,0-12.37,8.06,2.29,17.23c14.67,9.17,37.88,18.67,54.52,1.67s11.75-31.81,10.45-37.49
	c-1.3-5.68-1.63-20.49,8.53,0c5.71,11.51,5.32,24.18,0.78,34.73c-3.54,8.23-9.61,15.17-17.28,19.26c-17.5,9.33-29,8-55.5-3.17
	c0,0-12.5-0.67-4.67-10.83s-4.76-8.17-3.47-5.33c0,0-3.93,7.65-1.04,10.67c2.89,3.01,2.41,1.83,1.04,12.17
	c0,0,12.97,8.67,27.8,13.83c14.83,5.17,27.83,11.83,48.33-11.83c0,0,5.83-16.83,5.17-23.33c0,0,3.33-23,7-13.67
	c3.67,9.33,8.83,34.83-7.5,50.83s-32.83,18.5-42.5,15.5c-9.67-3-27.17-10.67-29.33-13.33c0,0-2.94,0.64-5.07-1.07
	c-0.74-0.59-1.38-1.47-1.76-2.76c-1.5-5-3.26-8.67-2.13-12"/>
<path class="st15" d="M126.22,348.39c0,0-5.35,5.67-5.01,11c0.34,5.33-11.83,10.17-13.49,9.17s11,1.17,2,30.67"/>
<path class="st15" d="M124.39,352.56c0,0,28.83,29.17,56.17,26.83c27.33-2.33,34.51-37.87,31.01-46.69"/>
<path class="st15" d="M119.35,363.35c0,0,6.54,3.54,17.04,17.87c10.5,14.33,21.83,6,5-5.5s-19.17-13.23-19.17-13.23h-2.13
	L119.35,363.35z"/>
<path class="st15" d="M113.72,370.56c0,0,25.83,33.67,33.5,48.5s18.83,15.33,24.67,31.5c5.83,16.17,23.5,41.33,40.83,22.5
	s16.67-21,17.83-29.83"/>
<path class="st15" d="M278.58,319.56c0,0,11.64-74.25,3.89-72.5c0,0-13.25-6.5-17.5-1.5s-4.25,5-4.25,5s21.25-15.44-3.5-8.72"/>
<path class="st15" d="M254.85,244.06c0,0-35.13,12.75-13.63,32.5s11.5,36.25,11.5,43"/>
<path class="st15" d="M215.47,249.92c0,0,16.75-9.29,25.5,3.55c-8-11.33-18.25,8.11-18.25,8.11"/>
<path class="st15" d="M223.22,285.81c0-5.25,14.88-12.54,14.88-12.54s-22.13,29.04-19.38,64.79s-15.92,55-50.34,55.25
	c0,0-15.66-1.25,9.84,11.25s37.75-28.03,37.75-34s0.5-18.89,5.25-14.44c0,0,5.58,37.94-8.84,49.69s-12.41,12.5-27.91,12
	s-0.75,12.13,7.5,11.75s17.7-4,20.41-19.13s12.21-21.25,9.96-25.88c0,0,2.93,11.48,1.51,22.69c-0.03,0.27-0.07,0.53-0.11,0.8
	c-0.43,2.99-1.19,5.95-2.41,8.64c-5.88,13-12.88,24.25-30.38,23.88s-10.63,7.63-3.88,8.88s22.88,0.75,27.63-18.13
	s10.73-16.25,10.13-23.63c0,0-1.25,45.13-8.25,55.25c0,0,11.63-37.25,2.5-25.5c0,0-5.13,17.63-19,20.25c0,0-24.5-5.13-11.5,3.88
	s14.88,10.88,24.75-5s7.81-9.19,7.81-9.19s-3,10.13-0.81,14.5s-11.56,25.81-19.13,30.5s-5.56-5.31-3.69-6.5s-1.01-5.68-1.13-6.11
	s21-2.45,21.75-1.33s-7.44,17.13-10.25,16.38s0.38-10.19,0.56-10.56"/>
<path class="st15" d="M147.56,402.56c0,0,14.67,21.83,17.33,21.83c2.67,0,6.88-4.83,2.35-10.92c-4.52-6.08-10.02-10.92-14.19-10.92
	C148.89,402.56,147.56,402.56,147.56,402.56z"/>
<path class="st16" d="M200.86,553.06c0,0,15.61,6.25-13.89,45.75s-17,11.1-33.5,39.05c0,0-9,11.2-16,9.95s-9.75,10.13-17,11.88
	s-21.63,0.5-19.38,10.38c0,0,6.38,16.38,30.75-4.75c0,0,4.04-7.08,24.38-5.58c0,0-7.83-3.5,1.5-11.67s22.33-23.5,30.5-20.17
	c0,0-8-9.17,9.5-26.33l6.33-5.83l-9.83-1.17c0,0,12.5,5.67,20.83-12c8.33-17.67,8-30.67-8.5-54.83"/>
<path class="st16" d="M99.39,679.56c0,0,31.33,22,45.33,5.67c0,0,16.5-8.67,15.92-18.17c0,0,1.91-4.17-5.08-5.83"/>
<path class="st16" d="M121.22,675.22c0,0,20,9,24.83-10.83"/>
<path class="st16" d="M161.98,644.14c0,0-11.59,32.42,16.58,19.25c0,0,16.67-13,11-35c0,0,20.83,52.83,22,20
	c0,0,10.33-19.47,20.67,27.85c0,0,3,14.82-19.67,39.65c0,0-3,3.17-2,7.5c1,4.33-11.31,29.83-14.57,32.5"/>
<path class="st16" d="M170.72,746.39c0,0,22.33-42.17,10.83-53.5c0,0,8.5-15.33,0.33-20.83c-8.17-5.5-17.74-6.09-17.74-6.09"/>
<path class="st17" d="M238.1,273.26c0,0,36.52,16.29,16.95,35.79c0,0,0.35-6.71-0.36-10.02s-9.86,0.52-10.03,18.52
	c0,0-17.43,38.61-23.43,38.56"/>
<path class="st3" d="M240.51,326.33c0,0-8.79,17.91-8.04,53.2s-2.25,74.28-4,79.28s-7,45.25-3.25,72.25s11.75,40.75,10.5,77
	s4.83,42.33,4.79,53.17c-0.04,10.83,2.71,66.75-3.79,94.67"/>
<path class="st17" d="M161.12,255.63c0,0-11.27,6.07-3.59,13.75"/>
<path class="st17" d="M161.12,284.02c0,0-2.1,0.53,0,13.03"/>
<path class="st17" d="M165.77,319.12c0,0,6.33,12.84,4.97,13.06"/>
<path class="st17" d="M171.61,348.82c0,0,6.01,10.02,5.24,11.41"/>
<path class="st17" d="M184.85,379.52c0,0,1.19,10.96-0.47,12.06"/>
<path class="st3" d="M90.97,524.93c0,0,5.25-2.38,9.25-1.63s10.25,0.21,10.75-0.15c0,0,2.25,2.65-2.25,1.77c0,0-1.75,0.71-2.13,2.79
	c-0.38,2.08-5.75,3.33-8.75,0.96s-1.5-3.38-2.38-3.75S90.97,524.93,90.97,524.93z"/>
<path class="st3" d="M96.43,524.76c0,0,8.38,0.83,10.29-0.5C106.72,524.26,103.89,535.39,96.43,524.76z"/>
<path class="st3" d="M233.48,340.03c0,0,12.81-21.71,12.28-31.84c0,0,8.64-12.91,6.74-16.63"/>
<g>
	<path class="st18" d="M347.53,680.56c0,0-3.23-9,1.9-8.67c5.13,0.33,4.79,5.67,3.46,8.67
		C351.56,683.56,347.53,680.56,347.53,680.56z"/>
</g>
</svg>
