<?xml version="1.0" encoding="utf-8"?>
<!-- Generator: Adobe Illustrator 23.0.2, SVG Export Plug-In . SVG Version: 6.00 Build 0)  -->
<svg version="1.1" id="图层_1" xmlns="http://www.w3.org/2000/svg" xmlns:xlink="http://www.w3.org/1999/xlink" x="0px" y="0px"
	 viewBox="0 0 595.28 300.89" style="enable-background:new 0 0 595.28 300.89;" xml:space="preserve">
<style type="text/css">
	.st0{font-family:'AdobeSongStd-Light-GBpc-EUC-H';}
	.st1{font-size:16.6612px;}
	.st2{letter-spacing:3;}
	.st3{font-size:16.66px;}
	.st4{letter-spacing:11;}
	.st5{fill:none;stroke:#000000;stroke-width:1.5;stroke-miterlimit:10;}
</style>
<text transform="matrix(1 0 0 1 15.5 127.0099)" class="st0 st1">日天干</text>
<text transform="matrix(1 0 0 1 16.5 210.5099)" class="st0 st1 st2">时天干      </text>
<text transform="matrix(1 0 0 1 146.6668 201.2231)" class="st0 st3 st4">甲</text>
<text transform="matrix(1 0 0 1 146 224.2233)" class="st0 st3 st4">子</text>
<text transform="matrix(1 0 0 1 327 228.8899)" class="st0 st3 st4">子</text>
<text transform="matrix(1 0 0 1 236.3333 228.8899)" class="st0 st3 st4">子</text>
<text transform="matrix(1 0 0 1 415 228.8901)" class="st0 st3 st4">子</text>
<text transform="matrix(1 0 0 1 504.3333 228.8898)" class="st0 st3 st4">子</text>
<line class="st5" x1="123.67" y1="135.22" x2="146.67" y2="182.56"/>
<line class="st5" x1="166.33" y1="182.56" x2="373" y2="135.22"/>
<line class="st5" x1="172.33" y1="130.56" x2="238" y2="182.56"/>
<line class="st5" x1="226.33" y1="130.56" x2="330.33" y2="182.56"/>
<line class="st5" x1="275" y1="130.56" x2="418.33" y2="182.56"/>
<line class="st5" x1="330.33" y1="132.56" x2="507" y2="182.56"/>
<line class="st5" x1="435" y1="130.56" x2="248.33" y2="182.56"/>
<line class="st5" x1="473" y1="132.56" x2="339" y2="182.56"/>
<line class="st5" x1="525.67" y1="132.56" x2="427" y2="182.56"/>
<line class="st5" x1="573.67" y1="132.56" x2="515.67" y2="182.56"/>
<text transform="matrix(1 0 0 1 226.3333 63.8898)" class="st0 st3">表34.时干支表解</text>
<text transform="matrix(1 0 0 1 237.3333 201.3898)" class="st0 st3 st4">丙</text>
<text transform="matrix(1 0 0 1 327 201.2231)" class="st0 st1">戊</text>
<text transform="matrix(1 0 0 1 415 201.2231)" class="st0 st1">庚</text>
<text transform="matrix(1 0 0 1 504.3333 201.2231)" class="st0 st1">壬</text>
<text transform="matrix(1 0 0 1 114.5 125.0097)" class="st0 st1">甲</text>
<text transform="matrix(1 0 0 1 166.3333 126.0095)" class="st0 st1">乙</text>
<text transform="matrix(1 0 0 1 217 126.0097)" class="st0 st1">丙</text>
<text transform="matrix(1 0 0 1 267 126.0097)" class="st0 st1">丁</text>
<text transform="matrix(1 0 0 1 318.5 126.0097)" class="st0 st1">戊</text>
<text transform="matrix(1 0 0 1 369.5 127.0097)" class="st0 st1">己</text>
<text transform="matrix(1 0 0 1 423 126.0094)" class="st0 st1">庚</text>
<text transform="matrix(1 0 0 1 472 126.0097)" class="st0 st1">辛</text>
<text transform="matrix(1 0 0 1 516.5 126.5563)" class="st0 st1">壬</text>
<text transform="matrix(1 0 0 1 567 125.5563)" class="st0 st1">癸</text>
</svg>
