<?xml version="1.0" encoding="UTF-8" standalone="no"?>
<svg
   width="297mm"
   height="210mm"
   viewBox="0 0 1122.5201 793.70024"
   version="1.1"
   id="svg19900"
   sodipodi:docname="shl003肌表与外界.svg"
   inkscape:version="1.2.2 (732a01da63, 2022-12-09)"
   xmlns:inkscape="http://www.inkscape.org/namespaces/inkscape"
   xmlns:sodipodi="http://sodipodi.sourceforge.net/DTD/sodipodi-0.dtd"
   xmlns="http://www.w3.org/2000/svg"
   xmlns:svg="http://www.w3.org/2000/svg">
  <defs
     id="defs19904" />
  <sodipodi:namedview
     id="namedview19902"
     pagecolor="#ffffff"
     bordercolor="#000000"
     borderopacity="0.25"
     inkscape:showpageshadow="2"
     inkscape:pageopacity="0.0"
     inkscape:pagecheckerboard="0"
     inkscape:deskcolor="#d1d1d1"
     showgrid="false"
     inkscape:zoom="0.50940631"
     inkscape:cx="325.86954"
     inkscape:cy="614.44075"
     inkscape:window-width="1920"
     inkscape:window-height="986"
     inkscape:window-x="-11"
     inkscape:window-y="-11"
     inkscape:window-maximized="1"
     inkscape:current-layer="svg19900"
     inkscape:document-units="mm" />
  <clipPath
     id="clip_4_11_0">
    <path
       d="m 125.427,147.568 h 74.21 v 74.21 h -74.21 z"
       id="path19831" />
  </clipPath>
  <path
     d="m 502.38505,329.25491 c 0,22.27566 -24.58459,40.33382 -54.91123,40.33382 -30.32663,0 -54.91123,-18.05816 -54.91123,-40.33382 0,-22.27584 24.5846,-40.33382 54.91123,-40.33382 30.32664,0 54.91123,18.05798 54.91123,40.33382 z"
     fill="#19191a"
     fill-opacity="0"
     id="path19846"
     style="stroke-width:1.72928" />
  <path
     d="M 693.41858,328.39026 675.4626,318.00614 v 20.76824 z"
     fill="#000000"
     fill-opacity="1"
     stroke="none"
     id="path19850"
     style="stroke-width:1.72928" />
  <path
     d="M 502.38574,328.39026 H 683.05139"
     fill="none"
     stroke="#000000"
     stroke-opacity="1"
     stroke-width="3.45855"
     stroke-dasharray="3, 3"
     id="path19852" />
  <path
     d="m 728.4597,395.52877 c 28.66754,-9.28892 57.33681,-18.57788 79.93401,-31.8204 22.5972,-13.24217 39.12165,-30.4374 47.13998,0 8.01764,30.43788 7.52658,108.50832 9.22231,109.83126 1.69677,1.32311 5.58101,-74.1016 17.42225,-104.69873 11.84192,-30.59733 31.63653,-16.3671 53.28841,-10.26453 21.65189,6.10257 45.15605,4.07767 68.66194,2.05259"
     fill="none"
     stroke="#000000"
     stroke-opacity="1"
     stroke-width="3.45855"
     stroke-dasharray="none"
     id="path19854" />
  <path
     d="m 869.90798,416.06163 c -3.02377,-11.93311 -6.04753,-23.86616 -6.14877,-41.05811 -0.10125,-17.19194 2.72003,-39.64275 -5.12371,-48.24374 -7.8429,-8.60099 -26.35076,-3.35286 -34.84253,-1.02665 -8.49073,2.32639 -6.96451,1.73052 -15.37179,4.10606 -8.40745,2.37519 -26.74909,7.72163 -45.09073,13.06824"
     fill="none"
     stroke="#000000"
     stroke-opacity="1"
     stroke-width="1.72928"
     stroke-dasharray="1.5, 1.5"
     id="path19856" />
  <path
     d="m 864.78486,416.70545 c -3.28193,-30.86333 -6.56387,-61.72683 4.09862,-75.57336 10.66248,-13.8467 35.26942,-10.67643 52.26367,-10.2647 16.99442,0.41156 26.37621,-1.93525 37.91784,-5.13218 11.54076,-3.1971 25.24135,-7.24413 38.94195,-11.29117"
     fill="none"
     stroke="#000000"
     stroke-opacity="1"
     stroke-width="1.72928"
     stroke-dasharray="1.5, 1.5"
     id="path19858" />
  <path
     d="m 866.81164,421.19485 c -1.30433,-26.30297 -2.60529,-52.60594 13.31419,-66.71969 15.9194,-14.11409 49.06108,-16.03861 67.63563,-14.37058 18.57543,1.66804 22.582,6.92863 28.6945,7.18512 6.1125,0.25683 14.32919,-4.49061 22.54502,-9.23789"
     fill="none"
     stroke="#000000"
     stroke-opacity="1"
     stroke-width="1.72928"
     stroke-dasharray="1.5, 1.5"
     id="path19860" />
  <path
     d="m 868.82634,424.27547 c -1.85274,-22.6173 -3.70294,-45.23443 -8.19809,-61.58768 -4.49515,-16.35326 -11.6328,-26.44212 -18.4463,-28.74082 -6.81366,-2.2987 -13.2999,3.19364 -20.49646,8.21176 -7.195,5.01813 -15.10189,9.56274 -24.59513,11.291 -9.49151,1.72826 -20.57076,0.64035 -29.71791,3.07924 -9.14732,2.43905 -16.35736,8.40473 -23.57085,14.37058"
     fill="none"
     stroke="#000000"
     stroke-opacity="1"
     stroke-width="1.72928"
     stroke-dasharray="1.5, 1.5"
     id="path19862" />
  <path
     d="m 894.97276,417.12467 c -0.72743,-0.59615 -2.16577,-1.4945 -3.25279,-2.06995 l -0.74399,0.86524 c 1.12009,0.62512 2.54192,1.57731 3.23628,2.18587 z m -1.04981,4.27241 c -0.69438,-0.49266 -2.11619,-1.23784 -3.13295,-1.71393 l -0.67784,0.93149 c 1.04983,0.5092 2.42203,1.30821 3.11641,1.83397 z m -2.20298,8.71461 c 1.00023,-1.5609 2.18644,-3.64735 3.08334,-5.42752 l -0.91344,-0.82797 c -0.98369,1.89607 -2.30217,4.13575 -3.19907,5.40676 z m 13.81719,-8.54488 h -4.75728 v -4.5953 h 4.02985 v -1.23784 h -9.22938 v 1.23784 h 3.87692 v 4.5953 h -4.55476 v 1.23784 h 4.55476 v 7.52632 h 1.32261 v -7.52632 h 4.75728 z m 9.00436,-5.76691 -0.25625,0.0869 h -6.98921 v 1.16747 h 6.0261 c -0.74384,0.8818 -1.74411,1.83398 -2.64104,2.44255 v 3.25397 c -1.43828,0.3726 -2.76096,0.71208 -3.75707,0.96875 l 0.26868,1.2544 3.48839,-0.96875 v 4.74857 c 0,0.25666 -0.0867,0.32278 -0.35542,0.33939 -0.23568,0 -1.09944,0 -2.05012,-0.0331 0.20251,0.37261 0.35543,0.91484 0.40916,1.27084 1.23595,0.0173 2.06256,-0.0173 2.57089,-0.21928 0.49193,-0.21945 0.64484,-0.57545 0.64484,-1.34145 v -5.08379 l 3.43466,-0.95217 -0.16951,-1.18404 c -1.08285,0.30223 -2.18229,0.60858 -3.26515,0.88182 v -2.426 c 1.23577,-0.95217 2.60804,-2.3225 3.48839,-3.57688 z m 3.95957,13.24361 c -0.64069,0 -0.77702,-0.15316 -0.77702,-1.01833 v -12.7676 h -1.23577 v 12.73437 c 0,1.7139 0.38843,2.18585 1.85988,2.18585 h 2.37253 c 1.45486,0 1.77711,-0.94807 1.91361,-3.74659 -0.33901,-0.0827 -0.83076,-0.30634 -1.13659,-0.55887 -0.0828,2.5419 -0.18609,3.17117 -0.86393,3.17117 z"
     fill="#19191a"
     fill-opacity="1"
     id="path19864"
     style="stroke-width:1.72928" />
  <path
     d="m 991.02316,308.3721 v -11.14053 h 5.00941 v 5.86628 c 0,0.26909 -0.0992,0.35602 -0.42158,0.37258 -0.37199,0.0331 -1.54167,0.0331 -2.84362,-0.0166 0.20253,0.32293 0.43812,0.8818 0.50425,1.23784 1.54167,0 2.60802,-0.0166 3.21974,-0.21942 0.60757,-0.20285 0.79357,-0.6127 0.79357,-1.34133 v -7.13721 h -12.68058 v 1.23782 h 5.0962 v 11.14053 H 983.538 v 1.23779 h 15.10261 v -1.23779 z m 24.15654,-10.63131 v -1.08881 h -10.6677 c 0.2398,-0.52577 0.4588,-1.06809 0.6448,-1.61042 l -1.2359,-0.32291 c -0.8142,2.45911 -2.2029,4.78574 -3.8272,6.27612 0.2892,0.15317 0.8637,0.54233 1.0994,0.76175 1.0167,-1.05155 2.0004,-2.44257 2.8106,-4.01573 z m -1.2524,2.30593 v -1.06809 h -10.056 v 1.06809 z m -11.7505,1.32064 v 1.10121 h 9.1425 c 0.2191,4.35934 0.8309,7.76644 3.0628,7.76644 0.9837,0 1.2854,-0.79473 1.3887,-2.79852 -0.2687,-0.16978 -0.6241,-0.47196 -0.8804,-0.72863 -0.017,1.40758 -0.1199,2.28936 -0.4382,2.28936 -1.3225,0 -1.7812,-3.76318 -1.897,-7.62986 z"
     fill="#19191a"
     fill-opacity="1"
     id="path19866"
     style="stroke-width:1.72928" />
  <path
     d="m 793.01933,316.75658 5.40218,-8.86267 -10.36409,-0.25458 z"
     fill="#000000"
     fill-opacity="1"
     stroke="none"
     id="path19868"
     style="stroke-width:1.72928" />
  <path
     d="m 795.4888,215.90257 -2.34236,95.66351"
     fill="none"
     stroke="#000000"
     stroke-opacity="1"
     stroke-width="1.72928"
     stroke-dasharray="none"
     id="path19870" />
  <path
     d="m 823.14122,313.54651 5.40217,-8.86267 -10.36408,-0.25459 z"
     fill="#000000"
     fill-opacity="1"
     stroke="none"
     id="path19872"
     style="stroke-width:1.72928" />
  <path
     d="m 825.61068,212.69249 -2.34236,95.66352"
     fill="none"
     stroke="#000000"
     stroke-opacity="1"
     stroke-width="1.72928"
     stroke-dasharray="none"
     id="path19874" />
  <path
     d="m 851.83761,312.52004 5.40218,-8.86268 -10.36409,-0.25458 z"
     fill="#000000"
     fill-opacity="1"
     stroke="none"
     id="path19876"
     style="stroke-width:1.72928" />
  <path
     d="m 854.30708,211.66602 -2.34237,95.66352"
     fill="none"
     stroke="#000000"
     stroke-opacity="1"
     stroke-width="1.72928"
     stroke-dasharray="none"
     id="path19878" />
  <path
     d="m 882.58243,314.57246 5.40222,-8.8625 -10.36407,-0.25476 z"
     fill="#000000"
     fill-opacity="1"
     stroke="none"
     id="path19880"
     style="stroke-width:1.72928" />
  <path
     d="m 885.05272,213.71861 -2.34317,95.66335"
     fill="none"
     stroke="#000000"
     stroke-opacity="1"
     stroke-width="1.72928"
     stroke-dasharray="none"
     id="path19882" />
  <path
     d="m 913.3177,311.49357 5.40223,-8.86268 -10.36407,-0.25458 z"
     fill="#000000"
     fill-opacity="1"
     stroke="none"
     id="path19884"
     style="stroke-width:1.72928" />
  <path
     d="m 915.788,210.63955 -2.34318,95.66352"
     fill="none"
     stroke="#000000"
     stroke-opacity="1"
     stroke-width="1.72928"
     stroke-dasharray="none"
     id="path19886" />
  <path
     d="m 944.06508,311.49357 5.40222,-8.86268 -10.36407,-0.25458 z"
     fill="#000000"
     fill-opacity="1"
     stroke="none"
     id="path19888"
     style="stroke-width:1.72928" />
  <path
     d="m 946.53537,210.63955 -2.34318,95.66352"
     fill="none"
     stroke="#000000"
     stroke-opacity="1"
     stroke-width="1.72928"
     stroke-dasharray="none"
     id="path19890" />
  <path
     d="m 857.15303,190.59581 h -3.18254 c 0.23558,-0.76174 0.42158,-1.54005 0.60757,-2.35562 l -1.23582,-0.23596 c -0.60757,2.94762 -1.67394,5.74621 -3.21561,7.49325 0.27279,0.16975 0.83077,0.57545 1.0333,0.79901 0.94649,-1.18815 1.76073,-2.74891 2.4055,-4.51251 h 3.21561 c -0.28932,1.78017 -0.74397,3.32436 -1.32261,4.66155 -0.7109,-0.60858 -1.707,-1.32063 -2.52124,-1.82985 l -0.7605,0.83213 c 0.91344,0.60856 2.02938,1.4738 2.74029,2.13619 -1.19862,2.20245 -2.84362,3.74671 -4.80689,4.74843 0.30587,0.20284 0.83078,0.71218 1.01677,1.03512 3.60413,-1.97073 6.24523,-5.92016 7.14213,-12.54818 l -0.8597,-0.28979 z m 3.86038,2.88552 v -5.46054 H 859.728 v 15.46255 h 1.28541 v -9.20714 c 1.33915,1.13848 2.87669,2.56261 3.64134,3.52723 l 0.99608,-0.86526 c -0.89688,-1.06809 -2.72376,-2.67853 -4.17864,-3.82942 z m 10.59565,5.10454 c 0,1.27095 -0.30583,2.91445 -3.24873,4.01568 0.26868,0.24022 0.67369,0.67895 0.86393,1.0019 3.26515,-1.32484 3.65375,-3.35748 3.65375,-4.96791 v -1.03498 h -1.26895 z m -1.35568,-6.15607 h 3.87698 v 1.82984 h -3.87698 z m 0,-2.79859 h 3.87698 v 1.79673 h -3.87698 z m 9.02689,1.79673 h -3.91414 v -1.79673 h 3.91414 z m 0,2.8317 h -3.91414 v -1.82984 h 3.91414 z m 1.28536,1.06811 v -6.76463 h -11.54802 v 6.76463 h 3.36847 c -1.28536,1.32477 -3.31473,2.45912 -5.26152,3.01801 0.28527,0.25666 0.64069,0.71205 0.8432,1.03496 2.21944,-0.7783 4.55465,-2.2728 5.94351,-4.05297 h 1.86402 c 0.6407,0.84868 1.50446,1.61042 2.43439,2.27281 h -1.25235 v 5.86633 h 1.28967 v -5.84977 c 1.06627,0.72864 2.2483,1.32477 3.45107,1.69737 0.1695,-0.32291 0.54151,-0.81557 0.83076,-1.06809 -2.01279,-0.50922 -4.01331,-1.59388 -5.28209,-2.91865 z m 12.98042,-4.08611 c -0.43802,1.34135 -1.02912,2.71165 -1.72355,4.00332 -0.9175,-1.17161 -1.86402,-2.30595 -2.74437,-3.32438 l -1.03326,0.54235 c 1.01667,1.18815 2.0997,2.54191 3.11638,3.91635 -1.11586,1.78017 -2.45513,3.30781 -3.84381,4.25587 0.30583,0.21945 0.71084,0.66233 0.95067,0.96866 1.33495,-1.00172 2.5873,-2.47561 3.67016,-4.18954 1.04985,1.49036 1.96337,2.88138 2.55845,3.94949 l 1.14903,-0.67894 c -0.69443,-1.21715 -1.7937,-2.79446 -3.04606,-4.40903 0.83076,-1.49037 1.5086,-3.1008 2.04994,-4.74435 z m -7.56356,-2.42599 v 5.02172 c 0,2.64541 -0.16951,6.28856 -2.01711,8.85123 0.30583,0.15317 0.83075,0.57546 1.04985,0.84856 1.94678,-2.73223 2.23603,-6.88464 2.23603,-9.69979 v -3.80045 h 8.83682 c 0.0173,8.76837 0.033,13.27681 2.2153,13.27681 0.91767,0 1.16976,-0.72862 1.30609,-2.94769 -0.25624,-0.18631 -0.61166,-0.57959 -0.83075,-0.8818 -0.033,1.39095 -0.13633,2.54186 -0.37201,2.54186 -1.13245,0 -1.13245,-5.24109 -1.08286,-13.21045 z m 16.75805,1.52764 h 11.76314 v 1.98302 h 1.25235 v -3.05113 h -6.1626 c -0.18609,-0.42641 -0.47119,-0.96874 -0.72743,-1.39101 l -1.25236,0.33948 c 0.1695,0.32291 0.37201,0.69549 0.52492,1.05153 h -6.63379 v 3.05113 h 1.23577 z m 1.84346,11.19025 c 2.65763,0.37262 5.92692,1.27085 7.72079,2.03685 l 0.54134,-1.03512 c -1.84743,-0.71201 -5.11258,-1.59379 -7.72062,-1.96641 z m 1.97979,-2.69514 c 1.37227,0.33947 3.09996,0.98529 3.98031,1.45725 l 0.57451,-0.89836 c -0.93011,-0.49266 -2.65763,-1.0681 -3.99689,-1.3579 z m 0.27283,-3.81701 h 3.62057 v 1.2751 h -3.62057 z m 0,-2.13619 h 3.62057 v 1.22128 h -3.62057 z m 9.25825,4.44213 v -1.03084 h -4.38533 v -1.2751 h 2.28563 v -0.91491 h -2.28563 v -1.22128 h 2.60805 v -0.94805 h -2.60805 v -1.15503 h -1.25235 v 1.15503 h -3.62057 v -1.15503 h -1.23577 v 1.15503 h -2.69081 v 0.94805 h 2.69081 v 1.22128 h -2.40554 v 0.91491 h 2.40554 v 1.2751 h -4.38533 v 1.03084 h 4.09591 c -1.06627,1.27509 -2.77754,2.42599 -4.4515,2.96832 0.26868,0.24015 0.64484,0.6955 0.83093,0.98539 1.93003,-0.74524 3.8934,-2.23979 5.02584,-3.95371 h 3.72407 c 1.23577,1.54419 3.3023,3.03871 5.11276,3.78393 0.2025,-0.30633 0.59507,-0.76178 0.84717,-1.0019 -1.57478,-0.55889 -3.33547,-1.61044 -4.52165,-2.78203 z m 16.64246,-6.33822 v -1.08881 h -10.66767 c 0.23965,-0.52576 0.45874,-1.06809 0.64483,-1.61042 l -1.23594,-0.32291 c -0.81417,2.45911 -2.20285,4.78575 -3.82722,6.27613 0.28924,0.15316 0.86376,0.54232 1.09944,0.76174 1.01668,-1.05155 2.00035,-2.44257 2.81055,-4.01573 z m -1.25236,2.30593 v -1.06809 h -10.05601 v 1.06809 z m -11.75053,1.32064 v 1.10122 h 9.14249 c 0.21909,4.35934 0.83076,7.76644 3.06281,7.76644 0.98368,0 1.28536,-0.79474 1.38869,-2.79852 -0.26868,-0.16978 -0.62411,-0.47196 -0.88035,-0.72864 -0.0173,1.40758 -0.11991,2.28937 -0.43819,2.28937 -1.3225,0 -1.78143,-3.76319 -1.89702,-7.62987 z"
     fill="#19191a"
     fill-opacity="1"
     id="path19892"
     style="stroke-width:1.72928" />
  <path
     d="m 1059.486,332.43366 c 0,94.77308 -81.94926,171.6017 -183.03805,171.6017 -101.08792,0 -183.03628,-76.82862 -183.03628,-171.6017 0,-94.77325 81.94836,-171.60205 183.03628,-171.60205 101.08879,0 183.03805,76.8288 183.03805,171.60205 z"
     fill="#19191a"
     fill-opacity="0"
     id="path19894"
     style="stroke-width:1.72928" />
  <path
     d="m 1059.486,332.43366 c 0,94.77308 -81.94926,171.6017 -183.03805,171.6017 -101.08792,0 -183.03628,-76.82862 -183.03628,-171.6017 0,-94.77325 81.94836,-171.60205 183.03628,-171.60205 101.08879,0 183.03805,76.8288 183.03805,171.60205 z"
     fill="none"
     stroke="#75befa"
     stroke-opacity="1"
     stroke-width="3.45855"
     stroke-dasharray="3, 3"
     id="path19896" />
  <path
     d="m 777.48392,407.85939 c -1.01581,2.30095 -2.56313,4.11713 -4.49433,5.52487 -1.91348,-1.45516 -3.41354,-3.34801 -4.47659,-5.52487 z m -12.81558,-1.893 v -4.2118 h 6.40777 v 4.407 h -6.40777 z m 14.07347,0.12426 -0.33659,0.071 h -5.4924 v -4.40701 h 6.17162 c -0.46065,1.13577 -0.94497,2.30111 -1.38194,3.0997 l 1.64769,0.50872 c 0.72639,-1.25998 1.5473,-3.24757 2.22635,-5.06361 l -1.35827,-0.36675 -0.33659,0.0768 h -6.96886 v -3.31855 h -1.83671 v 3.31855 h -8.17952 v 5.93318 c 0,3.51376 -0.28939,8.2638 -2.85249,11.62981 0.4134,0.21876 1.13981,0.82813 1.42919,1.18898 2.34461,-3.05241 3.00015,-7.38847 3.14188,-10.90211 h 2.00797 c 1.18706,2.63826 2.75801,4.821 4.81323,6.54234 -2.27373,1.30736 -4.88409,2.23016 -7.68935,2.78623 0.36026,0.38456 0.84453,1.15939 1.03942,1.6445 2.9529,-0.69799 5.73453,-1.72134 8.15,-3.27117 2.27373,1.57925 5.0553,2.66785 8.29764,3.34801 0.24207,-0.50865 0.75007,-1.25994 1.13987,-1.67409 -3.02376,-0.50865 -5.66377,-1.45516 -7.83704,-2.80977 2.36817,-1.86932 4.25811,-4.38919 5.39194,-7.66054 z"
     fill="#19191a"
     fill-opacity="1"
     id="path19898"
     style="stroke-width:1.72928" />
  <path
     d="m 846.03494,591.55776 c 0,143.78888 -116.37522,260.35234 -259.92976,260.35234 -143.55403,0 -259.92804,-116.56346 -259.92804,-260.35234 0,-143.78853 116.37401,-260.35233 259.92804,-260.35233 143.55454,0 259.92976,116.5638 259.92976,260.35233 z"
     fill="#fef3a4"
     fill-opacity="0"
     id="path13159"
     style="stroke-width:1.72928" />
  <path
     d="m 826.8304,591.55776 c 0,133.17805 -107.78599,241.13826 -240.74699,241.13826 -132.95979,0 -240.74527,-107.96021 -240.74527,-241.13826 0,-133.17683 107.78548,-241.13825 240.74527,-241.13825 132.961,0 240.74699,107.96142 240.74699,241.13825 z"
     fill="#f25c9b"
     fill-opacity="0"
     id="path13163"
     style="stroke-width:1.72928" />
  <path
     d="m 850.3394,493.06717 c 0.0237,-0.97005 0.0472,-1.88696 0.0472,-2.70925 v -1.36056 h 3.57891 v 4.06981 z m 3.62615,-9.71313 v 3.97518 h -3.57891 v -3.97518 z m 1.69497,-1.67406 h -6.9393 v 8.67794 c 0,3.5611 -0.12406,8.33485 -1.78947,11.7244 0.45476,0.17151 1.18115,0.60332 1.50008,0.89909 1.11028,-2.33072 1.59457,-5.33571 1.81307,-8.1929 h 3.72065 v 5.76769 c 0,0.33714 -0.11819,0.43769 -0.43112,0.4614 -0.28938,0 -1.25794,0.0235 -2.37412,-0.0237 0.24212,0.4614 0.48427,1.23623 0.56104,1.72134 1.57094,0 2.51587,-0.0531 3.11826,-0.36673 0.60238,-0.28989 0.82091,-0.79854 0.82091,-1.7923 z m 10.78984,19.11869 c -0.14756,0 -0.28941,-0.0474 -0.3898,-0.12427 -0.11802,-0.1182 -0.14169,-0.55606 -0.14169,-1.33089 v -17.66353 h -7.54759 v 10.18039 c 0,3.29488 -0.1949,7.36476 -2.34461,10.10357 0.4075,0.21305 1.15753,0.75129 1.50008,1.08843 2.27373,-2.95757 2.61036,-7.68408 2.61036,-11.192 v -8.45899 h 4.01588 v 15.80004 c 0,2.03494 0.11819,2.44321 0.48432,2.80994 0.38394,0.31343 0.89176,0.48494 1.37608,0.48494 h 1.18704 c 0.48432,0 0.94497,-0.12409 1.28156,-0.34302 0.31309,-0.26618 0.53149,-0.65074 0.63188,-1.30736 0.0945,-0.57961 0.18903,-2.22999 0.2127,-3.51364 -0.50799,-0.14209 -1.06316,-0.4614 -1.44692,-0.79872 0,1.5263 -0.0237,2.73899 -0.0769,3.24764 -0.0472,0.50865 -0.11801,0.75129 -0.24207,0.84596 -0.0945,0.12409 -0.28942,0.17151 -0.47845,0.17151 z m 22.40057,-2.20645 c -1.32872,-1.28365 -4.0159,-3.24764 -6.0947,-4.64949 0.33659,-0.87556 0.55517,-1.74505 0.75007,-2.66786 h -1.84277 c -0.60233,2.86308 -1.93106,5.81476 -6.36045,7.29364 0.41331,0.3136 0.89763,0.9228 1.08666,1.3546 2.83474,-1.06471 4.55344,-2.63825 5.6401,-4.47797 2.00795,1.44927 4.32882,3.29488 5.51586,4.47797 z m 3.16545,-14.24438 h -8.72865 c 0.1949,-1.09435 0.31291,-2.23011 0.40743,-3.46645 h -1.8839 c -0.0708,1.23634 -0.1949,2.40168 -0.3898,3.46645 h -8.79968 v 18.55673 h 1.76588 v -16.78802 h 6.62637 c -0.79741,2.44307 -2.37426,4.31235 -5.61056,5.50135 0.38394,0.3136 0.89175,0.91691 1.11033,1.3546 2.71068,-1.041 4.37617,-2.5436 5.41565,-4.43654 2.15551,1.31323 4.60062,3.02863 5.90567,4.14665 l 1.21072,-1.40774 c -1.45279,-1.18315 -4.23448,-2.95185 -6.43734,-4.21185 0.10039,-0.31943 0.1949,-0.60928 0.28942,-0.94647 h 7.35276 v 14.4869 c 0,0.41415 -0.11819,0.55607 -0.55516,0.57978 -0.46065,0 -1.93124,0.0294 -3.50809,-0.0474 0.24207,0.48511 0.48432,1.30736 0.56104,1.816 2.00795,0 3.43137,-0.0235 4.25228,-0.33713 0.77944,-0.28989 1.01563,-0.8695 1.01563,-2.01123 z"
     fill="#19191a"
     fill-opacity="1"
     id="path13177"
     style="stroke-width:1.72928" />
  <path
     d="m 675.85485,591.5569 c 0,49.6527 -40.18532,89.90361 -89.7571,89.90361 -49.57178,0 -89.75779,-40.25091 -89.75779,-89.90361 0,-49.65287 40.18601,-89.90431 89.75779,-89.90431 49.57178,0 89.7571,40.25144 89.7571,89.90431 z"
     fill="#f25c9b"
     fill-opacity="0"
     id="path13193"
     style="stroke-width:1.72928" />
  <path
     d="m 475.41267,387.68366 c 0,112.4858 -87.6383,203.67319 -195.74447,203.67319 -108.10576,0 -195.743169,-91.18739 -195.743169,-203.67319 0,-112.48555 87.637409,-203.67325 195.743169,-203.67325 108.10617,0 195.74447,91.1877 195.74447,203.67325 z"
     fill="#fef3a4"
     fill-opacity="0"
     id="path13159-6"
     style="stroke-width:1.32729" />
  <path
     d="m 475.41267,387.68366 c 0,112.4858 -87.6383,203.67319 -195.74447,203.67319 -108.10576,0 -195.743169,-91.18739 -195.743169,-203.67319 0,-112.48555 87.637409,-203.67325 195.743169,-203.67325 108.10617,0 195.74447,91.1877 195.74447,203.67325 z"
     fill="none"
     stroke="#19191a"
     stroke-opacity="1"
     stroke-width="2.65459"
     stroke-dasharray="none"
     id="path13161" />
  <path
     d="m 460.95038,387.68366 c 0,104.18496 -81.17005,188.64206 -181.29858,188.64206 -100.12759,0 -181.297253,-84.4571 -181.297253,-188.64206 0,-104.18401 81.169663,-188.64211 181.297253,-188.64211 100.12853,0 181.29858,84.4581 181.29858,188.64211 z"
     fill="#f25c9b"
     fill-opacity="0"
     id="path13163-9"
     style="stroke-width:1.32729" />
  <path
     d="m 460.95038,387.68366 c 0,104.18496 -81.17005,188.64206 -181.29858,188.64206 -100.12759,0 -181.297253,-84.4571 -181.297253,-188.64206 0,-104.18401 81.169663,-188.64211 181.297253,-188.64211 100.12853,0 181.29858,84.4581 181.29858,188.64211 z"
     fill="none"
     stroke="#19191a"
     stroke-opacity="1"
     stroke-width="2.65459"
     stroke-dasharray="3, 3"
     id="path13165"
     style="fill:#ffff00" />
  <path
     d="m 443.44757,387.68435 c 0,94.12538 -73.33424,170.43056 -163.79485,170.43056 -90.46152,0 -163.79484,-76.30518 -163.79484,-170.43056 0,-94.12635 73.33332,-170.43063 163.79484,-170.43063 90.46061,0 163.79485,76.30428 163.79485,170.43063 z"
     fill="#f26957"
     fill-opacity="1"
     id="path13167"
     style="stroke-width:1.32729" />
  <path
     d="m 443.44757,387.68435 c 0,94.12538 -73.33424,170.43056 -163.79485,170.43056 -90.46152,0 -163.79484,-76.30518 -163.79484,-170.43056 0,-94.12635 73.33332,-170.43063 163.79484,-170.43063 90.46061,0 163.79485,76.30428 163.79485,170.43063 z"
     fill="none"
     stroke="#19191a"
     stroke-opacity="1"
     stroke-width="5.30917"
     stroke-dasharray="none"
     id="path13169" />
  <path
     d="m 347.25569,387.68298 c 0,38.84323 -30.26222,70.33146 -67.59309,70.33146 -37.33085,0 -67.59361,-31.48823 -67.59361,-70.33146 0,-38.84335 30.26276,-70.33197 67.59361,-70.33197 37.33087,0 67.59309,31.48862 67.59309,70.33197 z"
     fill="#f25c9b"
     fill-opacity="0"
     id="path13193-4"
     style="stroke-width:1.32729" />
  <path
     d="m 347.25569,387.68298 c 0,38.84323 -30.26222,70.33146 -67.59309,70.33146 -37.33085,0 -67.59361,-31.48823 -67.59361,-70.33146 0,-38.84335 30.26276,-70.33197 67.59361,-70.33197 37.33087,0 67.59309,31.48862 67.59309,70.33197 z"
     fill="none"
     stroke="#19191a"
     stroke-opacity="1"
     stroke-width="2.65459"
     stroke-dasharray="3, 3"
     id="path13195" />
  <path
     d="m 502.38505,329.25491 c 0,22.27566 -24.58459,40.33382 -54.91123,40.33382 -30.32663,0 -54.91123,-18.05816 -54.91123,-40.33382 0,-22.27584 24.5846,-40.33382 54.91123,-40.33382 30.32664,0 54.91123,18.05798 54.91123,40.33382 z"
     fill="none"
     stroke="#75befa"
     stroke-opacity="1"
     stroke-width="3.45855"
     stroke-dasharray="3, 3"
     id="path19848" />
</svg>
