<svg xmlns="http://www.w3.org/2000/svg" xmlns:xlink="http://www.w3.org/1999/xlink" width="458.886719" height="302.867798" viewBox="0 0 458.887 302.868"><path d="M278.663 139.331C278.663 216.282 216.282 278.662 139.331 278.662C62.3807 278.662 0 216.282 0 139.331C0 62.3807 62.3807 0 139.331 0C216.282 0 278.663 62.3807 278.663 139.331L278.663 139.331Z" fill="#F26957" fill-opacity="0.000000" transform="matrix(1 0 0 1 12.1025 12.1027)"/><path d="M278.663 139.331C278.663 216.282 216.282 278.662 139.331 278.662C62.3807 278.662 0 216.282 0 139.331C0 62.3807 62.3807 0 139.331 0C216.282 0 278.663 62.3807 278.663 139.331L278.663 139.331Z" fill="none" stroke="#19191A" stroke-opacity="1.000000" stroke-width="2" stroke-dasharray="0 0" transform="matrix(1 0 0 1 12.1025 12.1027)"/><path d="M103.894 51.9472C103.894 80.6368 80.6368 103.894 51.9472 103.894C23.2576 103.894 0 80.6368 0 51.9472C0 23.2575 23.2576 0 51.9472 0C80.6368 0 103.894 23.2575 103.894 51.9472L103.894 51.9472Z" fill="#FFCFD5" fill-opacity="0.000000" transform="matrix(1 0 0 1 99.4912 99.4877)"/><path d="M103.894 51.9472C103.894 80.6368 80.6368 103.894 51.9472 103.894C23.2576 103.894 0 80.6368 0 51.9472C0 23.2575 23.2576 0 51.9472 0C80.6368 0 103.894 23.2575 103.894 51.9472L103.894 51.9472Z" fill="none" stroke="#19191A" stroke-opacity="1.000000" stroke-width="2" stroke-dasharray="0 0" transform="matrix(1 0 0 1 99.4912 99.4877)"/><clipPath id="clip_2_17_0"><path d="M114.333 140.33L188.544 140.33L188.544 214.54L114.333 214.54L114.333 140.33Z"/></clipPath><g clip-path="url(#clip_2_17_0)"><path d="M57.5459 47.5178L52.4804 47.5178L52.4804 45.1253L51.4448 45.1253L51.4448 47.5178L46.3759 47.5178L46.3759 57.9324L47.3979 57.9324L47.3979 48.5398L51.4277 48.5398C51.3457 50.3753 50.8398 52.6824 47.7602 54.323C47.9995 54.5042 48.3481 54.8836 48.5019 55.1057C50.3784 54.0017 51.3867 52.6995 51.9062 51.3528C53.1948 52.5593 54.5927 53.9846 55.3071 54.9246L56.1616 54.2512C55.3071 53.2156 53.5981 51.5784 52.2138 50.3616C52.3676 49.7293 52.436 49.114 52.4668 48.5398L56.5239 48.5398L56.5239 56.5208C56.5239 56.7737 56.4419 56.8557 56.1889 56.8694C55.895 56.8831 54.9448 56.8831 53.9638 56.842C54.1176 57.1223 54.2714 57.6111 54.3125 57.8914C55.56 57.8914 56.4282 57.8914 56.917 57.7102C57.3921 57.5427 57.5459 57.2044 57.5459 56.5344L57.5459 47.5178Z" fill="#19191A" fill-opacity="1.000000" transform="matrix(1 0 0 1 99.4912 99.4877)"/></g><path d="M6.42578 6.42285L3.79395 6.42285C3.98877 5.79395 4.14258 5.15137 4.29639 4.47803L3.27441 4.2832C2.77197 6.7168 1.89014 9.02734 0.615234 10.4697C0.84082 10.6099 1.30225 10.9448 1.46973 11.1294C2.25244 10.1484 2.92578 8.85986 3.45898 7.40381L6.11816 7.40381C5.87891 8.87354 5.50293 10.1484 5.02441 11.2524C4.43652 10.75 3.61279 10.1621 2.93945 9.7417L2.31055 10.4287C3.06592 10.9312 3.98877 11.6455 4.57666 12.1924C3.58545 14.0107 2.2251 15.2856 0.601562 16.1128C0.854492 16.2803 1.28857 16.7007 1.44238 16.9673C4.42285 15.3403 6.60693 12.0796 7.34863 6.60742L6.6377 6.36816L6.42578 6.42285ZM9.61816 8.80518L9.61816 4.29688L8.55518 4.29688L8.55518 17.063L9.61816 17.063L9.61816 9.46143C10.7256 10.4014 11.9971 11.5771 12.6294 12.3735L13.4531 11.6592C12.7114 10.7773 11.2007 9.44775 9.99756 8.49756L9.61816 8.80518Z" fill="#19191A" fill-opacity="1.000000" transform="matrix(1 0 0 1 167.544 53.2145)"/><path d="M2.25244 11.3379C2.2832 10.8354 2.2832 10.3569 2.2832 9.90918L2.2832 8.95898L4.07422 8.95898L4.07422 11.3379L2.25244 11.3379ZM4.07422 5.62646L4.07422 8.07715L2.2832 8.07715L2.2832 5.62646L4.07422 5.62646ZM4.99707 4.77197L1.34326 4.77197L1.34326 9.90918C1.34326 11.9121 1.28857 14.6431 0.48877 16.5469C0.714355 16.6597 1.12109 16.9673 1.2749 17.1484C1.84912 15.7744 2.1123 13.9424 2.21143 12.2471L4.07422 12.2471L4.07422 15.8052C4.07422 15.9727 4.01953 16.0137 3.87939 16.0273C3.75293 16.0273 3.31885 16.0273 2.85742 16.0137C2.99756 16.2666 3.1377 16.7007 3.16504 16.9536C3.83496 16.9536 4.28271 16.9365 4.59033 16.7554C4.90137 16.6016 4.99707 16.3213 4.99707 15.8325L4.99707 4.77197ZM10.7666 11.4233L12.8789 11.4233L12.8789 10.415L10.7666 10.415L10.7666 7.58496L9.77197 7.58496L9.77197 10.415L7.60156 10.415L7.60156 11.4233L9.77197 11.4233L9.77197 15.6069L6.98633 15.6069L6.98633 16.6152L13.2856 16.6152L13.2856 15.6069L10.7666 15.6069L10.7666 11.4233ZM9.61816 6.2417L10.5137 5.83496C10.3188 5.38721 9.87109 4.70361 9.45068 4.2251L8.58252 4.57715C8.97559 5.10693 9.40967 5.78027 9.59082 6.2417L5.93701 6.2417L5.93701 10.4561C5.93701 12.2471 5.86523 14.6567 5.0415 16.4067C5.25 16.5195 5.67041 16.8818 5.81055 17.0767C6.77441 15.2036 6.93164 12.4009 6.93164 10.4561L6.93164 7.22266L13.2993 7.22266L13.2993 6.2417L9.61816 6.2417ZM16.2524 11.4233C16.2831 10.8628 16.2831 10.3159 16.2831 9.82715L16.2831 9.01367L17.7392 9.01367L17.7392 11.4233L16.2524 11.4233ZM17.7392 5.73926L17.7392 8.09082L16.2831 8.09082L16.2831 5.73926L17.7392 5.73926ZM18.662 4.81299L15.3876 4.81299L15.3876 9.84082C15.3876 11.8711 15.3159 14.6567 14.5742 16.6289C14.8134 16.7144 15.2031 16.9536 15.3705 17.0903C15.8764 15.7471 16.1122 13.9971 16.2114 12.3599L17.7392 12.3599L17.7392 15.7471C17.7392 15.9316 17.6811 15.9863 17.5136 16C17.3735 16 16.871 16 16.3242 15.9727C16.4506 16.2393 16.5634 16.6733 16.6044 16.9365C17.4145 16.9365 17.9067 16.9092 18.228 16.7417C18.5493 16.5742 18.662 16.2803 18.662 15.7607L18.662 4.81299ZM22.3705 7.01074C22.1074 8.4668 21.475 10.3022 20.6069 11.4507C20.7744 11.6455 20.9863 11.9805 21.0991 12.1924C21.3486 11.8984 21.5605 11.5464 21.769 11.1704L21.769 17.0356L22.6098 17.0356L22.6098 9.3623C22.8901 8.65137 23.0986 7.90967 23.2695 7.22266L22.3705 7.01074ZM26.4174 7.13721L25.5356 7.13721L25.5356 9.06836L23.1567 9.06836L23.1567 9.98096L25.5356 9.98096L25.5356 15.8872C25.5356 16.0684 25.4809 16.1265 25.2963 16.1265C25.1288 16.1401 24.5683 16.1401 23.912 16.1128C24.0248 16.3794 24.1513 16.7417 24.1923 16.981C25.0742 16.9946 25.621 16.9673 25.9697 16.8135C26.291 16.6597 26.4174 16.4204 26.4174 15.8872L26.4174 9.98096L27.2309 9.98096L27.2309 9.06836L26.4174 9.06836L26.4174 7.13721ZM25.1425 13.8706C24.934 13.1152 24.4726 11.9531 24.0385 11.0303L23.2831 11.2524C23.6865 12.165 24.1513 13.3682 24.3598 14.1372L25.1425 13.8706ZM24.2744 5.73926C24.0795 5.2915 23.7993 4.68652 23.5327 4.21143L22.6645 4.4917C22.8491 4.87109 23.0712 5.33252 23.2524 5.73926L19.5712 5.73926L19.5712 10.3569C19.5712 12.2471 19.5165 14.7832 18.7748 16.5879C18.997 16.6733 19.4174 16.9536 19.5986 17.1211C20.3984 15.2036 20.5248 12.3599 20.5248 10.3569L20.5248 6.67578L27.3574 6.67578L27.3574 5.73926L24.2744 5.73926Z" fill="#19191A" fill-opacity="1.000000" transform="matrix(1 0 0 1 345.515 142.198)"/><path d="M8.79997 -0.02222Q8.80024 0.0857936 8.79522 0.19369Q8.79019 0.301587 8.77987 0.409108Q8.76956 0.516628 8.75398 0.623512Q8.7384 0.730397 8.71759 0.836388Q8.69679 0.942379 8.67081 1.04722Q8.64483 1.15207 8.61374 1.25551Q8.58264 1.35895 8.54651 1.46074Q8.51038 1.56253 8.46929 1.66243Q8.42821 1.76232 8.38228 1.86008Q8.33634 1.95784 8.28566 2.05323Q8.23499 2.14862 8.17969 2.24141Q8.1244 2.33419 8.06461 2.42415Q8.00483 2.51412 7.94071 2.60103Q7.87658 2.68795 7.80827 2.77162Q7.73996 2.85529 7.66762 2.93551Q7.59529 3.01572 7.5191 3.09229Q7.44292 3.16886 7.36307 3.2416Q7.28322 3.31434 7.1999 3.38308Q7.11657 3.45181 7.02998 3.51637Q6.94338 3.58094 6.85372 3.64117Q6.76407 3.70141 6.67156 3.75717Q6.57905 3.81294 6.48392 3.86409Q6.38879 3.91525 6.29127 3.96168Q6.19374 4.00811 6.09405 4.0497Q5.99437 4.09128 5.89276 4.12793Q5.79115 4.16457 5.68787 4.19619Q5.58458 4.2278 5.47987 4.25431Q5.37516 4.28082 5.26928 4.30216Q5.16339 4.3235 5.05659 4.33962Q4.94978 4.35574 4.84232 4.3666Q4.73485 4.37746 4.62698 4.38303Q4.51911 4.3886 4.4111 4.38888Q4.30308 4.38915 4.19519 4.38412Q4.08729 4.37909 3.97977 4.36878Q3.87225 4.35846 3.76536 4.34288Q3.65848 4.3273 3.55249 4.3065Q3.4465 4.28569 3.34165 4.25971Q3.23681 4.23373 3.13337 4.20264Q3.02993 4.17155 2.92814 4.13541Q2.82634 4.09928 2.72645 4.0582Q2.62655 4.01712 2.52879 3.97118Q2.43103 3.92525 2.33565 3.87457Q2.24026 3.82389 2.14747 3.7686Q2.05468 3.7133 1.96472 3.65352Q1.87476 3.59373 1.78784 3.52961Q1.70092 3.46549 1.61725 3.39717Q1.53358 3.32886 1.45337 3.25653Q1.37315 3.18419 1.29658 3.10801Q1.22001 3.03182 1.14727 2.95197Q1.07453 2.87212 1.0058 2.7888Q0.937065 2.70548 0.872502 2.61888Q0.80794 2.53229 0.747704 2.44263Q0.687468 2.35297 0.631704 2.26046Q0.57594 2.16796 0.524782 2.07283Q0.473624 1.9777 0.427196 1.88017Q0.380768 1.78264 0.339181 1.68296Q0.297594 1.58327 0.260948 1.48166Q0.224303 1.38005 0.192687 1.27677Q0.161071 1.17349 0.134562 1.06878Q0.108052 0.964066 0.0867119 0.858181Q0.065372 0.752296 0.0492534 0.645492Q0.0331347 0.538687 0.0222761 0.431221Q0.0114175 0.323754 0.00584512 0.215884Q0.000272735 0.108014 0 0Q-0.000272735 -0.108014 0.00475483 -0.21591Q0.0097824 -0.323807 0.0200982 -0.431328Q0.0304139 -0.538848 0.045993 -0.645732Q0.0615721 -0.752617 0.082377 -0.858608Q0.103182 -0.964599 0.129163 -1.06944Q0.155143 -1.17429 0.186237 -1.27773Q0.217331 -1.38117 0.253462 -1.48296Q0.289594 -1.58475 0.330677 -1.68465Q0.37176 -1.78454 0.417696 -1.8823Q0.463631 -1.98006 0.514308 -2.07545Q0.564984 -2.17084 0.62028 -2.26363Q0.675577 -2.35641 0.735359 -2.44637Q0.795141 -2.53633 0.859266 -2.62325Q0.923391 -2.71017 0.991703 -2.79384Q1.06002 -2.87751 1.13235 -2.95773Q1.20469 -3.03794 1.28087 -3.11451Q1.35705 -3.19108 1.4369 -3.26382Q1.51675 -3.33656 1.60008 -3.4053Q1.6834 -3.47403 1.76999 -3.53859Q1.85659 -3.60316 1.94625 -3.66339Q2.03591 -3.72363 2.12841 -3.77939Q2.22092 -3.83516 2.31605 -3.88631Q2.41118 -3.93747 2.50871 -3.9839Q2.60623 -4.03033 2.70592 -4.07192Q2.80561 -4.1135 2.90722 -4.15015Q3.00882 -4.18679 3.11211 -4.21841Q3.21539 -4.25002 3.3201 -4.27653Q3.42481 -4.30304 3.53069 -4.32438Q3.63658 -4.34572 3.74338 -4.36184Q3.85019 -4.37796 3.95766 -4.38882Q4.06512 -4.39968 4.17299 -4.40525Q4.28086 -4.41082 4.38888 -4.4111Q4.49689 -4.41137 4.60479 -4.40634Q4.71268 -4.40131 4.8202 -4.391Q4.92772 -4.38068 5.03461 -4.3651Q5.14149 -4.34952 5.24748 -4.32872Q5.35348 -4.30791 5.45832 -4.28193Q5.56316 -4.25595 5.6666 -4.22486Q5.77004 -4.19377 5.87184 -4.15763Q5.97363 -4.1215 6.07352 -4.08042Q6.17342 -4.03934 6.27118 -3.9934Q6.36894 -3.94747 6.46433 -3.89679Q6.55971 -3.84611 6.6525 -3.79082Q6.74529 -3.73552 6.83525 -3.67574Q6.92521 -3.61595 7.01213 -3.55183Q7.09905 -3.48771 7.18272 -3.41939Q7.26639 -3.35108 7.3466 -3.27875Q7.42682 -3.20641 7.50339 -3.13023Q7.57996 -3.05404 7.6527 -2.97419Q7.72544 -2.89434 7.79417 -2.81102Q7.86291 -2.7277 7.92747 -2.6411Q7.99203 -2.55451 8.05227 -2.46485Q8.1125 -2.37519 8.16827 -2.28268Q8.22403 -2.19018 8.27519 -2.09505Q8.32635 -1.99992 8.37278 -1.90239Q8.4192 -1.80486 8.46079 -1.70518Q8.50238 -1.60549 8.53902 -1.50388Q8.57567 -1.40227 8.60728 -1.29899Q8.6389 -1.19571 8.66541 -1.091Q8.69192 -0.986286 8.71326 -0.880401Q8.7346 -0.774516 8.75072 -0.667712Q8.76684 -0.560907 8.7777 -0.453441Q8.78856 -0.345974 8.79413 -0.238104Q8.7997 -0.130234 8.79997 -0.02222Z" transform="matrix(1 0 0 1 174.322 153.13)" fill="#000000" fill-opacity="1.000000" stroke="none"/><path d="M171.201 -0.432251L160.794 -6.40599L160.824 5.59397L171.201 -0.432251Z" transform="matrix(1 0 0 1 174.322 153.13)" fill="#000000" fill-opacity="1.000000" stroke="none"/><path d="M4.39999 -0.0111092L165.201 -0.417102" fill="none" stroke="#000000" stroke-opacity="1.000000" stroke-width="2" stroke-dasharray="0 0" transform="matrix(1 0 0 1 174.322 153.13)"/><path d="M11.8159 4.51904C10.9614 5.64014 9.36523 6.82959 8.03564 7.48926C8.30225 7.67041 8.59619 7.9917 8.79102 8.21729C10.1924 7.44482 11.7749 6.21436 12.7832 4.92578L11.8159 4.51904ZM12.2227 8.34033C11.2827 9.54688 9.60449 10.8184 8.18945 11.5327C8.44238 11.731 8.73633 12.0522 8.91748 12.2744C10.4146 11.437 12.0825 10.1074 13.1729 8.74707L12.2227 8.34033ZM3.43164 9.72803L3.43164 6.12891L5.68408 6.12891L5.68408 9.72803L3.43164 9.72803ZM8.2168 10.6953L8.2168 9.72803L6.69238 9.72803L6.69238 6.12891L8.0083 6.12891L8.0083 5.15137L0.84082 5.15137L0.84082 6.12891L2.45068 6.12891L2.45068 9.72803L0.628906 9.72803L0.628906 10.6953L2.43701 10.6953C2.37891 12.7666 2.07129 14.8105 0.560547 16.4614C0.796387 16.6016 1.17578 16.9365 1.34326 17.1621C3.01123 15.3267 3.35986 13.0332 3.41455 10.6953L5.68408 10.6953L5.68408 17.063L6.69238 17.063L6.69238 10.6953L8.2168 10.6953ZM12.5303 12.1069C11.4946 13.8296 9.51904 15.3848 7.46143 16.2393C7.71436 16.4478 8.02197 16.8135 8.18945 17.063C10.3462 16.0684 12.3354 14.4175 13.5112 12.4863L12.5303 12.1069ZM17.5546 4.33789C16.8574 6.45361 15.7226 8.53857 14.4887 9.89551C14.6733 10.1348 14.9809 10.6816 15.0903 10.9175C15.497 10.4424 15.9037 9.89551 16.2831 9.30762L16.2831 17.0493L17.2744 17.0493L17.2744 7.58496C17.7529 6.63477 18.187 5.62646 18.5219 4.63184L17.5546 4.33789ZM27.2993 8.10449L27.2993 7.09619L23.1293 7.09619L23.1293 4.33789L22.121 4.33789L22.121 7.09619L18.2006 7.09619L18.2006 8.10449L21.4887 8.10449C20.6376 10.4697 19.1816 12.835 17.6537 14.0552C17.893 14.2363 18.228 14.5986 18.4091 14.8379C19.8788 13.4946 21.2255 11.1978 22.121 8.77441L22.121 13.5356L19.8378 13.5356L19.8378 14.4893L22.121 14.4893L22.121 16.9946L23.1293 16.9946L23.1293 14.4893L25.3818 14.4893L25.3818 13.5356L23.1293 13.5356L23.1293 8.67871C23.9804 11.1123 25.3271 13.4673 26.7968 14.8105C26.978 14.5303 27.3266 14.1646 27.5795 13.9834C26.0688 12.7666 24.6264 10.4424 23.7993 8.10449L27.2993 8.10449ZM28.6425 12.5684L32.2279 12.5684L32.2279 11.5908L28.6425 11.5908L28.6425 12.5684ZM43.4126 10.7227C42.8247 12.0522 41.9292 13.1016 40.8115 13.915C39.7041 13.0742 38.8359 11.9805 38.2207 10.7227L43.4126 10.7227ZM35.9956 9.62891L35.9956 7.19531L39.7041 7.19531L39.7041 9.7417L35.9956 9.7417L35.9956 9.62891ZM44.1406 9.70068L43.9458 9.7417L40.767 9.7417L40.767 7.19531L44.3388 7.19531C44.0722 7.85156 43.7919 8.5249 43.539 8.98633L44.4926 9.28027C44.913 8.55225 45.3881 7.40381 45.7812 6.35449L44.9951 6.14258L44.8002 6.18701L40.767 6.18701L40.767 4.26953L39.7041 4.26953L39.7041 6.18701L34.9702 6.18701L34.9702 9.61523C34.9702 11.6455 34.8027 14.3901 33.3193 16.335C33.5585 16.4614 33.979 16.8135 34.1464 17.022C35.5034 15.2583 35.8828 12.7529 35.9648 10.7227L37.1269 10.7227C37.8139 12.2471 38.7231 13.5083 39.9126 14.5029C38.5966 15.2583 37.0859 15.7915 35.4624 16.1128C35.6709 16.335 35.9511 16.7827 36.0639 17.063C37.7729 16.6597 39.3828 16.0684 40.7807 15.1729C42.0966 16.0854 43.7065 16.7144 45.583 17.1074C45.7231 16.8135 46.017 16.3794 46.2426 16.1401C44.4926 15.8462 42.9648 15.2993 41.707 14.5166C43.0776 13.4365 44.1713 11.9805 44.8276 10.0903L44.1406 9.70068ZM57.6381 14.5713C56.869 13.8296 55.3139 12.6948 54.1107 11.8848C54.3056 11.3789 54.432 10.8765 54.5448 10.3433L53.4784 10.3433C53.1298 11.9976 52.3607 13.7031 49.7973 14.5576C50.0365 14.7388 50.3168 15.0908 50.4262 15.3403C52.0668 14.7251 53.0614 13.8159 53.6903 12.7529C54.8524 13.5903 56.1957 14.6567 56.8827 15.3403L57.6381 14.5713ZM59.4701 6.34082L54.4184 6.34082C54.5311 5.7085 54.5995 5.05225 54.6542 4.33789L53.5639 4.33789C53.5228 5.05225 53.4511 5.72559 53.3383 6.34082L48.2455 6.34082L48.2455 17.063L49.2675 17.063L49.2675 7.36279L53.1024 7.36279C52.641 8.77441 51.7284 9.85449 49.8554 10.5415C50.0775 10.7227 50.3715 11.0713 50.4979 11.3242C52.0668 10.7227 53.0307 9.85449 53.6322 8.76074C54.8798 9.51953 56.2948 10.5107 57.0502 11.1567L57.7509 10.3433C56.91 9.65967 55.3002 8.6377 54.0253 7.90967C54.0834 7.7251 54.1381 7.55762 54.1928 7.36279L58.4481 7.36279L58.4481 15.7334C58.4481 15.9727 58.3798 16.0547 58.1268 16.0684C57.8602 16.0684 57.0092 16.0854 56.0966 16.041C56.2367 16.3213 56.3768 16.7964 56.4213 17.0903C57.5834 17.0903 58.4071 17.0767 58.8822 16.8955C59.3334 16.728 59.4701 16.3931 59.4701 15.7334L59.4701 6.34082ZM72.2943 5.7666C71.4261 5.27441 69.7205 4.65918 68.4593 4.32422L68.0389 5.1377C69.3138 5.51367 71.0091 6.17334 71.8602 6.67578L72.2943 5.7666ZM63.0692 11.4097C63.0965 10.8491 63.0965 10.2886 63.0965 9.79639L63.0965 9.02734L65.0003 9.02734L65.0003 11.4097L63.0692 11.4097ZM65.0003 5.75293L65.0003 8.07715L63.0965 8.07715L63.0965 5.75293L65.0003 5.75293ZM68.7533 9.4751L68.5858 9.51953L66.388 9.51953L66.388 10.4834L68.2782 10.4834C67.8714 12.3872 67.0033 13.9697 65.9676 14.7832L65.9676 4.79932L62.1737 4.79932L62.1737 9.81348C62.1737 11.8574 62.1053 14.6567 61.22 16.6152C61.4593 16.7007 61.866 16.9365 62.0609 17.1074C62.6351 15.7744 62.9017 14.0107 63.0145 12.3735L65.0003 12.3735L65.0003 15.8325C65.0003 16.0137 64.9456 16.0684 64.7508 16.0854C64.597 16.0991 64.0501 16.0991 63.4212 16.0854C63.5614 16.3486 63.6981 16.7964 63.7288 17.063C64.6243 17.063 65.1541 17.0356 65.4925 16.8682C65.8411 16.687 65.9676 16.3931 65.9676 15.8325L65.9676 14.937C66.1761 15.1455 66.4017 15.4531 66.5145 15.665C67.9261 14.5576 68.9652 12.4727 69.3548 9.65967L68.7533 9.4751ZM73.2616 8.07715C72.8275 8.74707 72.1131 9.64258 71.4842 10.3159C71.2723 9.70068 71.0775 9.05469 70.9237 8.39844L70.9237 6.99707L67.2152 6.99707L67.2152 7.9917L69.929 7.9917L69.929 15.8462C69.929 16.041 69.8607 16.0991 69.6488 16.1128C69.4676 16.1128 68.7806 16.1265 68.0526 16.0991C68.1927 16.3794 68.3328 16.8271 68.3773 17.1074C69.3992 17.1074 70.0145 17.0903 70.4212 16.9092C70.7972 16.728 70.9237 16.4341 70.9237 15.8599L70.9237 11.1567C71.597 13.1016 72.5335 14.7524 73.7503 15.6924C73.9212 15.4258 74.2425 15.0635 74.4783 14.8652C73.3743 14.1235 72.4925 12.7803 71.8192 11.1978C72.5335 10.5415 73.4154 9.56055 74.1571 8.74707L73.2616 8.07715ZM78.2312 6.46729C78.5662 7.0415 78.8601 7.73877 79.0003 8.20361L79.9265 7.85156C79.8001 7.48926 79.5608 6.94238 79.2805 6.46729L81.6492 6.46729L81.6492 5.56836L78.0637 5.56836C78.2449 5.21973 78.4124 4.85742 78.5525 4.4917L77.5613 4.23877C77.0828 5.54102 76.2727 6.84326 75.3465 7.67041C75.5994 7.79688 76.0198 8.09082 76.2146 8.2583C76.676 7.76953 77.1546 7.15088 77.575 6.46729L78.2312 6.46729ZM77.6707 12.9614C77.7151 12.4727 77.7288 11.9976 77.7288 11.5635L80.094 11.5635L80.094 12.9614L77.6707 12.9614ZM80.094 9.39307L80.094 10.709L77.7288 10.709L77.7288 9.39307L80.094 9.39307ZM81.0886 8.51123L76.7478 8.51123L76.7478 11.5464C76.7478 13.0879 76.6214 15.1182 75.531 16.5742C75.7669 16.6733 76.2009 16.9673 76.3684 17.1484C77.0691 16.1948 77.4041 15.0054 77.575 13.8296L80.094 13.8296L80.094 15.8872C80.094 16.0547 80.0393 16.1128 79.8548 16.1265C79.6873 16.1265 79.1131 16.1265 78.4568 16.1128C78.5969 16.3931 78.7063 16.7964 78.7507 17.063C79.6599 17.063 80.2478 17.063 80.6101 16.8818C80.9758 16.728 81.0886 16.4478 81.0886 15.9009L81.0886 8.51123ZM84.5169 9.56055L84.5169 8.01904L83.553 8.01904L83.553 9.56055L81.5911 9.56055L81.5911 10.5107L83.553 10.5107C83.553 12.3325 83.3001 14.6123 81.116 16.4478C81.3552 16.6016 81.6765 16.8682 81.844 17.0903C84.1956 15.1318 84.5169 12.6538 84.5169 10.5107L86.7146 10.5107C86.6052 14.2227 86.448 15.5659 86.2122 15.8735C86.0857 16.0273 85.9592 16.0547 85.7371 16.0547C85.5115 16.0547 84.9099 16.0547 84.281 15.9863C84.4485 16.2666 84.5613 16.6733 84.575 16.981C85.2039 17.022 85.8465 17.022 86.2122 16.981C86.5882 16.9365 86.8411 16.8408 87.0803 16.5195C87.4563 16.0273 87.5828 14.4893 87.7229 10.0356C87.7366 9.89551 87.7366 9.56055 87.7366 9.56055L84.5169 9.56055ZM83.4539 5.56836C83.6487 5.21973 83.8162 4.85742 83.9563 4.4917L82.9343 4.23877C82.4729 5.54102 81.5911 6.78857 80.5965 7.58496C80.8494 7.69775 81.2698 8.01904 81.4646 8.18652C81.9841 7.7251 82.4866 7.13721 82.9343 6.46729L83.97 6.46729C84.3904 7.0415 84.7971 7.75244 84.9646 8.24463L85.8772 7.87891C85.72 7.50293 85.4124 6.94238 85.0774 6.46729L88.0032 6.46729L88.0032 5.56836L83.4539 5.56836ZM92.8054 14.0552L92.8054 12.9478L98.8962 12.9478L98.8962 14.0552L92.8054 14.0552ZM98.8962 11.0986L98.8962 12.1787L92.8054 12.1787L92.8054 11.0986L98.8962 11.0986ZM99.9045 10.2612L91.8244 10.2612L91.8244 17.0767L92.8054 17.0767L92.8054 14.8379L98.8962 14.8379L98.8962 15.959C98.8962 16.1538 98.8244 16.2085 98.6296 16.2256C98.404 16.2256 97.6486 16.2393 96.8659 16.2085C96.9924 16.4614 97.1325 16.8135 97.1735 17.0767C98.2365 17.0767 98.9372 17.063 99.3713 16.9229C99.778 16.769 99.9045 16.5195 99.9045 15.9727L99.9045 10.2612ZM92.9455 7.31836L95.7893 7.31836L95.7893 8.49756L92.9455 8.49756L92.9455 7.31836ZM98.715 5.7085L98.715 8.49756L96.7121 8.49756L96.7121 6.60742L92.9455 6.60742L92.9455 5.7085L98.715 5.7085ZM99.737 8.49756L99.737 4.88477L91.9509 4.88477L91.9509 8.49756L90.0061 8.49756L90.0061 11.1567L90.9563 11.1567L90.9563 9.40674L100.715 9.40674L100.715 11.1567L101.709 11.1567L101.709 8.49756L99.737 8.49756Z" fill="#19191A" fill-opacity="1.000000" transform="matrix(1 0 0 1 348.963 90.1719)"/><path d="M8.8 0Q8.8 0.108014 8.7947 0.215898Q8.7894 0.323782 8.77881 0.431275Q8.76823 0.538769 8.75238 0.645614Q8.73653 0.752459 8.71546 0.858397Q8.69438 0.964336 8.66814 1.06911Q8.64189 1.17389 8.61054 1.27725Q8.57918 1.38062 8.54279 1.48232Q8.5064 1.58402 8.46507 1.68381Q8.42373 1.7836 8.37755 1.88124Q8.33137 1.97889 8.28045 2.07415Q8.22954 2.16941 8.174 2.26205Q8.11847 2.3547 8.05847 2.44451Q7.99846 2.53432 7.93411 2.62108Q7.86977 2.70783 7.80125 2.79133Q7.73272 2.87483 7.66018 2.95486Q7.58765 3.03489 7.51127 3.11127Q7.43489 3.18765 7.35486 3.26018Q7.27483 3.33272 7.19133 3.40125Q7.10783 3.46977 7.02108 3.53411Q6.93432 3.59846 6.84451 3.65847Q6.7547 3.71848 6.66205 3.77401Q6.56941 3.82954 6.47415 3.88045Q6.37889 3.93137 6.28124 3.97755Q6.1836 4.02373 6.08381 4.06507Q5.98401 4.1064 5.88231 4.14279Q5.78062 4.17918 5.67725 4.21054Q5.57389 4.24189 5.46911 4.26814Q5.36434 4.29438 5.2584 4.31545Q5.15246 4.33653 5.04561 4.35238Q4.93877 4.36823 4.83128 4.37881Q4.72378 4.3894 4.6159 4.3947Q4.50801 4.4 4.4 4.4Q4.29199 4.4 4.1841 4.3947Q4.07622 4.3894 3.96872 4.37881Q3.86123 4.36823 3.75439 4.35238Q3.64754 4.33653 3.5416 4.31545Q3.43566 4.29438 3.33089 4.26814Q3.22611 4.24189 3.12275 4.21054Q3.01938 4.17918 2.91768 4.14279Q2.81598 4.1064 2.71619 4.06507Q2.6164 4.02373 2.51876 3.97755Q2.42111 3.93137 2.32585 3.88045Q2.23059 3.82954 2.13795 3.77401Q2.0453 3.71848 1.95549 3.65847Q1.86568 3.59846 1.77892 3.53411Q1.69217 3.46977 1.60867 3.40125Q1.52517 3.33272 1.44514 3.26018Q1.36511 3.18765 1.28873 3.11127Q1.21235 3.03489 1.13981 2.95486Q1.06728 2.87483 0.998754 2.79133Q0.930231 2.70783 0.865887 2.62108Q0.801543 2.53432 0.741534 2.44451Q0.681524 2.3547 0.625994 2.26205Q0.570464 2.1694 0.519546 2.07415Q0.468629 1.97889 0.422447 1.88124Q0.376265 1.7836 0.33493 1.68381Q0.293595 1.58402 0.257206 1.48232Q0.220817 1.38062 0.189463 1.27725Q0.158108 1.17389 0.131862 1.06911Q0.105617 0.964336 0.0845448 0.858397Q0.0634723 0.752459 0.0476234 0.645614Q0.0317744 0.538769 0.0211872 0.431275Q0.0106 0.323782 0.00529999 0.215898Q0 0.108014 0 0Q0 -0.108014 0.00529999 -0.215898Q0.0106 -0.323782 0.0211872 -0.431275Q0.0317744 -0.538769 0.0476233 -0.645614Q0.0634723 -0.752459 0.0845448 -0.858397Q0.105617 -0.964336 0.131862 -1.06911Q0.158108 -1.17389 0.189463 -1.27725Q0.220817 -1.38062 0.257206 -1.48232Q0.293595 -1.58402 0.33493 -1.68381Q0.376265 -1.7836 0.422447 -1.88124Q0.468629 -1.97889 0.519546 -2.07415Q0.570464 -2.16941 0.625994 -2.26205Q0.681524 -2.3547 0.741534 -2.44451Q0.801543 -2.53432 0.865887 -2.62108Q0.930231 -2.70783 0.998754 -2.79133Q1.06728 -2.87483 1.13981 -2.95486Q1.21235 -3.03489 1.28873 -3.11127Q1.36511 -3.18765 1.44514 -3.26018Q1.52517 -3.33272 1.60867 -3.40125Q1.69217 -3.46977 1.77892 -3.53411Q1.86568 -3.59846 1.95549 -3.65847Q2.0453 -3.71848 2.13795 -3.77401Q2.23059 -3.82954 2.32585 -3.88045Q2.42111 -3.93137 2.51876 -3.97755Q2.6164 -4.02373 2.71619 -4.06507Q2.81598 -4.1064 2.91768 -4.14279Q3.01938 -4.17918 3.12275 -4.21054Q3.22611 -4.24189 3.33089 -4.26814Q3.43566 -4.29438 3.5416 -4.31545Q3.64754 -4.33653 3.75439 -4.35238Q3.86123 -4.36823 3.96872 -4.37881Q4.07622 -4.3894 4.1841 -4.3947Q4.29199 -4.4 4.4 -4.4Q4.50801 -4.4 4.6159 -4.3947Q4.72378 -4.3894 4.83128 -4.37881Q4.93877 -4.36823 5.04561 -4.35238Q5.15246 -4.33653 5.2584 -4.31545Q5.36434 -4.29438 5.46911 -4.26814Q5.57389 -4.24189 5.67725 -4.21054Q5.78062 -4.17918 5.88232 -4.14279Q5.98401 -4.1064 6.08381 -4.06507Q6.1836 -4.02373 6.28124 -3.97755Q6.37889 -3.93137 6.47415 -3.88045Q6.56941 -3.82954 6.66205 -3.77401Q6.7547 -3.71848 6.84451 -3.65847Q6.93432 -3.59846 7.02108 -3.53411Q7.10783 -3.46977 7.19133 -3.40125Q7.27483 -3.33272 7.35486 -3.26018Q7.43489 -3.18765 7.51127 -3.11127Q7.58765 -3.03489 7.66018 -2.95486Q7.73272 -2.87483 7.80125 -2.79133Q7.86977 -2.70783 7.93411 -2.62108Q7.99846 -2.53432 8.05847 -2.44451Q8.11847 -2.3547 8.174 -2.26205Q8.22954 -2.1694 8.28045 -2.07415Q8.33137 -1.97889 8.37755 -1.88124Q8.42373 -1.7836 8.46507 -1.68381Q8.5064 -1.58402 8.54279 -1.48232Q8.57918 -1.38062 8.61054 -1.27725Q8.64189 -1.17389 8.66814 -1.06911Q8.69438 -0.964336 8.71546 -0.858397Q8.73653 -0.752459 8.75238 -0.645614Q8.76823 -0.538769 8.77881 -0.431275Q8.7894 -0.323782 8.7947 -0.215898Q8.8 -0.108014 8.8 0Z" transform="matrix(1 0 0 1 220.992 98.1719)" fill="#000000" fill-opacity="1.000000" stroke="none"/><path d="M123.961 0L113.569 -6L113.569 6L123.961 0Z" transform="matrix(1 0 0 1 220.992 98.1719)" fill="#000000" fill-opacity="1.000000" stroke="none"/><path d="M4.4 0L117.961 0" fill="none" stroke="#000000" stroke-opacity="1.000000" stroke-width="2" stroke-dasharray="0 0" transform="matrix(1 0 0 1 220.992 98.1719)"/></svg>