<?xml version="1.0" encoding="UTF-8" standalone="no"?>
<svg
   width="414.021484"
   height="325.071777"
   viewBox="0 0 414.021 325.072"
   version="1.1"
   id="svg22075"
   sodipodi:docname="shl002表里部位.svg"
   inkscape:version="1.2.2 (732a01da63, 2022-12-09)"
   xmlns:inkscape="http://www.inkscape.org/namespaces/inkscape"
   xmlns:sodipodi="http://sodipodi.sourceforge.net/DTD/sodipodi-0.dtd"
   xmlns="http://www.w3.org/2000/svg"
   xmlns:svg="http://www.w3.org/2000/svg">
  <defs
     id="defs22079" />
  <sodipodi:namedview
     id="namedview22077"
     pagecolor="#ffffff"
     bordercolor="#000000"
     borderopacity="0.25"
     inkscape:showpageshadow="2"
     inkscape:pageopacity="0.0"
     inkscape:pagecheckerboard="0"
     inkscape:deskcolor="#d1d1d1"
     showgrid="false"
     inkscape:zoom="2.436385"
     inkscape:cx="206.86386"
     inkscape:cy="162.53589"
     inkscape:window-width="1920"
     inkscape:window-height="986"
     inkscape:window-x="-11"
     inkscape:window-y="-11"
     inkscape:window-maximized="1"
     inkscape:current-layer="svg22075" />
  <path
     d="M300.867 150.433C300.867 233.515 233.515 300.866 150.433 300.866C67.3513 300.866 0 233.515 0 150.433C0 67.3512 67.3513 0 150.433 0C233.515 0 300.867 67.3512 300.867 150.433L300.867 150.433Z"
     fill="#FEF3A4"
     fill-opacity="0.000000"
     transform="matrix(1 0 0 1 12.1025 12.1027)"
     id="path22031" />
  <path
     d="M300.867 150.433C300.867 233.515 233.515 300.866 150.433 300.866C67.3513 300.866 0 233.515 0 150.433C0 67.3512 67.3513 0 150.433 0C233.515 0 300.867 67.3512 300.867 150.433L300.867 150.433Z"
     fill="none"
     stroke="#19191A"
     stroke-opacity="1.000000"
     stroke-width="2"
     stroke-dasharray="0 0"
     transform="matrix(1 0 0 1 12.1025 12.1027)"
     id="path22033" />
  <path
     d="M278.663 139.331C278.663 216.282 216.282 278.662 139.331 278.662C62.3807 278.662 0 216.282 0 139.331C0 62.3807 62.3807 0 139.331 0C216.282 0 278.663 62.3807 278.663 139.331L278.663 139.331Z"
     fill="#F25C9B"
     fill-opacity="0.000000"
     transform="matrix(1 0 0 1 23.1919 23.2047)"
     id="path22035" />
  <path
     d="M278.663 139.331C278.663 216.282 216.282 278.662 139.331 278.662C62.3807 278.662 0 216.282 0 139.331C0 62.3807 62.3807 0 139.331 0C216.282 0 278.663 62.3807 278.663 139.331L278.663 139.331Z"
     fill="none"
     stroke="#19191A"
     stroke-opacity="1.000000"
     stroke-width="2"
     stroke-dasharray="3 3"
     transform="matrix(1 0 0 1 23.1919 23.2047)"
     id="path22037"
     style="fill:#ffff00" />
  <path
     d="M251.76 125.88C251.76 195.401 195.401 251.76 125.88 251.76C56.3583 251.76 0 195.401 0 125.88C0 56.3583 56.3583 0 125.88 0C195.401 0 251.76 56.3583 251.76 125.88L251.76 125.88Z"
     fill="#F26957"
     fill-opacity="1.000000"
     transform="matrix(1 0 0 1 36.6436 36.6562)"
     id="path22039" />
  <path
     d="M251.76 125.88C251.76 195.401 195.401 251.76 125.88 251.76C56.3583 251.76 0 195.401 0 125.88C0 56.3583 56.3583 0 125.88 0C195.401 0 251.76 56.3583 251.76 125.88L251.76 125.88Z"
     fill="none"
     stroke="#19191A"
     stroke-opacity="1.000000"
     stroke-width="4"
     stroke-dasharray="0 0"
     transform="matrix(1 0 0 1 36.6436 36.6562)"
     id="path22041" />
  <path
     d="M10.5547 10.7227C9.9668 12.0522 9.07129 13.1016 7.95361 13.915C6.84619 13.0742 5.97803 11.9805 5.36279 10.7227L10.5547 10.7227ZM3.1377 9.62891L3.1377 7.19531L6.84619 7.19531L6.84619 9.7417L3.1377 9.7417L3.1377 9.62891ZM11.2827 9.70068L11.0879 9.7417L7.90918 9.7417L7.90918 7.19531L11.481 7.19531C11.2144 7.85156 10.9341 8.5249 10.6812 8.98633L11.6348 9.28027C12.0552 8.55225 12.5303 7.40381 12.9233 6.35449L12.1372 6.14258L11.9424 6.18701L7.90918 6.18701L7.90918 4.26953L6.84619 4.26953L6.84619 6.18701L2.1123 6.18701L2.1123 9.61523C2.1123 11.6455 1.94482 14.3901 0.461426 16.335C0.700684 16.4614 1.12109 16.8135 1.28857 17.022C2.64551 15.2583 3.0249 12.7529 3.10693 10.7227L4.26904 10.7227C4.95605 12.2471 5.86523 13.5083 7.05469 14.5029C5.73877 15.2583 4.22803 15.7915 2.60449 16.1128C2.81299 16.335 3.09326 16.7827 3.20605 17.063C4.91504 16.6597 6.5249 16.0684 7.92285 15.1729C9.23877 16.0854 10.8486 16.7144 12.7251 17.1074C12.8652 16.8135 13.1592 16.3794 13.3848 16.1401C11.6348 15.8462 10.1069 15.2993 8.84912 14.5166C10.2197 13.4365 11.3135 11.9805 11.9697 10.0903L11.2827 9.70068ZM21.8271 15.8188C20.8461 15.8188 20.665 15.6514 20.665 14.9097L20.665 12.8794L27.0634 12.0386L26.9233 11.0713L20.665 11.8848L20.665 9.70068L26.1235 8.93164L25.9833 7.96436L20.665 8.70605L20.665 6.53564C22.4697 6.15967 24.1786 5.72559 25.5082 5.19238L24.6264 4.37891C22.4697 5.27441 18.5219 6.0332 15.0629 6.49463C15.1757 6.7168 15.3295 7.13721 15.3705 7.39014C16.7446 7.22266 18.187 6.99707 19.5986 6.73047L19.5986 8.85986L15.3159 9.44775L15.4697 10.4287L19.5986 9.85449L19.5986 12.0249L14.8818 12.6401L15.0356 13.6211L19.5986 13.0195L19.5986 14.8789C19.5986 16.4204 20.0908 16.8271 21.769 16.8271L25.3408 16.8271C26.8788 16.8271 27.2309 16.2085 27.412 14.2773C27.0908 14.1953 26.6567 14.0415 26.3901 13.8433C26.2773 15.4531 26.1371 15.8188 25.3134 15.8188L21.8271 15.8188Z"
     fill="#19191A"
     fill-opacity="1.000000"
     transform="matrix(1 0 0 1 283.055 12.7047)"
     id="path22043" />
  <path
     d="M0 0L-11.9233 1.35225L-4.79029 11.0021L0 0Z"
     transform="matrix(1 0 0 1 297.405 33.7052)"
     stroke="#F79780"
     stroke-width="2.000000"
     stroke-opacity="1.000000"
     fill="none"
     id="path22045" />
  <path
     d="M-8.35679 6.17719L-34.8218 25.7396"
     fill="none"
     stroke="#F79780"
     stroke-opacity="1.000000"
     stroke-width="2"
     stroke-dasharray="0 0"
     transform="matrix(1 0 0 1 297.405 33.7052)"
     id="path22047" />
  <path
     d="M2.4917 11.3789C2.50537 10.8184 2.51904 10.2886 2.51904 9.81348L2.51904 9.02734L4.59033 9.02734L4.59033 11.3789L2.4917 11.3789ZM4.59033 5.7666L4.59033 8.06348L2.51904 8.06348L2.51904 5.7666L4.59033 5.7666ZM5.57129 4.79932L1.55518 4.79932L1.55518 9.81348C1.55518 11.8711 1.4834 14.6294 0.519531 16.5879C0.782715 16.687 1.20312 16.9365 1.3877 17.1074C2.03027 15.7607 2.31055 14.0244 2.43701 12.3735L4.59033 12.3735L4.59033 15.7061C4.59033 15.9009 4.52197 15.959 4.34082 15.9727C4.17334 15.9727 3.61279 15.9863 2.9668 15.959C3.10693 16.2256 3.24707 16.6733 3.2915 16.9536C4.20068 16.9536 4.74756 16.9229 5.09619 16.7417C5.44482 16.5742 5.57129 16.2803 5.57129 15.7061L5.57129 4.79932ZM11.8159 15.8462C11.7305 15.8462 11.6484 15.8188 11.5903 15.7744C11.522 15.7061 11.5083 15.4531 11.5083 15.0054L11.5083 4.79932L7.14014 4.79932L7.14014 10.6816C7.14014 12.5854 7.02734 14.937 5.7832 16.5195C6.01904 16.6426 6.45312 16.9536 6.65137 17.1484C7.96729 15.4395 8.16211 12.7085 8.16211 10.6816L8.16211 5.79395L10.4863 5.79395L10.4863 14.9233C10.4863 16.0991 10.5547 16.335 10.7666 16.5469C10.9888 16.728 11.2827 16.8271 11.563 16.8271L12.25 16.8271C12.5303 16.8271 12.7969 16.7554 12.9917 16.6289C13.1729 16.4751 13.2993 16.2529 13.3574 15.8735C13.4121 15.5386 13.4668 14.585 13.4805 13.8433C13.1865 13.7612 12.8652 13.5767 12.6431 13.3818C12.6431 14.2637 12.6294 14.9644 12.5986 15.2583C12.5713 15.5522 12.5303 15.6924 12.4585 15.7471C12.4038 15.8188 12.291 15.8462 12.1816 15.8462L11.8159 15.8462ZM24.7802 14.5713C24.0112 13.8296 22.456 12.6948 21.2529 11.8848C21.4477 11.3789 21.5742 10.8765 21.687 10.3433L20.6205 10.3433C20.2719 11.9976 19.5029 13.7031 16.9394 14.5576C17.1786 14.7388 17.4589 15.0908 17.5683 15.3403C19.2089 14.7251 20.2036 13.8159 20.8325 12.7529C21.9946 13.5903 23.3378 14.6567 24.0248 15.3403L24.7802 14.5713ZM26.6122 6.34082L21.5605 6.34082C21.6733 5.7085 21.7416 5.05225 21.7963 4.33789L20.706 4.33789C20.665 5.05225 20.5932 5.72559 20.4804 6.34082L15.3876 6.34082L15.3876 17.063L16.4096 17.063L16.4096 7.36279L20.2446 7.36279C19.7831 8.77441 18.8705 9.85449 16.9975 10.5415C17.2197 10.7227 17.5136 11.0713 17.6401 11.3242C19.2089 10.7227 20.1728 9.85449 20.7744 8.76074C22.0219 9.51953 23.437 10.5107 24.1923 11.1567L24.893 10.3433C24.0522 9.65967 22.4423 8.6377 21.1674 7.90967C21.2255 7.7251 21.2802 7.55762 21.3349 7.36279L25.5903 7.36279L25.5903 15.7334C25.5903 15.9727 25.5219 16.0547 25.269 16.0684C25.0024 16.0684 24.1513 16.0854 23.2387 16.041C23.3788 16.3213 23.519 16.7964 23.5634 17.0903C24.7255 17.0903 25.5493 17.0767 26.0244 16.8955C26.4755 16.728 26.6122 16.3931 26.6122 15.7334L26.6122 6.34082Z"
     fill="#19191A"
     fill-opacity="1.000000"
     transform="matrix(1 0 0 1 312.969 60.2484)"
     id="path22049" />
  <path
     d="M0 0L-11.9233 1.35225L-4.79029 11.0021L0 0Z"
     transform="matrix(1 0 0 1 314.816 79.4647)"
     stroke="#F79780"
     stroke-width="2.000000"
     stroke-opacity="1.000000"
     fill="none"
     id="path22051" />
  <path
     d="M-8.35679 6.17719L-34.8218 25.7396"
     fill="none"
     stroke="#F79780"
     stroke-opacity="1.000000"
     stroke-width="2"
     stroke-dasharray="0 0"
     transform="matrix(1 0 0 1 314.816 79.4647)"
     id="path22053" />
  <path
     d="M63.1777 7.78625L53.5977 0.560178L52.1299 12.4701L63.1777 7.78625Z"
     transform="matrix(1 0 0 1 311.754 22.704)"
     fill="#000000"
     fill-opacity="1.000000"
     stroke="none"
     id="path22055" />
  <path
     d="M0 0L57.2228 7.05235"
     fill="none"
     stroke="#000000"
     stroke-opacity="1.000000"
     stroke-width="2"
     stroke-dasharray="0 0"
     transform="matrix(1 0 0 1 311.754 22.704)"
     id="path22057" />
  <path
     d="M20.2324 18.6973C19.2012 19.7051 17.5195 21.0234 16.0781 22.0078C15.0234 20.7598 14.1855 19.3418 13.5352 17.7598L22.3184 17.7598L22.3184 16.2246L12.8379 16.2246L12.8379 14.0859L20.4961 14.0859L20.4961 12.5977L12.8379 12.5977L12.8379 10.582L21.5742 10.582L21.5742 9.04688L12.8379 9.04688L12.8379 6.91406L11.0625 6.91406L11.0625 9.04688L2.58984 9.04688L2.58984 10.582L11.0625 10.582L11.0625 12.5977L3.81445 12.5977L3.81445 14.0859L11.0625 14.0859L11.0625 16.2246L1.6582 16.2246L1.6582 17.7598L9.57422 17.7598C7.31836 19.7754 3.9375 21.6504 0.960938 22.582C1.3418 22.9453 1.86914 23.5898 2.10938 24.0234C3.43359 23.5195 4.86914 22.8691 6.24023 22.0781L6.24023 25.6348C6.24023 26.5664 5.71289 27 5.32617 27.1934C5.61328 27.5977 5.97656 28.3652 6.09375 28.8223C6.65039 28.4414 7.51172 28.1543 14.1621 26.0156C14.0625 25.6582 13.9219 24.9609 13.8691 24.4805L8.0625 26.2324L8.0625 20.9297C9.48047 19.9688 10.7754 18.8906 11.8066 17.7598C13.6348 22.7754 16.9922 26.3789 21.9141 28.0312C22.1777 27.5508 22.7051 26.8535 23.0859 26.4961C20.7129 25.7988 18.7207 24.6211 17.0625 23.0625C18.5742 22.1309 20.3262 20.9062 21.6973 19.7285L20.2324 18.6973Z"
     fill="#19191A"
     fill-opacity="1.000000"
     transform="matrix(1 0 0 1 374.932 12.491)"
     id="path22059" />
  <path
     d="M45.8628 -22.2574L33.894 -23.1182L39.1332 -12.3223L45.8628 -22.2574Z"
     transform="matrix(1 0 0 1 341.669 70.7491)"
     fill="#000000"
     fill-opacity="1.000000"
     stroke="none"
     id="path22061" />
  <path
     d="M0 0L40.4649 -19.6378"
     fill="none"
     stroke="#000000"
     stroke-opacity="1.000000"
     stroke-width="2"
     stroke-dasharray="0 0"
     transform="matrix(1 0 0 1 341.669 70.7491)"
     id="path22063" />
  <path
     d="M103.894 51.9472C103.894 80.6368 80.6368 103.894 51.9472 103.894C23.2576 103.894 0 80.6368 0 51.9472C0 23.2575 23.2576 0 51.9472 0C80.6368 0 103.894 23.2575 103.894 51.9472L103.894 51.9472Z"
     fill="#F25C9B"
     fill-opacity="0.000000"
     transform="matrix(1 0 0 1 110.584 110.588)"
     id="path22065" />
  <path
     d="M103.894 51.9472C103.894 80.6368 80.6368 103.894 51.9472 103.894C23.2576 103.894 0 80.6368 0 51.9472C0 23.2575 23.2576 0 51.9472 0C80.6368 0 103.894 23.2575 103.894 51.9472L103.894 51.9472Z"
     fill="none"
     stroke="#19191A"
     stroke-opacity="1.000000"
     stroke-width="2"
     stroke-dasharray="3 3"
     transform="matrix(1 0 0 1 110.584 110.588)"
     id="path22067" />
  <path
     d="M123.599 0L113.207 -6L113.207 6L123.599 0Z"
     transform="matrix(1 0 0 1 252.602 188.689)"
     fill="#000000"
     fill-opacity="1.000000"
     stroke="none"
     id="path22069" />
  <path
     d="M0 0L117.599 0"
     fill="none"
     stroke="#000000"
     stroke-opacity="1.000000"
     stroke-width="2"
     stroke-dasharray="0 0"
     transform="matrix(1 0 0 1 252.602 188.689)"
     id="path22071" />
  <path
     d="M5.58984 14.0156L11.209 14.0156L11.209 16.9688L5.58984 16.9688L5.58984 14.0156ZM5.58984 9.52734L11.209 9.52734L11.209 12.4336L5.58984 12.4336L5.58984 9.52734ZM18.6973 12.4336L12.9609 12.4336L12.9609 9.52734L18.6973 9.52734L18.6973 12.4336ZM18.6973 16.9688L12.9609 16.9688L12.9609 14.0156L18.6973 14.0156L18.6973 16.9688ZM13.0781 26.4023L13.0781 23.0859L21.3867 23.0859L21.3867 21.334L13.0781 21.334L13.0781 18.6504L20.5898 18.6504L20.5898 7.8457L3.76758 7.8457L3.76758 18.6504L11.0859 18.6504L11.0859 21.334L3 21.334L3 23.0859L11.0859 23.0859L11.0859 26.4023L1.39453 26.4023L1.39453 28.1543L22.6816 28.1543L22.6816 26.4023L13.0781 26.4023Z"
     fill="#19191A"
     fill-opacity="1.000000"
     transform="matrix(1 0 0 1 382.456 169.306)"
     id="path22073" />
</svg>
