<?xml version="1.0" encoding="UTF-8" standalone="no"?>
<svg
   width="660.072754"
   height="331.209229"
   viewBox="0 0 660.073 331.209"
   version="1.1"
   id="svg19900"
   sodipodi:docname="shl003肌表与外界.svg"
   inkscape:version="1.2.2 (732a01da63, 2022-12-09)"
   xmlns:inkscape="http://www.inkscape.org/namespaces/inkscape"
   xmlns:sodipodi="http://sodipodi.sourceforge.net/DTD/sodipodi-0.dtd"
   xmlns="http://www.w3.org/2000/svg"
   xmlns:svg="http://www.w3.org/2000/svg">
  <defs
     id="defs19904" />
  <sodipodi:namedview
     id="namedview19902"
     pagecolor="#ffffff"
     bordercolor="#000000"
     borderopacity="0.25"
     inkscape:showpageshadow="2"
     inkscape:pageopacity="0.0"
     inkscape:pagecheckerboard="0"
     inkscape:deskcolor="#d1d1d1"
     showgrid="false"
     inkscape:zoom="2.3603459"
     inkscape:cx="349.10138"
     inkscape:cy="128.79468"
     inkscape:window-width="1920"
     inkscape:window-height="986"
     inkscape:window-x="-11"
     inkscape:window-y="-11"
     inkscape:window-maximized="1"
     inkscape:current-layer="svg19900" />
  <clipPath
     id="clip_4_11_0">
    <path
       d="M125.427 147.568L199.637 147.568L199.637 221.778L125.427 221.778L125.427 147.568Z"
       id="path19831" />
  </clipPath>
  <path
     d="M63.5596 23.3051C63.5596 36.1761 49.3313 46.6102 31.7798 46.6102C14.2283 46.6102 0 36.1761 0 23.3051C0 10.434 14.2283 0 31.7798 0C49.3313 0 63.5596 10.434 63.5596 23.3051L63.5596 23.3051Z"
     fill="#19191A"
     fill-opacity="0.000000"
     transform="matrix(1 0 0 1 261.989 86.1135)"
     id="path19846" />
  <path
     d="M110.56 0L100.168 -6L100.168 6L110.56 0Z"
     transform="matrix(1 0 0 1 325.549 108.919)"
     fill="#000000"
     fill-opacity="1.000000"
     stroke="none"
     id="path19850" />
  <path
     d="M0 0L104.56 0"
     fill="none"
     stroke="#000000"
     stroke-opacity="1.000000"
     stroke-width="2"
     stroke-dasharray="3 3"
     transform="matrix(1 0 0 1 325.549 108.919)"
     id="path19852" />
  <path
     d="M0 0C16.5913 -5.36719 33.1836 -10.7344 46.2617 -18.386C59.3398 -26.0374 68.9033 -35.9729 73.5439 -18.386C78.1841 -0.798828 77.8999 44.3107 78.8813 45.0751C79.8633 45.8396 82.1113 2.25879 88.9644 -15.4204C95.8179 -33.0997 107.274 -24.8774 119.805 -21.3513C132.336 -17.8252 145.939 -18.9952 159.543 -20.1653"
     fill="none"
     stroke="#000000"
     stroke-opacity="1.000000"
     stroke-width="2"
     stroke-dasharray="0 0"
     transform="matrix(1 0 0 1 456.389 147.712)"
     id="path19854" />
  <path
     d="M0 0C-1.75 -6.89502 -3.5 -13.79 -3.55859 -23.7236C-3.61719 -33.6572 -1.98438 -46.6294 -6.52393 -51.5991C-11.063 -56.5688 -21.7744 -53.5364 -26.689 -52.1923C-31.603 -50.8481 -30.7197 -51.1924 -35.5854 -49.8198C-40.4512 -48.4474 -51.0664 -45.3582 -61.6816 -42.2689"
     fill="none"
     stroke="#000000"
     stroke-opacity="1.000000"
     stroke-width="1"
     stroke-dasharray="1.5 1.5"
     transform="matrix(1 0 0 1 538.252 159.576)"
     id="path19856" />
  <path
     d="M0 0C-1.89941 -17.833 -3.79883 -35.6661 2.37207 -43.6667C8.54297 -51.6674 22.7842 -49.8356 32.6196 -49.5977C42.4551 -49.3599 47.8848 -50.7159 54.5645 -52.5631C61.2437 -54.4104 69.1729 -56.7488 77.1021 -59.0872"
     fill="none"
     stroke="#000000"
     stroke-opacity="1.000000"
     stroke-width="1"
     stroke-dasharray="1.5 1.5"
     transform="matrix(1 0 0 1 535.287 159.948)"
     id="path19858" />
  <path
     d="M0 0C-0.754883 -15.198 -1.50781 -30.396 7.70557 -38.551C16.9189 -46.7062 36.0996 -47.8182 46.8496 -46.8544C57.6001 -45.8906 59.9189 -42.851 63.4565 -42.7028C66.9941 -42.5544 71.7495 -45.2975 76.5044 -48.0405"
     fill="none"
     stroke="#000000"
     stroke-opacity="1.000000"
     stroke-width="1"
     stroke-dasharray="1.5 1.5"
     transform="matrix(1 0 0 1 536.46 162.542)"
     id="path19860" />
  <path
     d="M0 0C-1.07227 -13.0684 -2.14307 -26.1367 -4.74463 -35.5857C-7.34619 -45.0347 -11.4771 -50.8641 -15.4204 -52.1923C-19.3638 -53.5205 -23.1177 -50.347 -27.2827 -47.4475C-31.4468 -44.548 -36.0229 -41.9221 -41.5171 -40.9235C-47.0103 -39.9249 -53.4224 -40.5535 -58.7163 -39.1443C-64.0103 -37.735 -68.1831 -34.288 -72.3579 -30.8409"
     fill="none"
     stroke="#000000"
     stroke-opacity="1.000000"
     stroke-width="1"
     stroke-dasharray="1.5 1.5"
     transform="matrix(1 0 0 1 537.626 164.322)"
     id="path19862" />
  <path
     d="M3.25321 4.11323C2.83221 3.76877 1.99977 3.2497 1.37066 2.9172L0.940083 3.41714C1.58833 3.77834 2.41121 4.32852 2.81307 4.68015L3.25321 4.11323ZM2.64563 6.58185C2.24376 6.29719 1.42089 5.86662 0.83244 5.59153L0.440141 6.12975C1.04773 6.42397 1.84189 6.88564 2.24376 7.18943L2.64563 6.58185ZM1.37066 11.6172C1.94954 10.7153 2.63606 9.50974 3.15514 8.48115L2.62649 8.00274C2.05718 9.0983 1.29411 10.3924 0.77503 11.1268L1.37066 11.6172ZM9.36734 6.67992L6.61407 6.67992L6.61407 4.02473L8.94634 4.02473L8.94634 3.3095L3.60485 3.3095L3.60485 4.02473L5.84861 4.02473L5.84861 6.67992L3.21255 6.67992L3.21255 7.39515L5.84861 7.39515L5.84861 11.7439L6.61407 11.7439L6.61407 7.39515L9.36734 7.39515L9.36734 6.67992ZM14.5786 3.34777L14.4303 3.398L10.3853 3.398L10.3853 4.07257L13.8729 4.07257C13.4424 4.58208 12.8635 5.13225 12.3444 5.48389L12.3444 7.36405C11.512 7.57934 10.7465 7.77549 10.17 7.9238L10.3255 8.6486L12.3444 8.08885L12.3444 10.8326C12.3444 10.9809 12.2942 11.0191 12.1387 11.0287C12.0023 11.0287 11.5024 11.0287 10.9522 11.0096C11.0694 11.2249 11.1579 11.5382 11.189 11.7439C11.9043 11.7535 12.3827 11.7344 12.6769 11.6172C12.9616 11.4904 13.0501 11.2847 13.0501 10.8421L13.0501 7.90466L15.0379 7.35449L14.9398 6.67035C14.3131 6.84498 13.6768 7.02199 13.0501 7.17987L13.0501 5.77811C13.7653 5.22794 14.5595 4.43616 15.069 3.71137L14.5786 3.34777ZM16.8702 11C16.4994 11 16.4205 10.9115 16.4205 10.4116L16.4205 3.03441L15.7053 3.03441L15.7053 10.3924C15.7053 11.3827 15.9301 11.6554 16.7817 11.6554L18.1548 11.6554C18.9968 11.6554 19.1833 11.1076 19.2623 9.4906C19.0661 9.44276 18.7815 9.31359 18.6045 9.16768C18.5566 10.6364 18.4968 11 18.1045 11L16.8702 11Z"
     fill="#19191A"
     fill-opacity="1.000000"
     transform="matrix(1 0 0 1 549.505 156.077)"
     id="path19864" />
  <path
     d="M4.87025 10.6675L4.87025 4.23044L7.76944 4.23044L7.76944 7.62001C7.76944 7.77549 7.71203 7.82572 7.52545 7.83529C7.31016 7.85443 6.63321 7.85443 5.87971 7.82572C5.99692 8.01231 6.13327 8.33523 6.17154 8.54095C7.06378 8.54095 7.68093 8.53138 8.03496 8.41417C8.38659 8.29696 8.49424 8.06015 8.49424 7.63914L8.49424 3.51522L1.15537 3.51522L1.15537 4.23044L4.10479 4.23044L4.10479 10.6675L0.538216 10.6675L0.538216 11.3827L9.27884 11.3827L9.27884 10.6675L4.87025 10.6675ZM18.8508 4.52467L18.8508 3.89555L12.6769 3.89555C12.8157 3.59176 12.9424 3.2784 13.0501 2.96504L12.3348 2.77846C11.8636 4.19935 11.0599 5.54369 10.1198 6.40484C10.2872 6.49334 10.6197 6.7182 10.7561 6.84498C11.3445 6.23739 11.9138 5.43365 12.3827 4.52467L18.8508 4.52467ZM18.126 5.85705L18.126 5.2399L12.3061 5.2399L12.3061 5.85705L18.126 5.85705ZM11.3254 6.62012L11.3254 7.25641L16.6166 7.25641C16.7434 9.77526 17.0975 11.7439 18.3892 11.7439C18.9585 11.7439 19.1331 11.2847 19.1929 10.1269C19.0374 10.0288 18.8317 9.8542 18.6834 9.70589C18.6738 10.5192 18.614 11.0287 18.4298 11.0287C17.6644 11.0287 17.3989 8.85431 17.3319 6.62012L11.3254 6.62012Z"
     fill="#19191A"
     fill-opacity="1.000000"
     transform="matrix(1 0 0 1 603.477 86.6849)"
     id="path19866" />
  <path
     d="M-1.4292 58.274L1.6973 53.1531L-4.3009 53.006L-1.4292 58.274Z"
     transform="matrix(1 0 0 1 495.182 43.923)"
     fill="#000000"
     fill-opacity="1.000000"
     stroke="none"
     id="path19868" />
  <path
     d="M0 0L-1.35564 55.2749"
     fill="none"
     stroke="#000000"
     stroke-opacity="1.000000"
     stroke-width="1"
     stroke-dasharray="0 0"
     transform="matrix(1 0 0 1 495.182 43.923)"
     id="path19870" />
  <path
     d="M-1.4292 58.274L1.6973 53.1531L-4.3009 53.006L-1.4292 58.274Z"
     transform="matrix(1 0 0 1 512.615 42.0682)"
     fill="#000000"
     fill-opacity="1.000000"
     stroke="none"
     id="path19872" />
  <path
     d="M0 0L-1.35564 55.2749"
     fill="none"
     stroke="#000000"
     stroke-opacity="1.000000"
     stroke-width="1"
     stroke-dasharray="0 0"
     transform="matrix(1 0 0 1 512.615 42.0682)"
     id="path19874" />
  <path
     d="M-1.4292 58.274L1.6973 53.1531L-4.3009 53.006L-1.4292 58.274Z"
     transform="matrix(1 0 0 1 529.223 41.4751)"
     fill="#000000"
     fill-opacity="1.000000"
     stroke="none"
     id="path19876" />
  <path
     d="M0 0L-1.35564 55.2749"
     fill="none"
     stroke="#000000"
     stroke-opacity="1.000000"
     stroke-width="1"
     stroke-dasharray="0 0"
     transform="matrix(1 0 0 1 529.223 41.4751)"
     id="path19878" />
  <path
     d="M-1.42968 58.2739L1.69685 53.1531L-4.30134 53.0059L-1.42968 58.2739Z"
     transform="matrix(1 0 0 1 547.017 42.6611)"
     fill="#000000"
     fill-opacity="1.000000"
     stroke="none"
     id="path19880" />
  <path
     d="M0 0L-1.35611 55.2748"
     fill="none"
     stroke="#000000"
     stroke-opacity="1.000000"
     stroke-width="1"
     stroke-dasharray="0 0"
     transform="matrix(1 0 0 1 547.017 42.6611)"
     id="path19882" />
  <path
     d="M-1.42968 58.274L1.69685 53.1531L-4.30134 53.006L-1.42968 58.274Z"
     transform="matrix(1 0 0 1 564.805 40.882)"
     fill="#000000"
     fill-opacity="1.000000"
     stroke="none"
     id="path19884" />
  <path
     d="M0 0L-1.35611 55.2749"
     fill="none"
     stroke="#000000"
     stroke-opacity="1.000000"
     stroke-width="1"
     stroke-dasharray="0 0"
     transform="matrix(1 0 0 1 564.805 40.882)"
     id="path19886" />
  <path
     d="M-1.42968 58.274L1.69685 53.1531L-4.30134 53.006L-1.42968 58.274Z"
     transform="matrix(1 0 0 1 582.6 40.882)"
     fill="#000000"
     fill-opacity="1.000000"
     stroke="none"
     id="path19888" />
  <path
     d="M0 0L-1.35611 55.2749"
     fill="none"
     stroke="#000000"
     stroke-opacity="1.000000"
     stroke-width="1"
     stroke-dasharray="0 0"
     transform="matrix(1 0 0 1 582.6 40.882)"
     id="path19890" />
  <path
     d="M4.49709 4.29742L2.6552 4.29742C2.79154 3.85728 2.89919 3.40757 3.00683 2.93633L2.2916 2.79999C1.93997 4.50314 1.32281 6.12018 0.430572 7.12963C0.588449 7.22771 0.911378 7.46213 1.02859 7.5913C1.57637 6.90478 2.04761 6.00297 2.42077 4.98395L4.2818 4.98395C4.11436 6.01254 3.85123 6.90478 3.51634 7.67742C3.10491 7.32578 2.52842 6.91435 2.05718 6.62012L1.61704 7.10093C2.14569 7.45256 2.79154 7.9525 3.20298 8.33523C2.50928 9.60782 1.55724 10.5001 0.421004 11.0789C0.598017 11.1961 0.90181 11.4904 1.00945 11.677C3.09534 10.5383 4.62387 8.2563 5.14295 4.42659L4.6454 4.25915L4.49709 4.29742ZM6.73128 5.96469L6.73128 2.80956L5.98735 2.80956L5.98735 11.7439L6.73128 11.7439L6.73128 6.42397C7.50631 7.08179 8.39616 7.90466 8.8387 8.46202L9.41518 7.96207C8.89611 7.34492 7.83881 6.4144 6.9968 5.74941L6.73128 5.96469ZM12.8635 8.91412C12.8635 9.64848 12.6865 10.5981 10.9833 11.2344C11.1388 11.3732 11.3732 11.6267 11.4833 11.8133C13.373 11.0478 13.5979 9.87333 13.5979 8.94282L13.5979 8.3448L12.8635 8.3448L12.8635 8.91412ZM12.0789 5.35711L14.3227 5.35711L14.3227 6.4144L12.0789 6.4144L12.0789 5.35711ZM12.0789 3.74007L14.3227 3.74007L14.3227 4.77823L12.0789 4.77823L12.0789 3.74007ZM17.3032 4.77823L15.0379 4.77823L15.0379 3.74007L17.3032 3.74007L17.3032 4.77823ZM17.3032 6.4144L15.0379 6.4144L15.0379 5.35711L17.3032 5.35711L17.3032 6.4144ZM18.0471 7.03156L18.0471 3.12292L11.3637 3.12292L11.3637 7.03156L13.3132 7.03156C12.5693 7.79702 11.3948 8.45245 10.2681 8.77538C10.4332 8.92368 10.6389 9.18681 10.7561 9.37339C12.0406 8.92368 13.3921 8.06015 14.1959 7.03156L15.2747 7.03156C15.6455 7.52193 16.1454 7.96207 16.6836 8.3448L15.9588 8.3448L15.9588 11.7344L16.7052 11.7344L16.7052 8.35437C17.3223 8.77538 18.0064 9.11983 18.7025 9.33512C18.8006 9.14854 19.0159 8.86388 19.1833 8.71797C18.0184 8.42374 16.8606 7.79702 16.1263 7.03156L18.0471 7.03156ZM25.5595 4.67058C25.306 5.44562 24.9639 6.23739 24.562 6.98372C24.031 6.30676 23.4832 5.65133 22.9737 5.06288L22.3757 5.37625C22.9641 6.06277 23.5909 6.84498 24.1793 7.63914C23.5335 8.66773 22.7584 9.55041 21.9547 10.0982C22.1317 10.225 22.3661 10.4809 22.5049 10.6579C23.2775 10.0791 24.0023 9.22748 24.629 8.23716C25.2366 9.0983 25.7653 9.90204 26.1097 10.5192L26.7747 10.1269C26.3728 9.42363 25.7366 8.51225 25.0118 7.57934C25.4926 6.7182 25.8849 5.78768 26.1982 4.83803L25.5595 4.67058ZM21.1821 3.26883L21.1821 6.17041C21.1821 7.69894 21.084 9.80397 20.0147 11.2847C20.1917 11.3732 20.4955 11.6172 20.6223 11.775C21.749 10.1963 21.9164 7.79702 21.9164 6.17041L21.9164 3.97449L27.0307 3.97449C27.0402 9.0409 27.0498 11.6459 28.3128 11.6459C28.8439 11.6459 28.9898 11.2249 29.0687 9.94271C28.9204 9.83506 28.7147 9.60782 28.5879 9.4332C28.5688 10.2369 28.509 10.9019 28.3726 10.9019C27.7172 10.9019 27.7172 7.87357 27.7459 3.26883L21.1821 3.26883ZM30.8808 4.15151L37.6887 4.15151L37.6887 5.29731L38.4135 5.29731L38.4135 3.53435L34.8469 3.53435C34.7392 3.28797 34.5742 2.97461 34.4259 2.73062L33.7011 2.92677C33.7992 3.11335 33.9164 3.32863 34.0049 3.53435L30.1656 3.53435L30.1656 5.29731L30.8808 5.29731L30.8808 4.15151ZM31.9477 10.6173C33.4858 10.8326 35.3779 11.3516 36.4161 11.7942L36.7294 11.1961C35.6602 10.7847 33.7705 10.2752 32.2611 10.0599L31.9477 10.6173ZM33.0935 9.06003C33.8877 9.25618 34.8876 9.62934 35.3971 9.90204L35.7296 9.38296C35.1913 9.0983 34.1915 8.76581 33.4164 8.59836L33.0935 9.06003ZM33.2514 6.85454L35.3468 6.85454L35.3468 7.5913L33.2514 7.5913L33.2514 6.85454ZM33.2514 5.62024L35.3468 5.62024L35.3468 6.3259L33.2514 6.3259L33.2514 5.62024ZM38.6096 8.18693L38.6096 7.5913L36.0716 7.5913L36.0716 6.85454L37.3944 6.85454L37.3944 6.3259L36.0716 6.3259L36.0716 5.62024L37.581 5.62024L37.581 5.07245L36.0716 5.07245L36.0716 4.40507L35.3468 4.40507L35.3468 5.07245L33.2514 5.07245L33.2514 4.40507L32.5362 4.40507L32.5362 5.07245L30.9789 5.07245L30.9789 5.62024L32.5362 5.62024L32.5362 6.3259L31.144 6.3259L31.144 6.85454L32.5362 6.85454L32.5362 7.5913L29.9982 7.5913L29.9982 8.18693L32.3687 8.18693C31.7516 8.92368 30.7612 9.58868 29.7924 9.90204C29.9479 10.0408 30.1656 10.3039 30.2733 10.4714C31.3903 10.0408 32.5266 9.17724 33.182 8.18693L35.3373 8.18693C36.0525 9.07917 37.2485 9.94271 38.2963 10.3733C38.4135 10.1963 38.6407 9.93314 38.7866 9.7944C37.8752 9.47147 36.8562 8.86388 36.1697 8.18693L38.6096 8.18693ZM48.2414 4.52467L48.2414 3.89555L42.0675 3.89555C42.2062 3.59176 42.333 3.2784 42.4407 2.96504L41.7254 2.77846C41.2542 4.19935 40.4505 5.54369 39.5104 6.40484C39.6778 6.49334 40.0103 6.7182 40.1467 6.84498C40.7351 6.23739 41.3044 5.43365 41.7733 4.52467L48.2414 4.52467ZM47.5166 5.85705L47.5166 5.2399L41.6967 5.2399L41.6967 5.85705L47.5166 5.85705ZM40.716 6.62012L40.716 7.25641L46.0072 7.25641C46.134 9.77526 46.488 11.7439 47.7798 11.7439C48.3491 11.7439 48.5237 11.2847 48.5835 10.1269C48.428 10.0288 48.2223 9.8542 48.074 9.70589C48.0644 10.5192 48.0046 11.0287 47.8204 11.0287C47.055 11.0287 46.7894 8.85431 46.7225 6.62012L40.716 6.62012Z"
     fill="#19191A"
     fill-opacity="1.000000"
     transform="matrix(1 0 0 1 526.373 25.0032)"
     id="path19892" />
  <path
     d="M211.865 99.1526C211.865 153.913 164.437 198.305 105.932 198.305C47.4275 198.305 0 153.913 0 99.1526C0 44.3921 47.4275 0 105.932 0C164.437 0 211.865 44.3921 211.865 99.1526L211.865 99.1526Z"
     fill="#19191A"
     fill-opacity="0.000000"
     transform="matrix(1 0 0 1 436.105 12.1027)"
     id="path19894" />
  <path
     d="M211.865 99.1526C211.865 153.913 164.437 198.305 105.932 198.305C47.4275 198.305 0 153.913 0 99.1526C0 44.3921 47.4275 0 105.932 0C164.437 0 211.865 44.3921 211.865 99.1526L211.865 99.1526Z"
     fill="none"
     stroke="#75BEFA"
     stroke-opacity="1.000000"
     stroke-width="2"
     stroke-dasharray="3 3"
     transform="matrix(1 0 0 1 436.105 12.1027)"
     id="path19896" />
  <path
     d="M10.5547 10.7227C9.9668 12.0522 9.07129 13.1016 7.95361 13.915C6.84619 13.0742 5.97803 11.9805 5.36279 10.7227L10.5547 10.7227ZM3.1377 9.62891L3.1377 7.19531L6.84619 7.19531L6.84619 9.7417L3.1377 9.7417L3.1377 9.62891ZM11.2827 9.70068L11.0879 9.7417L7.90918 9.7417L7.90918 7.19531L11.481 7.19531C11.2144 7.85156 10.9341 8.5249 10.6812 8.98633L11.6348 9.28027C12.0552 8.55225 12.5303 7.40381 12.9233 6.35449L12.1372 6.14258L11.9424 6.18701L7.90918 6.18701L7.90918 4.26953L6.84619 4.26953L6.84619 6.18701L2.1123 6.18701L2.1123 9.61523C2.1123 11.6455 1.94482 14.3901 0.461426 16.335C0.700684 16.4614 1.12109 16.8135 1.28857 17.022C2.64551 15.2583 3.0249 12.7529 3.10693 10.7227L4.26904 10.7227C4.95605 12.2471 5.86523 13.5083 7.05469 14.5029C5.73877 15.2583 4.22803 15.7915 2.60449 16.1128C2.81299 16.335 3.09326 16.7827 3.20605 17.063C4.91504 16.6597 6.5249 16.0684 7.92285 15.1729C9.23877 16.0854 10.8486 16.7144 12.7251 17.1074C12.8652 16.8135 13.1592 16.3794 13.3848 16.1401C11.6348 15.8462 10.1069 15.2993 8.84912 14.5166C10.2197 13.4365 11.3135 11.9805 11.9697 10.0903L11.2827 9.70068Z"
     fill="#19191A"
     fill-opacity="1.000000"
     transform="matrix(1 0 0 1 474.207 144.114)"
     id="path19898" />
  <path
     d="m 524.43551,260.97862 c 0,83.082 -67.352,150.433 -150.434,150.433 -83.0817,0 -150.433,-67.351 -150.433,-150.433 0,-83.0818 67.3513,-150.433 150.433,-150.433 83.082,0 150.434,67.3512 150.434,150.433 z"
     fill="#fef3a4"
     fill-opacity="0"
     id="path13159" />
  <path
     d="m 513.32091,260.97862 c 0,76.951 -62.381,139.331 -139.332,139.331 -76.9503,0 -139.331,-62.38 -139.331,-139.331 0,-76.9503 62.3807,-139.331 139.331,-139.331 76.951,0 139.332,62.3807 139.332,139.331 z"
     fill="#f25c9b"
     fill-opacity="0"
     id="path13163" />
  <path
     d="m 526.92671,204.07022 c 0.0137,-0.5605 0.0273,-1.0903 0.0273,-1.56542 v -0.78614 h 2.07129 v 2.35156 z m 2.09863,-5.6123 v 2.29688 h -2.07129 v -2.29688 z m 0.98096,-0.96728 h -4.01611 v 5.01416 c 0,2.05762 -0.0718,4.81592 -1.03565,6.77442 0.26319,0.0991 0.68359,0.3486 0.86817,0.5195 0.64257,-1.3467 0.92285,-3.083 1.04931,-4.7339 h 2.15332 v 3.3326 c 0,0.1948 -0.0684,0.2529 -0.24951,0.2666 -0.16748,0 -0.72803,0.0136 -1.37402,-0.0137 0.14013,0.2666 0.28027,0.7143 0.3247,0.9946 0.90918,0 1.45606,-0.0307 1.80469,-0.2119 0.34863,-0.1675 0.4751,-0.4614 0.4751,-1.0356 z m 6.24461,11.04688 c -0.0854,0 -0.1675,-0.0274 -0.2256,-0.0718 -0.0683,-0.0683 -0.082,-0.3213 -0.082,-0.769 v -10.20608 h -4.36816 v 5.88228 c 0,1.9038 -0.1128,4.2554 -1.35694,5.8379 0.23584,0.1231 0.66992,0.4341 0.86817,0.6289 1.31592,-1.7089 1.51074,-4.4399 1.51074,-6.4668 v -4.88765 h 2.32419 v 9.12935 c 0,1.1758 0.0684,1.4117 0.2803,1.6236 0.2222,0.1811 0.5161,0.2802 0.7964,0.2802 h 0.687 c 0.2803,0 0.5469,-0.0717 0.7417,-0.1982 0.1812,-0.1538 0.3076,-0.376 0.3657,-0.7554 0.0547,-0.3349 0.1094,-1.2885 0.1231,-2.0302 -0.294,-0.0821 -0.6153,-0.2666 -0.8374,-0.4615 0,0.8819 -0.0137,1.5826 -0.0445,1.8765 -0.0273,0.2939 -0.0683,0.4341 -0.1401,0.4888 -0.0547,0.0717 -0.1675,0.0991 -0.2769,0.0991 z m 12.9643,-1.2749 c -0.769,-0.7417 -2.3242,-1.8765 -3.5273,-2.6865 0.1948,-0.5059 0.3213,-1.0083 0.4341,-1.5415 h -1.0665 c -0.3486,1.6543 -1.1176,3.3598 -3.6811,4.2143 0.2392,0.1812 0.5195,0.5332 0.6289,0.7827 1.6406,-0.6152 2.6353,-1.5244 3.2642,-2.5874 1.1621,0.8374 2.5053,1.9038 3.1923,2.5874 z m 1.832,-8.23048 h -5.0517 c 0.1128,-0.63232 0.1811,-1.28857 0.2358,-2.00293 h -1.0903 c -0.041,0.71436 -0.1128,1.3877 -0.2256,2.00293 h -5.0928 v 10.72218 h 1.022 v -9.70021 h 3.835 c -0.4615,1.41162 -1.3741,2.4917 -3.2471,3.17871 0.2222,0.1812 0.5161,0.5298 0.6426,0.7827 1.5688,-0.6015 2.5327,-1.46971 3.1343,-2.56346 1.2475,0.75879 2.6626,1.74996 3.4179,2.39596 l 0.7007,-0.8134 c -0.8408,-0.68363 -2.4507,-1.7056 -3.7256,-2.43363 0.0581,-0.18457 0.1128,-0.35205 0.1675,-0.54688 h 4.2554 v 8.37061 c 0,0.2393 -0.0684,0.3213 -0.3213,0.335 -0.2666,0 -1.1177,0.017 -2.0303,-0.0274 0.1401,0.2803 0.2803,0.7554 0.3247,1.0493 1.1621,0 1.9859,-0.0136 2.461,-0.1948 0.4511,-0.1675 0.5878,-0.5024 0.5878,-1.1621 z"
     fill="#19191a"
     fill-opacity="1"
     id="path13177" />
  <path
     d="m 425.94401,260.97812 c 0,28.6896 -23.2572,51.9468 -51.9468,51.9468 -28.6896,0 -51.9472,-23.2572 -51.9472,-51.9468 0,-28.6897 23.2576,-51.9472 51.9472,-51.9472 28.6896,0 51.9468,23.2575 51.9468,51.9472 z"
     fill="#f25c9b"
     fill-opacity="0"
     id="path13193" />
  <path
     d="m 309.93837,143.17905 c 0,64.99491 -50.72055,117.68348 -113.28685,117.68348 -62.56606,0 -113.286095,-52.68857 -113.286095,-117.68348 0,-64.99476 50.720035,-117.683514 113.286095,-117.683514 62.5663,0 113.28685,52.688754 113.28685,117.683514 z"
     fill="#fef3a4"
     fill-opacity="0"
     id="path13159-6"
     style="stroke-width:0.767543" />
  <path
     d="m 309.93837,143.17905 c 0,64.99491 -50.72055,117.68348 -113.28685,117.68348 -62.56606,0 -113.286095,-52.68857 -113.286095,-117.68348 0,-64.99476 50.720035,-117.683514 113.286095,-117.683514 62.5663,0 113.28685,52.688754 113.28685,117.683514 z"
     fill="none"
     stroke="#19191a"
     stroke-opacity="1"
     stroke-width="1.53509"
     stroke-dasharray="none"
     id="path13161" />
  <path
     d="m 301.56834,143.17905 c 0,60.19864 -46.97706,108.99841 -104.92631,108.99841 -57.94871,0 -104.925542,-48.79977 -104.925542,-108.99841 0,-60.198089 46.976832,-108.998439 104.925542,-108.998439 57.94925,0 104.92631,48.80035 104.92631,108.998439 z"
     fill="#f25c9b"
     fill-opacity="0"
     id="path13163-9"
     style="stroke-width:0.767543" />
  <path
     d="m 301.56834,143.17905 c 0,60.19864 -46.97706,108.99841 -104.92631,108.99841 -57.94871,0 -104.925542,-48.79977 -104.925542,-108.99841 0,-60.198089 46.976832,-108.998439 104.925542,-108.998439 57.94925,0 104.92631,48.80035 104.92631,108.998439 z"
     fill="none"
     stroke="#19191a"
     stroke-opacity="1"
     stroke-width="1.53509"
     stroke-dasharray="3, 3"
     id="path13165"
     style="fill:#ffff00" />
  <path
     d="m 291.43861,143.17945 c 0,54.38616 -42.44209,98.47571 -94.79605,98.47571 -52.35448,0 -94.79604,-44.08955 -94.79604,-98.47571 0,-54.386716 42.44156,-98.475745 94.79604,-98.475745 52.35396,0 94.79605,44.089029 94.79605,98.475745 z"
     fill="#f26957"
     fill-opacity="1"
     id="path13167"
     style="stroke-width:0.767543" />
  <path
     d="m 291.43861,143.17945 c 0,54.38616 -42.44209,98.47571 -94.79605,98.47571 -52.35448,0 -94.79604,-44.08955 -94.79604,-98.47571 0,-54.386716 42.44156,-98.475745 94.79604,-98.475745 52.35396,0 94.79605,44.089029 94.79605,98.475745 z"
     fill="none"
     stroke="#19191a"
     stroke-opacity="1"
     stroke-width="3.07017"
     stroke-dasharray="none"
     id="path13169" />
  <path
     d="m 235.76769,143.17866 c 0,22.44383 -17.51422,40.6379 -39.11941,40.6379 -21.60518,0 -39.11971,-18.19407 -39.11971,-40.6379 0,-22.4439 17.51453,-40.6382 39.11971,-40.6382 21.60519,0 39.11941,18.1943 39.11941,40.6382 z"
     fill="#f25c9b"
     fill-opacity="0"
     id="path13193-4"
     style="stroke-width:0.767543" />
  <path
     d="m 235.76769,143.17866 c 0,22.44383 -17.51422,40.6379 -39.11941,40.6379 -21.60518,0 -39.11971,-18.19407 -39.11971,-40.6379 0,-22.4439 17.51453,-40.6382 39.11971,-40.6382 21.60519,0 39.11941,18.1943 39.11941,40.6382 z"
     fill="none"
     stroke="#19191a"
     stroke-opacity="1"
     stroke-width="1.53509"
     stroke-dasharray="3, 3"
     id="path13195" />
  <path
     d="M63.5596 23.3051C63.5596 36.1761 49.3313 46.6102 31.7798 46.6102C14.2283 46.6102 0 36.1761 0 23.3051C0 10.434 14.2283 0 31.7798 0C49.3313 0 63.5596 10.434 63.5596 23.3051L63.5596 23.3051Z"
     fill="none"
     stroke="#75BEFA"
     stroke-opacity="1.000000"
     stroke-width="2"
     stroke-dasharray="3 3"
     transform="matrix(1 0 0 1 261.989 86.1135)"
     id="path19848" />
</svg>
