<?xml version="1.0" encoding="UTF-8" standalone="no"?>
<svg
   width="297mm"
   height="210mm"
   viewBox="0 0 1122.5203 793.70132"
   version="1.1"
   id="svg86958"
   sodipodi:docname="shl001内外部位.svg"
   inkscape:version="1.2.2 (732a01da63, 2022-12-09)"
   xmlns:inkscape="http://www.inkscape.org/namespaces/inkscape"
   xmlns:sodipodi="http://sodipodi.sourceforge.net/DTD/sodipodi-0.dtd"
   xmlns="http://www.w3.org/2000/svg"
   xmlns:svg="http://www.w3.org/2000/svg">
  <defs
     id="defs86962" />
  <sodipodi:namedview
     id="namedview86960"
     pagecolor="#ffffff"
     bordercolor="#000000"
     borderopacity="0.25"
     inkscape:showpageshadow="2"
     inkscape:pageopacity="0.0"
     inkscape:pagecheckerboard="0"
     inkscape:deskcolor="#d1d1d1"
     showgrid="false"
     inkscape:zoom="0.40460141"
     inkscape:cx="289.17349"
     inkscape:cy="563.51756"
     inkscape:window-width="1920"
     inkscape:window-height="986"
     inkscape:window-x="-11"
     inkscape:window-y="-11"
     inkscape:window-maximized="1"
     inkscape:current-layer="svg86958"
     inkscape:document-units="mm" />
  <path
     d="m 699.6064,355.33808 c 0,188.76096 -153.57684,341.77923 -343.0238,341.77923 -189.44524,0 -343.021338,-153.01827 -343.021338,-341.77923 0,-188.75924 153.576098,-341.779229 343.021338,-341.779229 189.44696,0 343.0238,153.019989 343.0238,341.779229 z"
     fill="#f26957"
     fill-opacity="0"
     id="path86925"
     style="stroke-width:2.45746" />
  <path
     d="m 699.6064,355.33808 c 0,188.76096 -153.57684,341.77923 -343.0238,341.77923 -189.44524,0 -343.021338,-153.01827 -343.021338,-341.77923 0,-188.75924 153.576098,-341.779229 343.021338,-341.779229 189.44696,0 343.0238,153.019989 343.0238,341.779229 z"
     fill="none"
     stroke="#19191a"
     stroke-opacity="1"
     stroke-width="4.91491"
     stroke-dasharray="none"
     id="path86927" />
  <path
     d="m 484.48336,355.34102 c 0,70.37565 -57.25729,127.42561 -127.8887,127.42561 -70.63141,0 -127.88969,-57.04996 -127.88969,-127.42561 0,-70.37589 57.25828,-127.42658 127.88969,-127.42658 70.63141,0 127.8887,57.05069 127.8887,127.42658 z"
     fill="#ffcfd5"
     fill-opacity="0"
     id="path86929"
     style="stroke-width:2.45746" />
  <path
     d="m 484.48336,355.34102 c 0,70.37565 -57.25729,127.42561 -127.8887,127.42561 -70.63141,0 -127.88969,-57.04996 -127.88969,-127.42561 0,-70.37589 57.25828,-127.42658 127.88969,-127.42658 70.63141,0 127.8887,57.05069 127.8887,127.42658 z"
     fill="none"
     stroke="#19191a"
     stroke-opacity="1"
     stroke-width="4.91491"
     stroke-dasharray="none"
     id="path86931" />
  <clipPath
     id="clip_2_17_0">
    <path
       d="m 114.333,140.33 h 74.211 v 74.21 h -74.211 z"
       id="path86933" />
  </clipPath>
  <g
     clip-path="url(#clip_2_17_0)"
     id="g86938"
     transform="matrix(2.4619168,0,0,2.4530021,-16.234086,-16.129097)">
    <path
       d="m 57.5459,47.5178 h -5.0655 v -2.3925 h -1.0356 v 2.3925 h -5.0689 v 10.4146 h 1.022 v -9.3926 h 4.0298 c -0.082,1.8355 -0.5879,4.1426 -3.6675,5.7832 0.2393,0.1812 0.5879,0.5606 0.7417,0.7827 1.8765,-1.104 2.8848,-2.4062 3.4043,-3.7529 1.2886,1.2065 2.6865,2.6318 3.4009,3.5718 l 0.8545,-0.6734 c -0.8545,-1.0356 -2.5635,-2.6728 -3.9478,-3.8896 0.1538,-0.6323 0.2222,-1.2476 0.253,-1.8218 h 4.0571 v 7.981 c 0,0.2529 -0.082,0.3349 -0.335,0.3486 -0.2939,0.0137 -1.2441,0.0137 -2.2251,-0.0274 0.1538,0.2803 0.3076,0.7691 0.3487,1.0494 1.2475,0 2.1157,0 2.6045,-0.1812 0.4751,-0.1675 0.6289,-0.5058 0.6289,-1.1758 z"
       fill="#19191a"
       fill-opacity="1"
       transform="translate(99.4912,99.4877)"
       id="path86936" />
  </g>
  <path
     d="m 412.06504,130.16145 h -6.47934 c 0.47963,-1.5427 0.8583,-3.11895 1.23696,-4.77065 l -2.51603,-0.47792 c -1.23696,5.96963 -3.40795,11.63738 -6.54668,15.1755 0.55539,0.34391 1.69139,1.16542 2.10371,1.61824 1.92697,-2.40639 3.58468,-5.56718 4.89737,-9.13888 h 6.54668 c -0.58901,3.60525 -1.51464,6.73249 -2.69272,9.4406 -1.44734,-1.23239 -3.47529,-2.67451 -5.133,-3.70575 l -1.5483,1.68521 c 1.85966,1.23264 4.13164,2.98482 5.57898,4.32636 -2.44028,4.4603 -5.78935,7.58763 -9.78637,9.61675 0.62269,0.41088 1.69136,1.44212 2.07003,2.09609 7.33767,-3.99103 12.71469,-11.98954 14.54069,-25.4128 l -1.75025,-0.58691 z m 7.85938,5.84386 v -11.05887 h -2.61697 v 31.31532 h 2.61697 v -18.64667 c 2.72642,2.30575 5.85675,5.18974 7.41342,7.14331 l 2.02788,-1.75218 c -1.826,-2.1633 -5.54522,-5.42469 -8.50725,-7.75551 z"
     fill="#19191a"
     fill-opacity="1"
     id="path86940"
     style="stroke-width:2.45746" />
  <path
     d="m 839.94043,360.49478 c 0.0758,-1.23263 0.0758,-2.40639 0.0758,-3.50465 v -2.33084 h 4.40934 v 5.83549 z m 4.48507,-14.01017 v 6.01155 h -4.40934 v -6.01155 z m 2.27198,-2.09607 h -8.99537 v 12.60159 c 0,4.91317 -0.13467,11.61231 -2.10369,16.28234 0.55536,0.2767 1.55672,1.03124 1.93539,1.47548 1.41368,-3.37042 2.06161,-7.86432 2.30566,-12.0229 h 4.58603 v 8.72803 c 0,0.41088 -0.13466,0.51145 -0.47965,0.54481 -0.31134,0 -1.38001,0 -2.51601,-0.0334 0.34501,0.62036 0.69003,1.68521 0.75734,2.30558 1.64928,0 2.75161,-0.0419 3.50894,-0.48619 0.76576,-0.37727 1.00136,-1.06485 1.00136,-2.26388 z m 14.20411,16.31573 h 5.2003 v -2.47336 h -5.2003 v -6.9421 h -2.4487 v 6.9421 h -5.34337 v 2.47336 h 5.34337 v 10.26238 h -6.85802 v 2.47336 h 15.50828 v -2.47336 h -6.20156 z m -2.82737,-12.71048 2.20475,-0.99773 c -0.47983,-1.09833 -1.58206,-2.77521 -2.61707,-3.94899 l -2.13734,0.86358 c 0.96771,1.29955 2.03638,2.95125 2.48235,4.08314 h -8.99537 v 10.33793 c 0,4.39333 -0.17677,10.30409 -2.20467,14.59684 0.5133,0.2767 1.54832,1.16542 1.89333,1.64351 2.37295,-4.59472 2.76003,-11.46975 2.76003,-16.24035 v -7.93163 h 15.67665 v -2.4063 z m 16.33295,12.71048 c 0.0756,-1.37491 0.0756,-2.71646 0.0756,-3.91536 v -1.99547 h 3.5848 v 5.91083 z m 3.66038,-13.94296 v 5.76838 h -3.5848 v -5.76838 z m 2.27185,-2.27215 h -8.0613 v 12.33328 c 0,4.98028 -0.17652,11.81337 -2.00252,16.65118 0.58889,0.20973 1.5483,0.79649 1.96042,1.13181 1.24549,-3.29487 1.82601,-7.58763 2.07023,-11.60368 h 3.76132 v 8.30881 c 0,0.45258 -0.14304,0.58676 -0.55541,0.62036 -0.34492,0 -1.58203,0 -2.92821,-0.067 0.31119,0.65397 0.58889,1.71857 0.68983,2.3642 1.9944,0 3.20616,-0.067 3.99717,-0.47785 0.79102,-0.41087 1.06847,-1.13181 1.06847,-2.40639 z m 9.13002,5.39109 c -0.64773,3.57172 -2.20464,8.07396 -4.34183,10.89123 0.41237,0.47785 0.93405,1.2996 1.21175,1.81939 0.61425,-0.72118 1.13593,-1.58464 1.64924,-2.50697 v 14.38735 h 2.06998 v -18.82262 c 0.69007,-1.74391 1.20338,-3.5633 1.62413,-5.24854 z m 9.96313,0.31023 h -2.17091 v 4.73712 h -5.85666 v 2.23861 h 5.85666 v 14.48801 c 0,0.44449 -0.13467,0.58701 -0.58914,0.58701 -0.41237,0.0334 -1.79228,0.0334 -3.40803,-0.0336 0.2777,0.65397 0.58913,1.54269 0.69007,2.1297 2.17117,0.0334 3.51734,-0.0336 4.37581,-0.41088 0.79102,-0.37727 1.1022,-0.96428 1.1022,-2.27222 v -14.48801 h 2.00277 v -2.23861 h -2.00277 z m -3.13869,16.51702 c -0.51331,-1.853 -1.64924,-4.70363 -2.71796,-6.96726 l -1.85973,0.54481 c 0.99313,2.23861 2.13743,5.19006 2.65074,7.07642 z m -2.13719,-19.94619 c -0.47983,-1.09836 -1.16966,-2.58238 -1.82601,-3.74777 l -2.13743,0.6875 c 0.45447,0.93064 1.00126,2.06253 1.44736,3.06027 h -9.06281 v 11.32708 c 0,4.63666 -0.13467,10.85772 -1.96067,15.28465 0.54704,0.20949 1.58203,0.89707 2.02812,1.30794 1.96905,-4.70363 2.28023,-11.67923 2.28023,-16.59259 v -9.0298 h 16.8213 v -2.29728 z"
     fill="#19191a"
     fill-opacity="1"
     id="path86942"
     style="stroke-width:2.45746" />
  <path
     d="m 434.59698,359.4446 q 6.6e-4,0.26495 -0.0123,0.52963 -0.0123,0.26468 -0.0379,0.52843 -0.0254,0.26374 -0.0638,0.52592 -0.0384,0.2622 -0.0896,0.52219 -0.0512,0.26 -0.11522,0.51717 -0.064,0.2572 -0.14058,0.51094 -0.0766,0.25374 -0.16544,0.50343 -0.0889,0.24969 -0.19006,0.49474 -0.10118,0.24506 -0.21419,0.48484 -0.113,0.2399 -0.23782,0.4738 -0.12482,0.23401 -0.26089,0.4616 -0.13614,0.22764 -0.28331,0.44826 -0.14723,0.22077 -0.30503,0.43389 -0.15781,0.21317 -0.32606,0.41846 -0.16815,0.20531 -0.34627,0.40202 -0.178,0.19673 -0.36564,0.38458 -0.1876,0.1879 -0.38414,0.36626 -0.19646,0.17833 -0.40171,0.34705 -0.20508,0.16852 -0.41833,0.32696 -0.2132,0.15847 -0.43393,0.30614 -0.22084,0.14767 -0.44847,0.28454 -0.22772,0.13688 -0.46195,0.26228 -0.23413,0.12559 -0.47429,0.23941 -0.24004,0.11382 -0.48554,0.21587 -0.24545,0.10204 -0.49556,0.19182 -0.25015,0.0898 -0.50442,0.16754 -0.25429,0.0775 -0.51208,0.14252 -0.25779,0.065 -0.51845,0.1175 -0.2607,0.0523 -0.52363,0.092 -0.26296,0.0395 -0.52751,0.0662 -0.26459,0.0267 -0.53015,0.0402 -0.26557,0.0147 -0.53148,0.0147 -0.26594,6.6e-4 -0.53155,-0.0123 -0.26564,-0.0123 -0.53035,-0.0375 -0.26471,-0.0253 -0.52786,-0.0635 -0.26313,-0.0383 -0.52407,-0.0893 -0.26094,-0.051 -0.51907,-0.1148 -0.25811,-0.0638 -0.51277,-0.14007 -0.25466,-0.0763 -0.50526,-0.16484 -0.25062,-0.0885 -0.49654,-0.18937 -0.24594,-0.10082 -0.48662,-0.21341 -0.24078,-0.1126 -0.4755,-0.23696 -0.23486,-0.12437 -0.46328,-0.25995 -0.22847,-0.13565 -0.44992,-0.28229 -0.22157,-0.14669 -0.43546,-0.30395 -0.21394,-0.15724 -0.41998,-0.32488 -0.20606,-0.16754 -0.40346,-0.34499 -0.19744,-0.17735 -0.386,-0.36432 -0.18858,-0.18692 -0.36759,-0.38276 -0.17898,-0.196 -0.34829,-0.40026 -0.16913,-0.20434 -0.32817,-0.41681 -0.15904,-0.21243 -0.30725,-0.43235 -0.1482,-0.22003 -0.28558,-0.44686 -0.13737,-0.2269 -0.26323,-0.46026 -0.12605,-0.23328 -0.24028,-0.47259 -0.11423,-0.23917 -0.21665,-0.48376 -0.10242,-0.24456 -0.19252,-0.49379 -0.0904,-0.24925 -0.16815,-0.50259 -0.0778,-0.25335 -0.14304,-0.5102 -0.0652,-0.25686 -0.11768,-0.51661 -0.0524,-0.25972 -0.0923,-0.52172 -0.0396,-0.26198 -0.0665,-0.52561 -0.0268,-0.26362 -0.0404,-0.52823 -0.0148,-0.2646 -0.0148,-0.52955 -6.6e-4,-0.26495 0.0123,-0.52963 0.0123,-0.26468 0.0377,-0.52843 0.0254,-0.26374 0.0638,-0.52592 0.0384,-0.2622 0.0896,-0.52219 0.0512,-0.26 0.11521,-0.51717 0.064,-0.2572 0.14058,-0.51094 0.0766,-0.25374 0.16544,-0.50343 0.0889,-0.24969 0.19006,-0.49474 0.10119,-0.24506 0.21419,-0.48484 0.113,-0.2399 0.23782,-0.4738 0.12482,-0.23401 0.26089,-0.4616 0.13614,-0.22764 0.28331,-0.44826 0.14723,-0.22077 0.30506,-0.43389 0.15781,-0.21317 0.32603,-0.41846 0.16815,-0.20531 0.34627,-0.40202 0.178,-0.19673 0.36565,-0.38458 0.18759,-0.1879 0.38413,-0.36626 0.19646,-0.17833 0.40173,-0.34705 0.20508,-0.16852 0.41831,-0.32696 0.2132,-0.15847 0.43394,-0.30614 0.22083,-0.14767 0.44846,-0.28454 0.22773,-0.13688 0.46195,-0.26228 0.23413,-0.12559 0.47432,-0.23941 0.24003,-0.11382 0.48551,-0.21587 0.24545,-0.10204 0.49558,-0.19182 0.25013,-0.0898 0.50443,-0.16754 0.25426,-0.0775 0.51205,-0.14252 0.25779,-0.065 0.51845,-0.11725 0.2607,-0.0523 0.52363,-0.092 0.26296,-0.0395 0.52754,-0.0662 0.26456,-0.0267 0.53012,-0.0402 0.26557,-0.0147 0.53151,-0.0147 0.26591,-6.6e-4 0.53155,0.0123 0.26562,0.0123 0.53032,0.0375 0.26471,0.0253 0.52786,0.0635 0.26313,0.0383 0.52407,0.0893 0.26096,0.051 0.51907,0.1148 0.25811,0.0638 0.51277,0.14007 0.25466,0.0763 0.50528,0.16484 0.2506,0.0885 0.49652,0.18937 0.24595,0.10082 0.48662,0.21341 0.24078,0.11259 0.47552,0.23696 0.23487,0.12437 0.46326,0.25994 0.22847,0.13566 0.44992,0.2823 0.22157,0.14669 0.43546,0.30395 0.21394,0.15723 0.41998,0.32487 0.20606,0.16754 0.40346,0.34499 0.19744,0.17736 0.386,0.36432 0.18858,0.18692 0.36759,0.38277 0.17898,0.19575 0.34829,0.40026 0.16913,0.20433 0.32817,0.41681 0.15904,0.21243 0.30725,0.43234 0.14821,0.22004 0.28558,0.44686 0.13738,0.22691 0.26323,0.46026 0.12605,0.23328 0.24028,0.4726 0.11424,0.23916 0.21665,0.48375 0.10242,0.24457 0.19252,0.49379 0.0904,0.24925 0.16815,0.5026 0.0778,0.25334 0.14304,0.5102 0.0652,0.25685 0.11768,0.5166 0.0524,0.25972 0.0923,0.52173 0.0396,0.26198 0.0665,0.5256 0.0268,0.26363 0.0404,0.52823 0.0148,0.26461 0.0148,0.52956 z"
     fill="#000000"
     fill-opacity="1"
     stroke="none"
     id="path86944"
     style="stroke-width:2.45746" />
  <path
     d="m 834.41481,358.4388 -25.62117,-14.6536 0.0739,29.43593 z"
     fill="#000000"
     fill-opacity="1"
     stroke="none"
     id="path86946"
     style="stroke-width:2.45746" />
  <path
     d="m 423.76459,359.47186 395.87872,-0.9959"
     fill="none"
     stroke="#000000"
     stroke-opacity="1"
     stroke-width="4.91491"
     stroke-dasharray="none"
     id="path86948" />
  <path
     d="m 871.97356,216.14797 c -2.1037,2.75006 -6.03334,5.66779 -9.30668,7.28596 0.65637,0.44436 1.38003,1.23249 1.85968,1.78586 3.45008,-1.89487 7.34607,-4.91319 9.82842,-8.07408 z m 1.00151,9.37364 c -2.3142,2.95967 -6.44581,6.07871 -9.92952,7.83089 0.62269,0.48643 1.34637,1.27433 1.79234,1.81939 3.68579,-2.05415 7.79202,-5.31566 10.47649,-8.65255 z m -21.64286,3.40403 v -8.82865 h 5.54532 v 8.82865 z m 11.78067,2.37271 v -2.37271 h -3.753 v -8.82865 h 3.23969 v -2.39791 h -17.64574 v 2.39791 h 3.96334 v 8.82865 h -4.48505 v 2.37271 h 4.4514 c -0.14304,5.08091 -0.90038,10.0946 -4.61969,14.14426 0.58062,0.34391 1.51464,1.16542 1.92696,1.71882 4.10641,-4.50224 4.96471,-10.1282 5.09935,-15.86308 h 5.58739 v 15.61998 h 2.48235 v -15.61998 z m 10.61948,3.46266 c -2.54981,4.22579 -7.41347,8.0407 -12.47914,10.13679 0.62269,0.51145 1.38,1.40851 1.79233,2.02053 5.30973,-2.43975 10.20698,-6.48941 13.1017,-11.22665 z m 12.36941,-19.0574 c -1.71645,5.18987 -4.51024,10.30428 -7.54799,13.63286 0.45446,0.58697 1.21175,1.92828 1.48108,2.50694 1.00127,-1.16542 2.00253,-2.50694 2.93658,-3.94904 v 18.99036 h 2.4405 v -23.21605 c 1.17802,-2.33082 2.24674,-4.8042 3.07124,-7.24401 z m 23.99064,9.23948 v -2.47336 h -10.2662 v -6.76612 h -2.48235 v 6.76612 h -9.6517 v 2.47336 h 8.09503 c -2.09533,5.80187 -5.67989,11.60395 -9.44145,14.5971 0.58914,0.44424 1.41388,1.33297 1.85973,1.91997 3.61828,-3.29512 6.93375,-8.92917 9.13839,-14.87375 v 11.6792 h -5.62105 v 2.33943 h 5.62105 v 6.14551 h 2.48235 v -6.14551 h 5.54547 v -2.33943 h -5.54547 v -11.91396 c 2.09534,5.9696 5.4108,11.74642 9.02908,15.0413 0.4461,-0.68733 1.30433,-1.5844 1.92695,-2.02888 -3.71922,-2.98481 -7.27029,-8.68608 -9.30654,-14.42098 z m 3.30684,10.94998 h 8.82696 v -2.39805 h -8.82696 z m 36.36276,-4.52751 c -1.44736,3.26127 -3.65201,5.83545 -6.40369,7.83072 -2.72633,-2.06248 -4.86376,-4.74533 -6.37833,-7.83072 z m -18.26004,-2.68306 v -5.96963 h 9.13002 v 6.2463 h -9.13002 z m 20.05232,0.17605 -0.47958,0.10062 h -7.82595 v -6.2463 h 8.79348 c -0.65635,1.60978 -1.34642,3.26149 -1.96904,4.39338 l 2.34768,0.72103 c 1.03499,-1.78583 2.20465,-4.60296 3.17243,-7.17694 l -1.93531,-0.51982 -0.47983,0.10899 h -9.92941 v -4.70358 h -2.61677 v 4.70358 h -11.65447 v 8.40943 c 0,4.98025 -0.41237,11.71276 -4.06437,16.48361 0.58889,0.31006 1.62412,1.17376 2.03625,1.68521 3.34082,-4.32636 4.27487,-10.47211 4.47675,-15.4522 h 2.86099 c 1.69134,3.73936 3.92971,6.83309 6.85816,9.27284 -3.23988,1.853 -6.9591,3.16094 -10.95602,3.94909 0.51331,0.54506 1.20314,1.64327 1.48084,2.33084 4.20742,-0.98929 8.17086,-2.43975 11.61237,-4.63642 3.23964,2.23837 7.20308,3.78131 11.82287,4.74534 0.34491,-0.72094 1.06847,-1.78579 1.62388,-2.37279 -4.30836,-0.72094 -8.06967,-2.06249 -11.16627,-3.98245 3.3743,-2.64949 6.0669,-6.22106 7.68265,-10.85772 z m 33.22972,11.94764 c -1.89346,-1.81939 -5.72199,-4.60306 -8.68417,-6.58999 0.47983,-1.24098 0.79102,-2.47336 1.06872,-3.7813 h -2.62539 c -0.85822,4.058 -2.75168,8.24159 -9.06256,10.33768 0.58889,0.44449 1.27897,1.30794 1.5483,1.91997 4.03902,-1.50909 6.48764,-3.73936 8.03594,-6.3469 2.861,2.05414 6.16809,4.67002 7.85943,6.3469 z m 4.51023,-20.18939 h -12.43686 c 0.27745,-1.55108 0.44585,-3.16086 0.58052,-4.91319 h -2.68423 c -0.10119,1.75233 -0.27771,3.40403 -0.55541,4.91319 h -12.53805 v 26.30153 h 2.51608 V 223.1237 h 9.4412 c -1.13592,3.46271 -3.38267,6.11214 -7.99384,7.79738 0.54679,0.44448 1.27059,1.2996 1.58178,1.91997 3.8625,-1.47549 6.23554,-3.60521 7.71639,-6.28818 3.07148,1.86132 6.5551,4.29266 8.41483,5.8773 l 1.72506,-1.99527 c -2.07022,-1.67695 -6.03342,-4.18384 -9.17211,-5.9697 0.14303,-0.45275 0.2777,-0.86358 0.41237,-1.3415 h 10.47619 v 20.53312 c 0,0.58701 -0.16815,0.78815 -0.79101,0.82176 -0.65635,0 -2.75144,0.0417 -4.99819,-0.0672 0.34492,0.68757 0.68983,1.85299 0.79939,2.57393 2.86099,0 4.88887,-0.0334 6.05853,-0.47784 1.11082,-0.41088 1.44736,-1.23239 1.44736,-2.85064 z m 31.57216,-1.40856 c -2.1375,-1.20734 -6.3365,-2.7165 -9.4415,-3.53816 l -1.035,1.99547 c 3.1387,0.92225 7.3124,2.54043 9.4077,3.77291 z m -22.71147,13.84254 c 0.0672,-1.37516 0.0672,-2.75006 0.0672,-3.95746 v -1.88648 h 4.68697 v 5.84394 z m 4.75417,-13.87607 v 5.70131 h -4.68696 v -5.70131 z m 9.2396,9.13049 -0.4124,0.10899 h -5.4108 v 2.36437 h 4.6536 c -1.0016,4.67003 -3.1387,8.5519 -5.6886,10.54742 V 216.8355 h -9.34022 v 12.29975 c 0,5.01374 -0.1684,11.88042 -2.34793,16.68463 0.58914,0.20973 1.5904,0.78815 2.07023,1.20737 1.41363,-3.26985 2.06998,-7.59621 2.34768,-11.61227 h 4.88884 v 8.48493 c 0,0.44449 -0.1346,0.57867 -0.6142,0.62037 -0.3787,0.0336 -1.7251,0.0336 -3.27338,0 0.34516,0.64563 0.68171,1.74408 0.75729,2.39805 2.20469,0 3.50899,-0.0672 4.34209,-0.47784 0.8582,-0.44449 1.1696,-1.16542 1.1696,-2.54058 v -2.19666 c 0.5134,0.51145 1.0688,1.266 1.3465,1.78579 3.4752,-2.71646 6.0334,-7.83072 6.9926,-14.73109 z m 11.0991,-3.42918 c -1.0688,1.64332 -2.8275,3.84001 -4.3758,5.49166 -0.5217,-1.50913 -1.0013,-3.09375 -1.3799,-4.70353 v -3.43756 h -9.1301 v 2.43983 h 6.6812 v 19.2671 c 0,0.47785 -0.1682,0.62036 -0.6898,0.65397 -0.4461,0 -2.1375,0.0336 -3.9298,-0.0336 0.345,0.68758 0.6899,1.78579 0.7994,2.47337 2.5159,0 4.0307,-0.042 5.0319,-0.48619 0.9257,-0.44448 1.2372,-1.16542 1.2372,-2.57393 v -11.53696 c 1.6576,4.77084 3.9631,8.82026 6.9588,11.12608 0.4207,-0.65397 1.2118,-1.54269 1.7923,-2.02912 -2.718,-1.8194 -4.8889,-5.11427 -6.5465,-8.99614 1.7585,-1.60991 3.9297,-4.01618 5.7557,-6.01165 z m 12.2347,-3.94898 c 0.8248,1.40853 1.5483,3.11894 1.8935,4.25919 l 2.2802,-0.86358 c -0.3112,-0.88872 -0.9003,-2.23022 -1.5904,-3.39561 h 5.8315 v -2.20508 h -8.8272 c 0.4461,-0.85519 0.8585,-1.74394 1.2034,-2.64105 l -2.4402,-0.62044 c -1.1781,3.19442 -3.1725,6.38882 -5.4527,8.41782 0.6226,0.31023 1.6576,1.03127 2.1372,1.4421 1.1359,-1.19896 2.3142,-2.71651 3.3492,-4.39335 z m -1.3799,15.93006 c 0.1093,-1.19878 0.143,-2.3642 0.143,-3.42905 h 5.823 v 3.42905 z m 5.966,-8.75312 v 3.22798 h -5.823 v -3.22798 z m 2.4486,-2.16316 h -10.6867 v 7.44528 c 0,3.78131 -0.3112,8.76164 -2.9957,12.33321 0.5808,0.24309 1.6493,0.96427 2.0617,1.40851 1.725,-2.33918 2.5498,-5.25678 2.9705,-8.14102 h 6.2016 v 5.04729 c 0,0.41088 -0.1347,0.5534 -0.5889,0.58701 -0.4124,0 -1.826,0 -3.4418,-0.0336 0.3449,0.68758 0.6143,1.67687 0.7236,2.33084 2.2384,0 3.6857,0 4.5777,-0.44448 0.9003,-0.37727 1.178,-1.0646 1.178,-2.40615 z m 8.4402,2.57399 v -3.78133 h -2.3731 v 3.78133 h -4.83 v 2.33072 h 4.83 c 0,4.46888 -0.6226,10.06123 -5.9997,14.56372 0.5889,0.37727 1.38,1.03124 1.7923,1.57605 5.7895,-4.8042 6.5805,-10.88274 6.5805,-16.13977 h 5.4105 c -0.2693,9.10554 -0.6563,12.40041 -1.2368,13.15496 -0.3115,0.37727 -0.6229,0.44448 -1.1697,0.44448 -0.5554,0 -2.0365,0 -3.5848,-0.16778 0.4124,0.68757 0.6901,1.68521 0.7238,2.44 1.5483,0.10057 3.1303,0.10057 4.0307,0 0.9256,-0.10916 1.5483,-0.34391 2.1372,-1.13206 0.9256,-1.20737 1.2371,-4.98009 1.582,-15.90502 0.034,-0.34364 0.034,-1.1653 0.034,-1.1653 z m -2.617,-9.79285 c 0.4795,-0.85519 0.8919,-1.74394 1.2368,-2.64105 l -2.516,-0.62044 c -1.136,3.19442 -3.3069,6.25467 -5.7555,8.20821 0.6226,0.27668 1.6576,1.0648 2.1372,1.47563 1.2789,-1.13186 2.5161,-2.57396 3.6183,-4.21727 h 2.5498 c 1.0349,1.40853 2.0362,3.15247 2.4486,4.35981 l 2.2467,-0.89711 c -0.387,-0.92228 -1.1443,-2.29731 -1.969,-3.4627 h 7.2031 v -2.20508 z m 23.0226,20.81823 v -2.71645 h 14.995 v 2.71645 z m 14.995,-7.25254 v 2.64949 h -14.995 v -2.64949 z m 2.4824,-2.05415 h -19.8926 v 16.71844 h 2.4152 v -5.49178 h 14.995 v 2.75006 c 0,0.47784 -0.1767,0.61202 -0.6563,0.65397 -0.5554,0 -2.4152,0.0336 -4.3421,-0.042 0.3114,0.62037 0.6563,1.48407 0.7573,2.1297 2.617,0 4.3421,-0.0336 5.4108,-0.37727 1.0012,-0.37752 1.3127,-0.98954 1.3127,-2.33084 z m -17.1325,-7.21879 h 7.0012 v 2.89258 h -7.0012 z m 14.204,-3.94899 v 6.84157 h -4.931 v -4.63652 h -9.273 v -2.20505 z m 2.5161,6.84157 v -8.86218 h -19.1687 v 8.86218 h -4.788 v 6.52288 h 2.3393 v -4.29266 h 24.0252 v 4.29266 h 2.4471 v -6.52288 z"
     fill="#19191a"
     fill-opacity="1"
     id="path86950"
     style="stroke-width:2.45746" />
  <path
     d="m 549.49471,224.68678 q 0,0.26495 -0.0123,0.52959 -0.0123,0.26464 -0.0391,0.52832 -0.0261,0.26369 -0.065,0.52578 -0.0391,0.26209 -0.0908,0.52196 -0.052,0.25986 -0.11645,0.51687 -0.0648,0.25703 -0.14181,0.51057 -0.0773,0.25357 -0.16692,0.50304 -0.0896,0.24947 -0.19129,0.49426 -0.10168,0.24478 -0.21542,0.48429 -0.11374,0.23966 -0.23905,0.47321 -0.12531,0.23377 -0.26207,0.46092 -0.13664,0.22739 -0.28442,0.44757 -0.14772,0.22028 -0.30617,0.43313 -0.1583,0.21268 -0.32709,0.41762 -0.16864,0.20483 -0.3473,0.40114 -0.17849,0.19624 -0.36661,0.38368 -0.18809,0.18741 -0.38506,0.36527 -0.19696,0.17785 -0.4026,0.34605 -0.20557,0.16803 -0.41914,0.3259 -0.2137,0.15773 -0.4347,0.30506 -0.22108,0.14718 -0.4492,0.28342 -0.22798,0.13614 -0.4626,0.2611 -0.23462,0.12486 -0.47493,0.23818 -0.24028,0.11333 -0.48605,0.21464 -0.2457,0.10131 -0.49608,0.1906 -0.25035,0.0893 -0.50484,0.16631 -0.25446,0.077 -0.51242,0.1413 -0.25794,0.0643 -0.51875,0.11602 -0.26082,0.0518 -0.52388,0.0905 -0.26303,0.039 -0.52766,0.0648 -0.26465,0.026 -0.53025,0.039 -0.26561,0.0123 -0.53152,0.0123 -0.26592,0 -0.53153,-0.0123 -0.26559,-0.0123 -0.53025,-0.039 -0.26463,-0.026 -0.52766,-0.0648 -0.26306,-0.039 -0.52387,-0.0905 -0.26082,-0.0517 -0.51875,-0.11602 -0.25796,-0.0643 -0.51243,-0.1413 -0.25449,-0.077 -0.50486,-0.16631 -0.25038,-0.0893 -0.49605,-0.1906 -0.2457,-0.10131 -0.48606,-0.21464 -0.24053,-0.11332 -0.47493,-0.23818 -0.23462,-0.12486 -0.46259,-0.2611 -0.22822,-0.13614 -0.4492,-0.28342 -0.22108,-0.14718 -0.4347,-0.30506 -0.21345,-0.15772 -0.41915,-0.3259 -0.20557,-0.16803 -0.40259,-0.34605 -0.19696,-0.17784 -0.38507,-0.36527 -0.18809,-0.18741 -0.36663,-0.38368 -0.17849,-0.19624 -0.34728,-0.40114 -0.16864,-0.20482 -0.32709,-0.41762 -0.1583,-0.21292 -0.30616,-0.43313 -0.14772,-0.22028 -0.28445,-0.44757 -0.13664,-0.22715 -0.26205,-0.46092 -0.12531,-0.23377 -0.23905,-0.47321 -0.11374,-0.23951 -0.21542,-0.48429 -0.10168,-0.24479 -0.19129,-0.49426 -0.0896,-0.24947 -0.16692,-0.50304 -0.0771,-0.25354 -0.1418,-0.51057 -0.0645,-0.25701 -0.11645,-0.51687 -0.052,-0.25987 -0.0909,-0.52196 -0.0391,-0.26209 -0.065,-0.52578 -0.0261,-0.26368 -0.0391,-0.52832 -0.0123,-0.26464 -0.0123,-0.52959 0,-0.26496 0.0123,-0.5296 0.0123,-0.26464 0.0391,-0.52832 0.0261,-0.26369 0.065,-0.52578 0.0392,-0.26209 0.0909,-0.52195 0.0519,-0.25987 0.11645,-0.51688 0.0647,-0.25703 0.1418,-0.51057 0.0773,-0.25357 0.16692,-0.50304 0.0896,-0.24947 0.19129,-0.49425 0.10168,-0.24479 0.21542,-0.4843 0.11374,-0.23954 0.23905,-0.47321 0.12531,-0.23367 0.26205,-0.46092 0.13663,-0.22727 0.28445,-0.44757 0.14771,-0.22031 0.30616,-0.43313 0.1583,-0.2128 0.32709,-0.41762 0.16864,-0.20483 0.34728,-0.40114 0.17849,-0.19632 0.36663,-0.38368 0.18809,-0.18736 0.38507,-0.36527 0.19695,-0.17794 0.40259,-0.34605 0.20557,-0.16808 0.41915,-0.3259 0.21369,-0.15785 0.4347,-0.30506 0.22108,-0.1472 0.4492,-0.28342 0.22797,-0.13621 0.46259,-0.2611 0.23462,-0.1249 0.47493,-0.23818 0.24028,-0.11328 0.48606,-0.21469 0.2457,-0.10138 0.49605,-0.19065 0.25037,-0.0893 0.50486,-0.16619 0.25447,-0.0769 0.51243,-0.14129 0.25793,-0.0644 0.51875,-0.11605 0.26081,-0.0517 0.52387,-0.0906 0.26303,-0.0389 0.52766,-0.0648 0.26466,-0.026 0.53025,-0.039 0.26561,-0.013 0.53153,-0.013 0.26591,0 0.53152,0.013 0.2656,0.013 0.53025,0.039 0.26463,0.0259 0.52766,0.0648 0.26306,0.0389 0.52388,0.0906 0.26081,0.0517 0.51875,0.11605 0.25796,0.0644 0.51242,0.14129 0.25449,0.0769 0.50486,0.16619 0.25036,0.0893 0.49606,0.19065 0.2457,0.10141 0.48605,0.21469 0.24053,0.11328 0.47493,0.23818 0.23462,0.12489 0.4626,0.2611 0.22797,0.13622 0.4492,0.28342 0.22108,0.14721 0.4347,0.30506 0.21345,0.15782 0.41914,0.3259 0.20557,0.16811 0.4026,0.34605 0.19695,0.17791 0.38506,0.36527 0.18809,0.18736 0.36661,0.38368 0.17849,0.19631 0.3473,0.40114 0.16864,0.20482 0.32709,0.41762 0.15855,0.21282 0.30617,0.43313 0.14771,0.2203 0.28442,0.44757 0.13664,0.22727 0.26207,0.46092 0.12531,0.23367 0.23905,0.47321 0.11374,0.23951 0.21542,0.4843 0.10168,0.24478 0.19129,0.49425 0.0896,0.24947 0.16692,0.50304 0.0773,0.25354 0.14181,0.51057 0.0645,0.25701 0.11645,0.51688 0.0519,0.25986 0.0908,0.52195 0.0391,0.26209 0.065,0.52578 0.0261,0.26368 0.0391,0.52832 0.0123,0.26464 0.0123,0.5296 z"
     fill="#000000"
     fill-opacity="1"
     stroke="none"
     id="path86952"
     style="stroke-width:2.45746" />
  <path
     d="m 833.01151,224.68678 -25.58424,-14.71802 v 29.43603 z"
     fill="#000000"
     fill-opacity="1"
     stroke="none"
     id="path86954"
     style="stroke-width:2.45746" />
  <path
     d="M 538.66227,224.68678 H 818.24001"
     fill="none"
     stroke="#000000"
     stroke-opacity="1"
     stroke-width="4.91491"
     stroke-dasharray="none"
     id="path86956" />
</svg>
