<?xml version="1.0" encoding="UTF-8" standalone="no"?>
<svg
   width="297mm"
   height="210mm"
   viewBox="0 0 1122.5183 793.7013"
   version="1.1"
   id="svg22075"
   sodipodi:docname="shl002表里部位.svg"
   inkscape:version="1.2.2 (732a01da63, 2022-12-09)"
   xmlns:inkscape="http://www.inkscape.org/namespaces/inkscape"
   xmlns:sodipodi="http://sodipodi.sourceforge.net/DTD/sodipodi-0.dtd"
   xmlns="http://www.w3.org/2000/svg"
   xmlns:svg="http://www.w3.org/2000/svg">
  <defs
     id="defs22079" />
  <sodipodi:namedview
     id="namedview22077"
     pagecolor="#ffffff"
     bordercolor="#000000"
     borderopacity="0.25"
     inkscape:showpageshadow="2"
     inkscape:pageopacity="0.0"
     inkscape:pagecheckerboard="0"
     inkscape:deskcolor="#d1d1d1"
     showgrid="false"
     inkscape:zoom="0.67458113"
     inkscape:cx="947.25449"
     inkscape:cy="360.22354"
     inkscape:window-width="1920"
     inkscape:window-height="986"
     inkscape:window-x="-11"
     inkscape:window-y="-11"
     inkscape:window-maximized="1"
     inkscape:current-layer="svg22075"
     inkscape:document-units="mm" />
  <path
     d="m 861.2215,417.59993 c 0,172.54847 -138.80478,312.42609 -310.0273,312.42609 -171.22187,0 -310.02514,-139.87762 -310.02514,-312.42609 0,-172.54803 138.80327,-312.426 310.02514,-312.426 171.22252,0 310.0273,139.87797 310.0273,312.426 z"
     fill="#fef3a4"
     fill-opacity="0"
     id="path22031"
     style="stroke-width:2.06885" />
  <path
     d="m 861.2215,417.59993 c 0,172.54847 -138.80478,312.42609 -310.0273,312.42609 -171.22187,0 -310.02514,-139.87762 -310.02514,-312.42609 0,-172.54803 138.80327,-312.426 310.02514,-312.426 171.22252,0 310.0273,139.87797 310.0273,312.426 z"
     fill="none"
     stroke="#19191a"
     stroke-opacity="1"
     stroke-width="4.1377"
     stroke-dasharray="none"
     id="path22033" />
  <path
     d="m 838.31557,417.59993 c 0,159.81533 -128.56011,289.36895 -287.14733,289.36895 -158.58576,0 -287.1452,-129.55362 -287.1452,-289.36895 0,-159.81385 128.55944,-289.36886 287.1452,-289.36886 158.58722,0 287.14733,129.55501 287.14733,289.36886 z"
     fill="#f25c9b"
     fill-opacity="0"
     id="path22035"
     style="stroke-width:2.06885" />
  <path
     d="m 838.31557,417.59993 c 0,159.81533 -128.56011,289.36895 -287.14733,289.36895 -158.58576,0 -287.1452,-129.55362 -287.1452,-289.36895 0,-159.81385 128.55944,-289.36886 287.1452,-289.36886 158.58722,0 287.14733,129.55501 287.14733,289.36886 z"
     fill="none"
     stroke="#19191a"
     stroke-opacity="1"
     stroke-width="4.1377"
     stroke-dasharray="3, 3"
     id="path22037"
     style="fill:#ffff00" />
  <path
     d="m 810.59398,417.60097 c 0,144.38437 -116.14946,261.4333 -259.4243,261.4333 -143.27628,0 -259.42424,-117.04893 -259.42424,-261.4333 0,-144.38582 116.14796,-261.43324 259.42424,-261.43324 143.27484,0 259.4243,117.04742 259.4243,261.43324 z"
     fill="#f26957"
     fill-opacity="1"
     id="path22039"
     style="stroke-width:2.06885" />
  <path
     d="m 810.59398,417.60097 c 0,144.38437 -116.14946,261.4333 -259.4243,261.4333 -143.27628,0 -259.42424,-117.04893 -259.42424,-261.4333 0,-144.38582 116.14796,-261.43324 259.42424,-261.43324 143.27484,0 259.4243,117.04742 259.4243,261.43324 z"
     fill="none"
     stroke="#19191a"
     stroke-opacity="1"
     stroke-width="8.2754"
     stroke-dasharray="none"
     id="path22041" />
  <path
     d="m 821.32316,128.69358 c -1.2116,2.76117 -3.05714,4.94061 -5.36055,6.62992 -2.28227,-1.74621 -4.07145,-4.01766 -5.33938,-6.62992 z m -15.28559,-2.27163 v -5.05421 h 7.64277 v 5.28846 h -7.64277 z m 16.78591,0.14912 -0.40146,0.0851 h -6.55098 v -5.28846 h 7.36112 c -0.54943,1.36293 -1.1271,2.76135 -1.6483,3.71967 l 1.96526,0.61047 c 0.8664,-1.51199 1.84553,-3.89712 2.65545,-6.07639 l -1.62006,-0.44011 -0.40146,0.0922 h -8.31201 v -3.9823 h -2.1907 v 3.9823 h -9.756 v 7.11989 c 0,4.21655 -0.34516,9.91666 -3.40226,13.95592 0.49307,0.26251 1.35949,0.99377 1.70464,1.42679 2.7965,-3.66293 3.57838,-8.86626 3.74744,-13.08267 h 2.39497 c 1.41585,3.16594 3.28957,5.78526 5.74091,7.85089 -2.71196,1.56885 -5.82543,2.67623 -9.17136,3.34352 0.4297,0.46147 1.0073,1.39127 1.23975,1.97341 3.52203,-0.83759 6.83977,-2.06563 9.72079,-3.92544 2.71196,1.89512 6.02963,3.20146 9.89689,4.01766 0.28873,-0.61039 0.89463,-1.51195 1.35956,-2.00894 -3.60655,-0.61038 -6.75538,-1.74621 -9.34752,-3.37175 2.82461,-2.24321 5.07881,-5.26709 6.43116,-9.19275 z m 21.73081,12.70639 c -2.02173,0 -2.39496,-0.34767 -2.39496,-1.88806 v -4.21662 l 13.18637,-1.74621 -0.28873,-2.00894 -12.89764,1.68952 v -4.53608 l 11.24935,-1.59718 -0.28894,-2.00889 -10.96041,1.54038 v -4.50761 c 3.71928,-0.78083 7.24113,-1.68235 9.98128,-2.78974 l -1.81728,-1.68946 c -4.44472,1.85982 -12.58068,3.43571 -19.70929,4.39403 0.23247,0.46141 0.54944,1.33454 0.63393,1.85983 2.83187,-0.34783 5.80449,-0.81634 8.71363,-1.37003 v 4.42241 l -8.82615,1.22096 0.31696,2.03728 8.50919,-1.19254 v 4.5076 l -9.72078,1.27768 0.31696,2.03738 9.40382,-1.24943 v 3.86169 c 0,3.20146 1.01437,4.04611 4.47295,4.04611 h 7.36107 c 3.16964,0 3.89528,-1.28474 4.26851,-5.29554 -0.66196,-0.1703 -1.55659,-0.48972 -2.10602,-0.90135 -0.23247,3.3433 -0.5214,4.10281 -2.21896,4.10281 z"
     fill="#19191a"
     fill-opacity="1"
     id="path22043"
     style="stroke-width:2.06885" />
  <path
     d="m 829.14484,150.03896 -24.57256,2.80842 14.70032,20.04124 z"
     stroke="#f79780"
     stroke-width="4.1377"
     stroke-opacity="1"
     fill="none"
     id="path22045" />
  <path
     d="m 811.92245,162.86803 -54.54136,40.62808"
     fill="none"
     stroke="#f79780"
     stroke-opacity="1"
     stroke-width="4.1377"
     stroke-dasharray="none"
     id="path22047" />
  <path
     d="m 866.35557,228.79728 c 0.0282,-1.16407 0.0563,-2.26438 0.0563,-3.25113 v -1.63269 h 4.26869 v 4.88382 z m 4.32504,-11.65588 v 4.77027 h -4.26869 v -4.77027 z m 2.02165,-2.00889 h -8.27675 v 10.41364 c 0,4.27333 -0.14797,10.0019 -2.13435,14.0694 0.54238,0.20581 1.4088,0.72399 1.7892,1.07892 1.32426,-2.79689 1.90188,-6.40291 2.1625,-9.83158 h 4.43775 v 6.9213 c 0,0.40457 -0.14096,0.52523 -0.51421,0.55368 -0.34516,0 -1.50039,0.0282 -2.8317,-0.0285 0.28879,0.55369 0.57761,1.48349 0.66917,2.06563 1.87372,0 3.00077,-0.0638 3.71926,-0.44008 0.71849,-0.34787 0.97913,-0.95826 0.97913,-2.15078 z m 12.86943,22.94264 c -0.176,0 -0.3452,-0.0569 -0.46494,-0.14911 -0.14076,-0.14185 -0.16899,-0.66729 -0.16899,-1.5971 v -21.19643 h -9.00228 v 12.21659 c 0,3.95388 -0.23247,8.83779 -2.7965,12.12439 0.48604,0.25566 1.38063,0.90156 1.7892,1.30613 2.71196,-3.54912 3.11346,-9.22098 3.11346,-13.43052 v -10.1509 h 4.78989 v 18.96023 c 0,2.44196 0.14097,2.93188 0.57767,3.37197 0.45793,0.37612 1.06362,0.58193 1.64129,0.58193 h 1.41583 c 0.57766,0 1.12709,-0.14891 1.52855,-0.41163 0.37344,-0.31942 0.63393,-0.78089 0.75367,-1.56885 0.11273,-0.69553 0.22546,-2.67601 0.2537,-4.21641 -0.6059,-0.17051 -1.26807,-0.55369 -1.72579,-0.95846 0,1.83157 -0.0282,3.28681 -0.0917,3.8972 -0.0563,0.61038 -0.14076,0.90155 -0.28873,1.01516 -0.11273,0.14891 -0.3452,0.20581 -0.57066,0.20581 z m 26.71794,-2.64777 c -1.58482,-1.54039 -4.78991,-3.8972 -7.26937,-5.57944 0.40146,-1.05066 0.66217,-2.09406 0.89463,-3.20144 h -2.19793 c -0.71842,3.43571 -2.30325,6.97777 -7.58633,8.75243 0.49297,0.37632 1.07063,1.10737 1.29609,1.62555 3.38109,-1.27768 5.43106,-3.16595 6.72715,-5.37363 2.39495,1.73915 5.16314,3.9539 6.57896,5.37363 z m 3.77554,-17.09341 h -10.41098 c 0.23247,-1.31323 0.37323,-2.67616 0.48596,-4.15978 h -2.24698 c -0.0845,1.48362 -0.23247,2.88204 -0.46494,4.15978 h -10.49568 v 22.26829 h 2.10623 v -20.14582 h 7.90349 c -0.9511,2.93172 -2.83186,5.17488 -6.6919,6.60169 0.45793,0.37633 1.06362,1.10031 1.32433,1.62555 3.23311,-1.24922 5.2196,-3.05236 6.45943,-5.32391 2.57096,1.57589 5.48731,3.6344 7.0439,4.97604 l 1.44406,-1.68931 c -1.73279,-1.41979 -5.05061,-3.54227 -7.67803,-5.05427 0.11974,-0.38333 0.23247,-0.73116 0.3452,-1.13579 h 8.76989 v 17.38444 c 0,0.49699 -0.14096,0.6673 -0.66216,0.69575 -0.54943,0 -2.30345,0.0353 -4.18422,-0.0569 0.28873,0.58214 0.57767,1.56885 0.66917,2.17924 2.39496,0 4.09271,-0.0283 5.07184,-0.40457 0.92967,-0.34787 1.21139,-1.04341 1.21139,-2.41351 z"
     fill="#19191a"
     fill-opacity="1"
     id="path22049"
     style="stroke-width:2.06885" />
  <path
     d="m 865.02692,245.07433 -24.57256,2.80841 14.70032,20.04125 z"
     stroke="#f79780"
     stroke-width="4.1377"
     stroke-opacity="1"
     fill="none"
     id="path22051" />
  <path
     d="m 847.80453,257.9034 -54.54136,40.62808"
     fill="none"
     stroke="#f79780"
     stroke-opacity="1"
     stroke-width="4.1377"
     stroke-dasharray="none"
     id="path22053" />
  <path
     d="m 988.91851,143.36203 -19.74328,-15.00743 -3.02497,24.73504 z"
     fill="#000000"
     fill-opacity="1"
     stroke="none"
     id="path22055"
     style="stroke-width:2.06885" />
  <path
     d="m 858.71649,127.19119 117.92965,14.64664"
     fill="none"
     stroke="#000000"
     stroke-opacity="1"
     stroke-width="4.1377"
     stroke-dasharray="none"
     id="path22057" />
  <path
     d="m 1030.6158,144.81177 c -2.1252,2.09303 -5.591,4.83093 -8.5615,6.87538 -2.1737,-2.5919 -3.9005,-5.53685 -5.2407,-8.82242 h 18.1012 v -3.18837 h -19.5382 v -4.44175 h 15.7827 v -3.09076 h -15.7827 v -4.1863 h 18.0045 v -3.18821 h -18.0045 v -4.42954 h -3.6589 v 4.42954 h -17.46121 v 3.18821 h 17.46121 v 4.1863 h -14.93742 v 3.09076 h 14.93742 v 4.44175 h -19.38121 v 3.18837 h 16.31401 c -4.6491,4.18607 -11.61663,8.08015 -17.75098,10.01494 0.78491,0.75452 1.87169,2.09305 2.3668,2.99357 2.72905,-1.04652 5.68755,-2.3973 8.51318,-4.04009 v 7.38672 c 0,1.93479 -1.0868,2.83531 -1.88374,3.23697 0.59174,0.83967 1.34034,2.43365 1.58194,3.38297 1.1471,-0.79107 2.9222,-1.38733 16.6279,-5.82908 -0.2053,-0.74227 -0.495,-2.19045 -0.6038,-3.18817 l -11.9668,3.63843 V 149.4481 c 2.9223,-1.99564 5.591,-4.23487 7.7162,-6.58337 3.7677,10.41661 10.6869,17.90052 20.8304,21.33209 0.5432,-0.99772 1.6301,-2.4459 2.4149,-3.18817 -4.8904,-1.44818 -8.9961,-3.89408 -12.4135,-7.13105 3.1154,-1.93479 6.7261,-4.4783 9.5518,-6.92421 z"
     fill="#19191a"
     fill-opacity="1"
     id="path22059"
     style="stroke-width:2.06885" />
  <path
     d="m 1014.8859,180.74824 -24.66635,-1.78775 10.79735,22.42139 z"
     fill="#000000"
     fill-opacity="1"
     stroke="none"
     id="path22061"
     style="stroke-width:2.06885" />
  <path
     d="m 920.36789,226.9734 83.39351,-40.78466"
     fill="none"
     stroke="#000000"
     stroke-opacity="1"
     stroke-width="4.1377"
     stroke-dasharray="none"
     id="path22063" />
  <path
     d="m 658.24176,417.59889 c 0,59.58387 -47.93043,107.88548 -107.05642,107.88548 -59.12599,0 -107.05724,-48.30161 -107.05724,-107.88548 0,-59.58407 47.93125,-107.8863 107.05724,-107.8863 59.12599,0 107.05642,48.30223 107.05642,107.8863 z"
     fill="#f25c9b"
     fill-opacity="0"
     id="path22065"
     style="stroke-width:2.06885" />
  <path
     d="m 658.24176,417.59889 c 0,59.58387 -47.93043,107.88548 -107.05642,107.88548 -59.12599,0 -107.05724,-48.30161 -107.05724,-107.88548 0,-59.58407 47.93125,-107.8863 107.05724,-107.8863 59.12599,0 107.05642,48.30223 107.05642,107.8863 z"
     fill="none"
     stroke="#19191a"
     stroke-opacity="1"
     stroke-width="4.1377"
     stroke-dasharray="3, 3"
     id="path22067" />
  <path
     d="m 991.53439,471.91629 -21.41672,-12.46107 v 24.92215 z"
     fill="#000000"
     fill-opacity="1"
     stroke="none"
     id="path22069"
     style="stroke-width:2.06885" />
  <path
     d="M 736.81097,471.91629 H 979.16908"
     fill="none"
     stroke="#000000"
     stroke-opacity="1"
     stroke-width="4.1377"
     stroke-dasharray="none"
     id="path22071" />
  <path
     d="m 1015.9453,460.76903 h 11.5804 v 6.13334 h -11.5804 z m 0,-9.32142 h 11.5804 v 6.03585 h -11.5804 z m 27.0129,6.03585 h -11.822 v -6.03585 h 11.822 z m 0,9.41891 h -11.822 v -6.13334 h 11.822 z m -11.5805,19.59193 v -6.88765 h 17.1231 v -3.63843 h -17.1231 v -5.57342 h 15.4808 v -22.43969 h -34.6687 v 22.43969 h 15.0822 v 5.57342 h -16.6641 v 3.63843 h 16.6641 v 6.88765 h -19.9728 v 3.63863 h 43.8702 v -3.63863 z"
     fill="#19191a"
     fill-opacity="1"
     id="path22073"
     style="stroke-width:2.06885" />
</svg>
