<?xml version="1.0" encoding="UTF-8" standalone="no"?>
<svg
   width="297mm"
   height="210mm"
   viewBox="0 0 1122.5201 793.70024"
   version="1.1"
   id="svg19900"
   sodipodi:docname="shl六经.svg"
   inkscape:version="1.2.2 (732a01da63, 2022-12-09)"
   xml:space="preserve"
   xmlns:inkscape="http://www.inkscape.org/namespaces/inkscape"
   xmlns:sodipodi="http://sodipodi.sourceforge.net/DTD/sodipodi-0.dtd"
   xmlns:xlink="http://www.w3.org/1999/xlink"
   xmlns="http://www.w3.org/2000/svg"
   xmlns:svg="http://www.w3.org/2000/svg"><defs
     id="defs19904"><marker
       style="overflow:visible"
       id="RoundedArrow"
       refX="4.5920925"
       refY="0.038613152"
       orient="auto-start-reverse"
       inkscape:stockid="RoundedArrow"
       markerWidth="4.1350002"
       markerHeight="3.9973249"
       viewBox="0 0 6.1347524 5.9304951"
       inkscape:isstock="true"
       inkscape:collect="always"
       preserveAspectRatio="xMidYMid"><path
         transform="scale(0.7)"
         d="m -0.21114562,-4.1055728 6.42229122,3.21114561 a 1,1 90 0 1 0,1.78885438 L -0.21114562,4.1055728 A 1.236068,1.236068 31.717474 0 1 -2,3 v -6 a 1.236068,1.236068 148.28253 0 1 1.78885438,-1.1055728 z"
         style="fill:context-stroke;fill-rule:evenodd;stroke:none"
         id="path1367" /></marker><inkscape:path-effect
       effect="spiro"
       id="path-effect26970"
       is_visible="true"
       lpeversion="1" /><inkscape:path-effect
       effect="spiro"
       id="path-effect26958"
       is_visible="true"
       lpeversion="1" /><pattern
       inkscape:collect="always"
       xlink:href="#SvgjsPattern1080-6-8"
       id="pattern826"
       patternTransform="scale(0.99585849,0.99241676)" /><pattern
       id="SvgjsPattern1080"
       x="0"
       y="0"
       width="100"
       height="100"
       patternUnits="userSpaceOnUse"><image
         id="SvgjsImage1081"
         xlink:href="https://iconsapi.com/5ee26427e4b0b788a932e46f.svg"
         width="100"
         height="100"
         preserveAspectRatio="none"
         crossOrigin="anonymous"
         x="0"
         y="0" /></pattern><pattern
       id="SvgjsPattern1080-6"
       x="0"
       y="0"
       width="100"
       height="100"
       patternUnits="userSpaceOnUse"><image
         id="SvgjsImage1081-0"
         xlink:href="https://iconsapi.com/5ee26427e4b0b788a932e46f.svg"
         width="100"
         height="100"
         preserveAspectRatio="none"
         crossOrigin="anonymous"
         x="0"
         y="0" /></pattern><pattern
       id="SvgjsPattern1010"
       x="0"
       y="0"
       width="277.9315113311668"
       height="194.91229569284667"
       patternUnits="userSpaceOnUse"><image
         id="SvgjsImage1011"
         xlink:href="https://iconsapi.com/5ee264cfe4b0b788a93303a5.svg"
         width="277.9315113311668"
         height="194.91229569284667"
         preserveAspectRatio="none"
         crossOrigin="anonymous"
         x="0"
         y="0" /></pattern><pattern
       id="SvgjsPattern1080-6-8"
       x="0"
       y="0"
       width="100"
       height="100"
       patternUnits="userSpaceOnUse"><image
         id="SvgjsImage1081-0-9"
         xlink:href="https://iconsapi.com/5ee26427e4b0b788a932e46f.svg"
         width="100"
         height="100"
         preserveAspectRatio="none"
         crossOrigin="anonymous"
         x="0"
         y="0" /></pattern><pattern
       id="SvgjsPattern1010-1"
       x="0"
       y="0"
       width="277.9315113311668"
       height="194.91229569284667"
       patternUnits="userSpaceOnUse"><image
         id="SvgjsImage1011-4"
         xlink:href="https://iconsapi.com/5ee264cfe4b0b788a93303a5.svg"
         width="277.9315113311668"
         height="194.91229569284667"
         preserveAspectRatio="none"
         crossOrigin="anonymous"
         x="0"
         y="0" /></pattern><inkscape:path-effect
       effect="spiro"
       id="path-effect26970-4"
       is_visible="true"
       lpeversion="1" /><inkscape:path-effect
       effect="spiro"
       id="path-effect26970-0"
       is_visible="true"
       lpeversion="1" /><clipPath
       id="clip_2_17_0"><path
         d="m 114.333,140.33 h 74.211 v 74.21 h -74.211 z"
         id="path37243" /></clipPath><inkscape:path-effect
       effect="spiro"
       id="path-effect26970-9"
       is_visible="true"
       lpeversion="1" /><inkscape:path-effect
       effect="spiro"
       id="path-effect26970-4-1"
       is_visible="true"
       lpeversion="1" /></defs><sodipodi:namedview
     id="namedview19902"
     pagecolor="#ffffff"
     bordercolor="#000000"
     borderopacity="0.25"
     inkscape:showpageshadow="2"
     inkscape:pageopacity="0.0"
     inkscape:pagecheckerboard="0"
     inkscape:deskcolor="#d1d1d1"
     showgrid="false"
     inkscape:zoom="1.097739"
     inkscape:cx="452.74878"
     inkscape:cy="368.02919"
     inkscape:window-width="1920"
     inkscape:window-height="986"
     inkscape:window-x="-11"
     inkscape:window-y="-11"
     inkscape:window-maximized="1"
     inkscape:current-layer="svg19900"
     inkscape:document-units="mm"
     showguides="true"><sodipodi:guide
       position="268.29467,496.44713"
       orientation="1,0"
       id="guide100230"
       inkscape:locked="false" /><sodipodi:guide
       position="268.29467,496.44713"
       orientation="0,-1"
       id="guide103699"
       inkscape:locked="false" /></sodipodi:namedview><clipPath
     id="clip_4_11_0"><path
       d="m 125.427,147.568 h 74.21 v 74.21 h -74.21 z"
       id="path19831" /></clipPath><path
     d="m 280.17727,197.26561 c 0,7.65396 -8.99184,13.85877 -20.08387,13.85877 -11.092,0 -20.08387,-6.20481 -20.08387,-13.85877 0,-7.65401 8.99187,-13.85875 20.08387,-13.85875 11.09203,0 20.08387,6.20474 20.08387,13.85875 z"
     fill="#19191a"
     fill-opacity="0"
     id="path19846"
     style="stroke-width:0.613033" /><path
     d="m 428.51914,203.5694 c 0,35.89471 -32.44574,64.99309 -72.46931,64.99309 -40.02322,0 -72.4686,-29.09838 -72.4686,-64.99309 0,-35.89477 32.44538,-64.99321 72.4686,-64.99321 40.02357,0 72.46931,29.09844 72.46931,64.99321 z"
     fill="#19191a"
     fill-opacity="0"
     id="path19894"
     style="stroke-width:0.669642" /><path
     d="m 526.90819,737.65406 c 0,85.17747 -71.44291,154.22718 -159.57126,154.22718 -88.12803,0 -159.5702,-69.04971 -159.5702,-154.22718 0,-85.17727 71.44217,-154.22718 159.5702,-154.22718 88.12835,0 159.57126,69.04991 159.57126,154.22718 z"
     fill="#fef3a4"
     fill-opacity="0"
     id="path13159"
     style="stroke-width:1.04283" /><path
     d="m 515.1185,737.65406 c 0,78.89183 -66.16998,142.84517 -147.79494,142.84517 -81.62421,0 -147.79387,-63.95334 -147.79387,-142.84517 0,-78.89112 66.16966,-142.84517 147.79387,-142.84517 81.62496,0 147.79494,63.95405 147.79494,142.84517 z"
     fill="#f25c9b"
     fill-opacity="0"
     id="path13163"
     style="stroke-width:1.04283" /><path
     d="m 343.62414,287.39296 c 0,17.06074 -14.69783,30.89102 -32.8288,30.89102 -18.13096,0 -32.82905,-13.83028 -32.82905,-30.89102 0,-17.06079 14.69809,-30.89124 32.82905,-30.89124 18.13097,0 32.8288,13.83045 32.8288,30.89124 z"
     fill="#f25c9b"
     fill-opacity="0"
     id="path13193"
     style="stroke-width:0.613033" /><path
     d="m 270.3121,217.34182 c 0,38.65028 -32.05383,69.98239 -71.59384,69.98239 -39.53985,0 -71.59333,-31.33211 -71.59333,-69.98239 0,-38.65021 32.05348,-69.98243 71.59333,-69.98243 39.54001,0 71.59384,31.33222 71.59384,69.98243 z"
     fill="#fef3a4"
     fill-opacity="0"
     id="path13159-6"
     style="stroke-width:0.470531" /><path
     d="m 265.02249,217.34182 c 0,35.79812 -29.68808,64.81767 -66.31021,64.81767 -36.62184,0 -66.30975,-29.01955 -66.30975,-64.81767 0,-35.79777 29.68791,-64.8177 66.30975,-64.8177 36.62213,0 66.31021,29.01993 66.31021,64.8177 z"
     fill="#f25c9b"
     fill-opacity="0"
     id="path13163-9"
     style="stroke-width:0.470531" /><path
     d="m 223.43849,217.34159 c 0,13.34659 -11.06845,24.166 -24.72227,24.166 -13.65381,0 -24.72246,-10.81941 -24.72246,-24.166 0,-13.34663 11.06865,-24.16617 24.72246,-24.16617 13.65382,0 24.72227,10.81954 24.72227,24.16617 z"
     fill="#f25c9b"
     fill-opacity="0"
     id="path13193-4"
     style="stroke-width:0.470531" /><path
     id="SvgjsPath1079"
     d="M 366.54297,99.543182 H 578.69092 V 304.58761 H 366.54297 Z"
     stroke="none"
     fill="url(#SvgjsPattern1080)"
     style="fill:url(#pattern39767);stroke-width:2.08566" /><g
     id="g21655"
     transform="matrix(0.29491781,0,0,0.322133,271.56293,211.74103)"><path
       id="path21653"
       d="M 0,0 H 100 V 100 H 0 Z"
       stroke="none"
       fill="url(#SvgjsPattern1080)"
       style="display:none;fill:url(#pattern826)" /></g><g
     inkscape:groupmode="layer"
     id="layer1"
     inkscape:label="Layer 1"><path
       id="path37237-9"
       style="fill:#f9ff00;fill-opacity:1"
       d="m 267.3686,150.0408 c -30.04533,0.11425 -60.01483,9.55373 -84.59403,26.85916 -23.63484,16.53132 -42.36808,40.0772 -52.80482,66.9937 -9.58388,24.49498 -12.3082,51.6161 -7.82085,77.53228 3.55855,20.80652 11.71553,40.81459 23.77306,58.14465 15.4312,22.28887 37.08296,40.23275 61.90032,51.15933 21.84123,9.6699 46.02438,13.96673 69.86077,12.43783 24.78176,-1.54205 49.18517,-9.30358 70.16505,-22.61338 24.08002,-15.1753 43.72498,-37.38946 55.52882,-63.31468 10.0188,-21.85946 14.48099,-46.23288 12.83336,-70.22417 -1.58904,-23.95496 -9.18299,-47.50628 -22.04661,-67.78912 -15.28689,-24.28361 -37.79174,-43.96199 -63.93531,-55.80328 -19.65128,-8.94666 -41.26701,-13.55978 -62.85976,-13.38232 z"
       sodipodi:nodetypes="ccccccccccccc" /></g><path
     d="m 427.30021,295.72289 c 0,75.50674 -61.89506,136.71598 -138.24663,136.71598 -76.35087,0 -138.24565,-61.20924 -138.24565,-136.71598 0,-75.50608 61.89478,-136.71597 138.24565,-136.71597 76.35157,0 138.24663,61.20989 138.24663,136.71597 z"
     fill="#f26957"
     fill-opacity="0"
     id="path37235"
     style="stroke-width:0.986706" /><path
     d="m 406.5406,297.75278 c 0,75.50674 -61.89506,136.71598 -138.24663,136.71598 -76.35087,0 -138.24565,-61.20924 -138.24565,-136.71598 0,-34.46566 12.89625,-65.9526 34.17698,-89.99898 25.34029,-28.63354 62.56908,-46.71699 104.06867,-46.71699 76.35157,0 138.24663,61.20989 138.24663,136.71597 z"
     fill="none"
     stroke="#19191a"
     stroke-opacity="1"
     stroke-width="1.9734"
     stroke-dasharray="none"
     id="path37237"
     style="fill:#ff0000"
     sodipodi:nodetypes="ssssss" /><path
     d="m 340.60059,295.72406 c 0,28.15115 -23.07602,50.97185 -51.54215,50.97185 -28.46613,0 -51.54256,-22.8207 -51.54256,-50.97185 0,-28.15124 23.07643,-50.97224 51.54256,-50.97224 28.46613,0 51.54215,22.821 51.54215,50.97224 z"
     fill="#ffcfd5"
     fill-opacity="0"
     id="path37239"
     style="stroke-width:0.986706" /><path
     d="m 319.83703,297.25318 c 0,28.15115 -23.07602,50.97185 -51.54215,50.97185 -28.46613,0 -51.54256,-22.8207 -51.54256,-50.97185 0,-28.15124 23.07643,-50.97224 51.54256,-50.97224 28.46613,0 51.54215,22.821 51.54215,50.97224 z"
     fill="none"
     stroke="#19191a"
     stroke-opacity="1"
     stroke-width="1.9734"
     stroke-dasharray="none"
     id="path37241"
     style="fill:#ff8080" /><path
     id="path51560"
     style="fill:none;fill-opacity:1;fill-rule:nonzero;stroke:#000000;stroke-width:2.41692;stroke-linecap:round;stroke-linejoin:bevel;stroke-miterlimit:4.9;stroke-dasharray:none;stroke-dashoffset:7.09795;stroke-opacity:1;paint-order:fill markers stroke"
     d="m 675.03464,247.98268 c 1.88305,-2.7551 3.76635,-5.50634 5.64937,-8.19663 1.98329,-2.8331 3.96657,-5.59859 5.94954,-8.23171 1.98327,-2.63221 3.96625,-5.13302 5.94956,-7.44227 1.98326,-2.30929 3.96623,-4.42799 5.94952,-6.30638 1.98299,-1.87749 3.96627,-3.51465 5.94924,-4.87393 1.98328,-1.35928 3.96655,-2.43883 5.94954,-3.21515 1.98328,-0.77632 3.96627,-1.24755 5.94954,-1.40527 1.98328,-0.15768 3.96625,9e-4 5.94953,0.47031 1.98299,0.46934 3.96626,1.25038 5.94954,2.32335 1.98297,1.07392 3.96628,2.44071 5.94924,4.06847 1.98327,1.62775 3.96655,3.51742 5.94954,5.62392 1.98327,2.10558 3.96624,4.42896 5.94954,6.91473 1.98327,2.48575 3.96625,5.1339 5.94954,7.88342 1.98299,2.74862 3.96625,5.59861 5.94954,8.48238 0.89221,1.2975 1.78444,2.60203 2.67671,3.90724" /><path
     id="path51560-0"
     style="fill:none;fill-opacity:1;fill-rule:nonzero;stroke:#000000;stroke-width:2.41692;stroke-linecap:round;stroke-linejoin:bevel;stroke-miterlimit:4.9;stroke-dasharray:none;stroke-dashoffset:7.09795;stroke-opacity:1;paint-order:fill markers stroke"
     d="m 760.91655,249.27163 c 1.88305,-2.75512 3.76635,-5.50636 5.64938,-8.19665 1.98328,-2.8331 3.96657,-5.59859 5.94953,-8.23173 1.98329,-2.63219 3.96628,-5.13298 5.94956,-7.44223 1.98327,-2.30931 3.96626,-4.42801 5.94952,-6.3064 1.98299,-1.87749 3.96627,-3.51463 5.94924,-4.87391 1.98329,-1.3593 3.96655,-2.43886 5.94954,-3.21517 1.98329,-0.77632 3.96627,-1.24756 5.94956,-1.40528 1.98326,-0.15767 3.96625,9.1e-4 5.94952,0.47032 1.98299,0.46936 3.96627,1.25038 5.94956,2.32335 1.98294,1.07392 3.96625,2.44071 5.94922,4.06847 1.98326,1.62775 3.96657,3.51744 5.94954,5.62392 1.98326,2.10558 3.96625,4.42896 5.94953,6.91473 1.98327,2.48575 3.96626,5.1339 5.94954,7.88344 1.98299,2.7486 3.96626,5.59859 5.94954,8.48238 0.89221,1.29748 1.78444,2.60201 2.67671,3.90722" /><path
     id="path51560-0-1"
     style="fill:none;fill-opacity:1;fill-rule:nonzero;stroke:#000000;stroke-width:2.41692;stroke-linecap:round;stroke-linejoin:bevel;stroke-miterlimit:4.9;stroke-dasharray:none;stroke-dashoffset:7.09795;stroke-opacity:1;paint-order:fill markers stroke"
     d="m 849.43311,247.51489 c 1.88305,-2.7551 3.76635,-5.50634 5.64937,-8.19665 1.98329,-2.83307 3.96655,-5.59859 5.94954,-8.23171 1.98326,-2.63221 3.96625,-5.13299 5.94954,-7.44224 1.98328,-2.30932 3.96625,-4.42802 5.94954,-6.30641 1.98299,-1.87747 3.96627,-3.51462 5.94924,-4.8739 1.98328,-1.35928 3.96655,-2.43884 5.94954,-3.21516 1.98328,-0.77632 3.96627,-1.24755 5.94954,-1.40527 1.98328,-0.15768 3.96625,9e-4 5.94953,0.47031 1.98299,0.46936 3.96626,1.25038 5.94954,2.32336 1.98297,1.07391 3.96628,2.44068 5.94922,4.06846 1.98329,1.62773 3.96657,3.51742 5.94954,5.62392 1.98329,2.10558 3.96625,4.42894 5.94954,6.91473 1.98329,2.48575 3.96627,5.13388 5.94954,7.88342 1.98299,2.74862 3.96627,5.5986 5.94956,8.48238 0.89221,1.2975 1.78444,2.60201 2.67669,3.90724" /><path
     id="path51560-1"
     style="fill:none;fill-opacity:1;fill-rule:nonzero;stroke:#000000;stroke-width:1.96029;stroke-linecap:round;stroke-linejoin:bevel;stroke-miterlimit:4.9;stroke-dasharray:none;stroke-dashoffset:7.09795;stroke-opacity:1;paint-order:fill markers stroke"
     d="m 672.2103,311.981 c 1.88641,-1.80917 3.77309,-3.6158 5.65949,-5.38238 1.98685,-1.86038 3.97367,-3.67636 5.96021,-5.40544 1.98685,-1.72844 3.97338,-3.3706 5.96023,-4.88698 1.98682,-1.51645 3.97336,-2.90769 5.96021,-4.14116 1.98653,-1.23285 3.97338,-2.3079 5.95989,-3.20048 1.98685,-0.89257 3.97368,-1.60147 5.96021,-2.11125 1.98685,-0.50979 3.97338,-0.81922 5.96023,-0.92279 1.98683,-0.10354 3.97336,6e-4 5.96019,0.30884 1.98655,0.3082 3.97338,0.82108 5.96023,1.52563 1.98651,0.70521 3.97336,1.60271 5.95989,2.67161 1.98683,1.06885 3.97368,2.30974 5.96021,3.69297 1.98683,1.38264 3.97336,2.90831 5.96021,4.5406 1.98683,1.63228 3.97338,3.37122 5.96021,5.17672 1.98655,1.8049 3.97338,3.67636 5.96021,5.57003 0.89382,0.852 1.78764,1.70861 2.6815,2.5657" /><path
     id="path51560-0-4"
     style="fill:none;fill-opacity:1;fill-rule:nonzero;stroke:#000000;stroke-width:1.96029;stroke-linecap:round;stroke-linejoin:bevel;stroke-miterlimit:4.9;stroke-dasharray:none;stroke-dashoffset:7.09795;stroke-opacity:1;paint-order:fill markers stroke"
     d="m 758.24625,312.82738 c 1.88642,-1.80915 3.77311,-3.61577 5.65949,-5.38239 1.98685,-1.86035 3.97368,-3.67635 5.96021,-5.40542 1.98685,-1.72845 3.97338,-3.3706 5.96023,-4.88699 1.98683,-1.51643 3.97336,-2.90769 5.96021,-4.14114 1.98653,-1.23287 3.97338,-2.30791 5.95989,-3.20049 1.98685,-0.89258 3.97368,-1.60148 5.96021,-2.11126 1.98685,-0.50976 3.9734,-0.81922 5.96023,-0.92278 1.98683,-0.10355 3.97336,6.1e-4 5.96021,0.30883 1.98653,0.30823 3.97336,0.82108 5.96021,1.52566 1.98653,0.70519 3.97338,1.60271 5.95989,2.67158 1.98685,1.06888 3.9737,2.30972 5.96023,3.69297 1.98683,1.38266 3.97336,2.90831 5.96021,4.54063 1.98683,1.63227 3.97336,3.37121 5.96021,5.17671 1.98653,1.80488 3.97336,3.67634 5.96021,5.56999 0.8938,0.85202 1.78764,1.70865 2.68151,2.56572" /><path
     id="path51560-0-1-5"
     style="fill:none;fill-opacity:1;fill-rule:nonzero;stroke:#000000;stroke-width:1.96029;stroke-linecap:round;stroke-linejoin:bevel;stroke-miterlimit:4.9;stroke-dasharray:none;stroke-dashoffset:7.09795;stroke-opacity:1;paint-order:fill markers stroke"
     d="m 846.92158,311.67382 c 1.88642,-1.80917 3.77309,-3.61579 5.65949,-5.38239 1.98685,-1.86037 3.97368,-3.67635 5.96021,-5.40542 1.98685,-1.72844 3.97338,-3.37062 5.96021,-4.88701 1.98685,-1.5164 3.97338,-2.90767 5.96021,-4.14114 1.98655,-1.23285 3.97338,-2.30789 5.95991,-3.20047 1.98685,-0.89258 3.97366,-1.60148 5.96021,-2.11126 1.98685,-0.50976 3.97338,-0.81922 5.96021,-0.92278 1.98685,-0.10355 3.97338,5.9e-4 5.96021,0.30883 1.98655,0.30821 3.97338,0.82108 5.96023,1.52564 1.98651,0.70521 3.97336,1.60271 5.95989,2.67158 1.98683,1.06888 3.97368,2.30974 5.96021,3.69299 1.98683,1.38266 3.97336,2.90831 5.96021,4.54061 1.98683,1.63227 3.97338,3.37121 5.96021,5.17671 1.98655,1.8049 3.97338,3.67636 5.96021,5.57001 0.89382,0.85202 1.78764,1.70864 2.6815,2.56572" /><path
     id="path51560-1-9"
     style="fill:none;fill-opacity:1;fill-rule:nonzero;stroke:#000000;stroke-width:1.83982;stroke-linecap:round;stroke-linejoin:bevel;stroke-miterlimit:4.9;stroke-dasharray:none;stroke-dashoffset:7.09795;stroke-opacity:1;paint-order:fill markers stroke"
     d="m 672.08562,378.36279 c 1.88805,-1.59225 3.77636,-3.18229 5.66437,-4.7371 1.98854,-1.63732 3.97709,-3.2356 5.96534,-4.75737 1.98853,-1.52123 3.9768,-2.9665 5.96534,-4.3011 1.98853,-1.33461 3.97678,-2.55909 5.96533,-3.64466 1.98825,-1.08505 3.97679,-2.03121 5.96502,-2.81678 1.98857,-0.78556 3.97707,-1.40949 5.96534,-1.85815 1.98855,-0.44866 3.9768,-0.721 5.96535,-0.81214 1.98854,-0.091 3.97677,5.1e-4 5.96532,0.27181 1.98825,0.27125 3.9768,0.72262 5.96534,1.34273 1.98823,0.62065 3.97682,1.41056 5.96503,2.35129 1.98855,0.94072 3.97709,2.03285 5.96534,3.25024 1.98855,1.21687 3.97678,2.55963 5.96535,3.99623 1.98852,1.4366 3.97677,2.96705 5.96532,4.55608 1.98825,1.58852 3.97679,3.23562 5.96534,4.90225 0.89457,0.74986 1.78917,1.50377 2.68382,2.25811" /><path
     id="path51560-0-4-2"
     style="fill:none;fill-opacity:1;fill-rule:nonzero;stroke:#000000;stroke-width:1.83982;stroke-linecap:round;stroke-linejoin:bevel;stroke-miterlimit:4.9;stroke-dasharray:none;stroke-dashoffset:7.09795;stroke-opacity:1;paint-order:fill markers stroke"
     d="m 758.19557,379.10772 c 1.88803,-1.59227 3.77634,-3.18231 5.66437,-4.7371 1.98856,-1.63734 3.97709,-3.2356 5.96534,-4.75738 1.98853,-1.52122 3.9768,-2.96652 5.96534,-4.30111 1.98855,-1.33461 3.97678,-2.55908 5.96533,-3.64464 1.98825,-1.08508 3.97679,-2.03123 5.96502,-2.81678 1.98857,-0.78559 3.9771,-1.40949 5.96534,-1.85815 1.98857,-0.44868 3.9768,-0.72102 5.96535,-0.81216 1.98855,-0.091 3.9768,5.1e-4 5.96532,0.2718 1.98827,0.27126 3.9768,0.72264 5.96534,1.34276 1.98823,0.62065 3.9768,1.41054 5.96503,2.35128 1.98855,0.94073 3.97711,2.03283 5.96534,3.25024 1.98853,1.21688 3.97678,2.55963 5.96533,3.99623 1.98854,1.43659 3.97681,2.96704 5.96534,4.55609 1.98825,1.5885 3.9768,3.2356 5.96534,4.90222 0.89457,0.74987 1.78917,1.50378 2.68382,2.25811" /><path
     id="path51560-0-1-5-2"
     style="fill:none;fill-opacity:1;fill-rule:nonzero;stroke:#000000;stroke-width:1.83982;stroke-linecap:round;stroke-linejoin:bevel;stroke-miterlimit:4.9;stroke-dasharray:none;stroke-dashoffset:7.09795;stroke-opacity:1;paint-order:fill markers stroke"
     d="m 846.94712,378.09242 c 1.88805,-1.59223 3.77636,-3.18227 5.66439,-4.73706 1.98855,-1.63734 3.97707,-3.2356 5.96532,-4.75737 1.98855,-1.52125 3.9768,-2.96654 5.96535,-4.30112 1.98854,-1.33463 3.97677,-2.55907 5.96532,-3.64466 1.98825,-1.08505 3.97682,-2.03121 5.96505,-2.8168 1.98854,-0.78554 3.97707,-1.40945 5.96532,-1.85813 1.98857,-0.44864 3.97682,-0.721 5.96536,-0.81212 1.98853,-0.0912 3.97678,4.9e-4 5.96532,0.27179 1.98825,0.27125 3.97678,0.72264 5.96535,1.34273 1.98823,0.62065 3.97679,1.41056 5.96502,2.35131 1.98855,0.94072 3.97708,2.03281 5.96533,3.25022 1.98854,1.21687 3.97679,2.55963 5.96534,3.99625 1.98855,1.43656 3.97677,2.96703 5.96532,4.55606 1.98827,1.58852 3.9768,3.23562 5.96535,4.90224 0.89458,0.74985 1.78919,1.50378 2.68381,2.25812" /><path
     id="path51558"
     style="fill:none;fill-opacity:1;fill-rule:nonzero;stroke:#000000;stroke-width:2.61948;stroke-linecap:round;stroke-linejoin:bevel;stroke-miterlimit:4.9;stroke-dasharray:none;stroke-dashoffset:7.09795;stroke-opacity:1;paint-order:fill markers stroke"
     d="m 941.46296,379.79792 c 0.14214,-0.12077 0.28441,-0.2415 0.42661,-0.36225" /><text
     xml:space="preserve"
     style="font-size:24.1394px;fill:#ff5555;fill-opacity:1;fill-rule:nonzero;stroke:#000000;stroke-width:1.87684;stroke-linecap:round;stroke-linejoin:bevel;stroke-miterlimit:4.9;stroke-dasharray:none;stroke-dashoffset:7.09795;stroke-opacity:1;paint-order:fill markers stroke"
     x="687.03473"
     y="187.26764"
     id="text54164"
     transform="scale(1.0199965,0.98039552)"><tspan
       sodipodi:role="line"
       id="tspan54162"
       x="687.03473"
       y="187.26764"
       style="stroke-width:1.87684">寸</tspan></text><text
     xml:space="preserve"
     style="font-size:24.1394px;fill:#ff5555;fill-opacity:1;fill-rule:nonzero;stroke:#000000;stroke-width:1.87684;stroke-linecap:round;stroke-linejoin:bevel;stroke-miterlimit:4.9;stroke-dasharray:none;stroke-dashoffset:7.09795;stroke-opacity:1;paint-order:fill markers stroke"
     x="612.73651"
     y="244.56024"
     id="text54164-88"
     transform="scale(1.0199965,0.98039552)"><tspan
       sodipodi:role="line"
       id="tspan54162-9"
       x="612.73651"
       y="244.56024"
       style="stroke-width:1.87684">浮</tspan></text><text
     xml:space="preserve"
     style="font-size:24.1394px;fill:#ff5555;fill-opacity:1;fill-rule:nonzero;stroke:#000000;stroke-width:1.87684;stroke-linecap:round;stroke-linejoin:bevel;stroke-miterlimit:4.9;stroke-dasharray:none;stroke-dashoffset:7.09795;stroke-opacity:1;paint-order:fill markers stroke"
     x="613.45874"
     y="312.47021"
     id="text54164-88-1"
     transform="scale(1.0199965,0.98039552)"><tspan
       sodipodi:role="line"
       id="tspan54162-9-5"
       x="613.45874"
       y="312.47021"
       style="stroke-width:1.87684">中</tspan></text><text
     xml:space="preserve"
     style="font-size:24.1394px;fill:#ff5555;fill-opacity:1;fill-rule:nonzero;stroke:#000000;stroke-width:1.87684;stroke-linecap:round;stroke-linejoin:bevel;stroke-miterlimit:4.9;stroke-dasharray:none;stroke-dashoffset:7.09795;stroke-opacity:1;paint-order:fill markers stroke"
     x="615.2207"
     y="377.80344"
     id="text54164-88-1-2"
     transform="scale(1.0199965,0.98039552)"><tspan
       sodipodi:role="line"
       id="tspan54162-9-5-0"
       x="615.2207"
       y="377.80344"
       style="stroke-width:1.87684">沉</tspan></text><text
     xml:space="preserve"
     style="font-size:24.1394px;fill:#ff5555;fill-opacity:1;fill-rule:nonzero;stroke:#000000;stroke-width:1.87684;stroke-linecap:round;stroke-linejoin:bevel;stroke-miterlimit:4.9;stroke-dasharray:none;stroke-dashoffset:7.09795;stroke-opacity:1;paint-order:fill markers stroke"
     x="772.18073"
     y="186.83441"
     id="text54164-8"
     transform="scale(1.0199965,0.98039552)"><tspan
       sodipodi:role="line"
       id="tspan54162-6"
       x="772.18073"
       y="186.83441"
       style="stroke-width:1.87684">关</tspan></text><text
     xml:space="preserve"
     style="font-size:24.1394px;fill:#ff5555;fill-opacity:1;fill-rule:nonzero;stroke:#000000;stroke-width:1.87684;stroke-linecap:round;stroke-linejoin:bevel;stroke-miterlimit:4.9;stroke-dasharray:none;stroke-dashoffset:7.09795;stroke-opacity:1;paint-order:fill markers stroke"
     x="857.11682"
     y="185.97101"
     id="text54164-8-6"
     transform="scale(1.0199965,0.98039552)"><tspan
       sodipodi:role="line"
       id="tspan54162-6-7"
       x="857.11682"
       y="185.97101"
       style="stroke-width:1.87684">尺</tspan></text><path
     style="display:inline;fill:none;fill-rule:evenodd;stroke:#000000;stroke-width:1px;stroke-linecap:butt;stroke-linejoin:miter;stroke-opacity:1"
     d="m 268.29468,297.25298 v 0"
     id="path100232"
     inkscape:connector-type="polyline"
     inkscape:connector-curvature="0"
     inkscape:connection-start="#path37241"
     inkscape:connection-end="#path37241" /><path
     style="fill:none;fill-rule:evenodd;stroke:#000000;stroke-width:1px;stroke-linecap:butt;stroke-linejoin:miter;stroke-opacity:1"
     d="m 173.99369,193.17534 v 0"
     id="path100242"
     inkscape:connector-type="polyline"
     inkscape:connector-curvature="0" /><path
     style="fill:none;fill-rule:evenodd;stroke:#000000;stroke-width:1px;stroke-linecap:butt;stroke-linejoin:miter;stroke-opacity:1"
     d="m 173.99362,192.67526 v 0"
     id="path100244"
     inkscape:connector-type="polyline"
     inkscape:connector-curvature="0" /><path
     style="fill:none;fill-rule:evenodd;stroke:#000000;stroke-width:1px;stroke-linecap:butt;stroke-linejoin:miter;stroke-opacity:1"
     d="m 173.99355,192.17518 v 0"
     id="path100246"
     inkscape:connector-type="polyline"
     inkscape:connector-curvature="0" /><path
     style="fill:none;fill-rule:evenodd;stroke:#000000;stroke-width:1px;stroke-linecap:butt;stroke-linejoin:miter;stroke-opacity:1"
     d="m 173.99348,191.6751 v 0"
     id="path100248"
     inkscape:connector-type="polyline"
     inkscape:connector-curvature="0" /><path
     style="fill:none;fill-rule:evenodd;stroke:#000000;stroke-width:1px;stroke-linecap:butt;stroke-linejoin:miter;stroke-opacity:1"
     d="m 173.99341,191.17502 v 0"
     id="path100250"
     inkscape:connector-type="polyline"
     inkscape:connector-curvature="0" /><path
     style="fill:none;fill-rule:evenodd;stroke:#000000;stroke-width:1px;stroke-linecap:butt;stroke-linejoin:miter;stroke-opacity:1"
     d="m 173.99334,190.67494 v 0"
     id="path100252"
     inkscape:connector-type="polyline"
     inkscape:connector-curvature="0" /><path
     style="fill:none;fill-rule:evenodd;stroke:#000000;stroke-width:1px;stroke-linecap:butt;stroke-linejoin:miter;stroke-opacity:1"
     d="m 173.99327,190.17487 v 0"
     id="path100254"
     inkscape:connector-type="polyline"
     inkscape:connector-curvature="0" /><path
     style="display:inline;fill:none;fill-rule:evenodd;stroke:#000000;stroke-width:3.77953;stroke-linecap:butt;stroke-linejoin:miter;stroke-dasharray:none;stroke-opacity:1;marker-start:url(#RoundedArrow)"
     d="M 130.04832,297.75278 96.498989,297.56894"
     id="path100256"
     inkscape:connector-type="polyline"
     inkscape:connector-curvature="0"
     inkscape:transform-center-x="155.52749"
     inkscape:transform-center-y="0.57434082"
     inkscape:tile-cx="268.80115"
     inkscape:tile-cy="297.08696"
     inkscape:tile-w="33.923675"
     inkscape:tile-h="15.10785"
     inkscape:tile-x0="96.488634"
     inkscape:tile-y0="290.02936" /><use
     x="0"
     y="0"
     inkscape:tiled-clone-of="#path100256"
     xlink:href="#path100256"
     id="use104980"
     inkscape:transform-center-x="155.5276"
     inkscape:transform-center-y="0.5742226" /><use
     x="0"
     y="0"
     inkscape:tiled-clone-of="#path100256"
     xlink:href="#path100256"
     transform="rotate(36,268.80115,297.08696)"
     id="use104998"
     inkscape:transform-center-x="126.16182"
     inkscape:transform-center-y="-90.952148" /><use
     x="0"
     y="0"
     inkscape:tiled-clone-of="#path100256"
     xlink:href="#path100256"
     transform="rotate(72,268.80115,297.08696)"
     id="use105016"
     inkscape:transform-center-x="48.606555"
     inkscape:transform-center-y="-147.73777" /><use
     x="0"
     y="0"
     inkscape:tiled-clone-of="#path100256"
     xlink:href="#path100256"
     transform="rotate(108,268.80115,297.08696)"
     id="use105034"
     inkscape:transform-center-x="-47.514721"
     inkscape:transform-center-y="-148.09246" /><use
     x="0"
     y="0"
     inkscape:tiled-clone-of="#path100256"
     xlink:href="#path100256"
     transform="rotate(144,268.80115,297.08696)"
     id="use105052"
     inkscape:transform-center-x="-125.48695"
     inkscape:transform-center-y="-91.880738" /><use
     x="0"
     y="0"
     inkscape:tiled-clone-of="#path100256"
     xlink:href="#path100256"
     transform="rotate(180,268.80115,297.08696)"
     id="use105070"
     inkscape:transform-center-x="-155.52739"
     inkscape:transform-center-y="-0.57357737" /><use
     x="0"
     y="0"
     inkscape:tiled-clone-of="#path100256"
     xlink:href="#path100256"
     transform="rotate(-144,268.80115,297.08696)"
     id="use105088"
     inkscape:transform-center-x="-126.16161"
     inkscape:transform-center-y="90.952793" /><use
     x="0"
     y="0"
     inkscape:tiled-clone-of="#path100256"
     xlink:href="#path100256"
     transform="rotate(-108,268.80115,297.08696)"
     id="use105106"
     inkscape:transform-center-x="-48.606343"
     inkscape:transform-center-y="147.73841" /><use
     x="0"
     y="0"
     inkscape:tiled-clone-of="#path100256"
     xlink:href="#path100256"
     transform="rotate(-72,268.80115,297.08696)"
     id="use105124"
     inkscape:transform-center-x="47.514932"
     inkscape:transform-center-y="148.0931" /><use
     x="0"
     y="0"
     inkscape:tiled-clone-of="#path100256"
     xlink:href="#path100256"
     transform="rotate(-36,268.80115,297.08696)"
     id="use105142"
     inkscape:transform-center-x="125.48716"
     inkscape:transform-center-y="91.881383" /><path
     style="fill:none;fill-rule:evenodd;stroke:#000000;stroke-width:7.55906;stroke-linecap:butt;stroke-linejoin:miter;stroke-dasharray:none;stroke-opacity:1"
     d="m 268.29437,348.22503 -5.1e-4,86.24356"
     id="path106359"
     inkscape:connector-type="polyline"
     inkscape:connector-curvature="0"
     inkscape:connection-start="#path37241" /></svg>
