<?xml version="1.0" encoding="UTF-8" standalone="no"?>
<svg
   width="297mm"
   height="210mm"
   viewBox="0 0 1122.5201 793.70024"
   version="1.1"
   id="svg19900"
   sodipodi:docname="寸关尺部位.svg"
   inkscape:version="1.2.2 (732a01da63, 2022-12-09)"
   xml:space="preserve"
   xmlns:inkscape="http://www.inkscape.org/namespaces/inkscape"
   xmlns:sodipodi="http://sodipodi.sourceforge.net/DTD/sodipodi-0.dtd"
   xmlns:xlink="http://www.w3.org/1999/xlink"
   xmlns="http://www.w3.org/2000/svg"
   xmlns:svg="http://www.w3.org/2000/svg"><defs
     id="defs19904"><inkscape:path-effect
       effect="spiro"
       id="path-effect26970"
       is_visible="true"
       lpeversion="1" /><inkscape:path-effect
       effect="spiro"
       id="path-effect26958"
       is_visible="true"
       lpeversion="1" /><pattern
       inkscape:collect="always"
       xlink:href="#SvgjsPattern1080-6-8"
       id="pattern826"
       patternTransform="scale(0.99585849,0.99241676)" /><pattern
       id="SvgjsPattern1080"
       x="0"
       y="0"
       width="100"
       height="100"
       patternUnits="userSpaceOnUse"><image
         id="SvgjsImage1081"
         xlink:href="https://iconsapi.com/5ee26427e4b0b788a932e46f.svg"
         width="100"
         height="100"
         preserveAspectRatio="none"
         crossOrigin="anonymous"
         x="0"
         y="0" /></pattern><pattern
       id="SvgjsPattern1080-6"
       x="0"
       y="0"
       width="100"
       height="100"
       patternUnits="userSpaceOnUse"><image
         id="SvgjsImage1081-0"
         xlink:href="https://iconsapi.com/5ee26427e4b0b788a932e46f.svg"
         width="100"
         height="100"
         preserveAspectRatio="none"
         crossOrigin="anonymous"
         x="0"
         y="0" /></pattern><pattern
       id="SvgjsPattern1010"
       x="0"
       y="0"
       width="277.9315113311668"
       height="194.91229569284667"
       patternUnits="userSpaceOnUse"><image
         id="SvgjsImage1011"
         xlink:href="https://iconsapi.com/5ee264cfe4b0b788a93303a5.svg"
         width="277.9315113311668"
         height="194.91229569284667"
         preserveAspectRatio="none"
         crossOrigin="anonymous"
         x="0"
         y="0" /></pattern><pattern
       id="SvgjsPattern1080-6-8"
       x="0"
       y="0"
       width="100"
       height="100"
       patternUnits="userSpaceOnUse"><image
         id="SvgjsImage1081-0-9"
         xlink:href="https://iconsapi.com/5ee26427e4b0b788a932e46f.svg"
         width="100"
         height="100"
         preserveAspectRatio="none"
         crossOrigin="anonymous"
         x="0"
         y="0" /></pattern><pattern
       id="SvgjsPattern1010-1"
       x="0"
       y="0"
       width="277.9315113311668"
       height="194.91229569284667"
       patternUnits="userSpaceOnUse"><image
         id="SvgjsImage1011-4"
         xlink:href="https://iconsapi.com/5ee264cfe4b0b788a93303a5.svg"
         width="277.9315113311668"
         height="194.91229569284667"
         preserveAspectRatio="none"
         crossOrigin="anonymous"
         x="0"
         y="0" /></pattern><inkscape:path-effect
       effect="spiro"
       id="path-effect26970-4"
       is_visible="true"
       lpeversion="1" /><inkscape:path-effect
       effect="spiro"
       id="path-effect26970-0"
       is_visible="true"
       lpeversion="1" /><clipPath
       id="clip_2_17_0"><path
         d="m 114.333,140.33 h 74.211 v 74.21 h -74.211 z"
         id="path37243" /></clipPath></defs><sodipodi:namedview
     id="namedview19902"
     pagecolor="#ffffff"
     bordercolor="#000000"
     borderopacity="0.25"
     inkscape:showpageshadow="2"
     inkscape:pageopacity="0.0"
     inkscape:pagecheckerboard="0"
     inkscape:deskcolor="#d1d1d1"
     showgrid="false"
     inkscape:zoom="0.75073422"
     inkscape:cx="286.38631"
     inkscape:cy="418.25721"
     inkscape:window-width="1920"
     inkscape:window-height="986"
     inkscape:window-x="-11"
     inkscape:window-y="-11"
     inkscape:window-maximized="1"
     inkscape:current-layer="svg19900"
     inkscape:document-units="mm" /><clipPath
     id="clip_4_11_0"><path
       d="m 125.427,147.568 h 74.21 v 74.21 h -74.21 z"
       id="path19831" /></clipPath><path
     d="m 268.16274,196.35748 c 0,11.55702 -13.22942,20.92593 -29.54875,20.92593 -16.31933,0 -29.54875,-9.36891 -29.54875,-20.92593 0,-11.55712 13.22942,-20.92593 29.54875,-20.92593 16.31933,0 29.54875,9.36881 29.54875,20.92593 z"
     fill="#19191a"
     fill-opacity="0"
     id="path19846"
     style="stroke-width:0.913716" /><path
     d="m 567.94909,198.00667 c 0,49.17002 -44.09839,89.03013 -98.49615,89.03013 -54.39729,0 -98.49522,-39.86011 -98.49522,-89.03013 0,-49.1701 44.09793,-89.03028 98.49522,-89.03028 54.39776,0 98.49615,39.86018 98.49615,89.03028 z"
     fill="#19191a"
     fill-opacity="0"
     id="path19894"
     style="stroke-width:0.913716" /><path
     d="m 527.47091,583.86048 c 0,74.60032 -62.62366,135.07559 -139.87303,135.07559 -77.24909,0 -139.87211,-60.47527 -139.87211,-135.07559 0,-74.60014 62.62302,-135.07557 139.87211,-135.07557 77.24937,0 139.87303,60.47543 139.87303,135.07557 z"
     fill="#fef3a4"
     fill-opacity="0"
     id="path13159"
     style="stroke-width:0.913716" /><path
     d="m 517.1366,583.86048 c 0,69.09522 -58.00165,125.10697 -129.55044,125.10697 -71.54813,0 -129.5495,-56.01175 -129.5495,-125.10697 0,-69.09459 58.00137,-125.10696 129.5495,-125.10696 71.54879,0 129.55044,56.01237 129.55044,125.10696 z"
     fill="#f25c9b"
     fill-opacity="0"
     id="path13163"
     style="stroke-width:0.913716" /><path
     d="m 361.51007,332.44458 c 0,25.76073 -21.62447,46.64365 -48.29996,46.64365 -26.6755,0 -48.30033,-20.88292 -48.30033,-46.64365 0,-25.76083 21.62483,-46.64402 48.30033,-46.64402 26.67549,0 48.29996,20.88319 48.29996,46.64402 z"
     fill="#f25c9b"
     fill-opacity="0"
     id="path13193"
     style="stroke-width:0.913716" /><path
     d="m 253.64841,226.67139 c 0,58.3597 -47.1598,105.66939 -105.33375,105.66939 -58.173701,0 -105.333021,-47.30969 -105.333021,-105.66939 0,-58.35958 47.15932,-105.66942 105.333021,-105.66942 58.17395,0 105.33375,47.30984 105.33375,105.66942 z"
     fill="#fef3a4"
     fill-opacity="0"
     id="path13159-6"
     style="stroke-width:0.701316" /><path
     d="m 245.86597,226.67139 c 0,54.05306 -43.67911,97.87097 -97.56011,97.87097 -53.880528,0 -97.559431,-43.81791 -97.559431,-97.87097 0,-54.05258 43.678903,-97.87098 97.559431,-97.87098 53.881,0 97.56011,43.8184 97.56011,97.87098 z"
     fill="#f25c9b"
     fill-opacity="0"
     id="path13163-9"
     style="stroke-width:0.701316" /><path
     d="m 184.68476,226.67104 c 0,20.15258 -16.28466,36.48925 -36.3731,36.48925 -20.08843,0 -36.37337,-16.33667 -36.37337,-36.48925 0,-20.15264 16.28494,-36.48952 36.37337,-36.48952 20.08844,0 36.3731,16.33688 36.3731,36.48952 z"
     fill="#f25c9b"
     fill-opacity="0"
     id="path13193-4"
     style="stroke-width:0.701316" /><path
     id="SvgjsPath1079"
     d="M 386.90192,24.988843 H 572.86134 V 204.57129 H 386.90192 Z"
     stroke="none"
     fill="url(#SvgjsPattern1080)"
     style="fill:url(#pattern39767);stroke-width:1.82743" /><g
     id="g21655"
     transform="matrix(0.29491781,0,0,0.322133,271.56293,211.74103)"><path
       id="path21653"
       d="M 0,0 H 100 V 100 H 0 Z"
       stroke="none"
       fill="url(#SvgjsPattern1080)"
       style="display:none;fill:url(#pattern826)" /></g><g
     inkscape:groupmode="layer"
     id="layer1"
     inkscape:label="Layer 1" /><path
     d="m 484.62002,345.02228 c 0,114.01084 -91.06422,206.43325 -203.39787,206.43325 -112.33261,0 -203.396433,-92.42241 -203.396433,-206.43325 0,-114.0098 91.063823,-206.43324 203.396433,-206.43324 112.33365,0 203.39787,92.42344 203.39787,206.43324 z"
     fill="#f26957"
     fill-opacity="0"
     id="path37235"
     style="stroke-width:1.47066" /><path
     d="m 484.62002,345.02228 c 0,114.01084 -91.06422,206.43325 -203.39787,206.43325 -112.33261,0 -203.396433,-92.42241 -203.396433,-206.43325 0,-114.0098 91.063823,-206.43324 203.396433,-206.43324 112.33365,0 203.39787,92.42344 203.39787,206.43324 z"
     fill="none"
     stroke="#19191a"
     stroke-opacity="1"
     stroke-width="2.94132"
     stroke-dasharray="none"
     id="path37237"
     style="fill:none" /><path
     d="m 357.06162,345.02405 c 0,42.50661 -33.95102,76.96454 -75.83232,76.96454 -41.88129,0 -75.83291,-34.45793 -75.83291,-76.96454 0,-42.50673 33.95162,-76.96512 75.83291,-76.96512 41.8813,0 75.83232,34.45839 75.83232,76.96512 z"
     fill="#ffcfd5"
     fill-opacity="0"
     id="path37239"
     style="stroke-width:1.47066" /><path
     d="m 357.06162,345.02405 c 0,42.50661 -33.95102,76.96454 -75.83232,76.96454 -41.88129,0 -75.83291,-34.45793 -75.83291,-76.96454 0,-42.50673 33.95162,-76.96512 75.83291,-76.96512 41.8813,0 75.83232,34.45839 75.83232,76.96512 z"
     fill="none"
     stroke="#19191a"
     stroke-opacity="1"
     stroke-width="2.94132"
     stroke-dasharray="none"
     id="path37241" /><path
     style="display:inline;fill:none;fill-rule:evenodd;stroke:#000000;stroke-width:1px;stroke-linecap:butt;stroke-linejoin:miter;stroke-dasharray:1, 3;stroke-dashoffset:0;stroke-opacity:1"
     d="M 48.097537,319.34817 517.64392,318.13779"
     id="path659"
     inkscape:connector-type="polyline"
     inkscape:connector-curvature="0" /><path
     style="display:inline;fill:none;fill-rule:evenodd;stroke:#000000;stroke-width:1px;stroke-linecap:butt;stroke-linejoin:miter;stroke-dasharray:1, 3;stroke-dashoffset:0;stroke-opacity:1"
     d="M 51.695923,371.23027 521.24231,370.01989"
     id="path659-4"
     inkscape:connector-type="polyline"
     inkscape:connector-curvature="0" /><text
     xml:space="preserve"
     style="font-size:21.3333px;fill:#ff0000;stroke-width:0.933;stroke-linecap:round;stroke-linejoin:bevel;stroke-miterlimit:4.9;stroke-dasharray:1, 3;stroke-dashoffset:0;paint-order:fill markers stroke"
     x="43.088089"
     y="280.63589"
     id="text1291"><tspan
       sodipodi:role="line"
       id="tspan1289"
       x="43.088089"
       y="280.63589"
       style="font-size:21.3333px">上</tspan></text><text
     xml:space="preserve"
     style="font-size:21.3333px;fill:#ff0000;stroke-width:0.933;stroke-linecap:round;stroke-linejoin:bevel;stroke-miterlimit:4.9;stroke-dasharray:1, 3;stroke-dashoffset:0;paint-order:fill markers stroke"
     x="163.87981"
     y="238.11288"
     id="text1291-8"><tspan
       sodipodi:role="line"
       id="tspan1289-0"
       x="163.87981"
       y="238.11288"
       style="font-size:21.3333px">寸部浮取</tspan></text><text
     xml:space="preserve"
     style="font-size:21.3333px;fill:#ff0000;stroke-width:0.933;stroke-linecap:round;stroke-linejoin:bevel;stroke-miterlimit:4.9;stroke-dasharray:1, 3;stroke-dashoffset:0;paint-order:fill markers stroke"
     x="101.25287"
     y="350.11578"
     id="text1291-8-1"><tspan
       sodipodi:role="line"
       id="tspan1289-0-12"
       x="101.25287"
       y="350.11578"
       style="font-size:21.3333px">关部浮取</tspan></text><text
     xml:space="preserve"
     style="font-size:21.3333px;fill:#ff0000;stroke-width:0.933;stroke-linecap:round;stroke-linejoin:bevel;stroke-miterlimit:4.9;stroke-dasharray:1, 3;stroke-dashoffset:0;paint-order:fill markers stroke"
     x="240.50389"
     y="303.6651"
     id="text1291-8-7"><tspan
       sodipodi:role="line"
       id="tspan1289-0-1"
       x="240.50389"
       y="303.6651"
       style="font-size:21.3333px">寸部沉取</tspan></text><text
     xml:space="preserve"
     style="font-size:21.3333px;fill:#ff0000;stroke-width:0.933;stroke-linecap:round;stroke-linejoin:bevel;stroke-miterlimit:4.9;stroke-dasharray:1, 3;stroke-dashoffset:0;paint-order:fill markers stroke"
     x="43.068748"
     y="351.40515"
     id="text1291-7"><tspan
       sodipodi:role="line"
       id="tspan1289-8"
       x="43.068748"
       y="351.40515"
       style="font-size:21.3333px">中</tspan></text><text
     xml:space="preserve"
     style="font-size:21.3333px;fill:#ff0000;stroke-width:0.933;stroke-linecap:round;stroke-linejoin:bevel;stroke-miterlimit:4.9;stroke-dasharray:1, 3;stroke-dashoffset:0;paint-order:fill markers stroke"
     x="44.16843"
     y="415.59772"
     id="text1291-74"><tspan
       sodipodi:role="line"
       id="tspan1289-3"
       x="44.16843"
       y="415.59772"
       style="font-size:21.3333px">下</tspan></text><text
     xml:space="preserve"
     style="font-size:21.3333px;fill:#ff0000;stroke-width:0.933;stroke-linecap:round;stroke-linejoin:bevel;stroke-miterlimit:4.9;stroke-dasharray:1, 3;stroke-dashoffset:0;paint-order:fill markers stroke"
     x="156.92979"
     y="472.43253"
     id="text1291-8-1-3"><tspan
       sodipodi:role="line"
       id="tspan1289-0-12-8"
       x="156.92979"
       y="472.43253"
       style="font-size:21.3333px">尺部浮取</tspan></text><text
     xml:space="preserve"
     style="font-size:21.3333px;fill:#ff0000;stroke-width:0.933;stroke-linecap:round;stroke-linejoin:bevel;stroke-miterlimit:4.9;stroke-dasharray:1, 3;stroke-dashoffset:0;paint-order:fill markers stroke"
     x="239.97469"
     y="350.20532"
     id="text1291-8-7-0"><tspan
       sodipodi:role="line"
       id="tspan1289-0-1-6"
       x="239.97469"
       y="350.20532"
       style="font-size:21.3333px">关部沉取</tspan></text><text
     xml:space="preserve"
     style="font-size:21.3333px;fill:#ff0000;stroke-width:0.933;stroke-linecap:round;stroke-linejoin:bevel;stroke-miterlimit:4.9;stroke-dasharray:1, 3;stroke-dashoffset:0;paint-order:fill markers stroke"
     x="240.95744"
     y="398.65228"
     id="text1291-8-7-8"><tspan
       sodipodi:role="line"
       id="tspan1289-0-1-4"
       x="240.95744"
       y="398.65228"
       style="font-size:21.3333px">尺部沉取</tspan></text></svg>
