<?xml version="1.0" encoding="UTF-8" standalone="no"?>
<svg
   xmlns:dc="http://purl.org/dc/elements/1.1/"
   xmlns:cc="http://creativecommons.org/ns#"
   xmlns:rdf="http://www.w3.org/1999/02/22-rdf-syntax-ns#"
   xmlns:svg="http://www.w3.org/2000/svg"
   xmlns="http://www.w3.org/2000/svg"
   xmlns:sodipodi="http://sodipodi.sourceforge.net/DTD/sodipodi-0.dtd"
   xmlns:inkscape="http://www.inkscape.org/namespaces/inkscape"
   height="210mm"
   width="297mm"
   inkscape:version="1.0 (4035a4fb49, 2020-05-01)"
   sodipodi:docname="quganqiancemian.svg"
   xml:space="preserve"
   viewBox="0 0 1122.5196 793.70071"
   y="0px"
   x="0px"
   id="图层_1"
   version="1.1"><metadata
   id="metadata183"><rdf:RDF><cc:Work
       rdf:about=""><dc:format>image/svg+xml</dc:format><dc:type
         rdf:resource="http://purl.org/dc/dcmitype/StillImage" /><dc:title /></cc:Work></rdf:RDF></metadata><defs
   id="defs181" /><sodipodi:namedview
   inkscape:current-layer="图层_1"
   inkscape:window-maximized="1"
   inkscape:window-y="-11"
   inkscape:window-x="1525"
   inkscape:cy="184.31217"
   inkscape:cx="551.4991"
   inkscape:zoom="1.3168038"
   showgrid="false"
   id="namedview179"
   inkscape:window-height="986"
   inkscape:window-width="1920"
   inkscape:pageshadow="2"
   inkscape:pageopacity="0"
   guidetolerance="10"
   gridtolerance="10"
   objecttolerance="10"
   borderopacity="1"
   bordercolor="#666666"
   pagecolor="#ffffff"
   inkscape:document-rotation="0"
   units="mm" />
<style
   id="style2"
   type="text/css">
	.st0{fill:#FFFFFF;}
	.st1{fill:none;stroke:#000000;stroke-width:4;stroke-linecap:round;stroke-linejoin:round;stroke-miterlimit:10;}
	.st2{fill:none;stroke:#000000;stroke-width:3;stroke-linecap:round;stroke-linejoin:round;stroke-miterlimit:10;}
	.st3{fill:none;stroke:#000000;stroke-width:2;stroke-linecap:round;stroke-linejoin:round;stroke-miterlimit:10;}
	.st4{fill:none;stroke:#000000;stroke-width:2;stroke-miterlimit:10;}
	.st5{fill:none;stroke:#000000;stroke-width:3;stroke-linecap:round;stroke-miterlimit:10;}
	.st6{fill:none;stroke:#000000;stroke-width:2;stroke-linecap:round;stroke-linejoin:round;}
	.st7{fill:none;stroke:#000000;stroke-width:2;stroke-linecap:round;stroke-linejoin:round;stroke-dasharray:3.7986,6.6476;}
	.st8{fill:none;stroke:#000000;stroke-width:2;stroke-linecap:round;stroke-linejoin:round;stroke-dasharray:4.2062,4.2062;}
	.st9{fill:none;stroke:#000000;stroke-width:2;stroke-linecap:round;stroke-linejoin:round;stroke-dasharray:4.0543,4.0543;}
	.st10{fill:none;stroke:#000000;stroke-width:2;stroke-linecap:round;stroke-linejoin:round;stroke-dasharray:3.8081,3.8081;}
	.st11{fill:none;stroke:#000000;stroke-width:2;stroke-linecap:round;stroke-linejoin:round;stroke-dasharray:3.8681,3.8681;}
	.st12{fill:none;stroke:#000000;stroke-width:2;stroke-linecap:round;stroke-linejoin:round;stroke-dasharray:4.0036,4.0036;}
	.st13{fill:none;stroke:#000000;stroke-width:2;stroke-linecap:round;stroke-linejoin:round;stroke-dasharray:3.8358,3.8358;}
	.st14{fill:none;stroke:#000000;stroke-width:2;stroke-linecap:round;stroke-linejoin:round;stroke-dasharray:4.029,7.0508;}
	
		.st15{fill:none;stroke:#000000;stroke-width:2;stroke-linecap:round;stroke-linejoin:round;stroke-miterlimit:10;stroke-dasharray:4,7;}
	
		.st16{fill:none;stroke:#000000;stroke-width:2;stroke-linecap:round;stroke-linejoin:round;stroke-miterlimit:10;stroke-dasharray:4,5;}
	
		.st17{fill:none;stroke:#000000;stroke-width:2;stroke-linecap:round;stroke-linejoin:round;stroke-miterlimit:10;stroke-dasharray:4,4;}
	.st18{fill:none;stroke:#000000;stroke-width:2;stroke-linecap:round;stroke-linejoin:round;stroke-dasharray:3.4998,3.4998;}
</style>
<rect
   style="fill:#0000ff;fill-opacity:0.0879121;stroke-width:1.8456;stroke-miterlimit:10"
   id="rect99"
   width="249.54803"
   height="340.57809"
   x="219.618"
   y="330.32932"
   name="腹" /><g
   transform="matrix(1.1243132,0,0,1.0985982,230.03973,-71.62707)"
   id="g48">
	<path
   id="path4"
   d="M 506.64,110.1"
   class="st0" />
	<path
   id="path6"
   d="m 506.64,110.1 c 0,0 -9,31.33 -15.33,47.67 -6.33,16.34 -25.67,33.67 -28.33,46 -2.67,12.33 -6.33,79 -2,86.33 0,0 4.67,2.33 9.67,42 5,39.67 31.33,143.67 40,161.33 0,0 2.67,12.33 0,46.33 0,0 0,19 -36.33,68 -36.33,49 -10.33,109.67 -4.33,119.33 6,9.67 2.33,24 2.33,24"
   class="st1" />
	<path
   id="path8"
   d="m 586.47,109.1 c 0,0 -12.33,30.33 -12.67,37.5 -0.33,7.17 -22.33,51.5 -25.67,55 -3.34,3.5 -9.83,15 -8.67,17"
   class="st1" />
	<path
   id="path10"
   d="m 570.12,157.74 c 0,0 1.11,-3.81 12.11,9.44 11,13.25 24.75,18.75 35.75,20"
   class="st1" />
	<path
   id="path12"
   d="M 552.22,194.93"
   class="st1" />
	<path
   id="path14"
   d="m 554.27,191.09 c 0,0 -4.44,6.67 8.63,27.51 0,0 7.61,10.83 7.21,21.33"
   class="st1" />
	<path
   id="path16"
   d="m 570.13,220.93 c 0,0 13.09,14.5 29.09,13.5 0,0 10.25,0.75 15.5,7.25"
   class="st1" />
	<path
   id="path18"
   d="m 572.72,229.18 c 0,0 1.5,4.25 1.75,6.5"
   class="st1" />
	<path
   id="path20"
   d="m 609.47,225.43 c 0,0 5.75,8.25 8.5,9 2.75,0.75 3.75,0 4.75,0"
   class="st1" />
	<path
   id="path22"
   d="m 650.97,124.93 c 0,0 1.58,0.67 -1,3.5 -2.58,2.83 -3.17,3.75 -0.92,7.5 2.25,3.75 4.42,2.58 6.83,0 2.41,-2.58 5.5,-1.58 6.17,-1.25"
   class="st2" />
	<path
   id="path24"
   d="m 665.56,115.93 c 0,0 3.5,8.92 6.25,11.33 0,0 2.83,4.33 -3.5,8.58 -6.33,4.25 -8.67,5.92 -7.33,10.08 1.33,4.17 1.08,6.08 -1,7.58 -0.16,0.12 -0.38,0.24 -0.65,0.37 -0.3,0.15 -0.66,0.3 -1.07,0.46 -3.92,1.54 -12.43,3.59 -16.53,4.08"
   class="st2" />
	<path
   id="path26"
   d="m 658.47,155.01 c 0,0 0.17,2.5 2.42,4.33 2.25,1.83 -1,4.83 -2.42,5.92 -1.42,1.08 -5,4.33 -3.25,11.92 1.75,7.59 -9.25,16.75 -13.17,16.42 -3.92,-0.33 -15.58,5.83 -15.92,15.33 -0.34,9.5 0,24.75 9.33,28.58 0,0 3.08,1.83 6.5,9.92 3.42,8.08 6.17,3.42 12.25,9.33 6.08,5.92 15.25,18.33 16.58,25.08 1.33,6.75 1.17,14.25 0.83,15.25 -0.34,1 -16.83,-31.92 -16.83,-31.92 0,0 31.42,57.92 32.58,61.83 1.17,3.92 5.17,13.08 5.17,14.75 0,1.67 -6.17,-1 -6.17,-1 l 1.67,1.29 c 0,0 0.83,0.38 4.5,0.88 0,0 2.42,3.25 -2,11.92 -4.42,8.67 -5.25,16.33 -4.5,27.42 0,0 3,24.92 3.17,37.75 0.17,12.83 -3.83,29.58 -4.33,32.5 -0.5,2.92 -3.58,28 -4.83,31.42 -1.25,3.42 -9.67,25.25 -8.83,56 0.83,30.75 2.75,58.5 -31.25,101.5 0,0 -31.25,45.5 -30.75,58.5 0.5,13 0.24,49.83 -0.01,51.17 -0.24,1.33 0.51,-65.67 -1.24,-73.42 -1.75,-7.75 -10.75,-42.25 -6.25,-59.75"
   class="st2" />
	<path
   id="path28"
   d="m 653.22,752.43 c 0,0 0,-51.5 -3.75,-79.5 0,0 -5.41,-27.59 7.67,-57.04"
   class="st2" />
	<path
   id="path30"
   d="m 660.75,146.19 c 0,0 -2.62,2.04 -5.61,1.5 -3,-0.54 -6.82,7.7 -11.28,8.7"
   class="st3" />
	<path
   id="path32"
   d="m 661.53,161.59 c 0,0 -1.22,4.76 -8.89,1.51 -7.67,-3.25 -9.08,-4.42 -10.92,-4"
   class="st4" />
	<path
   id="path34"
   d="m 522.97,188.43 c 0,0 -4.75,18.91 -15,27.08 0,0 -3.75,6.17 -4.25,9.92"
   class="st2" />
	<path
   id="path36"
   d="m 513.35,215.51 c 0,0 -8.54,13.34 -8.21,15.8 0.33,2.46 -0.01,5.63 -0.01,5.63"
   class="st2" />
	<path
   id="path38"
   d="m 510.47,229.18 c 0,0 -0.67,6.75 0,7.75"
   class="st2" />
	<path
   id="path40"
   d="m 540.81,270.26 c 0,0 10.17,-1 18.17,25.5 8,26.5 25,44.17 44.17,51.5"
   class="st2" />
	<path
   id="path42"
   d="m 639.35,281.81 c 0,0 6.63,11.75 8,16.5"
   class="st5" />
	<path
   id="path44"
   d="m 659.35,332.81 c 0,0 2.75,0 5.25,7.63 2.5,7.63 6,14.75 7,15"
   class="st3" />
	<path
   id="path46"
   d="m 655.72,329.68 c 0,0 2.38,10 -7.63,18.88"
   class="st3" />
</g>
<path
   id="path50"
   d="m 556.90009,578.25954 c 0,0 42.7239,38.68166 47.22121,101.73024"
   class="st3" />
<path
   id="path52"
   d="m 695.7528,578.25954 c 0,0 -52.28059,60.42285 -45.5347,95.0288"
   class="st4" />
<path
   id="path54"
   d="m 591.47266,629.12466 c 0,0 30.45771,-23.29025 69.61744,0"
   class="st4" />
<path
   id="path56"
   d="m 539.47321,702.40113 c 0,0 41.59965,30.21147 76.45325,13.18325 0,0 11.80535,-10.03028 23.47571,0.14282 0,0 40.90263,17.85214 72.10223,-19.91766"
   class="st3" />
<g
   transform="matrix(1.1243132,0,0,1.0985982,230.03973,-71.62707)"
   id="g66">
	<g
   id="g64">
		<path
   id="path58"
   d="m 350.47,676.06 c 0,0 0.01,0.74 0.02,2"
   class="st6" />
		<path
   id="path60"
   d="m 350.6,684.7 c 0.1,5.54 0.29,12.6 0.6,17.56"
   class="st7" />
		<path
   id="path62"
   d="m 351.45,705.58 c 0.08,0.83 0.17,1.5 0.27,1.98"
   class="st6" />
	</g>
</g>
<path
   id="path68"
   d="m 291.56215,81.14397 c 0,0 1.68649,29.6621 -41.59958,43.94394 0,0 -29.23214,9.88738 -37.6645,17.57754 -8.43235,7.69018 -30.16532,0.18678 -42.72389,12.44711 -12.55859,12.27132 -19.48436,3.29579 -31.48078,31.49685 -11.99641,28.20097 -23.04841,73.2435 -15.93152,91.91965 0,0 4.12623,7.69016 -2.24862,28.92612"
   class="st2" />
<path
   id="path70"
   d="m 414.49456,89.55922 c 0,0 11.24313,41.74674 39.35096,44.30648 28.10783,2.55974 51.34744,23.80659 77.20663,26.72886 0,0 24.17272,6.40482 33.9205,31.85937 9.74777,25.45448 20.04652,36.98974 14.42497,80.93369 -5.62158,43.94394 -5.43043,15.74289 -6.55479,50.72227"
   class="st1" />
<path
   id="path72"
   d="m 248.83826,317.6172 c -17.98901,-0.27465 -39.06989,-5.21833 -45.81576,-35.97912 -6.74588,-30.7607 -16.58362,-41.74666 -16.58362,-41.74666 0,0 20.42876,10.07412 12.17631,84.22948 -8.25246,74.15534 7.1169,83.30665 9.36553,147.76144 2.24862,64.45473 -21.36196,66.27844 -21.55309,141.71914 0,0 -9.18564,65.17985 -8.06133,82.03228"
   class="st2" />
<g
   transform="matrix(1.1243132,0,0,1.0985982,230.03973,-71.62707)"
   id="g94">
	<g
   id="g92">
		<path
   id="path74"
   d="m 264.72,229.31 c -0.46,-0.23 -1.08,-0.5 -1.84,-0.77"
   class="st6" />
		<path
   id="path76"
   d="m 258.87,227.27 c -6.86,-1.86 -17.94,-3.65 -28.9,-2.22 -10.6,1.39 -21.2,4.96 -26.68,7"
   class="st8" />
		<path
   id="path78"
   d="m 201.32,232.81 c -1.19,0.47 -1.85,0.75 -1.85,0.75 0,0 0.44,-0.15 1.84,0.71"
   class="st6" />
		<path
   id="path80"
   d="m 204.51,236.74 c 0.78,0.69 1.68,1.54 2.71,2.56 6.25,6.25 11,-0.75 20,-3.25 9,-2.5 23.75,3.25 23.75,3.25 36,-5 34.25,-16.25 9.42,-23.75 -24.83,-7.5 -40,-0.33 -40,-0.33 -9,7.5 -24,8.83 -31,9.33 -7,0.5 -33.67,6.17 -48,-3.06 -14.33,-9.22 7.33,-9.44 15.33,-4.44 5.17,3.23 12.16,5.63 16.45,6.92"
   class="st9" />
		<path
   id="path82"
   d="m 175.13,224.54 c 1.21,0.34 1.93,0.51 1.93,0.51 -0.59,0.16 -1.25,0.29 -1.96,0.41"
   class="st6" />
		<path
   id="path84"
   d="m 171.31,225.84 c -8.52,0.48 -20.25,-0.78 -20.25,-0.78 -18.88,-3.83 -38.16,-1.79 -46.16,-0.63"
   class="st10" />
		<path
   id="path86"
   d="m 103.02,224.71 c -1.27,0.21 -1.97,0.34 -1.97,0.34 0,0 0.72,-0.25 1.93,-0.52"
   class="st6" />
		<path
   id="path88"
   d="m 106.8,223.94 c 5.59,-0.49 13.94,0.45 18.92,8.86 8,13.5 16,0.75 32.75,1.75 0.82,0.05 1.64,0.1 2.45,0.15 3.73,0.22 7.3,0.42 10.66,0.58 8.14,0.39 14.99,0.51 19.77,-0.02"
   class="st11" />
		<path
   id="path90"
   d="m 193.27,234.99 c 0.71,-0.12 1.37,-0.27 1.95,-0.44"
   class="st6" />
	</g>
</g>
<g
   transform="matrix(1.1243132,0,0,1.0985982,230.03973,-71.62707)"
   id="g104">
	<g
   id="g102">
		<path
   id="path96"
   d="m 161.22,235.72 c 0,0 -0.4,0.65 -1.14,1.64"
   class="st6" />
		<path
   id="path98"
   d="m 157.54,240.45 c -3.08,3.34 -7.88,7.3 -13.65,7.77 -10.17,0.83 -21.17,10.33 -20.83,12.67 0.33,2.33 5.83,-2.17 15.33,0 8.79,2.01 35.46,-6.16 34.09,-21.71"
   class="st12" />
		<path
   id="path100"
   d="m 172.16,237.2 c -0.15,-0.63 -0.34,-1.27 -0.58,-1.91"
   class="st6" />
	</g>
</g>
<g
   transform="matrix(1.1243132,0,0,1.0985982,230.03973,-71.62707)"
   id="g114">
	<g
   id="g112">
		<path
   id="path106"
   d="m 183.39,235.62 c 0,0 0.04,0.74 0.01,2"
   class="st6" />
		<path
   id="path108"
   d="m 183.11,241.44 c -1.04,8.6 -5.5,24.21 -23.88,28.95 0,0 -7.5,3.83 -34.5,1.33 0,0 -2.66,-2.45 -2.45,-7"
   class="st13" />
		<path
   id="path110"
   d="m 122.51,262.81 c 0.13,-0.61 0.31,-1.25 0.54,-1.92"
   class="st6" />
	</g>
</g>
<g
   transform="matrix(1.1243132,0,0,1.0985982,230.03973,-71.62707)"
   id="g122">
	<g
   id="g120">
		<path
   id="path116"
   d="m 184.67,241.15 c -0.47,-0.53 -0.94,-1 -1.4,-1.43 0,0 0.13,0.72 0.31,1.97"
   class="st6" />
		<path
   id="path118"
   d="m 184.33,248.71 c 0.76,10.59 0.23,27.05 -9.94,29.51 -15.17,3.67 -2.17,10 -45.83,3.33 0,0 -18.83,1.5 3.83,12.83 22.67,11.33 48.03,0.17 57.43,-14.67 1.07,-1.68 1.9,-3.42 2.52,-5.18 3.93,-11.14 -0.44,-23.38 -5.49,-30.61"
   class="st14" />
	</g>
</g>
<path
   id="path124"
   d="m 372.37777,248.24076 c 0,0 -13.90775,8.85468 2.57472,18.92881 16.49369,10.07412 42.58896,20.51078 61.29752,1.83465 18.70863,-18.67613 13.21067,-34.94634 11.74912,-41.18646 -1.46164,-6.24003 -1.83268,-22.51024 9.59035,0 6.41983,12.64492 5.98136,26.56414 0.87694,38.15434 -3.98003,9.04144 -10.80461,16.66571 -19.42811,21.15897 -19.67544,10.24999 -32.60503,8.78885 -62.39934,-3.48256 0,0 -14.05395,-0.73605 -5.25059,-11.89779 8.8034,-11.16175 -5.35173,-8.97555 -3.90136,-5.85552 0,0 -4.41851,8.40426 -1.1693,11.72201 3.2493,3.30679 2.70962,2.01043 1.1693,13.36994 0,0 14.58237,9.52491 31.25593,15.19366 16.67357,5.67974 31.28961,12.9964 54.33808,-12.9964 0,0 6.55469,-18.48947 5.81271,-25.63033 0,0 3.74396,-25.26772 7.87013,-15.01781 4.12624,10.2499 9.9277,38.26409 -8.43232,55.84174 -18.36002,17.57754 -36.91118,20.32403 -47.78331,17.02824 -10.87214,-3.29579 -30.54759,-11.72203 -32.97612,-14.64429 0,0 -3.30549,0.70311 -5.70026,-1.17549 -0.83202,-0.64819 -1.55159,-1.61494 -1.97881,-3.03214 -1.68647,-5.49298 -3.66527,-9.52483 -2.39477,-13.18316"
   class="st15" />
<path
   id="path126"
   d="m 371.95055,311.11351 c 0,0 -6.01503,6.22904 -5.63283,12.08456 0.3823,5.85551 -13.30063,11.17272 -15.16697,10.07412 -1.86637,-1.0986 12.36748,1.28537 2.24863,33.69405"
   class="st15" />
<path
   id="path128"
   d="m 369.89305,315.69466 c 0,0 32.41398,32.04605 63.15266,29.47533 30.72752,-2.55972 38.80005,-41.60384 34.86498,-51.29346"
   class="st15" />
<path
   id="path130"
   d="m 364.22655,327.5485 c 0,0 7.35296,3.88905 19.15827,19.63193 11.80531,15.74297 24.54376,6.59166 5.62156,-6.04228 -18.92219,-12.63386 -21.55305,-14.53444 -21.55305,-14.53444 h -2.39485 z"
   class="st15" />
<path
   id="path132"
   d="m 357.89666,335.46939 c 0,0 29.04099,36.98983 37.66448,53.28202 8.62349,16.29217 21.17079,16.84148 27.73684,34.60587 6.5547,17.7643 26.42129,45.40496 45.90567,24.71844 19.48437,-20.6866 18.74231,-23.07055 20.04649,-32.77115"
   class="st15" />
<path
   id="path134"
   d="m 543.25092,279.44089 c 0,0 13.08699,-81.57087 4.37358,-79.64832 0,0 -14.89715,-7.14089 -19.67548,-1.6479 -4.77833,5.49298 -4.77833,5.49298 -4.77833,5.49298 0,0 23.89164,-16.96233 -3.93511,-9.57976"
   class="st15" />
<path
   id="path136"
   d="m 516.57097,196.49677 c 0,0 -39.4971,14.00711 -15.32437,35.70447 24.17272,21.69727 12.9296,39.82412 12.9296,47.23965"
   class="st15" />
<path
   id="path138"
   d="m 472.29548,202.93454 c 0,0 18.83226,-10.20596 28.67003,3.90003 -8.9945,-12.44711 -20.51872,8.90961 -20.51872,8.90961"
   class="st15" />
<path
   id="path140"
   d="m 481.00898,242.36326 c 0,-5.76763 16.72973,-13.77649 16.72973,-13.77649 0,0 -24.88104,31.90334 -21.78922,71.17824 3.09193,39.27481 -17.89903,60.42289 -56.59787,60.69753 0,0 -17.60678,-1.37324 11.06324,12.35922 28.66993,13.73245 42.44281,-30.79375 42.44281,-37.35237 0,-6.55861 0.56218,-20.75249 5.90266,-15.86373 0,0 6.27367,41.68083 -9.93897,54.58934 -16.21257,12.90851 -13.95267,13.73246 -31.37956,13.18317 -17.42688,-0.54931 -0.84323,13.32596 8.43238,12.90849 9.2756,-0.41747 19.90028,-4.39438 22.94718,-21.01614 3.04691,-16.62177 13.72786,-23.34517 11.19821,-28.43169 0,0 3.29422,12.61189 1.69771,24.92717 -0.0337,0.29661 -0.0788,0.58225 -0.1237,0.87888 -0.48342,3.2848 -1.33794,6.53665 -2.7096,9.49187 -6.61092,14.28174 -14.48113,26.64105 -34.15666,26.23456 -19.67544,-0.40648 -11.95145,8.3823 -4.36233,9.75554 7.58912,1.37325 25.72433,0.82394 31.06481,-19.91765 5.34046,-20.74149 12.06389,-17.85218 11.38925,-25.95983 0,0 -1.40536,49.57975 -9.27558,60.69755 0,0 13.07582,-40.92282 2.81083,-28.01429 0,0 -5.76775,19.36834 -21.362,22.24666 0,0 -27.54564,-5.6358 -12.92959,4.26255 14.61606,9.89839 16.72983,11.95277 27.82675,-5.49298 11.09701,-17.44571 8.78093,-10.0961 8.78093,-10.0961 0,0 -3.37293,11.12877 -0.91072,15.92964 2.46225,4.80087 -12.99704,28.35479 -21.50812,33.50727 -8.511,5.15247 -6.25119,-5.83359 -4.14868,-7.14093 2.10244,-1.30734 -1.13561,-6.24003 -1.27049,-6.71248 -0.13495,-0.47237 23.61055,-2.69148 24.45382,-1.46112 0.84319,1.23046 -8.36486,18.81906 -11.52423,17.99513 -3.15934,-0.82392 0.42723,-11.1948 0.62962,-11.60124"
   class="st15" />
<path
   id="path142"
   d="m 395.9434,370.62456 c 0,0 16.49366,23.98236 19.48437,23.98236 3.00188,0 7.73524,-5.30623 2.64209,-11.99667 -5.08189,-6.67947 -11.2656,-11.99667 -15.95399,-11.99667 -4.67715,0.011 -6.17247,0.011 -6.17247,0.011 z"
   class="st15" />
<path
   id="path144"
   d="m 455.86928,535.96359 c 0,0 17.55057,6.86626 -15.61665,50.2608 -33.1673,43.39464 -19.11335,12.19451 -37.66452,42.90027 0,0 -10.11884,12.30427 -17.98905,10.931 -7.87015,-1.37327 -10.96205,11.12888 -19.11328,13.0514 -8.15129,1.92261 -24.31892,0.54935 -21.78919,11.40346 0,0 7.17307,17.99505 34.57259,-5.21831 0,0 4.54222,-7.77812 27.41076,-6.13018 0,0 -8.80334,-3.84504 1.68647,-12.82074 10.48989,-8.97551 25.10595,-25.81699 34.29159,-22.15868 0,0 -8.9945,-10.07411 10.68095,-28.92605 l 7.11688,-6.40493 -11.05199,-1.28534 c 0,0 14.05397,6.22907 23.4195,-13.18317 9.36551,-19.41214 8.99448,-33.69391 -9.55667,-60.23611"
   class="st16" />
<path
   id="path146"
   d="m 341.78523,674.93619 c 0,0 35.22471,24.16914 50.96512,6.22907 0,0 18.55116,-9.52486 17.89904,-19.96149 0,0 2.14745,-4.58121 -5.7115,-6.40484"
   class="st16" />
<path
   id="path148"
   d="m 366.32898,670.16824 c 0,0 22.48627,9.88746 27.91669,-11.89774"
   class="st16" />
<path
   id="path150"
   d="m 412.15599,636.02388 c 0,0 -13.03075,35.61652 18.64115,21.14802 0,0 18.74224,-14.28185 12.36742,-38.451 0,0 23.41941,58.03901 24.73492,21.97195 0,0 11.6141,-21.38964 23.23952,30.59599 0,0 3.37292,16.28118 -22.11523,43.55946 0,0 -3.37293,3.48253 -2.24865,8.23944 1.12436,4.75699 -12.71595,32.77118 -16.38122,35.70437"
   class="st16" />
<path
   id="path152"
   d="m 421.98248,748.35548 c 0,0 25.10594,-46.32792 12.17635,-58.775 0,0 9.55666,-16.84148 0.37104,-22.88372 -9.18564,-6.04233 -19.94539,-6.69048 -19.94539,-6.69048"
   class="st16" />
<path
   id="path154"
   d="m 497.73871,228.57579 c 0,0 41.05994,17.89622 19.05713,39.31885 0,0 0.3935,-7.37158 -0.40475,-11.00794 -0.79828,-3.63635 -11.08576,0.57128 -11.27689,20.34601 0,0 -19.59677,42.41689 -26.34262,42.36197"
   class="st17" />
<path
   id="path156"
   d="m 500.44834,286.87838 c 0,0 -9.88271,19.67595 -9.03951,58.44542 0.84327,38.76955 -2.52973,81.60392 -4.49725,87.0969 -1.96751,5.49298 -7.87016,49.71153 -3.65403,79.37366 4.21617,29.66222 13.21066,44.76791 11.8053,84.59208 -1.40537,39.82409 5.43042,46.50361 5.38549,58.41249 -0.045,11.89783 3.04689,73.33143 -4.26114,104.00422"
   class="st3" />
<path
   id="path158"
   d="m 411.18907,209.20754 c 0,0 -12.67102,6.66847 -4.03623,15.10569"
   class="st17" />
<path
   id="path160"
   d="m 411.18907,240.39677 c 0,0 -2.36102,0.58225 0,14.31471"
   class="st17" />
<path
   id="path162"
   d="m 416.41717,278.95751 c 0,0 7.11688,14.10606 5.5878,14.34775"
   class="st17" />
<path
   id="path164"
   d="m 422.98312,311.5859 c 0,0 6.75711,11.00794 5.89141,12.535"
   class="st17" />
<path
   id="path166"
   d="m 437.86902,345.31281 c 0,0 1.33793,12.0407 -0.52842,13.24916"
   class="st17" />
<path
   id="path168"
   d="m 332.31851,505.05996 c 0,0 5.90265,-2.61459 10.39992,-1.79066 4.4972,0.82392 11.52422,0.23066 12.08632,-0.16483 0,0 2.52974,2.91127 -2.52966,1.94453 0,0 -1.96755,0.78001 -2.39477,3.06505 -0.4273,2.28512 -6.46482,3.65839 -9.83777,1.05467 -3.37294,-2.60363 -1.68646,-3.71328 -2.67587,-4.11972 -0.9894,-0.40652 -5.04817,0.0106 -5.04817,0.0106 z"
   class="st3" />
<path
   id="path170"
   d="m 338.45726,504.87322 c 0,0 9.42175,0.91186 11.5692,-0.54925 0,0 -3.18178,12.2273 -11.5692,0.54925 z"
   class="st3" />
<path
   id="path172"
   d="m 492.54436,301.92925 c 0,0 14.40251,-23.85063 13.80663,-34.97941 0,0 9.71406,-14.18288 7.57786,-18.26965"
   class="st3" />
<g
   transform="matrix(1.1243132,0,0,1.0985982,230.03973,-71.62707)"
   id="g176">
	<path
   id="path174"
   d="m 347.53,680.56 c 0,0 -3.23,-9 1.9,-8.67 5.13,0.33 4.79,5.67 3.46,8.67 -1.33,3 -5.36,0 -5.36,0 z"
   class="st18" />
</g>
<rect
   name="胸"
   y="174.2021"
   x="277.98157"
   height="156.12721"
   width="144.66428"
   id="rect185"
   style="fill:#0000ff;fill-opacity:0.0879121;fill-rule:evenodd;stroke-width:1.57954;stroke-miterlimit:10;stroke-dasharray:none" /><rect
   name="胁"
   y="284.98804"
   x="797.49768"
   height="150.6987"
   width="88.297409"
   id="rect3026"
   style="fill:#0000ff;fill-opacity:0.0879121;stroke-width:1.88932;stroke-miterlimit:10;stroke-dasharray:none" /><rect
   style="fill:#0000ff;fill-opacity:0.0879121;stroke-width:2.13147;stroke-miterlimit:10"
   id="rect101"
   width="250.0867"
   height="152.06276"
   x="215.81638"
   y="332.74213"
   name="大腹" /><rect
   style="fill:#0000ff;fill-opacity:0.0879121;stroke-width:1.77164;stroke-miterlimit:10"
   id="rect103"
   width="231.45523"
   height="134.17885"
   x="228.32747"
   y="533.2854"
   name="小腹" /><ellipse
   style="fill:#0000ff;fill-opacity:0.0879121;stroke-width:1.7;stroke-miterlimit:10"
   id="path105"
   cx="332.32593"
   cy="738.15454"
   rx="55.517979"
   ry="43.78883"
   name="前阴" /><ellipse
   style="fill:#0000ff;fill-opacity:0.0879121;stroke-width:1.7;stroke-miterlimit:10"
   id="path107"
   cx="345.91333"
   cy="511.086"
   rx="27.718632"
   ry="20.504192"
   name="脐" /><ellipse
   style="fill:#0000ff;fill-opacity:0.0879121;stroke-width:1.7;stroke-miterlimit:10"
   id="path109"
   cx="358.82339"
   cy="369.07547"
   rx="74.042923"
   ry="26.57951"
   name="心下" /><ellipse
   style="fill:#0000ff;fill-opacity:0.0879121;stroke-width:1.57753;stroke-miterlimit:10"
   id="path111"
   ry="16.707121"
   rx="23.541851"
   cy="156.43941"
   cx="435.14456"
   name="缺盆" /><ellipse
   name="缺盆"
   cx="249.08798"
   cy="160.43941"
   rx="23.541851"
   ry="16.707121"
   id="path111-0"
   style="fill:#0000ff;fill-opacity:0.0879121;stroke-width:1.57753;stroke-miterlimit:10" /><ellipse
   name="膺"
   ry="47.881508"
   rx="49.020641"
   cy="236.1026"
   cx="452.99078"
   id="path927"
   style="opacity:0.44868;fill:#0a0000;fill-opacity:0.591912;fill-rule:evenodd;stroke:#000000;stroke-width:1.15218;stroke-linejoin:round;stroke-dasharray:1.15218, 1.15218" /><ellipse
   name="膺"
   style="opacity:0.44868;fill:#0a0000;fill-opacity:0.591912;fill-rule:evenodd;stroke:#000000;stroke-width:1.15218;stroke-linejoin:round;stroke-dasharray:1.15218, 1.15218"
   id="path927-0"
   cx="246.05469"
   cy="237.47072"
   rx="49.020641"
   ry="47.881508" /><ellipse
   style="opacity:0.44868;fill:#0a0000;fill-opacity:0.591912;fill-rule:evenodd;stroke:#000000;stroke-width:1.05794;stroke-linejoin:round;stroke-dasharray:1.05794, 1.05794"
   id="path927-5"
   cx="893.72412"
   cy="234.00108"
   rx="42.992443"
   ry="46.030098"
   name="膺" /></svg>
