<?xml version="1.0" encoding="UTF-8" standalone="no"?>
<svg
   xmlns:dc="http://purl.org/dc/elements/1.1/"
   xmlns:cc="http://creativecommons.org/ns#"
   xmlns:rdf="http://www.w3.org/1999/02/22-rdf-syntax-ns#"
   xmlns:svg="http://www.w3.org/2000/svg"
   xmlns="http://www.w3.org/2000/svg"
   xmlns:sodipodi="http://sodipodi.sourceforge.net/DTD/sodipodi-0.dtd"
   xmlns:inkscape="http://www.inkscape.org/namespaces/inkscape"
   height="210mm"
   width="297mm"
   version="1.1"
   id="图层_1"
   x="0px"
   y="0px"
   viewBox="0 0 1122.5196 793.7008"
   xml:space="preserve"
   sodipodi:docname="quganbeimian.svg"
   inkscape:version="1.0 (4035a4fb49, 2020-05-01)"><metadata
   id="metadata129"><rdf:RDF><cc:Work
       rdf:about=""><dc:format>image/svg+xml</dc:format><dc:type
         rdf:resource="http://purl.org/dc/dcmitype/StillImage" /><dc:title /></cc:Work></rdf:RDF></metadata><defs
   id="defs127" /><sodipodi:namedview
   units="mm"
   inkscape:document-rotation="0"
   pagecolor="#ffffff"
   bordercolor="#666666"
   borderopacity="1"
   objecttolerance="10"
   gridtolerance="10"
   guidetolerance="10"
   inkscape:pageopacity="0"
   inkscape:pageshadow="2"
   inkscape:window-width="1920"
   inkscape:window-height="986"
   id="namedview125"
   showgrid="false"
   inkscape:zoom="0.64226766"
   inkscape:cx="524.69692"
   inkscape:cy="456.06939"
   inkscape:window-x="1525"
   inkscape:window-y="-11"
   inkscape:window-maximized="1"
   inkscape:current-layer="图层_1" />
<style
   type="text/css"
   id="style2">
	.st0{fill:none;stroke:#000000;stroke-width:2;stroke-linecap:round;stroke-linejoin:round;stroke-miterlimit:10;}
	.st1{fill:none;stroke:#000000;stroke-width:2;stroke-linecap:round;stroke-linejoin:round;}
	.st2{fill:none;stroke:#000000;stroke-width:2;stroke-linecap:round;stroke-linejoin:round;stroke-dasharray:3.9965,3.9965;}
	
		.st3{fill:none;stroke:#000000;stroke-width:2;stroke-linecap:round;stroke-linejoin:round;stroke-miterlimit:10;stroke-dasharray:4,4;}
</style>
<path
   class="st0"
   d="m 458.12564,37.421832 c 0,0 4.99411,40.393578 -88.07799,79.361498 0,0 -51.75717,16.63265 -63.10743,46.57142 -11.35025,29.93877 -11.80426,26.61224 -14.07431,44.67054 -2.27006,18.05831 -2.27006,38.01749 0,46.57142 2.27005,8.55394 0.90802,13.78134 0.90802,13.78134"
   id="path4" />
<path
   class="st0"
   d="m 572.53623,40.273143 c 0,0 9.53421,44.670543 24.97056,46.571422 0,0 33.59676,12.830896 40.40692,20.909615 6.81015,8.07872 71.2796,46.57142 73.54966,50.84838 2.27005,4.27697 32.23472,42.29445 25.87858,87.91544 -6.35614,45.62098 -9.53421,47.04663 -9.53421,47.04663"
   id="path6" />
<path
   class="st0"
   d="m 672.71813,237.48884 c 0,0 -15.73599,38.65428 -20.58482,101.38313 -4.83975,62.72885 -21.18412,110.8875 -17.55204,143.20236 3.63208,32.31486 17.64284,98.84546 18.80511,143.82965 1.17134,44.98419 9.7249,71.59643 0,139.40062"
   id="path8" />
<path
   class="st0"
   d="m 358.24339,245.09234 c 0,0 17.41583,113.10202 16.42609,144.46645 -0.98975,31.36442 15.35463,57.97666 8.99848,86.48977 0,0 -1.70708,28.51312 -11.97679,55.60057 -10.26971,27.08746 -12.99378,119.27986 -17.07987,133.0612 -4.08609,13.78134 -1.36203,80.78715 0,89.34108"
   id="path10" />
<path
   class="st0"
   d="m 396.83426,735.99311 c 0,0 103.31457,23.28573 109.08958,-31.83964 0,0 6.22902,45.41185 98.3931,36.72489"
   id="path12" />
<g
   transform="matrix(0.90802051,0,0,0.9504371,235.66061,1.8849879)"
   id="g22">
	<g
   id="g20">
		<line
   class="st1"
   x1="364"
   y1="75.889999"
   x2="363.98001"
   y2="77.889999"
   id="line14" />
		<polyline
   class="st2"
   points="363.94,81.89 358.67,621.22 355.42,767.23   "
   id="polyline16" />
		<line
   class="st1"
   x1="355.38"
   y1="769.21997"
   x2="355.32999"
   y2="771.21997"
   id="line18" />
	</g>
</g>
<polyline
   transform="matrix(0.90802051,0,0,0.9504371,235.66061,1.8849879)"
   class="st3"
   points="306.67,66.56 306.04,129.56 301.33,606.56 "
   id="polyline24" />
<path
   class="st3"
   d="m 418.78111,162.71796 c -34.20513,-17.10787 -28.44828,-19.64554 -28.44828,-19.64554 -0.90802,0.31365 -44.79265,-19.00874 -49.03311,-3.4881 -4.24045,15.52063 50.24078,3.4881 56.29727,5.06583 6.0565,1.58722 21.18412,11.40524 26.03295,14.89334 4.84883,3.48811 16.04472,8.55394 30.57305,0 0,0 5.44812,-0.31364 2.42442,19.00875 -3.02371,19.32238 0.29964,33.2653 -0.90802,40.8688 -1.20767,7.60349 -14.52833,44.98418 -23.00016,48.9475 -8.47184,3.96333 -12.71229,2.06245 -30.26433,-24.54979 0,0 -5.14847,-19.95917 -10.5966,-24.39771 -5.44812,-4.43854 -17.08894,-16.15744 -17.17066,-43.40647 0,0 -2.19741,-18.6951 -12.18564,-25.6618 0,0 23.90818,27.56267 25.42457,32.95166 1.5164,5.38897 -4.15873,9.81801 11.38658,29.46355 0,0 3.14175,5.70261 4.04978,8.86757 0.90801,3.16496 10.00638,-10.07463 1.51639,-11.40524 0,0 -26.3326,-4.75219 -33.29711,-13.94291 -6.96452,-9.19073 -6.35615,-26.45067 -5.74778,-29.38752 0.60838,-2.92735 -10.46039,-20.35836 -24.75264,-8.95312 0,0 5.68421,2.85132 -12.77584,3.16496 0,0 -5.14848,-0.95044 -6.35615,30.10034 0,0 7.26417,9.50437 6.35615,38.01748 -0.90803,28.51312 0.29964,27.56268 0.29964,27.56268"
   id="path26" />
<path
   class="st3"
   d="m 354.31166,194.08238 c -2.42442,-0.95043 -1.5164,-16.47107 -8.17219,-19.32238 0,0 -4.83975,0 -3.63208,3.80174"
   id="path28" />
<path
   class="st3"
   d="m 371.56405,196.3064 c 0,0 -24.59828,3.80175 -19.10475,63.67929"
   id="path30" />
<path
   class="st3"
   d="m 513.55121,125.02362 c 0,0 -7.90886,-27.249032 -29.70135,-24.71136 0,0 -7.17336,-2.214522 -25.67882,15.52064 0,0 -9.73397,6.9667 -30.01008,1.90087"
   id="path32" />
<path
   class="st3"
   d="m 513.55121,147.19732 c 0,0 -5.53892,-1.26408 -7.63645,-18.37195 0,0 1.54364,-4.28647 -18.43281,-16.24297 0,0 -5.74778,-12.04204 -31.48108,17.30746 0,0 -1.07146,0.34215 -3.32335,0.61779 -0.69918,0.0855 -1.50732,0.16157 -2.4335,0.21859 -4.4947,0.26613 -11.7407,0.0665 -22.09213,-2.05294"
   id="path34" />
<path
   class="st3"
   d="m 458.17104,125.02362 c 0,0 -13.82007,12.66933 -18.13317,12.8309 -4.31309,0.16157 5.22112,6.65306 5.22112,6.65306 0,0 29.05666,-19.48396 35.4128,-18.6951 0,0 -1.20766,-9.81801 0,-9.81801 1.20767,0 15.736,1.90087 21.63813,9.81801 5.90214,7.91715 4.61275,9.04817 4.61275,9.04817"
   id="path36" />
<path
   class="st3"
   d="m 480.37214,126.60135 c 0,0 10.14259,-4.75219 19.2228,9.02915 9.08021,13.78134 6.5105,21.38484 9.68858,23.44729 3.17807,2.06244 3.94989,0.79836 3.94989,0.79836"
   id="path38" />
<path
   class="st3"
   d="m 444.80498,145.45802 c 0,0 3.33243,12.04204 14.22868,1.7393 10.89625,-10.30274 22.09214,-9.66595 24.97057,-15.04542 0,0 10.12442,-1.35913 14.37396,3.64017"
   id="path40" />
<path
   class="st3"
   d="m 509.27444,159.07779 c 0,0 -4.69447,0.16157 -15.736,-14.57021 0,0 -9.53421,-7.91714 -29.51067,7.28985 l -8.46275,8.4684"
   id="path42" />
<path
   class="st3"
   d="m 458.17104,166.84285 c 0,0 31.03615,-28.19946 42.93121,-5.70262 0,0 5.52985,22.65842 11.84967,27.88583"
   id="path44" />
<path
   class="st3"
   d="m 456.79993,177.32617 c 0,0 31.59911,-25.69031 38.2549,-9.84652 0,0 3.00555,7.99317 -10.23339,11.47177 -1.31662,0.34216 -2.78762,0.6463 -4.44022,0.88391 -18.31477,2.68973 -24.80712,14.25655 -24.80712,14.25655"
   id="path46" />
<path
   class="st3"
   d="m 486.58301,178.41917 c 0,0 -4.0861,7.43243 0,11.23417 0,0 -30.40053,6.31091 -31.17235,12.09907"
   id="path48" />
<path
   class="st3"
   d="m 486.58301,189.65334 c 0,0 16.19908,4.43854 0,15.207 0,0 -2.53338,-0.26613 -6.21087,0.0285 -7.37312,0.59879 -19.34991,3.4596 -24.80712,15.31155 0,0 -2.8875,10.47382 17.69732,-3.14595 0,0 3.17807,-1.7393 11.05061,-3.01288 0,0 1.06239,-7.12828 -4.5401,-8.24029"
   id="path50" />
<path
   class="st3"
   d="m 484.30387,214.04156 c 0,0 6.96452,3.16496 14.07432,-4.75219 7.1098,-7.91714 14.37397,0.47522 14.31948,6.33942"
   id="path52" />
<path
   class="st3"
   d="m 492.20365,175.51084 c 0,0 -2.7513,3.52612 12.00403,11.36723 0,0 3.65933,0.76035 1.71616,14.87434 l 0.57205,4.30548"
   id="path54" />
<path
   class="st3"
   d="m 397.71503,229.41964 c 0,0 2.75131,3.31702 -7.00991,27.07795 -9.76122,23.76092 -2.27006,27.56267 -2.27006,27.56267 0,0 2.07937,-4.41953 4.99412,-9.87504 4.93963,-9.22874 12.26736,-21.41335 15.93576,-20.15877"
   id="path56" />
<path
   class="st3"
   d="m 419.58925,266.41064 c 0,0 -18.73246,3.01289 -25.47905,9.80852 -6.75568,6.79563 -13.89272,17.34547 -8.41736,41.81923 l 1.15319,4.98979 c 0,0 10.44224,-8.55393 7.94518,-21.86005 -2.49706,-13.30612 22.92752,-29.63463 33.14275,-31.21235 10.21523,-1.57773 34.27778,-8.70601 38.81788,-11.0821 4.5401,-2.37609 38.61811,-14.49417 39.73498,16.39504 0,0 3.623,14.73178 5.21203,8.79154"
   id="path58" />
<path
   class="st3"
   d="m 448.16466,242.25053 c 0,0 21.11147,-18.0678 45.60987,-15.21649 0,0 11.36841,-3.94432 -4.56734,-12.45073"
   id="path60" />
<path
   class="st3"
   d="m 498.37819,209.28937 c 0,0 6.98268,8.95312 7.53657,16.31901 0.55389,7.36589 4.60367,15.20699 6.78291,18.29591"
   id="path62" />
<path
   class="st3"
   d="m 439.78363,259.98569 c 0,0 27.4313,-20.12075 42.63156,-19.17032 v -13.7053"
   id="path64" />
<path
   class="st3"
   d="m 482.41519,240.81537 c 0,0 10.37867,-5.54104 14.38304,16.00537"
   id="path66" />
<path
   class="st3"
   d="m 512.2255,265.52674 c 0,0 -3.93173,2.85131 -6.69211,-17.03183 -2.7513,-19.88315 -11.75886,-21.46087 -11.75886,-21.46087"
   id="path68" />
<path
   class="st3"
   d="m 392.73908,315.30113 c 0,0 31.13603,-42.80769 51.20328,-49.03305"
   id="path70" />
<path
   class="st3"
   d="m 386.84603,323.02818 c 0,0 -5.79317,8.2403 -1.15319,29.7772 0,0 7.03716,-5.06583 7.04624,-18.05831 0,0 0.30873,-12.35568 23.61762,-32.95165 0,0 25.42457,-27.56267 47.51671,-29.77719 22.09214,-2.21452 26.31444,-6.33942 31.47199,1.90087 5.15756,8.24029 -1.56179,6.65306 -1.56179,6.65306"
   id="path72" />
<path
   class="st3"
   d="m 484.30387,254.5872 c 0,0 -0.29056,10.37878 -1.88868,14.85534"
   id="path74" />
<path
   class="st3"
   d="m 511.52633,339.83191 c -7.73633,-6.9572 -8.52632,-19.65504 -8.52632,-19.65504 6.13823,-30.10034 -1.89776,-33.57894 -9.22548,-41.18243 -3.43232,-3.56415 -15.509,0.87439 -27.36774,6.59603 -13.44778,6.49148 -26.62316,14.62722 -26.62316,14.62722 -33.16999,16.47108 -40.37967,34.21574 -40.37967,34.21574 -3.02372,12.35569 -13.7202,18.37195 -13.7202,18.37195 0,0 0.40861,29.46355 4.04069,40.55515 3.63209,11.0916 -2.12476,19.32239 6.04742,31.05078 8.17219,11.72839 7.56381,16.47108 7.56381,16.47108 0,0 1.5164,4.75218 4.24046,0 2.72406,-4.75219 12.42172,-77.29906 82.03057,-92.8292 0,0 -12.41264,-8.55393 -9.08928,-11.0916 3.33243,-2.53766 15.30015,-1.26408 16.27173,-0.31364 0.97158,0.95044 9.39801,12.87842 9.1256,23.7039 0,0 3.7138,9.25726 5.34824,6.71959"
   id="path76" />
<path
   class="st3"
   d="m 470.99229,283.45198 c 0,0 7.1098,5.36047 9.22549,5.33196 2.11569,-0.0285 7.56381,-4.72368 7.56381,-4.72368 18.16041,6.01627 -3.47772,14.5702 -3.47772,14.5702 -34.65914,0 -92.2004,42.51306 -89.73966,68.43148 2.46073,25.91841 -3.75921,31.11731 -3.75921,31.11731 0,0 17.42491,-78.16395 100.94464,-87.26914"
   id="path78" />
<path
   class="st3"
   d="m 489.60671,295.96924 c 0,0 4.79435,1.39714 2.39718,12.47924 -2.39718,11.0916 12.23103,4.81871 12.23103,4.81871"
   id="path80" />
<path
   class="st3"
   d="m 399.83072,430.85528 c 0,0 -4.7217,-46.23877 29.54699,-79.95077 34.2687,-33.71201 68.51923,-33.57894 67.54765,-15.84379"
   id="path82" />
<path
   class="st3"
   d="m 485.56602,311.72749 c 0,0 1.61628,5.91172 -1.25307,10.03662"
   id="path84" />
<path
   class="st3"
   d="m 402.5003,400.0326 c 0,0 3.52312,12.33668 6.87372,-3.18396 0,0 10.61476,-27.56268 54.49939,-52.58769 0,0 8.48999,-5.80717 16.64402,-7.28985"
   id="path86" />
<path
   class="st3"
   d="m 488.68053,335.48842 c 0,0 -4.86698,10.59737 2.64234,13.03049 1.07147,0.35166 2.39717,0.53224 4.02253,0.49423 0,0 0.93527,7.75556 -3.8954,13.80034 -1.10779,1.38764 -2.5243,2.68024 -4.32218,3.78274 -1.06239,0.6463 -11.71347,-2.88932 -46.53605,30.25242 0,0 -9.70675,19.00874 -8.19035,25.025 1.51639,6.01627 20.48494,-22.49685 28.70253,-27.56267 8.22667,-5.06583 21.03884,-19.82612 21.53824,-23.4853 0,0 -6.34706,19.3699 6.96452,10.02711 0,0 0.39045,-0.6558 0.88987,-1.74881 1.38927,-3.01288 3.65931,-9.38081 1.21674,-14.72227 0,0 0.90802,11.24367 9.68858,8.86758 0,0 7.41853,-3.32653 1.20766,11.0916 0,0 7.37314,8.55393 8.45368,3.80175"
   id="path88" />
<path
   class="st3"
   d="m 490.0698,379.97838 c 0,0 5.28469,3.40256 3.15991,11.79492 0,0 4.99412,4.59062 9.98823,8.24029 0,0 -3.15083,14.41813 7.58197,16.48058"
   id="path90" />
<path
   class="st3"
   d="m 491.56804,391.62123 c 0,0 -1.36203,6.81464 1.66167,11.56682 0,0 -6.05649,2.68974 -16.49873,2.68974 -10.44224,0 2.11569,19.32238 8.24483,11.40524 6.12914,-7.91714 13.69295,10.2077 -0.0726,13.57225 -13.77467,3.37405 -12.86665,15.67271 3.93172,12.13708"
   id="path92" />
<path
   class="st3"
   d="m 488.84398,437.24222 c -2.11569,-2.06246 6.6467,6.81463 6.20178,15.04541 0,0 -6.34706,2.85132 -8.61712,6.65306 -2.27005,3.80175 -11.35026,-0.47522 -12.41264,0 -1.06238,0.47522 -9.37985,12.66933 8.32655,12.04204 0,0 8.62619,2.68974 2.42441,-8.55393 0,0 1.80696,10.61638 10.28787,10.14116 8.48091,-0.47522 -6.20177,19.95918 -18.30569,15.84379 -12.10391,-4.1154 -13.1663,5.2274 -4.00437,13.78134 9.16193,8.55393 23.98082,-1.58723 23.07281,2.68973 -0.90803,4.27697 -15.89036,13.4677 -23.7629,13.4677 -7.87254,0 -4.54919,19.64553 10.06087,13.61976 14.61004,-6.01627 11.73162,-0.95044 12.34,-5.8642 0,0 -3.02372,2.53767 -6.51051,12.66933 0,0 -2.4335,7.44192 -5.82949,6.01627 -3.396,-1.42566 7.04624,11.56682 14.83705,2.68974 7.79081,-8.86758 12.33092,-5.70263 12.33092,-5.70263"
   id="path94" />
<path
   class="st3"
   d="m 487.96319,415.31563 c 0,0 -0.62653,-6.55801 8.98033,0 9.60685,6.55801 6.73751,4.81871 6.88279,18.43848 0,0 6.00202,7.00472 6.78292,3.18396"
   id="path96" />
<path
   class="st3"
   d="m 495.04576,452.28763 c 0,0 2.42441,9.3428 7.87253,4.27697 V 445.473 c 0,0 -0.35413,20.12075 7.69094,16.47108"
   id="path98" />
<path
   class="st3"
   d="m 510.3005,469.71865 c 0,0 -15.92668,11.71889 0,28.98833"
   id="path100" />
<path
   class="st3"
   d="m 509.81925,520.56704 c 0,0 -19.07751,5.91171 -19.94921,-9.47587"
   id="path102" />
<path
   class="st3"
   d="m 491.54988,325.29973 c 0,0 3.51404,-3.6972 11.82243,-2.27155"
   id="path104" />
<path
   class="st3"
   d="m 486.95529,566.57769 c 0,0 13.1663,-0.23761 11.12326,9.02915 -2.04305,9.26677 -14.07432,-2.61369 -18.61442,-2.13848 -4.54011,0.47522 1.36203,-27.32507 -7.71818,-30.8892 -9.08021,-3.56414 -6.35615,-24.47376 -13.62031,-29.46355 -7.26416,-4.9898 -15.20934,1.66326 -28.37564,-7.12828 -13.1663,-8.79155 -34.05985,5.2274 -44.61105,38.01748 0,0 -4.64907,45.14576 27.58567,55.36297 0,0 16.34437,34.21573 -7.03717,47.75946 0,0 -4.31309,-6.89067 -12.48528,-9.74198 -8.17218,-2.85131 -25.42457,10.45481 -19.74944,33.50291 0,0 -2.05213,22.33527 11.68622,31.83964 13.73835,9.50437 9.19825,45.14576 9.19825,45.14576"
   id="path106" />
<path
   class="st3"
   d="m 411.13558,585.34883 c 0,0 -28.82965,-13.78134 -12.25828,-52.27405 16.57138,-38.4927 56.07027,0.71284 57.6593,9.9796 1.58904,9.26676 0.90802,29.46355 0,30.8892"
   id="path108" />
<path
   class="st3"
   d="m 417.84585,629.09745 c 0,0 10.99613,23.25719 20.75735,30.14786 0,0 4.76711,9.26676 -2.27005,21.14723 0,0 5.90213,-16.15743 -9.08021,-14.01895 -14.98234,2.13848 -6.58314,28.75072 -7.03716,31.36442 -0.454,2.61371 -3.40507,19.72158 -5.44812,19.72158 -2.04304,0 7.32773,10.49282 6.04742,22.24023"
   id="path110" />
<path
   class="st3"
   d="m 387.07303,657.34444 c 0,0 12.48529,-2.61371 17.70641,10.69242 5.22112,13.30612 12.30367,22.12617 14.21052,21.40384"
   id="path112" />
<path
   class="st3"
   d="m 436.33315,680.39254 c 0,0 8.6262,3.56414 8.8532,12.35568 0.227,8.79155 13.84731,26.37463 36.09381,13.30612 22.24651,-13.06851 26.53236,-31.78262 6.68303,-48.91899 0,0 -4.41297,-11.90898 8.52632,-5.73114 0,0 4.5401,3.32652 6.35614,11.16763"
   id="path114" />
<path
   class="st3"
   d="m 506.25073,692.98583 c 0,0 2.72406,-8.2688 -5.67513,-12.81189"
   id="path116" />
<path
   class="st3"
   d="m 500.5756,596.99168 c 0,0 -9.98823,3.56414 -8.8532,-5.70262 1.13503,-9.26676 6.57407,2.13848 6.57407,2.13848 z"
   id="path118" />
<path
   class="st3"
   d="m 479.46413,573.46836 h -9.87927 l -1.02606,15.207 c 0,0 4.99411,1.90087 7.26416,-5.46502 2.27005,-7.36589 3.63208,2.13849 3.63208,3.32654 0,1.18804 9.98823,38.01748 15.66336,35.40378 5.67513,-2.61371 14.78257,2.186 0.98066,-11.40525 -13.80191,-13.59125 -8.13587,-4.75218 -8.13587,-4.75218"
   id="path120" />
<path
   class="st3"
   d="m 495.04576,520.18686 c 0,0 11.65898,5.28443 9.38893,-11.58583 -2.27005,-16.87026 5.38456,-12.8309 5.38456,-12.8309 0,0 -3.97713,-11.24367 -18.18765,-11.56682"
   id="path122" />
<ellipse
   style="fill:#0000ff;fill-opacity:0.0879121;stroke-width:1.59283;stroke-miterlimit:10"
   id="path131"
   cx="506.16684"
   cy="735.86584"
   rx="28.048975"
   ry="32.344917"
   name="肛门" /><rect
   name="背"
   y="116.78333"
   x="370.04764"
   height="476.42731"
   width="290.11325"
   id="rect68"
   style="fill:#0000ff;fill-opacity:0.0879121;stroke-width:1.52955;stroke-miterlimit:10" /><rect
   name="肩"
   y="130.78659"
   x="378.34692"
   height="110.54581"
   width="269.35809"
   id="rect70"
   style="fill:#0000ff;fill-opacity:0.0879121;stroke-width:1.7;stroke-miterlimit:10" /><rect
   name="腰"
   y="430.85529"
   x="399.83072"
   height="81.392227"
   width="226.07654"
   id="rect72"
   style="fill:#0000ff;fill-opacity:0.0879121;stroke-width:1.7;stroke-miterlimit:10" /><rect
   style="fill:#0000ff;fill-opacity:0.0879121;stroke-width:1.7;stroke-miterlimit:10"
   id="rect74"
   width="226.07654"
   height="81.392227"
   x="399.83072"
   y="430.85529"
   name="腰" /></svg>
