<?xml version="1.0" encoding="UTF-8" standalone="no"?>
<svg
   xmlns:dc="http://purl.org/dc/elements/1.1/"
   xmlns:cc="http://creativecommons.org/ns#"
   xmlns:rdf="http://www.w3.org/1999/02/22-rdf-syntax-ns#"
   xmlns:svg="http://www.w3.org/2000/svg"
   xmlns="http://www.w3.org/2000/svg"
   xmlns:sodipodi="http://sodipodi.sourceforge.net/DTD/sodipodi-0.dtd"
   xmlns:inkscape="http://www.inkscape.org/namespaces/inkscape"
   height="210mm"
   width="297mm"
   version="1.1"
   id="图层_1"
   x="0px"
   y="0px"
   viewBox="0 0 1122.5196 793.70079"
   xml:space="preserve"
   sodipodi:docname="shangzhi.svg"
   inkscape:version="1.0 (4035a4fb49, 2020-05-01)"><metadata
   id="metadata87"><rdf:RDF><cc:Work
       rdf:about=""><dc:format>image/svg+xml</dc:format><dc:type
         rdf:resource="http://purl.org/dc/dcmitype/StillImage" /><dc:title></dc:title></cc:Work></rdf:RDF></metadata><defs
   id="defs85" /><sodipodi:namedview
   units="mm"
   inkscape:document-rotation="0"
   pagecolor="#ffffff"
   bordercolor="#666666"
   borderopacity="1"
   objecttolerance="10"
   gridtolerance="10"
   guidetolerance="10"
   inkscape:pageopacity="0"
   inkscape:pageshadow="2"
   inkscape:window-width="1920"
   inkscape:window-height="986"
   id="namedview83"
   showgrid="false"
   inkscape:zoom="0.58952774"
   inkscape:cx="520.99642"
   inkscape:cy="457.86991"
   inkscape:window-x="1525"
   inkscape:window-y="-11"
   inkscape:window-maximized="1"
   inkscape:current-layer="图层_1" />
<style
   type="text/css"
   id="style2">
	.st0{fill:none;stroke:#000000;stroke-width:2;stroke-linecap:round;stroke-linejoin:round;stroke-miterlimit:10;}
</style>
<path
   class="st0"
   d="m 371.67,62.22 c 0,0 -8.67,5.33 -8,8 0.67,2.67 -9,9.33 -10.33,9.67 -1.33,0.33 -24.67,26 -31,72 -6.33,46 11,64.67 19.67,75.33 0,0 2.67,-0.67 0,11.33 -2.67,12 2,102 7.67,117.33 5.67,15.33 -19,41.33 -19,49.67 0,0 -11.33,23 -6,75.67 5.33,52.67 -11.5,87.17 -10.17,125 0,0 -7.83,14.67 -16.17,18.33 0,0 -9.67,7 -15.17,21 -5.5,14 -5.83,19.67 -15.67,43 -9.83,23.33 -7,23.33 -2.17,21.17 4.83,-2.16 15.67,2.33 25.17,-25.5 0,0 2.5,-14.33 10.83,-14.67 0,0 3,-1.5 2.83,13.5 -0.17,15 5.33,18.33 6.17,45.67 0.83,27.33 11.17,48.5 15.83,47.5 4.67,-1 6.5,-4.33 6.17,-20.17 -0.33,-15.83 -1.5,-42.17 -1.5,-42.17 0,0 1.5,60 4.83,63.5 3.33,3.5 12.17,5.83 13.67,-8 1.5,-13.83 -0.5,-63 -0.5,-63 0,0 -0.17,54.17 5.17,57 5.33,2.83 12.83,3.83 14.17,-14.17 1.33,-18 2.83,-52.5 2,-53.83 -0.83,-1.33 -4.67,1.33 -4.67,1.33 0,0 8.33,-4.5 9.17,-5.5 l -4.95,4.39 c 0,0 -0.39,46.95 1.95,52.95 2.33,6 8.5,2.17 10,-6.17 1.5,-8.33 6.83,-40.83 4.5,-96.83 0,0 -0.17,-13.33 -12.17,-36.33 0,0 0.33,-14.67 8.67,-38.33 8.33,-23.67 10.33,-36 28,-76.33 0,0 9.67,-50 10.67,-65.33 1,-15.33 4,-15 3.33,-28.33 -0.67,-13.33 -4.67,-50 -2,-65 2.67,-15 6,-83.33 6,-89 0,-5.67 -10.33,-19 -15.67,-32.67 -5.33,-13.67 -4,-16 -12.67,-19.33 0,0 6.67,-2.75 13.58,20.08 0,0 13.42,32.42 26.75,38.42"
   id="path4" />
<path
   class="st0"
   d="m 357.67,323.89 c 0,0 2,21.33 6,26.33"
   id="path6" />
<path
   class="st0"
   d="m 409.33,309.56 c 0,0 -3.33,37 -8.33,40.67 0,0 -0.67,2 -5.33,6.33"
   id="path8" />
<path
   class="st0"
   d="m 651,53.56 c 0,0 51,29.67 72.67,56 21.67,26.33 14,96.67 7.33,114.67 -6.67,18 -9.67,29.67 -15,81.67 -5.33,52 -5.33,70.67 6.33,90 11.67,19.33 14.67,65.33 13.33,79 0,0 1.33,49.67 -0.33,56 -1.67,6.33 6,38 6.33,49.33 0.33,11.33 -1,45 21,56.67 0,0 12,7 16.33,30.67 0,0 6.67,17.67 11.33,25.67 0.9,1.54 1.94,3.08 2.98,4.62 4.39,6.45 8.75,12.61 2.02,16.38 -8.1,4.54 -8.8,0.17 -10.56,-4.44 -0.05,-0.13 -0.1,-0.26 -0.15,-0.39 -1.88,-4.75 -3.75,-8.63 6.71,-10.71 0,0 1.79,-0.26 2.18,-0.12 0.39,0.14 4.06,6.06 4.21,6.61 0.15,0.55 2.32,4.86 -0.05,7 -2.36,2.14 -5.26,4.33 -8,3.84 -2.74,-0.49 -6.14,1.22 -13.68,-9.41 -7.54,-10.63 -11.88,-22.52 -17.63,-24.65 -5.75,-2.13 1.5,-5.94 2.5,-8.81 1,-2.87 -11.63,10.13 -13.25,45.88 -1.62,35.75 -6.88,37.5 -9.5,48.63 -2.62,11.13 -11,12.25 -14.38,7 0,0 -1.25,-0.13 0.38,-17.88 1.63,-17.75 2,-30.63 2.75,-39.38 0.75,-8.75 0.63,-17.63 0.63,-17.63 0,0 -3.13,71.5 -6.63,76.88 -3.5,5.38 -8.88,9.88 -13.88,2.13 0,0 -1.75,-10.88 -1.13,-27.25 0.62,-16.37 2.25,-47.38 2.25,-47.38 0,0 -2.13,67.88 -5.63,70 -3.5,2.12 -10.88,4.5 -12.25,-9.63 -1.37,-14.13 -3.63,-56.25 -2,-63.13 0,0 0.63,47.63 -4.25,51.75 -4.88,4.12 -13.88,1.38 -14.75,-28 -0.87,-29.38 3.08,-29.92 1.75,-61.92 0,0 1.67,-20.67 9.67,-32 8,-11.33 1.33,-25.67 -10.67,-70 0,0 -3.67,-15 -6,-28.67 -2.33,-13.67 -18,-34.33 -21,-47 -3,-12.67 -4.33,-57.67 -4,-79.67 0.33,-22 -6.67,-44 -6.33,-72.83 0.33,-28.83 5.67,-100.5 4,-108.5"
   id="path10" />
<path
   class="st0"
   d="m 656.67,390.89 c 0,0 -10,12.78 -1.33,30.05 8.67,17.28 10,19.28 8,67.61"
   id="path12" />
<path
   class="st0"
   d="m 697.67,435.22 c 0,0 6.67,12.67 6.33,23.67"
   id="path14" />
<path
   class="st0"
   d="m 784.46,681.05 c 0,0 -7.46,1.59 -9.21,6.09"
   id="path16" />
<path
   class="st0"
   d="m 782.72,676.9 c 0,0 -5.47,-0.01 -7.47,1.74"
   id="path18" />
<path
   class="st0"
   d="m 732.5,733.64 c 0,0 3.25,-0.5 4.75,0"
   id="path20" />
<path
   class="st0"
   d="m 732.5,738.14 c 0,0 3.75,-1 4.75,0"
   id="path22" />
<path
   class="st0"
   d="m 712,739.64 c 0,0 4.5,-0.5 5.75,0"
   id="path24" />
<path
   class="st0"
   d="m 712,735.14 c 0,0 4.75,-1.5 5.75,0"
   id="path26" />
<path
   class="st0"
   d="m 695.24,733.64 c 0,0 4.5,-0.5 5.75,0"
   id="path28" />
<path
   class="st0"
   d="m 695.24,729.14 c 0,0 4.75,-1.5 5.75,0"
   id="path30" />
<path
   class="st0"
   d="m 675.74,718.98 c 0,0 4.5,-0.5 5.75,0"
   id="path32" />
<path
   class="st0"
   d="m 675.74,714.48 c 0,0 4.75,-1.5 5.75,0"
   id="path34" />
<path
   class="st0"
   d="M 723.46,765.51"
   id="path36" />
<path
   class="st0"
   d="M 671.3,742.72"
   id="path38" />
<path
   class="st0"
   d="M 672.53,746.79"
   id="path40" />
<path
   class="st0"
   d="m 675.23,751.83 c 0,0 -0.9,-10.25 0,-10.5 0.9,-0.25 9.4,-0.5 10.21,0.44 0.81,0.94 -0.57,10.07 -0.57,10.07"
   id="path42" />
<path
   class="st0"
   d="m 734.88,774.62 c 0,0 2.96,-13.9 -6.71,-12.57 0,0 -4.67,0.33 -4.84,10.33"
   id="path44" />
<path
   class="st0"
   d="M 706.87,777.84"
   id="path46" />
<path
   class="st0"
   d="m 708.14,780.31 c 0,0 -1.45,-14.55 4.17,-14.8 5.63,-0.25 7.91,-0.79 7.74,12.32"
   id="path48" />
<path
   class="st0"
   d="m 692.47,772.65 c 0,0 -1.09,-12.07 3.22,-12.51 4.31,-0.44 8.97,-1.91 8.08,10.27"
   id="path50" />
<path
   class="st0"
   d="m 318.75,749.14 c 0,0 6.5,-2 8,0"
   id="path52" />
<path
   class="st0"
   d="m 338.25,749.14 c 0,0 4,-1.5 6,0"
   id="path54" />
<path
   class="st0"
   d="m 356.5,739.89 c 0,0 4.75,-1.5 6.75,0"
   id="path56" />
<line
   class="st0"
   x1="375.5"
   y1="724.14001"
   x2="378"
   y2="724.14001"
   id="line58" />
<path
   class="st0"
   d="m 375.5,708.14 c 0,0 3,-0.5 3.75,0"
   id="path60" />
<path
   class="st0"
   d="m 337,726.39 c 0,0 5.75,-2 7.25,0"
   id="path62" />
<path
   class="st0"
   d="m 356.5,720.39 c 0,0 2,-1.5 4.5,0"
   id="path64" />
<path
   class="st0"
   d="m 317.25,725.95 c 0,0 5,-1.56 8,0.44"
   id="path66" />
<path
   class="st0"
   d="m 266.47,691.03 c 0,0 5.28,-0.64 4.03,4.86 -1.25,5.5 -1.92,12.25 -1.92,12.25"
   id="path68" />
<path
   class="st0"
   d="m 325.25,707.92 c 0,0 7,-2.22 10.5,0"
   id="path70" />
<path
   class="st0"
   d="m 344.25,705.89 c 0,0 4.58,-1.5 6.54,0"
   id="path72" />
<path
   class="st0"
   d="m 306.33,668.06 c 0,0 2,-3.5 4,-3.17"
   id="path74" />
<path
   class="st0"
   d="m 316.5,668.06 c 0,0 14.83,-2.17 18.17,-4.83"
   id="path76" />
<path
   class="st0"
   d="m 305.5,691 c 0,0 2.17,-3.11 4.83,-1.95 2.67,1.17 4.67,-0.33 5.17,-1"
   id="path78" />
<path
   class="st0"
   d="m 305.5,695.45 c 0,0 1.83,1.94 5,1.27"
   id="path80" />
<path
   style="fill:none;stroke:#000000;stroke-width:1px;stroke-linecap:butt;stroke-linejoin:miter;stroke-opacity:1"
   d="m 311.75982,559.16576 c 18.84828,0 15.7069,2.09425 15.7069,2.09425 L 322.23108,626.18188 298.34,624.55 Z"
   id="path91"
   name="脉" /></svg>
