<?xml version="1.0" encoding="UTF-8" standalone="no"?>
<svg
   xmlns:dc="http://purl.org/dc/elements/1.1/"
   xmlns:cc="http://creativecommons.org/ns#"
   xmlns:rdf="http://www.w3.org/1999/02/22-rdf-syntax-ns#"
   xmlns:svg="http://www.w3.org/2000/svg"
   xmlns="http://www.w3.org/2000/svg"
   xmlns:sodipodi="http://sodipodi.sourceforge.net/DTD/sodipodi-0.dtd"
   xmlns:inkscape="http://www.inkscape.org/namespaces/inkscape"
   version="1.0"
   width="297mm"
   height="210mm"
   viewBox="0 0 1683.7794 1446.7784"
   preserveAspectRatio="xMidYMid meet"
   id="svg62"
   sodipodi:docname="touqianmian.svg"
   inkscape:version="1.0 (4035a4fb49, 2020-05-01)">
  <metadata
     id="metadata68">
    <rdf:RDF>
      <cc:Work
         rdf:about="">
        <dc:format>image/svg+xml</dc:format>
        <dc:type
           rdf:resource="http://purl.org/dc/dcmitype/StillImage" />
        <dc:title />
      </cc:Work>
    </rdf:RDF>
  </metadata>
  <defs
     id="defs66" />
  <sodipodi:namedview
     units="mm"
     inkscape:document-rotation="0"
     pagecolor="#ffffff"
     bordercolor="#666666"
     borderopacity="1"
     objecttolerance="10"
     gridtolerance="10"
     guidetolerance="10"
     inkscape:pageopacity="0"
     inkscape:pageshadow="2"
     inkscape:window-width="1920"
     inkscape:window-height="986"
     id="namedview64"
     showgrid="false"
     fit-margin-top="4"
     fit-margin-left="4"
     fit-margin-right="4"
     fit-margin-bottom="4"
     lock-margins="true"
     inkscape:zoom="1.0774545"
     inkscape:cx="534.23439"
     inkscape:cy="319.94833"
     inkscape:window-x="1525"
     inkscape:window-y="-11"
     inkscape:window-maximized="1"
     inkscape:current-layer="svg62" />
  <path
     style="fill:#000000;stroke:none;stroke-width:0.667862"
     id="path40"
     d="m 692.51548,18.882081 c -2.74339,5.202777 -13.03108,9.755209 -24.00467,9.755209 -36.34995,0 -89.84609,14.307641 -104.93474,28.615276 -7.54434,7.153826 -35.66411,22.762159 -62.41218,33.167714 -30.86316,13.00694 -47.32351,23.4125 -46.63767,29.26563 0.68585,5.20278 -10.28771,17.55937 -25.37638,27.96494 -61.04048,40.97188 -122.76679,129.41909 -137.85544,199.00626 -10.97356,49.4264 -4.80094,196.4049 9.60186,234.77536 10.28772,26.01388 10.28772,31.86699 0.68585,57.23059 -14.4028,42.27254 -9.60186,139.17429 9.60187,174.94342 15.08865,27.31458 44.58012,53.97881 59.66878,53.97881 4.11509,0 13.71696,18.20974 19.88958,40.32154 26.06224,87.79686 92.58949,183.39797 158.43092,226.32087 44.58012,29.2656 122.7668,51.3774 188.60824,53.9788 9.60186,0.6504 39.09331,-5.8532 65.15562,-13.007 122.76687,-36.4194 227.01618,-130.7198 253.76458,-230.22289 25.3767,-94.95071 21.9474,-88.44726 42.5231,-85.84582 30.8636,3.90208 62.4131,-19.51044 82.9888,-61.78302 15.0888,-31.21665 17.8323,-45.52432 17.8323,-92.34933 -0.6859,-56.58018 -9.602,-84.54518 -26.7484,-84.54518 -12.3455,0 -12.3455,0 0,-24.06279 24.0049,-44.87397 30.8636,-221.76843 10.9736,-270.54448 -6.8585,-16.90902 -6.1727,-18.20972 5.4869,-14.30764 30.8636,9.10487 18.5182,-13.65729 -34.9787,-64.38437 -31.5494,-29.26563 -68.5857,-70.88786 -83.6746,-91.04862 -19.204,-27.31459 -39.7797,-46.17466 -76.816,-68.936814 C 935.30578,50.749098 899.64175,38.3925 822.82671,28.63729 791.96357,24.735204 756.98528,18.882081 743.95416,15.630346 711.71926,6.5254811 696.63062,7.8261761 692.51548,18.882081 Z M 807.05221,38.3925 c 83.67345,11.706252 108.36403,18.860066 150.20072,40.971872 51.43867,27.964938 82.30227,54.629168 111.79417,95.601058 15.7748,21.46146 47.3242,56.5802 71.3292,77.39132 24.005,21.46147 41.1515,40.32154 37.7221,42.27257 -10.2878,6.50348 -13.0312,22.76215 -7.5444,42.92293 12.3454,39.02083 14.403,93.65002 6.8586,165.18821 -6.8586,59.83192 -12.3454,81.29339 -29.4919,115.11148 -14.403,27.96493 -25.3766,41.62219 -33.607,41.62219 -6.1728,0 -13.7172,3.90207 -15.0889,7.8042 -2.0575,4.55243 -4.1151,-20.81111 -4.1151,-56.58024 -0.6859,-50.07669 -3.4293,-68.93676 -13.0313,-81.94375 -6.1727,-9.75518 -26.7484,-37.72011 -44.5807,-63.73402 -24.6909,-34.46842 -32.9212,-51.37744 -32.2353,-66.98578 3.4292,-53.32847 1.3717,-57.88091 -18.51798,-53.32847 -10.9736,2.60138 -26.06223,11.70625 -34.29239,21.46146 -8.23016,9.10487 -15.08869,13.00695 -15.7745,8.45451 0,-5.85313 -4.80096,-7.15381 -13.03112,-4.55242 -7.54434,1.95103 -15.08869,0.65034 -17.83208,-3.25174 -2.0575,-3.25175 -12.34523,-6.50348 -21.94715,-6.50348 -10.28766,0 -24.00466,-4.55243 -30.86313,-11.0559 -10.28773,-8.45451 -15.77452,-9.10487 -29.49151,-3.25174 -10.28774,4.55244 -18.5179,5.20277 -20.57542,1.30069 -6.85846,-11.05589 -34.97828,-7.15382 -54.86788,7.15383 -15.0887,11.70625 -19.88959,13.00695 -24.69055,5.20278 -5.48678,-7.15382 -9.60186,-5.85313 -23.31887,9.10485 -11.65942,12.35661 -17.1462,14.95799 -17.1462,8.45452 0,-14.30765 -6.17266,-13.00694 -19.88959,3.90209 l -12.34526,14.30764 -4.80094,-24.7132 c -3.42924,-18.20972 -7.54433,-23.41251 -15.77451,-20.81111 -5.48678,1.95103 -19.20374,-1.3007 -30.86316,-7.15383 -19.8896,-11.70625 -20.57544,-11.70625 -34.2924,4.55243 -11.65942,14.30764 -14.40281,14.958 -19.8896,5.20279 -4.80092,-8.45452 -13.71695,-10.40555 -41.15087,-7.80417 -41.83674,3.25174 -47.32352,5.85313 -47.32352,24.06284 0,16.25868 -40.46505,99.50314 -61.72633,128.76876 -10.97357,14.30763 -15.08866,33.16772 -18.5179,89.09756 l -4.11509,71.53827 -15.7745,-17.55939 c -19.88959,-22.11182 -29.49147,-13.65732 -10.28772,9.75517 10.28772,12.35663 14.40281,26.66424 14.40281,48.77605 0,29.26562 7.54432,40.32156 16.46035,26.66425 2.05754,-3.25175 6.85848,-52.02779 10.97357,-107.95764 6.85848,-87.14655 9.60187,-105.35628 22.63298,-122.91567 8.23018,-11.70624 26.06223,-43.57325 39.09335,-70.23748 20.57544,-42.27258 27.43392,-50.72709 51.4386,-59.83195 26.74807,-11.05591 27.43392,-11.05591 39.09335,3.25172 12.34526,14.958 13.0311,14.958 22.63297,2.6014 5.48679,-7.15383 10.28773,-14.95799 10.28773,-18.20972 0,-19.51042 56.23953,20.16076 64.46971,45.5243 5.48679,15.60834 14.40281,18.86006 21.26129,7.15383 2.7434,-3.9021 9.60187,-5.20279 15.08863,-3.25173 5.48683,1.95104 16.4604,-3.9021 26.06225,-14.30766 9.60192,-9.7552 17.14621,-13.65728 17.14621,-9.7552 0,14.30763 15.77451,9.10487 39.77925,-13.00694 l 22.63298,-20.81112 13.71695,15.60834 c 13.03112,14.95798 13.717,14.95798 26.74812,3.90207 12.34525,-10.40554 15.08864,-11.05589 26.06219,-1.95104 10.97361,9.75521 44.58014,18.20972 72.01411,18.86007 6.1726,0 11.65943,2.6014 11.65943,6.50349 0,11.70624 19.20371,5.20276 30.17732,-10.40557 6.17259,-9.10485 16.46031,-16.25868 23.31878,-16.25868 9.60192,0 10.97354,5.20278 9.60192,31.21667 -2.05758,27.3146 0.68581,35.11874 25.37662,69.58716 15.7747,21.46144 35.6645,47.47535 43.8949,57.23055 13.7171,16.90903 15.0888,27.31462 17.1463,106.00662 1.3718,48.1257 5.487,87.14656 8.2303,87.14656 3.4293,0 8.9163,-7.8042 12.3455,-18.20973 4.1151,-9.75519 7.5444,-13.65732 7.5444,-9.75519 1.3717,17.55933 20.5758,7.15381 28.1202,-14.30772 5.4869,-14.95796 12.3454,-22.7621 20.5757,-22.7621 13.7172,0 20.5757,17.55939 19.8899,52.02777 l -0.6859,22.76216 -6.8586,-18.20974 c -7.5444,-20.16077 -22.6332,-24.06285 -17.1463,-4.55242 2.0575,7.15385 0.6858,13.00697 -2.7435,13.00697 -3.4293,0 -6.1728,7.1538 -6.1728,15.6083 0,22.76216 -10.9736,46.82501 -23.3191,51.37743 -8.9161,3.25173 -10.2879,-1.30069 -8.9161,-26.66424 0.6858,-16.90899 -1.3718,-31.86699 -5.4869,-33.81803 -6.8586,-3.25172 -8.9161,9.10484 -13.0313,71.53821 -2.7434,50.72708 -2.7434,52.02777 -13.7171,52.02777 -6.8586,0 -14.403,19.51037 -24.691,63.08371 -18.5181,78.69201 -43.209,119.66389 -104.24953,174.29309 -118.6517,106.6569 -270.22424,122.2653 -398.47782,40.9718 -59.66878,-38.3704 -117.96587,-126.16735 -147.45734,-221.7684 -10.28772,-33.81805 -14.40281,-39.67121 -35.6641,-47.47537 -28.11976,-11.05588 -48.69519,-35.11872 -29.49146,-35.11872 12.34527,0 36.34995,-18.20974 36.34995,-27.31457 0,-8.45456 -20.57544,-5.85311 -20.57544,2.60137 0,5.20278 -4.80093,3.25174 -10.28773,-3.90208 -13.0311,-16.25869 -13.0311,-51.37748 0,-84.54516 10.28773,-27.31458 6.85849,-40.32156 -14.40281,-56.5802 -10.97356,-8.4545 -11.65941,-7.8042 -6.85847,3.90207 11.65942,27.31458 11.65942,35.11879 2.05754,62.4333 l -10.28772,27.96494 -4.80093,-27.31453 c -6.17263,-35.76913 1.37169,-78.04166 15.7745,-85.19552 9.60187,-5.20276 10.28771,-8.45449 2.7434,-20.16078 -28.11977,-42.92294 -38.40748,-196.40486 -18.5179,-269.8941 6.17263,-20.81112 19.20374,-52.67813 29.49145,-70.88785 21.94715,-39.02085 82.30179,-102.10452 115.22249,-121.61495 14.4028,-8.45451 22.63298,-17.55937 20.57543,-22.76216 -2.05754,-5.85312 14.40281,-14.95798 54.182,-29.265622 39.77919,-14.307636 56.23954,-23.412504 53.49615,-29.265627 -2.05755,-5.202777 -2.7434,-9.104858 -1.3717,-9.75521 1.3717,0 37.0358,-5.853123 78.18668,-12.356597 41.83675,-5.85313 75.4433,-11.706253 76.12917,-12.356599 0,0 32.2349,3.902087 72.0141,9.104865 z m 371.73209,730.34001 c -2.0576,7.8042 -8.2303,14.3076 -14.403,14.3076 -5.4868,0 -13.7171,4.55241 -18.5181,11.05594 -4.801,5.85311 -11.6597,8.45449 -15.7748,6.50345 -7.5443,-5.20276 22.6333,-39.02081 39.7798,-44.87391 13.7171,-4.55247 13.7171,-3.90214 8.9161,13.00692 z m -856.62675,20.81112 4.80093,16.2587 -10.28772,-16.2587 c -6.17263,-9.10491 -10.28771,-20.81112 -10.28771,-26.01395 0,-8.4545 0.68584,-8.4545 5.48678,0 3.42924,5.20283 8.23017,16.90904 10.28772,26.01395 z m 840.85195,18.86002 c -10.2878,18.20979 -41.1513,39.67121 -56.9261,39.67121 -13.0312,0 -13.0312,-0.65035 -2.7434,-11.70623 6.8586,-6.50351 11.6596,-15.60835 11.6596,-20.81112 0,-6.50346 2.0575,-6.50346 10.9737,0 8.9161,7.15381 13.0313,6.50345 25.3768,-5.20277 17.8322,-17.55939 21.2615,-18.20973 11.6594,-1.95109 z" />
  <path
     style="fill:#000000;stroke:none;stroke-width:0.667862"
     id="path42"
     d="m 478.5309,521.60051 c -12.34526,9.75523 -21.94713,18.86006 -21.94713,20.81111 0,1.95108 40.46503,3.25178 89.16025,3.25178 74.75743,0 89.16024,-1.3007 87.78854,-9.75525 -2.74339,-11.05588 -41.15088,-22.11178 -94.64703,-28.61527 -34.2924,-3.25173 -39.77919,-2.60139 -60.35463,14.30763 z" />
  <path
     style="fill:#000000;stroke:none;stroke-width:0.667862"
     id="path44"
     d="m 850.94648,515.74739 c -64.46974,24.71318 -59.66884,33.16774 19.20377,32.51739 34.2924,0 74.75744,1.30068 89.16025,3.90207 15.7745,3.25173 25.37641,1.95104 25.37641,-1.95104 0,-14.958 -67.89902,-48.12571 -95.33289,-46.17466 -6.17266,0.65034 -23.31885,5.20279 -38.40754,11.70624 z" />
  <path
     style="fill:#000000;stroke:none;stroke-width:0.667862"
     id="path46"
     d="m 516.9384,592.48834 c -25.37638,9.75525 -37.72165,26.6643 -13.71697,18.86009 7.54433,-2.60138 6.17263,0 -3.42924,6.50351 -21.94714,14.95795 -19.88959,22.76217 6.85848,22.11176 11.65943,0 47.32352,1.3007 78.87253,1.95109 39.09334,1.95104 56.23955,0 56.23955,-5.20282 0,-11.05588 -34.97827,-40.3215 -56.9254,-48.12563 -25.37638,-9.10491 -37.03579,-8.45456 -67.89895,3.902 z m 28.80562,24.71326 c 0,5.20277 -2.7434,9.75519 -6.85849,9.75519 -3.42924,0 -6.85848,-4.55242 -6.85848,-9.75519 0,-5.20282 3.42924,-9.75525 6.85848,-9.75525 4.11509,0 6.85849,4.55243 6.85849,9.75525 z m 61.72631,3.25166 c 0,3.25179 -4.80093,6.50353 -10.97356,6.50353 -5.48678,0 -8.23018,-3.25174 -6.17263,-6.50353 2.05754,-3.902 6.85848,-6.50339 10.97356,-6.50339 3.42924,0 6.17263,2.60139 6.17263,6.50339 z" />
  <path
     style="fill:#000000;stroke:none;stroke-width:0.667862"
     id="path48"
     d="m 848.88897,592.48834 c -19.88959,9.10491 -56.23958,44.87403 -56.23958,55.27957 0,1.95103 28.80564,1.95103 63.78392,0.65035 34.29235,-1.95104 73.38575,-3.90208 85.73099,-4.55243 20.57546,-0.65035 32.9207,-16.90904 13.71693,-16.90904 -6.85846,0 -6.85846,-1.3007 0,-5.85312 13.03113,-7.1538 -4.11508,-18.86008 -43.89424,-30.5663 -39.09335,-11.05594 -35.66415,-11.05594 -63.09802,1.95097 z m -2.05757,40.32155 c -10.28768,3.25179 -15.0887,-3.90207 -9.60187,-12.35663 4.11508,-5.8531 6.85847,-5.8531 10.97357,0.65041 3.42926,5.20277 2.74338,9.75518 -1.3717,11.70622 z m 69.27067,-9.10484 c -4.80096,5.20277 -10.97355,9.7552 -14.40282,9.7552 -3.42925,0 -6.17259,-4.55243 -6.17259,-9.7552 0,-5.85311 6.17259,-9.75518 14.40275,-9.75518 12.34531,0 13.03113,1.30069 6.17266,9.75518 z" />
  <g
     id="g136"
     name="鼻"
     onClick="{this.clickGroup.bind(this, 1)}"
     transform="matrix(4.6041859,0,0,4.3053768,303.58837,-32.256088)">
    <path
       d="m 78.960919,163.23452 c -0.893771,8.76118 -1.936504,11.48016 -7.746016,20.09028 -7.894978,11.6312 -8.937711,19.33499 -3.426123,23.26241 3.724046,2.71899 7.150169,3.17215 7.150169,1.05739 0,-0.75528 -1.63858,-1.81266 -3.724046,-2.26582 -3.575085,-0.90633 -4.617818,-3.62531 -3.724046,-9.96961 0.148961,-1.20844 2.830275,-6.04219 5.958474,-10.72488 5.809512,-8.45906 8.788749,-17.52234 8.937711,-26.73668 0,-8.91222 -2.532352,-4.9848 -3.426123,5.28691 z"
       id="path50"
       style="fill:#000000;stroke:none;stroke-width:0.150005" />
    <path
       d="m 103.2417,187.10116 c 0,0.30211 1.63858,3.17215 3.72405,6.19324 5.36262,8.0059 2.83027,14.95442 -4.91574,13.74598 -1.78755,-0.45317 -3.724051,0 -4.170936,0.60422 -1.191695,2.11476 10.427326,1.6616 12.512796,-0.45317 2.83027,-2.87004 2.08547,-10.42277 -1.48962,-15.86074 -2.97924,-4.38058 -5.66055,-6.34429 -5.66055,-4.22953 z"
       id="path52"
       style="fill:#000000;stroke:none;stroke-width:0.150005" />
    <path
       d="m 71.512826,200.99819 c -1.936504,1.96371 -1.042732,3.17215 1.787543,2.41688 1.63858,-0.45317 4.170931,0.60422 5.958474,2.41687 3.575084,3.62531 10.874215,4.22953 13.555528,0.90633 1.042733,-1.20844 3.724046,-2.26582 6.107436,-2.26582 2.383393,0 4.319893,-0.75527 4.319893,-1.51055 0,-2.26582 -8.341863,-1.81265 -10.278367,0.60422 -3.128199,3.77637 -7.448093,3.92742 -11.619024,0 -3.724047,-3.47426 -7.894978,-4.68269 -9.831483,-2.56793 z"
       id="path54"
       style="fill:#000000;stroke:none;stroke-width:0.150005" />
  </g>
  <path
     style="fill:#000000;stroke:none;stroke-width:0.667862"
     id="path56"
     d="m 606.09864,937.17245 c -37.03579,3.25173 -41.83673,13.00692 -17.83205,33.81803 16.46035,14.95802 72.01405,37.06982 78.18671,31.21672 2.74338,-1.9511 -7.54436,-8.45455 -21.94717,-14.30766 -15.08866,-5.20277 -30.86316,-15.60835 -34.97825,-22.11182 -7.54433,-11.05587 -5.48679,-13.00697 17.83206,-18.86008 17.14619,-3.90208 30.86315,-3.90208 38.40747,0 6.17265,3.90213 28.11982,4.55242 48.00942,1.95105 35.66411,-3.90208 92.5895,5.85316 92.5895,16.25869 0,4.55242 -28.11977,18.86009 -54.86782,27.96492 -5.48683,1.95104 -0.68588,3.90208 10.97354,3.90208 24.69051,0.65035 85.04523,-28.61527 85.04523,-41.62218 0,-11.70629 -88.4745,-21.46147 -148.82915,-16.25871 -6.85847,0.65035 -23.31886,0 -36.34992,-1.95104 -13.03114,-1.30069 -38.40752,-1.30069 -56.23957,0 z" />
  <path
     style="fill:#000000;stroke:none;stroke-width:0.667862"
     id="path58"
     d="m 634.90426,963.83668 c 0,9.7552 26.0622,14.30762 87.10274,14.30762 32.23489,0 58.29707,-3.25174 60.35464,-7.15382 3.42928,-4.5524 -14.4028,-5.8531 -56.23956,-4.5524 -32.92073,0.65033 -67.21314,-0.65036 -75.44331,-3.90208 -8.91602,-2.6014 -15.77451,-1.95104 -15.77451,1.30068 z" />
  <path
     style="fill:none;stroke:#000000;stroke-width:7.69064px;stroke-linecap:butt;stroke-linejoin:miter;stroke-opacity:1"
     d="m 671.39964,614.01763 -4.58133,57.12801 -44.99352,90.45107 c 0,0 -22.53403,8.10875 -22.53403,60.00464 0,51.89601 0,51.89601 0,51.89601 l 54.08165,16.21742 103.65655,-1.6217 64.5975,-24.32626 c 0,0 18.02724,16.21753 0,-37.30022 -18.0272,-53.51766 -18.0272,-53.51766 -18.0272,-53.51766 l -30.04537,-53.51765 -16.52493,-87.57444 v -16.21746 z"
     id="path176"
     name="鼻" />
  <g
     id="g2183"
     name="耳"
     transform="matrix(4.6041859,0,0,4.3053768,303.58837,-32.256088)">
    <path
       id="path2167"
       d="m 172.80689,162.47925 7.54049,-11.16702 9.61887,-0.36996 5.54934,9.24892 v 11.83861 l -1.47983,17.01799 c 0,0 5.54936,-2.95965 -2.95965,5.54936 -8.50901,8.50901 -8.50901,8.50901 -8.50901,8.50901 l -12.94848,4.80943 -4.80943,-16.27809 4.06953,-29.22657 z"
       style="display:none;fill:none;stroke:#000000;stroke-width:1.82283px;stroke-linecap:butt;stroke-linejoin:miter;stroke-opacity:1"
       name="耳" />
    <path
       id="path2179"
       d="m -1.3012988,149.46245 8.5090009,-0.73992 8.1064059,7.02918 2.22476,22.19739 0.734892,17.68896 -1.467273,10.33787 c 0,0 -15.1185448,15.96804 -22.8695195,-7.95301 l -4.8496045,-15.4943 1.4722939,-20.85761 z"
       style="fill:none;stroke:#000000;stroke-width:1.82283px;stroke-linecap:butt;stroke-linejoin:miter;stroke-opacity:1"
       name="耳"
       sodipodi:nodetypes="ccccccsccc" />
  </g>
  <path
     style="fill:none;stroke:#000000;stroke-width:8.11574px;stroke-linecap:butt;stroke-linejoin:miter;stroke-opacity:1"
     d="m 809.9586,518.53331 54.47548,-25.47 61.28498,-3.18374 27.23774,12.735 39.15426,31.83751 3.40473,30.24571 -209.39022,-9.55131 z"
     id="path2185"
     name="眉" />
  <path
     style="fill:none;stroke:#000000;stroke-width:8.11574px;stroke-linecap:butt;stroke-linejoin:miter;stroke-opacity:1"
     d="m 486.51031,493.06331 h 44.26134 l 62.98728,6.36752 56.17786,30.24568 -15.32124,28.65376 h -195.7713 l 11.91651,-35.0213 z"
     id="path2187"
     name="眉" />
  <path
     style="fill:none;stroke:#000000;stroke-width:7.46014px;stroke-linecap:butt;stroke-linejoin:miter;stroke-opacity:1"
     d="m 673.76979,920.29097 h 95.33215 l 102.01478,1.69179 -13.43922,43.08434 -48.16289,43.3056 c 0,0 -135.68138,42.7375 -203.77574,-7.0303 -68.09438,-49.76789 -42.62241,-86.43171 -42.62241,-86.43171 z"
     id="path2189"
     name="口"
     sodipodi:nodetypes="cccccscc" />
  <path
     style="fill:none;stroke:#000000;stroke-width:8.11574px;stroke-linecap:butt;stroke-linejoin:miter;stroke-opacity:1"
     d="m 784.42322,625.1891 39.15428,-36.61318 52.77312,-17.51061 62.98728,17.51061 44.26136,39.79697 -22.13071,28.65369 -158.31942,7.95941 -37.45186,-7.95941 z"
     id="path2191"
     name="目" />
  <path
     id="path60"
     d="m 477.53625,1074.4989 -6.2784,110.2659 -41.85672,73.5103 -58.59921,97.139 -150.68376,39.3807 -2.09285,-7.8762"
     style="fill:none;stroke:#000000;stroke-width:14.7843px;stroke-linecap:butt;stroke-linejoin:miter;stroke-opacity:1" />
  <path
     id="path62"
     d="m 981.90851,1066.6229 10.46421,136.5193 66.97138,123.3927 106.7358,36.7553 48.1358,23.6284"
     style="fill:none;stroke:#000000;stroke-width:14.7843px;stroke-linecap:butt;stroke-linejoin:miter;stroke-opacity:1" />
  <g
     inkscape:groupmode="layer"
     id="layer1"
     inkscape:label="附加" />
  <path
     style="fill:none;stroke:#000000;stroke-width:1.82283px;stroke-linecap:butt;stroke-linejoin:miter;stroke-opacity:1"
     d="m 468.45782,619.19487 45.67832,-43.98652 h 81.20587 l 38.91115,25.37684 20.30149,45.67832 -13.53432,10.15073 h -159.0282 z"
     id="path51"
     name="目" />
  <rect
     style="fill:#0000ff;fill-opacity:0.0879121;stroke-width:4.01827;stroke-miterlimit:10"
     id="rect53"
     width="554.90686"
     height="126.88419"
     x="438.00565"
     y="351.89218"
     name="额" />
  <rect
     style="fill:#0000ff;fill-opacity:0.0879121;stroke-width:3.0988;stroke-miterlimit:10"
     id="rect55"
     width="81.205894"
     height="74.438721"
     x="668.08893"
     y="864.50427"
     name="人中" />
  <path
     sodipodi:nodetypes="cccccccc"
     name="颊"
     id="path37"
     d="m 410.93696,751.1544 40.34087,11.84253 35.78966,108.27451 47.37009,145.49386 -45.67832,18.6097 -60.90441,-99.81557 -21.99326,-77.8223 z"
     style="fill:none;stroke:#000000;stroke-width:1.82283px;stroke-linecap:butt;stroke-linejoin:miter;stroke-opacity:1" />
  <path
     style="fill:none;stroke:#000000;stroke-width:1.82283px;stroke-linecap:butt;stroke-linejoin:miter;stroke-opacity:1"
     d="m 1060.499,760.78682 -48.8002,11.84252 -35.79,94.7402 -47.37007,145.49406 45.6783,18.6099 60.90487,-99.81597 21.9935,-77.8223 z"
     id="path37-7"
     name="颊"
     sodipodi:nodetypes="cccccccc" />
  <path
     name="面"
     id="path67"
     d="m 586.88304,749.46262 -42.29474,-20.30147 -52.44545,21.99327 -21.99327,49.06188 16.9179,71.05513 25.37684,40.60295 47.3701,-15.2261 21.99325,-37.21935 1.69179,-50.75369 z"
     style="fill:none;stroke:#000000;stroke-width:1.82283px;stroke-linecap:butt;stroke-linejoin:miter;stroke-opacity:1" />
  <path
     name="面"
     style="fill:none;stroke:#000000;stroke-width:1.82283px;stroke-linecap:butt;stroke-linejoin:miter;stroke-opacity:1"
     d="m 843.44438,751.53956 42.29474,-20.30147 52.44545,21.99327 21.99327,49.06188 -16.9179,71.05513 -25.37684,40.60295 -47.3701,-15.2261 -21.99325,-37.21935 -1.69179,-50.75369 z"
     id="path67-6" />
  <path
     name="颈"
     id="path84"
     d="m 480.30031,1094.5876 -9.04247,90.1772 -100.45594,170.6493 795.278,7.8761 -106.7358,-36.7553 -66.9714,-123.3927 -6.22741,-118.7053 -87.97298,69.3634 -152.26105,47.3701 h -52.44547 l -126.88418,-45.6783 z"
     style="fill:none;stroke:#000000;stroke-width:1.82283px;stroke-linecap:butt;stroke-linejoin:miter;stroke-opacity:1" />
  <path
     style="fill:none;stroke:#000000;stroke-width:1.82283px;stroke-linecap:butt;stroke-linejoin:miter;stroke-opacity:1"
     d="m 566.58161,1155.4921 -1.6918,86.2812 h 334.97428 l -1.69178,-87.973 -65.97979,23.685 -86.28126,23.6851 H 693.4658 l -72.74694,-23.6851 z"
     id="path49"
     name="颔" />
  <path
     name="下巴"
     id="path86"
     d="m 495.52643,1103.9848 74.43873,-14.7329 131.95954,11.0497 131.95956,-8.5943 108.27451,19.644 -77.8223,42.9712 -121.80881,28.2382 -143.8021,-23.3273 z"
     style="fill:none;stroke:#000000;stroke-width:1.55285px;stroke-linecap:butt;stroke-linejoin:miter;stroke-opacity:1" />
  <path
     name="头发"
     id="path88"
     d="M 317.88855,603.96875 290.81993,485.54351 295.8953,345.125 348.34077,248.69302 v 0 l 3.38357,3.38357 99.81557,-109.9663 111.65808,-72.746932 86.28126,-33.835785 65.97977,-6.767157 91.59317,9.632083 101.2708,12.361177 94.74021,42.294731 86.2812,89.664823 60.9045,81.20589 40.6029,89.66483 v 155.64459 l -18.6097,93.04841 -37.2194,67.67158 -35.112,23.34369 -17.3334,-119.77567 -0.4989,-44.76222 -70.5563,-102.42344 -10.1507,-49.06189 -527.83824,-3.38358 -79.51409,135.34312 -15.2261,209.78187 z"
     style="fill:none;stroke:#000000;stroke-width:1.82283px;stroke-linecap:butt;stroke-linejoin:miter;stroke-opacity:1" />
  <circle
     style="fill:#f9f9f9;fill-opacity:0;stroke-width:3.0988;stroke-miterlimit:10"
     id="path930"
     cx="1560.5078"
     cy="264.76501"
     rx="78.668198"
     ry="80.359985" />
  <ellipse
     name="颐"
     ry="32.048672"
     rx="28.665091"
     cy="1039.4539"
     cx="883.25305"
     id="path865"
     style="fill:#ffff00;fill-opacity:0;stroke:#000000;stroke-width:1.59766;stroke-miterlimit:10;stroke-opacity:1" />
  <ellipse
     name="颐"
     style="fill:#ffff00;fill-opacity:0;stroke:#000000;stroke-width:1.59766;stroke-miterlimit:10;stroke-opacity:1"
     id="path865-0"
     cx="554.67804"
     cy="1037.9954"
     rx="28.665091"
     ry="32.048672" />
</svg>
