<?xml version="1.0" encoding="UTF-8" standalone="no"?>
<svg
   xmlns:dc="http://purl.org/dc/elements/1.1/"
   xmlns:cc="http://creativecommons.org/ns#"
   xmlns:rdf="http://www.w3.org/1999/02/22-rdf-syntax-ns#"
   xmlns:svg="http://www.w3.org/2000/svg"
   xmlns="http://www.w3.org/2000/svg"
   xmlns:sodipodi="http://sodipodi.sourceforge.net/DTD/sodipodi-0.dtd"
   xmlns:inkscape="http://www.inkscape.org/namespaces/inkscape"
   version="1.0"
   width="297mm"
   height="210mm"
   viewBox="0 0 1683.7796 1446.7786"
   preserveAspectRatio="xMidYMid meet"
   id="svg36"
   sodipodi:docname="zhengti.svg"
   inkscape:version="1.0 (4035a4fb49, 2020-05-01)">
  <metadata
     id="metadata42">
    <rdf:RDF>
      <cc:Work
         rdf:about="">
        <dc:format>image/svg+xml</dc:format>
        <dc:type
           rdf:resource="http://purl.org/dc/dcmitype/StillImage" />
        <dc:title></dc:title>
      </cc:Work>
    </rdf:RDF>
  </metadata>
  <defs
     id="defs40" />
  <sodipodi:namedview
     inkscape:document-rotation="0"
     pagecolor="#ffffff"
     bordercolor="#666666"
     borderopacity="1"
     objecttolerance="10"
     gridtolerance="10"
     guidetolerance="10"
     inkscape:pageopacity="0"
     inkscape:pageshadow="2"
     inkscape:window-width="1920"
     inkscape:window-height="986"
     id="namedview38"
     showgrid="false"
     inkscape:zoom="0.41855267"
     inkscape:cx="232.45683"
     inkscape:cy="635.90264"
     inkscape:window-x="1525"
     inkscape:window-y="-11"
     inkscape:window-maximized="1"
     inkscape:current-layer="svg36"
     units="mm"
     fit-margin-top="0"
     fit-margin-left="0"
     fit-margin-right="0"
     fit-margin-bottom="0" />
  <path
     style="fill:#000000;stroke:none;stroke-width:0.340793"
     id="path24"
     d="m 726.30195,25.439215 c -11.61378,5.280113 -26.04298,14.850321 -32.37775,20.790449 -9.50217,9.570207 -11.26184,14.520314 -13.37343,35.310761 -1.40773,12.87027 -3.87124,24.750535 -5.63091,25.740555 -1.75965,0.99002 -3.16738,5.94013 -3.16738,10.89024 0,11.88026 9.8541,43.23093 13.72533,43.23093 1.75969,0 7.39059,8.25018 12.66957,18.4804 11.26183,21.45047 10.20602,33.66073 -4.92705,52.80113 -8.44637,11.22026 -14.78115,14.85031 -46.45504,25.74057 -87.98297,30.36065 -90.09456,31.35066 -101.35638,47.85101 -15.13308,22.1105 -28.50648,62.04134 -28.50648,85.14184 0,20.79046 -10.20602,99.66219 -19.35624,149.49327 -4.57513,23.43047 -5.63091,46.20097 -4.57513,90.75194 l 1.05583,59.7313 -16.5408,22.7705 c -13.02149,18.15041 -17.5966,28.71066 -22.1717,48.84102 -2.81546,14.1903 -4.57514,27.06062 -3.51933,29.04064 4.22318,5.94019 10.55795,2.64011 18.30046,-9.57018 l 7.74251,-12.21029 0.35191,31.68069 c 0,24.09053 1.40773,33.00075 5.27898,35.97077 7.74251,5.94019 15.83692,-1.31999 16.18886,-14.52028 0.35194,-10.56026 1.05579,-8.91022 4.5751,11.22021 3.16741,17.1604 7.39056,22.11051 14.07729,16.83035 3.16739,-2.64005 5.63092,-7.59009 5.98283,-11.55019 0,-6.60015 0.35194,-6.60015 3.51934,0.66003 4.57509,11.22021 11.2618,7.26011 15.83691,-9.57025 2.46352,-8.91021 4.57511,-12.54027 5.98284,-9.57017 1.75967,4.29001 2.81546,3.96003 7.7425,-1.65004 8.44637,-9.24019 5.63092,-78.87174 -3.87125,-100.65213 -10.20602,-23.1006 -8.44636,-63.69148 3.87125,-100.65225 5.63092,-17.82039 10.20603,-39.27086 10.90989,-53.79119 1.40773,-33.33071 7.03864,-58.08124 18.65238,-84.81183 5.6309,-12.87029 11.26181,-31.35068 12.31761,-41.25089 3.51933,-27.7206 7.74252,-30.03064 10.55796,-5.61011 1.0558,11.88024 4.22319,28.05061 7.03865,35.97075 2.46352,7.92018 8.09443,35.64077 12.66956,61.05134 l 8.44635,46.861 -14.78114,40.59089 c -21.11592,59.73128 -23.22751,74.58161 -20.76399,162.36348 2.46352,85.80194 5.98285,108.57241 26.74684,177.21387 l 14.42921,48.18105 -10.55796,40.9209 c -5.98285,22.4405 -11.61378,52.8012 -12.66956,67.3215 -2.11159,28.3806 2.11159,47.191 28.50651,126.3927 10.20602,30.6907 12.31762,42.5709 12.31762,66.3314 0,31.6807 -1.75966,35.6407 -34.13742,72.9316 -8.44637,9.2402 -15.13307,19.1404 -15.13307,21.7805 0,7.9202 13.02148,11.2202 44.34344,11.2202 29.91421,0 30.97003,-0.33 45.39922,-11.5504 19.00434,-14.5202 20.06013,-19.4703 19.70821,-116.1623 -0.35195,-53.1312 1.05578,-79.5318 4.92705,-96.6921 6.33476,-28.0507 6.6867,-58.4113 1.40771,-105.6023 -3.51931,-29.7007 -3.51931,-36.9608 1.40774,-52.1412 4.92706,-14.5203 4.92706,-21.7804 1.75966,-44.88098 -3.1674,-23.76048 -2.46353,-31.68062 3.87124,-63.36131 6.68673,-31.35071 14.07729,-97.68211 14.42923,-129.03281 0,-11.22022 8.44636,-16.50038 20.76399,-12.54027 5.98283,1.65003 7.03862,6.60015 8.7983,40.5909 1.40774,21.12043 5.63093,57.09121 9.8541,79.86168 4.57509,24.75056 8.09442,59.73132 8.79829,87.4519 0.35195,25.41059 1.40773,55.77129 1.75965,67.65149 0,11.8803 -0.70386,39.9309 -2.46352,62.7014 -2.11159,33.0007 -1.40771,46.531 3.16741,67.6514 4.22318,20.1305 5.63088,43.891 5.63088,99.0022 -0.3519,96.6921 0.35194,100.9821 19.35626,115.5023 14.42924,11.2204 15.48504,11.5504 46.45506,11.5504 49.97434,0 53.84557,-7.2601 22.17172,-40.9209 -25.33914,-27.3905 -28.15462,-33.6607 -28.15462,-66.0014 0,-24.0906 2.46358,-34.9808 17.24471,-80.1918 29.91417,-90.7519 30.6181,-103.6222 10.90991,-178.8638 l -10.55796,-40.5908 15.83694,-53.46126 c 20.41208,-69.30149 22.87553,-85.14184 25.33905,-172.59374 2.46353,-86.46188 -0.35188,-107.58233 -20.76395,-162.3635 -10.20604,-27.39061 -13.72536,-40.92089 -12.31759,-49.50108 8.79829,-57.42124 14.07726,-84.81182 18.30046,-96.36208 3.16731,-7.59015 6.33476,-24.09053 7.74247,-36.63081 2.46353,-25.74054 6.68673,-24.0905 10.20607,3.9601 1.05583,9.90021 6.68674,28.3806 12.31764,41.25089 11.6137,26.73059 17.2446,51.48112 18.65239,84.81183 0.7039,14.52033 5.2789,35.9708 10.90988,53.79119 12.31758,36.63077 14.07728,77.55165 4.22319,99.99215 -4.22319,9.57024 -6.68678,27.72065 -8.09448,54.45116 -1.75969,34.65078 -1.40779,41.25093 3.87129,46.86107 4.5751,5.61007 5.9828,5.94005 7.74249,1.65004 1.4077,-2.9701 3.5193,0.65996 5.98279,9.57017 4.22329,16.17033 11.96568,21.45049 15.13317,10.23021 2.11148,-6.93013 2.46348,-6.60015 6.68658,2.97009 2.4637,5.61014 5.9829,10.2302 8.0945,10.2302 4.2232,0 10.9099,-18.15034 11.2618,-32.67069 l 0.704,-11.88031 2.1115,12.87032 c 2.4636,14.85033 12.6695,23.10052 17.9485,15.18031 1.7597,-2.64004 3.5193,-19.14042 3.5193,-36.30075 l 0.352,-31.35071 7.7425,12.21029 c 4.2231,6.93013 10.558,12.54027 14.0772,12.54027 7.3907,0 7.3907,-0.66003 0.352,-32.34071 -4.2231,-19.80038 -8.7984,-30.36063 -21.8198,-48.51104 l -16.5408,-22.7705 1.0559,-61.38134 c 1.0557,-46.531 0,-68.31147 -4.2232,-89.76194 -7.7426,-38.61084 -19.7082,-129.3628 -19.7082,-149.82326 0,-21.78044 -11.61378,-57.42123 -25.69115,-80.1917 -12.66957,-19.80043 -15.83688,-21.45047 -93.61391,-48.18104 -41.87986,-14.52034 -48.21465,-17.82038 -56.66105,-28.71062 -15.13306,-19.47042 -16.54078,-33.00072 -4.57506,-54.12118 5.27891,-9.90021 10.90985,-17.82038 12.31761,-17.82038 3.51932,0 13.37342,-32.01069 13.37342,-43.23093 0,-4.95011 -1.40776,-9.90022 -3.16742,-10.89024 -1.75965,-1.32003 -4.22317,-12.870285 -5.63094,-26.40057 -2.46351,-22.440481 -3.51932,-25.410545 -15.48497,-35.970775 -18.30047,-16.830362 -40.8241,-26.400567 -63.34775,-28.050605 -16.1889,-0.660015 -23.57948,0.660012 -40.82413,8.580185 z m 96.42939,61.051322 c 5.98284,14.190303 10.90985,28.710613 10.90985,32.010683 0,10.89024 5.98289,10.23022 8.4464,-0.66001 1.4077,-6.60015 3.51932,-9.2402 5.27898,-7.26016 5.27897,4.6201 -4.22324,37.62082 -15.13308,52.14113 -4.92709,6.93015 -9.15026,14.52031 -9.15026,16.83036 0,2.31005 -8.7983,12.54028 -19.70818,22.7705 l -19.70819,18.4804 -19.35625,-1.32004 c -15.83695,-1.32004 -22.17173,-3.96008 -35.19321,-13.86031 -9.15024,-6.93014 -18.6524,-16.83035 -21.81977,-22.11046 -3.16741,-5.28012 -9.50218,-15.18033 -14.0773,-21.78047 -9.15024,-12.87028 -18.6524,-45.87099 -15.13308,-51.48111 1.05579,-1.65004 3.87126,3.30007 6.33478,11.55024 3.87125,13.20029 4.22319,13.53029 4.57512,4.95011 0.70387,-18.15039 4.22318,-23.1005 23.93137,-35.640766 14.78114,-8.910194 23.57944,-12.210269 34.13743,-12.210269 20.76395,-0.330007 43.99149,-5.940124 54.19753,-13.530289 4.92704,-3.30007 9.1502,-5.940127 9.50213,-5.61012 0.70389,0.660015 5.98285,12.540273 11.96573,26.730581 z M 765.36638,224.10352 c 20.76401,0 23.57947,-0.99004 36.60094,-11.88027 12.66955,-10.89023 14.07728,-11.22024 14.07728,-4.95011 0,7.26014 9.8541,26.73057 18.6524,37.62083 2.81547,2.97004 15.83693,9.24016 29.21036,13.86028 79.1847,26.07058 101.00452,35.64077 110.15471,47.52101 17.59657,23.10053 25.33915,46.531 28.50653,86.13188 1.7597,20.79045 8.0944,69.96151 14.4292,108.90235 9.8541,64.02136 10.558,76.56166 9.1503,127.05274 -1.7597,61.71135 -1.0559,64.68139 22.1716,94.71209 9.5022,11.88024 24.6353,60.06123 20.4122,64.02134 -1.0559,0.66009 -7.0388,-6.2701 -13.7254,-15.84028 l -11.9658,-17.49045 -1.0558,40.26092 c -0.3519,22.4405 -2.1116,40.59084 -3.5193,40.59084 -1.4077,0 -4.5751,-9.90023 -6.6866,-21.78047 -6.6868,-35.64079 -11.2619,-33.99068 -14.0773,5.28016 -2.1116,28.38062 -8.0944,39.93081 -8.0944,15.5103 0,-21.12044 -3.8713,-45.21097 -7.3906,-45.21097 -1.7597,0 -3.16738,4.29009 -3.16738,9.57025 0,16.5003 -4.22329,39.9308 -7.39068,39.9308 -1.7596,0 -3.1673,-11.88024 -3.1673,-26.07055 0,-14.52028 -1.4077,-27.06055 -3.1674,-28.05063 -3.51938,-1.98002 -7.39049,8.58024 -7.39049,20.1305 0,3.96003 -1.75979,8.25011 -4.22328,9.57017 -2.8155,1.65004 -3.5193,-8.58016 -1.7597,-40.5909 1.40779,-34.32066 3.5193,-46.53095 9.85409,-60.06123 6.33487,-14.52039 7.39067,-20.1305 5.27908,-40.26093 -1.4078,-12.8703 -7.39068,-38.61081 -13.02157,-57.75124 -5.63089,-18.81041 -10.20608,-41.58091 -10.20608,-50.1611 -0.3519,-26.73058 -7.03859,-60.72132 -15.48491,-78.5417 -4.57517,-9.5702 -9.50213,-22.11046 -10.55796,-28.05061 -12.31771,-60.39129 -19.00435,-71.61152 -24.28338,-40.59086 -1.40771,8.9102 -4.92697,26.40057 -7.74247,39.27084 -2.81549,12.54028 -9.15024,44.88097 -14.42922,71.94158 l -9.15019,48.51104 12.66958,33.99071 c 23.93133,64.02138 24.63518,69.63151 24.28329,145.86316 -0.35196,83.82185 -6.6868,129.69284 -25.69106,192.06414 -7.74249,25.08061 -14.07728,50.16114 -14.07728,56.10125 0,5.6101 4.92702,28.7107 10.55796,51.1511 16.89275,65.0114 15.13307,83.8218 -16.1889,175.8939 -14.07727,40.5908 -19.35624,84.8118 -12.3176,104.2821 2.11161,6.6002 11.96565,20.4606 21.81976,31.3507 18.30046,19.8005 26.74686,33.0008 23.57949,35.9707 -0.70385,0.9902 -15.13309,2.3101 -32.02583,2.9702 -28.85847,1.32 -30.97002,0.9901 -43.99155,-8.2502 -17.94848,-12.5403 -19.35622,-20.7905 -19.00427,-111.2123 0.35191,-50.4911 -1.05584,-77.2217 -4.57514,-93.7221 -5.98283,-26.7306 -6.68669,-75.5717 -1.75968,-114.1825 3.16741,-22.1104 2.81547,-31.3507 -1.4077,-46.201 -3.51931,-13.5303 -4.22318,-26.7306 -2.81545,-45.21099 2.81545,-29.37062 1.40772,-44.22088 -9.50217,-101.64221 -4.22322,-22.77047 -7.39056,-53.46108 -7.39056,-72.93155 v -33.66077 l -11.26186,-5.28002 c -10.206,-4.29016 -12.3176,-4.29016 -21.11591,0.32998 -9.8541,5.28009 -9.8541,5.61007 -9.8541,38.94086 0,21.12044 -3.51933,51.81112 -9.15023,82.50172 -6.6867,37.62088 -8.7983,58.08129 -8.09443,88.44192 0.35193,23.43056 -0.70387,45.54106 -3.51932,54.12116 -3.1674,10.5603 -3.1674,20.7905 -0.35195,38.9409 4.92705,34.9807 4.2232,89.1019 -1.75966,115.8325 -3.5193,16.5004 -4.92704,43.231 -4.57512,93.7221 0.35195,90.4218 -1.05578,99.3321 -18.65239,111.5423 -13.02147,8.5802 -15.48501,9.2402 -42.23184,7.9202 -29.21035,-1.32 -34.84127,-2.6401 -34.84127,-7.9202 0,-1.3199 8.7983,-12.8703 19.70819,-25.4105 29.56229,-33.6608 30.61809,-36.6308 28.50651,-73.2616 -1.40774,-26.0705 -4.92706,-41.2509 -20.06014,-86.1319 -24.98718,-73.5916 -26.3949,-96.6921 -10.55796,-156.7533 13.02149,-50.4911 13.02149,-58.08131 -4.22317,-112.20249 -18.30048,-57.42125 -24.28332,-103.62229 -24.63525,-187.11403 -0.35195,-77.55171 2.81545,-96.03212 26.04296,-152.79335 l 10.9099,-26.40058 -9.15024,-49.50104 c -5.27898,-27.06061 -11.96569,-60.06131 -14.78114,-72.60159 -2.46353,-12.87027 -6.33478,-30.36064 -7.7425,-39.27084 -1.40774,-8.91019 -4.57512,-16.83038 -6.68671,-17.49039 -3.87126,-1.32 -15.48501,37.95081 -15.48501,51.81112 0,3.96008 -4.57511,17.16036 -10.55796,29.70066 -10.55794,22.77049 -17.24464,54.78119 -17.59658,83.49181 0,8.58016 -4.57512,31.68066 -10.55795,51.15111 -5.63091,19.47039 -11.26182,45.87097 -12.66955,58.41124 -2.1116,20.13046 -1.05579,25.41055 5.27898,37.62079 6.68671,11.88031 8.09443,21.45048 9.50216,60.72133 1.40772,33.6607 1.05579,45.54101 -1.75966,41.91096 -2.11159,-2.64012 -3.87126,-8.25026 -3.87126,-12.21029 0,-9.24019 -3.51931,-17.49038 -7.39056,-17.49038 -1.75966,0 -3.16739,11.88031 -3.16739,26.4006 0,14.52028 -1.40772,26.40052 -3.16738,26.40052 -3.16739,0 -7.39056,-23.4305 -7.39056,-39.9308 0,-5.28016 -1.40774,-9.57025 -3.1674,-9.57025 -1.75964,0 -4.57511,13.2003 -5.98283,29.70067 -1.05579,16.17033 -3.51933,29.04058 -4.92705,28.05064 -1.40774,-0.99008 -3.16737,-13.53028 -4.22319,-28.05064 -2.46352,-38.94086 -7.74248,-40.92095 -14.42919,-5.28016 -2.11158,11.88024 -5.27899,21.78047 -6.68672,21.78047 -1.40772,0 -3.16737,-18.15034 -3.5193,-40.59084 l -1.0558,-40.26092 -11.96567,17.49045 c -6.68671,9.57018 -12.66955,16.50037 -13.72533,15.84028 -0.70388,-0.99001 1.05578,-12.5402 4.22316,-26.07055 4.22319,-17.1604 9.85408,-30.36063 19.00432,-42.24094 20.76396,-28.38059 21.11591,-29.04062 19.35623,-90.42194 -1.40771,-50.49108 -0.35191,-63.36135 9.50217,-127.05274 5.98283,-38.94084 12.31761,-87.45189 14.07729,-107.25231 3.16736,-38.61085 10.55794,-62.37135 26.39487,-84.81182 10.90989,-15.51034 16.89272,-18.15042 106.9873,-48.51107 16.18887,-5.61009 31.67389,-12.54027 34.13742,-15.84032 9.85407,-11.55026 19.00432,-30.69068 19.00432,-38.94085 0,-8.9102 0,-8.9102 16.18888,4.62009 15.485,12.87027 17.59661,13.53031 38.7125,13.53031 z" />
  <path
     style="fill:#000000;stroke:none;stroke-width:0.340793"
     id="path26"
     d="m 746.01013,425.07784 c -6.33479,14.1903 -8.7983,16.17037 -20.41206,18.15042 -24.63525,4.29007 -40.12026,8.91019 -38.36057,11.55022 1.40772,1.98004 29.9142,-2.64003 50.32626,-8.25018 5.98284,-1.32001 22.8756,-33.66073 19.00432,-35.64077 -1.75965,-0.99 -6.33476,5.28012 -10.55795,14.19031 z" />
  <path
     style="fill:#000000;stroke:none;stroke-width:0.340793"
     id="path28"
     d="m 782.96301,419.46772 c 8.44636,26.73058 9.8541,27.72059 36.60091,33.66073 29.56231,6.27013 31.67386,6.27013 31.67386,2.31006 0,-1.65005 -5.98282,-3.9601 -13.0214,-4.95013 -35.19328,-5.94009 -39.06452,-7.92016 -46.45507,-23.43051 -7.39056,-15.51034 -13.02149,-20.13042 -8.7983,-7.59015 z" />
  <path
     style="fill:#000000;stroke:none;stroke-width:0.340793"
     id="path30"
     d="m 991.30674,507.90962 c -9.50218,2.64006 -16.89277,6.27014 -16.89277,7.59015 0,3.63011 19.70826,-0.32998 31.32203,-5.9401 13.0215,-6.27013 3.8713,-7.26017 -14.42926,-1.65005 z" />
  <path
     style="fill:#000000;stroke:none;stroke-width:0.340793"
     id="path32"
     d="m 523.94109,513.51973 c 0,3.6301 15.48498,10.89024 22.87555,10.89024 8.09443,0 5.98284,-5.61012 -2.46352,-7.59017 -4.57511,-0.66 -10.90989,-2.64004 -14.07729,-3.96005 -3.51932,-1.32003 -6.33474,-0.99003 -6.33474,0.65998 z" />
</svg>
