<?xml version="1.0" encoding="utf-8"?>
<!-- Generator: Adobe Illustrator 23.0.2, SVG Export Plug-In . SVG Version: 6.00 Build 0)  -->
<svg version="1.1" id="图层_1" xmlns="http://www.w3.org/2000/svg" xmlns:xlink="http://www.w3.org/1999/xlink" x="0px" y="0px"
	 viewBox="0 0 595.28 841.89" style="enable-background:new 0 0 595.28 841.89;" xml:space="preserve">
<style type="text/css">
	.st0{fill:none;stroke:#231815;stroke-width:3;}
	.st1{fill:none;stroke:#000000;stroke-width:3;stroke-linecap:round;stroke-linejoin:round;stroke-miterlimit:10;}
	.st2{fill:none;stroke:#000000;stroke-width:3;stroke-miterlimit:10;}
	.st3{fill:none;}
	.st4{fill:#050101;}
</style>
<path class="st0" d="M132.75,704.57c0,0,11.24-74.74-1.04-137.08c-1.53-7.75-3.42-15.31-5.74-22.52c-1.23-3.82-2.59-7.54-4.07-11.14
	l-14.21-37.23c0,0,11.09,23.32,2.52,26.27s-11.12,6.7-30.95-8.34c0,0-9.52-5.7-13.21-26.92c0,0-9.87-8.69-16.95-49.73
	s-7.54-39.78-8.01-54.27s21.66-41.72,35.98-24.43c0,0,8.45,5.98,15.59,10.25c0,0-14.69-5.53-16.27-23.49
	C74.8,328,63.63,291.84,71.29,242.57c0,0,7.52-77.03,93.44-119.33c0,0,86.19-57.31,236.29-18.14s135.26,168.47,135.26,168.47
	s-8.18,71.8-12.32,83.19c-4.13,11.39-15.2,9.5-15.93,10.02s-7.74,8.25-7.94,25.27c0,0,0.2,2.37-1.37,4.17c0,0,1.51-19.06,7.79-28.68
	c0,0,1.43-1.26,3.26-1.16c0,0,10.01,0.99,17.44-11.79c7.43-12.78,22.2-8.53,27.27-2.76c0,0,5.2,3.35,8.37,16.09
	c3.16,12.74,2.77,8.16,2.66,12.75s-0.64,3.36-1.21,21.8c0,0-2.57,13.51-3.78,25.05c0,0-8.13,29.69-21.73,47.48
	c-13.6,17.78-23.11,47.23-47.02,46.63c0,0-4.44,1.5-7.71-5.24c-0.23-0.47-0.45-0.99-0.67-1.55c-0.88-2.28-1.64-5.29-2.14-9.26
	c-0.01-0.44-0.15-1.68-0.75-2.81s-1.66-2.12-3.54-2.06c0,0,7.03-5.52,4.99,24.23c-2.04,29.75-32.25,72.83-40.38,84.35
	c-8.13,11.52-32.37,43.32-71.18,57.58c0,0-16.93,10.3-24.98,16.57c0,0-7.02,7.23-26.41,3.35c0,0-13.57-1.81-43.22,1.65
	c0,0-6.9,3.22-36.51-15.33c0,0-34.86-18.38-48.57-24.69c0,0-44.4-42.59-56.75-76.46l-2.46-6.58"/>
<path class="st0" d="M464.44,705.11c0,0-7.26-86.82,5.31-137.49l5.58-17.03"/>
<path class="st0" d="M114.95,380.98c0,0,0.96-22.04-0.97-29.98s4.36-30.16,14.19-45.82c0,0,10.21-35.01,6.02-51.22
	c-4.19-16.21-0.01-41.69,11.09-49.05c11.1-7.36,16.8-16.88,59.54-15.26s47,9.49,80.03,10.09c33.04,0.6,68.93-3.23,76.53-5.48
	c7.6-2.25,24.18-15.46,86.64-2.13c0,0,17.84,5.09,20.15,35.37s0.72,63.68,2.27,70.3c1.55,6.62,16.4,22.48,18.3,29.76
	c1.9,7.28,2.46,34.94-1.45,58.41c-3.91,23.47-1.47,16.39-1.47,16.39"/>
<path class="st1" d="M235.36,582.45c0,0,45.15-3.71,48.97-1.58c3.82,2.13,19.74,7.12,34.47-1.61c0,0,2.44-1.94,18.8,1.34
	c9.99,2,18.07-0.43,22.84-2.63c3.05-1.4,4.75-2.71,4.75-2.71s2.45-1.7,2.87-0.09c0.43,1.61,0.08,2.5,0.08,2.5s-3.89-4.13-10.57-5.91
	c-6.69-1.78-15.44-5.75-30.44-13.27c0,0-13.09-6.58-21.36,0.69c0,0-6.37,4.21-13.03-0.83c0,0-5.18-5.59-19.41,3
	c-14.23,8.59-25.24,16.07-33.11,16.45l-2.16,2.95c0,0,12.16,4.8,13.31,5.64s9.44,5.82,10.83,8.03s7.42,9.14,18.81,11.09
	c0,0,25.36-4.82,41.58-2.22c0,0,7.29-0.92,16.03-9.02c8.74-8.1,7.44-5.99,10.38-7.84c0,0,11.23-6.55,12.54-8.53
	c1.31-1.98,2.61-2.59,2.61-2.59"/>
<g>
	<path class="st1" d="M57.21,369.17c0,0,5.66-0.09,12.3,3.49c5.75,3.09,12.24,8.93,16.47,19.93c0,0,10.37,11.34-2.45,37.77"/>
	<path class="st1" d="M90.72,430.12c0,0,5.78,9.48-5.54,20.52c0,0-8.53,10.28,4.3,17.2c0,0,13.29,0.57,6.7,13.46"/>
	<path class="st1" d="M63.68,378.64c0,0,2.59-6.15,5.83-5.97"/>
	<path class="st1" d="M77.31,378.58c0,0,1.21,8.08-3.63,12.12c0,0-2.93,5.1-2.74,7.22"/>
	<path class="st1" d="M89.05,399.16c0,0-3.58-4.01-6.23,3.04c-2.65,7.04-6.54,16.18-7.61,19.09c-1.06,2.91-1.49,5.3-1.49,5.3"/>
	<path class="st1" d="M55.34,414.67c0,0,1.15,25.85,21.82,66.7c0,0,1.6,7.33,15.04,15.15"/>
	<path class="st1" d="M80.41,472.48c0,0,2.55,10.92,12.03,10.95"/>
</g>
<g>
	<path class="st1" d="M547.78,365.99c0,0-5.61-0.7-12.61,2.12c-6.05,2.45-13.15,7.54-18.55,18.01c0,0-11.55,10.14-1.69,37.81"/>
	<path class="st1" d="M507.81,422.92c0,0-6.78,8.8,3.26,21c0,0,7.35,11.15-6.15,16.63c0,0-13.27-0.88-8.13,12.64"/>
	<path class="st1" d="M540.31,374.69c0,0-1.9-6.4-5.14-6.57"/>
	<path class="st1" d="M526.78,373.14c0,0-2.09,7.9,2.29,12.44c0,0,2.36,5.39,1.94,7.47"/>
	<path class="st1" d="M512.85,392.32c0,0,3.99-3.59,5.86,3.7c1.86,7.29,4.74,16.79,5.47,19.8s0.9,5.43,0.9,5.43"/>
	<path class="st1" d="M544.67,411.43c0,0-3.97,25.57-28.98,63.92c0,0-2.39,7.11-16.6,13.41"/>
	<path class="st1" d="M513.43,466.14c0,0-3.73,10.58-13.16,9.57"/>
</g>
<path class="st1" d="M256.21,469.21c0,0-26.65,42.13,12,46.14c-0.31-1.74,2.92-2.6-1.43-5.46c0,0,9.72-8.82,26.1,2.66
	s38.3-6.74,38.3-6.74s6.13-3.7,11.79,1.12c0,0-5.01-0.09-1.62,4.05c3.39,4.14,15.8,1.24,16.64-3.79s9.87-27.33-7.83-41.02"/>
<path class="st1" d="M161.92,392.22c0,0,0.85,0.05,2.32,0.18c0.23,0.02,0.47,0.04,0.72,0.06c6.16,0.55,20.48,2.17,31.68,6.06
	c14.67,5.11,43.82,1.42,53.17-3.39s12.19-1.98,13.23-0.91c0,0,5.59-12.71-32.1-17.99c-37.69-5.29-60.16,14.67-62.28,15.52
	s-5.25,0.69-5.25,0.69s16.57-2.68,30.12-8.87c13.56-6.19,46.36-5,65.67,8.01l3.73,2.22"/>
<path class="st2" d="M217.2,381.84c0,0-11.39,8.71,0.55,16.99c0,0,13.42,2.48,21.69-2.2c0,0,2.48-5.75,1.13-11.38
	c0,0-17.8-6.51-22.46-3.44c-4.65,3.07-3.09,10.19-3.09,10.19s2.97,7.28,10.52,5.04c0.92-0.27,1.65-0.68,2.23-1.18
	c4.2-3.64,0.22-12.43-2-12.96c-2.52-0.61-6.66-1.1-7.77,3.38c-0.09,0.38-0.19,0.75-0.28,1.09c-0.96,3.73-1.56,5.53,0.57,6.15
	c2.34,0.67,3.59,2.82,5.8,1.44c2.21-1.38,2.67-2.59,3-4.04c0.33-1.45-0.76-4.23-1.67-5.2c-0.91-0.97-1.5-1.89-3.6-1.13
	c-2.1,0.76-2.09,1.19-2.63,1.84c-0.54,0.64-1.51,5.55-0.04,6.57c1.47,1.02,3.69,2.07,4.31,1.74c0.61-0.33,2.86-1.34,3.28-1.54
	c0.42-0.2-1.81-13.01-8.83-3.84c-7.02,9.17,10.74,7.22,6.98-2.6c0,0,3.59-4.93,9.31-2.05s4.01,0.37,5,3.78
	c0.99,3.41-0.81,5.84-1.97,6.75c-1.16,0.91-1.94,1.97-5.31,2.15c-3.37,0.19-5.73-1.24-5.92-1.42c-0.19-0.18,3.26-9.49,3.26-9.49
	l4.03-1.19c0,0,1.82,0.32,3.69,1.94c1.87,1.63-0.04,6.57-0.83,7.28c-0.79,0.71-5.99,0.44-6.36,0.52s4.56-4.09,2.43-8.02
	c-2.13-3.93-1.12,3.91-1.12,3.91"/>
<path class="st1" d="M261.96,399.53c0,0-7.67,18.08-15.26,23.27"/>
<line class="st1" x1="251.03" y1="424.94" x2="245.16" y2="431.8"/>
<path class="st1" d="M266.81,371.57c0,0-3.23-7.15-11.94-13.37"/>
<path class="st1" d="M446.94,384.8c0,0-0.84,0.11-2.31,0.32c-0.22,0.03-0.46,0.07-0.72,0.11c-6.12,0.95-20.3,3.48-31.22,8.1
	c-14.31,6.05-43.64,4.24-53.28,0.05s-12.29-1.19-13.26-0.05c0,0-6.4-12.32,30.87-20.03c37.27-7.71,60.98,10.75,63.15,11.47
	c2.17,0.71,5.28,0.35,5.28,0.35s-16.71-1.61-30.64-6.91c-13.93-5.3-46.59-2-65.01,12.23l-3.58,2.46"/>
<path class="st2" d="M391.11,378.02c0,0,11.93,7.95,0.55,16.99c0,0-13.23,3.35-21.79-0.8c0,0-2.85-5.58-1.87-11.28
	c0,0,17.35-7.65,22.19-4.89c4.84,2.76,3.74,9.97,3.74,9.97s-2.49,7.46-10.18,5.71c-0.93-0.21-1.69-0.57-2.3-1.03
	c-4.42-3.37-1.02-12.39,1.16-13.06c2.48-0.77,6.58-1.53,7.97,2.87c0.12,0.37,0.24,0.73,0.35,1.07c1.2,3.66,1.92,5.42-0.18,6.17
	c-2.29,0.82-3.4,3.05-5.69,1.81c-2.29-1.24-2.83-2.41-3.25-3.83c-0.42-1.42,0.49-4.27,1.33-5.3c0.84-1.03,1.37-1.98,3.52-1.36
	c2.15,0.62,2.16,1.06,2.74,1.66c0.58,0.61,1.86,5.44,0.46,6.55c-1.4,1.11-3.55,2.3-4.19,2.01s-2.94-1.16-3.37-1.33
	s0.97-13.1,8.56-4.4c7.6,8.7-10.25,7.9-7.14-2.15c0,0-3.9-4.69-9.43-1.45c-5.52,3.24-3.98,0.63-4.75,4.09
	c-0.76,3.46,1.19,5.78,2.4,6.61s2.06,1.84,5.44,1.81c3.38-0.03,5.64-1.6,5.82-1.8s-3.86-9.26-3.86-9.26l-4.09-0.93
	c0,0-1.8,0.43-3.56,2.18c-1.76,1.75,0.46,6.55,1.3,7.21s6,0.06,6.38,0.11s-4.81-3.78-2.94-7.85s1.37,3.83,1.37,3.83"/>
<path class="st1" d="M347.58,398.56c0,0,8.82,17.55,16.73,22.24"/>
<line class="st1" x1="360.13" y1="423.21" x2="366.43" y2="429.68"/>
<path class="st1" d="M340.93,370.97c0,0,2.76-7.34,11.05-14.11"/>
<path class="st3" d="M282.25,377.32c-1.55-1.45-3.37-19.15-17.48-30.2"/>
<path class="st4" d="M198.02,314.53c8.53-1.7,16.25,4.41,25.07,6.04c9.67,1.78,20.5,1.03,28.21,9.68c1.43,1.56,5.75,0.39,8.92,0.69
	c5.22,0.54,11.07,1.07,10.94,8.01c-0.13,6.95-5.54,9.08-11.22,9.26c-5.1,0.06-10.17-0.77-14.98-2.45c-17.46-6.07-35.29-3-52.73-1.59
	c-7.28,0.59-15.01,4.93-22.68,7.23c-4.89,1.85-10.39,0.96-14.45-2.34c-5.81-4.8-4.82-11.37,2.46-13.43
	c5.48-1.61,10.34-4.87,13.89-9.35C178.04,318.51,187.83,314.18,198.02,314.53z"/>
<path class="st4" d="M391.08,313.06c2.72,0.34,5.48,0.25,8.18-0.26c12.67-7.13,23.11-0.75,33.62,5.14c3.33,2,6.77,3.79,10.32,5.36
	c4.89,1.47,7.85,6.43,6.82,11.44c-1.3,4.35-5.87,6.85-10.23,5.58l-0.77-0.29c-13.21-2.84-26.68-4.36-40.19-4.53
	c-11.18-0.48-21.41,3.98-31.16,7.77c-7.22,2.86-14.23,6.21-20.99,10.02c-3.1,1.75-5.99,3.22-8.91-0.33s-1.18-6.24,0.98-9.69
	c8.47-13.35,22.14-18.51,35.18-25.12C379.93,315.16,385.37,311.42,391.08,313.06z"/>
</svg>
