<?xml version="1.0" encoding="utf-8"?>
<!-- Generator: Adobe Illustrator 23.0.2, SVG Export Plug-In . SVG Version: 6.00 Build 0)  -->
<svg version="1.1" id="图层_1" xmlns="http://www.w3.org/2000/svg" xmlns:xlink="http://www.w3.org/1999/xlink" x="0px" y="0px"
	 viewBox="0 0 595.28 841.89" style="enable-background:new 0 0 595.28 841.89;" xml:space="preserve">
<style type="text/css">
	.st0{fill:none;stroke:#000000;stroke-width:2;stroke-linecap:round;stroke-linejoin:round;stroke-miterlimit:10;}
</style>
<g>
	<path class="st0" d="M358.48,136.83c-0.03,4.51-0.11,9-0.63,13.51c-0.48,4.19-0.04,8.48-0.45,12.74c-0.7,7.3-1.06,14.58-2.85,21.79
		c-1.04,4.17-1.14,8.73-1.53,13.09c-0.75,8.3-2.5,16.45-3.15,24.74c-0.45,5.74-0.87,11.49-1.12,17.25
		c-0.46,10.62-1.35,21.27-0.99,31.87c0.38,11.38-0.71,22.8,0.66,34.12c1.47,12.16,2.93,24.36,5.33,36.35
		c2.31,11.55,4.46,23.17,7.71,34.53c1.6,5.6,3,11.25,4.54,16.86c0.22,0.79,0.53,1.86,1.14,2.2c3.19,1.79,2.62,4.77,2.58,7.56
		c-0.07,5.62,0.39,11.15,2.25,16.51c0.25,0.71,0.51,1.55,0.35,2.24c-0.86,3.87,0.68,7.07,2.68,10.12
		c3.23,4.94,3.15,10.65,3.67,16.14c1.1,11.6,2.29,23.24,2.5,34.87c0.11,6.1,1.31,11.99,1.85,17.98c0.51,5.69,2.49,11.24,3.56,16.9
		c2.06,10.95,4.52,21.83,5.35,32.99c0.33,4.41,1.22,8.81,2.23,13.12c1.4,5.94,1.28,12.04,2.25,18c1.73,10.57,1.08,21.28,2.06,31.9
		c0.71,7.73-2.63,13.89-9.59,18.04c-5.82,3.48-10.77,8.12-15.88,12.58c-5.08,4.43-9,9.97-14.77,13.81
		c-3.78,2.51-7.84,4.12-11.75,6.19c-3.3,1.75-7.09,2-10.48,3.42c-1.55,0.65-3.4,1.08-4.14,2.95c0,0-17,4.73-15.43,11.63"/>
	<path class="st0" d="M68.23,126.33c0.05,1.9-0.13,3.79,0.72,5.64c2.03,4.38,1.73,9.31,2.88,13.8c1.94,7.59,2.15,15.29,3.1,22.94
		c0.62,4.98-0.26,10.02-0.18,14.99c0.15,10.01-1.63,19.5-4.86,28.93c-1.17,3.42-2.37,6.78-4.38,9.63
		c-3.39,4.82-4.51,10.27-5.09,15.82c-1.13,10.85-3.1,21.45-6.36,31.89c-3.28,10.5-5.65,21.28-8.77,31.83
		c-2.82,9.55-5.51,19.14-8.8,28.57c-1.75,5-4.1,9.8-5.37,14.96c-1.93,7.83-4.72,15.58-5.12,23.63c-0.51,10.1-0.32,20.26,0.87,30.38
		c0.6,5.07,0.36,10.31-0.74,15.34c-0.4,1.84-0.21,3.57,0.55,4.85c5.01,8.44,7.7,17.9,11.95,26.66c2.59,5.34,4.73,10.87,7.33,16.21
		c2.08,4.28,3.14,9.12,4.21,13.82c1.64,7.14,2.92,14.41,2.97,21.74c0.04,6.87-0.38,13.78-1.14,20.61c-0.5,4.5-2.29,8.88-3.88,13.05
		c-2.3,6.05-2.67,12.42-4.54,18.5c-1.18,3.83-2.85,7.71-2.05,11.98c0.19,0.99-0.45,14.11-0.45,10.86"/>
	<path class="st0" d="M284.98,98.2c-1.36,0.54-2.08,1.44-1.88,3c0.81,6.56,1.5,13.11,3.32,19.52c0.78,2.76,1.07,5.73,1.12,8.61
		c0.04,2.54,0.22,4.92,1.57,7.13c1.94,3.16,1.41,6.64,1.66,10.11c0.38,5.17,1.89,10.25,2.82,15.39c0.7,3.86,0.98,7.82,1.95,11.61
		c1.62,6.31,2.32,12.75,3.25,19.15c0.56,3.83,0.61,7.74,0.8,11.62c0.41,8.37,0.85,16.75,1.11,25.13c0.2,6.36-1.93,12.46-2.39,18.75
		c-0.35,4.81-1.44,9.35-3.09,13.92c-1.84,5.11-1.7,10.69-2.38,16.08c-0.87,6.92-2.23,13.79-3.1,20.66
		c-1.03,8.07-3.04,15.93-3.92,23.98c-0.47,4.32-2.7,8.07-3.12,12.36c-0.64,6.52-3.69,12.55-4.06,19.13
		c-0.11,1.88-1.5,3.14-1.93,4.87c-1.3,5.27-2.72,10.51-4.1,15.76c-0.13,0.5-0.14,1.07-0.39,1.49c-2.34,3.92-3.37,8.6-5.84,12.23
		c-2.35,3.45-3.58,6.7-3.51,10.66c0.14,7.88-0.64,15.72-0.16,23.63c0.33,5.44,0.59,10.93-0.28,16.54
		c-0.68,4.34-0.57,9.15,0.68,13.86c3.15,11.87,6.02,23.84,5.45,36.34c-0.35,7.86-0.13,15.75-0.02,23.62
		c0.03,1.95-0.4,3.78-0.81,5.62c-2.38,10.56-4.1,21.32-7.95,31.47c-2.71,7.15-4.69,14.5-6.71,21.82c-1.31,4.74-2.14,9.72-2.8,14.61
		c-0.66,4.87-2.16,9.5-3.31,14.19c-1.04,4.25-1.46,8.52-2.02,12.8c-0.11,0.81,0.68,1.74,1.06,2.62"/>
	<path class="st0" d="M567.54,565.9c-0.29,3.99-2.14,7.94-0.2,11.94c0.27,0.55,0.51,1.31,0.36,1.85
		c-1.94,6.83,0.65,13.08,2.23,19.52c2.32,9.47,2.59,19.19,2.15,28.85c-0.14,3.04-0.94,6.42-3.2,9.03c-0.53,0.61-1.15,1.51-1.09,2.23
		c0.48,6.04-3.32,10.39-6.17,14.94c-2.79,4.45-7.88,4.57-12.64,4.96c-8.41,0.7-14.76-4.72-16.17-13.52
		c-1.18-7.41-3-14.72-3.97-22.15c-0.5-3.87-1.07-7.75-1.49-11.62c-0.81-7.52-4.88-13.74-7.29-20.6c-1.72-4.89-2.94-9.87-3.3-15.01
		c-0.35-4.99-0.88-9.99-0.06-15c0.4-2.44,0.49-4.78,3.33-6.12c1.45-0.68,2.49-2.52,3.4-4.02c2.63-4.33,5.62-7.92,10.86-9.5
		c2.89-0.87,5.1-3.66,8.29-4.35"/>
	<path class="st0" d="M637.48,195.7c-0.88,6.38-1.62,12.77-2.65,19.12c-1.81,11.07-1.47,22.25-1.73,33.38
		c-0.14,6.23-0.02,12.5,0.11,18.75c0.3,14.43,1.69,28.76,2.59,43.13c0.69,11.03,1.53,22.07,3.06,32.95
		c1.29,9.13,1.35,18.44,3.59,27.39c1.65,6.62,3.92,13.11,6.36,19.49c1.94,5.08,2.46,10.55,5.03,15.48c1.12,2.15-0.29,5.08-1.09,7.39
		c-1.83,5.25-1.12,10.31,0.16,15.4c0.37,1.45,0.43,2.75-0.04,4.14c-1.57,4.65-2.23,9.17-1.42,14.29c0.66,4.15-0.7,8.87-2.08,13.04
		c-2.55,7.74-4.3,15.67-4.97,23.68c-0.75,8.95-0.05,17.99,0.53,26.99c0.41,6.36,0.28,12.75,0.44,19.12c0.06,2.5,0.27,5,0.35,7.5
		c0.04,1.09,0.16,2.25,0.15,3.33"/>
	<path class="st0" d="M-25.9,531.7c6.38,26.06,14.55,52.41,13.38,79.55"/>
	<path class="st0" d="M270.73,631.83c2,3.79,5.41,6.92,4.23,12.03c-0.67,2.88-2.36,4.32-4.3,5.29c0.45,6.57-2.56,11.26-7.11,14.87
		c-7.1,5.64-13.95,11.3-18.46,19.49c-1.96,3.56-5.33,6.35-8.13,9.43c-1.27,1.4-3.22,1.52-4.87,1.81c-4.44,0.78-8.95,1.26-13.49,0.82
		"/>
	<path class="st0" d="M186.01,232.08c0.23,4.88,1.04,9.72,0.73,14.63c-0.56,8.91,1.2,17.72,1.28,26.62
		c0.05,5.01,1.67,10.04,2.91,14.98c0.51,2.01,1.21,4.6,1.96,7.27"/>
	<path class="st0" d="M725.29,223.95c0,3.13-0.05,2.59-0.08,3.62c-0.08,3-0.78,6.1-0.25,8.98c1.24,6.64,2.66,13.16,7.65,18.5
		c4.11,4.39,4.26,10.35,3.04,16.01c-1.17,5.45-1.93,10.96-4.28,16.21c-1.9,4.22-2.01,9.19-1.87,13.8c0.13,4.09-0.24,8.14-1.05,11.97
		c-2.06,9.72-4.97,19.25-7.32,28.92c-1.82,7.52-1.43,15.18-1.29,22.87c0.12,6.99-0.21,14.01-1.23,21.02
		c-1.04,7.15-2.97,13.51-3.64,21.3c-0.03,0.42-0.12,0.56-0.25,0.81c-3.61,6.52-2.24,13.4-1.52,20.25c0.41,3.94-1.16,7.64-2.35,11.21
		c-2.18,6.52-3.18,15.99-5.98,22.31c0.53,2.4-14.63,7.67-0.32,1.03c1.38,1.41,1.04,3.51,0.69,5.18c-0.32,1.56-0.35,1.9-0.17,3.87"/>
	<path class="st0" d="M199.48,424.45c0.94,3.69,1.72,7.32,1.28,11.27c-0.25,2.28,0.7,4.94,1.81,7.06c1.65,3.15,1.39,6.95,3.68,9.78
		c0.43,0.53,0.29,1.01,0.35,1.52c0.8,6.78,0.67,13.47-3.06,19.46c-1.63,2.63-1.42,5.54-2.21,8.28c-1.4,4.83-2.82,9.66-3.51,14.64
		c-0.95,6.86-2.15,13.73-2.34,20.62c-0.22,8.04,1.43,15.91,3.86,23.67c1.25,4,2.77,7.91,3.99,11.92c2.3,7.5,2.76,15.24,3.58,22.91
		c0.81,7.59,1.33,15.24,1.48,22.87c0.12,6.01-0.5,12.03-1.39,18c-0.16,1.07-0.74,8-0.38,3.67"/>
	<path class="st0" d="M41.09,572.95c-0.08,12.53-1.41,25.01-2.45,37.49"/>
	<path class="st0" d="M481.29,177.7c0.06,0.12,0.19,0.26,0.18,0.37c-1.07,8.68-1.04,17.69-5.75,25.42c-1.57,2.59-1.8,5.44-3.2,7.98
		c-3.37,6.1-7.27,11.86-11.74,17.16c-2.16,2.56-4.09,5.33-6.59,7.65c-1.39,1.29-2.15,3.23-2.04,5.54
		c0.24,5.01,0.27,10.05-0.97,15.01c-0.35,1.38,0.17,2.98,0.31,4.48c0.5,5.53-0.28,11.08-0.98,16.47c-0.74,5.77-0.17,11.54-1.13,17.3
		c-1.23,7.4-1.15,15.01-2.13,22.46c-0.46,3.52-0.22,7.31-0.52,10.62"/>
	<path class="st0" d="M-55.82,381.85c0.38,0.31-0.1,6.32-0.13,6.6c-0.57,6.58,2.94,12.23,4.11,18.39c0.49,2.57,0.4,5.62,1.15,7.74
		c1.04,2.92,1.88,6.5,4.55,8.72c4.16,3.47,5.1,8.06,5.28,13.15c0.2,5.7,2.12,11.08,3.7,16.5c0.57,1.96,0.77,3.97,0.75,6
		c-0.11,10.79,0.3,21.53,1.78,32.26c1,7.23,2.6,14.28,4.02,21.4c1.17,5.86,2.66,14.62,4.72,20.32"/>
	<path class="st0" d="M442.26,373.2c-0.55,3.82-2.04,11.01-1.24,14.1c0.4,1.54,1.12,2.65,1.09,4.15
		c-0.09,5.14,0.26,10.25,0.66,15.38c0.52,6.73-0.8,13.33-2.34,19.87c-1.32,5.61-1.65,10.82,1.08,16.6
		c4.52,9.54,9.25,19.07,12.59,29.15c2.58,7.79,4.01,15.78,4.13,24c0.14,9.53,0.35,19.1-1.58,28.48c-1.02,4.98-3.02,9.77-4.27,14.68
		c-1.92,7.51-3.94,15.02-4.77,22.82c-0.64,6.04-1.88,12.05-3.14,18.04c-1.69,8.02-2.94,16.14-3.51,24.35
		c-0.38,5.5-0.95,10.98-0.72,16.5c0.37,8.98-0.02,17.89,4.69,26.36c3.7,6.67,3.54,14.48,1.99,22c-0.2,1-1.3,1.73-2.49,2.37
		c-5.24,2.83-11.01,4.23-16.62,5.66c-3.59,0.91-7.72,0.79-11.57,0.85c-9.73,0.15-19.09,1.78-28.55,4.03
		c-8.59,2.04-16.68,4.99-24.72,8.42c-5.47,2.33-11.19,2.92-17.24,2.06c-5.34-0.76-10.94-0.05-15.65,2.65
		c-3.47,1.99-6.85,0.77-10.22,1.28c-1.25,0.19-6.33-6.08-6.34-7.42c0-0.5,0.06-1.21,0.38-1.47c0,0,1.08-4.34,3.35-6.03
		s9.61-6.84,13.61-7.52s4-2.01,4-2.51"/>
	<path class="st0" d="M665.98,101.58c-3.41,0.78-3.7,3.56-4.6,6.34c-2.3,7.1-5.8,13.76-7.96,20.98c-0.97,3.25,0.22,6.29-0.66,9.51
		c-0.53,1.95-0.48,4.18-1.3,6.34c-1.3,3.45-1.95,7.11-2.48,10.82c-0.54,3.71-2.09,7.28-3.25,10.89c-1.87,5.81-3.97,11.52-4.98,17.61
		c-0.49,2.98-1.54,4.78-2.43,7.73c-0.16,0.53-0.67,2.57-1.04,5.46"/>
	<path class="st0" d="M645.92,538.45c-0.44,5.82,1.87,11.1,3.44,16.48c2.25,7.75,2.97,15.69,3.4,23.65
		c0.23,4.35,2.39,8.12,2.75,12.37c0.39,4.68,2.4,9.12,2.18,13.87c-0.08,1.74,0.32,3.93,0.97,4.75c3.87,4.89,0.78,8.96-0.91,13.26
		c-0.89,2.25-1.66,4.54-2.65,6.74c-0.88,1.93-1.05,3.8,0.05,5.63c0.86,1.43,0.51,2.87-0.06,4.12c-2.6,5.73-4.67,11.67-9.97,15.91
		c-2.55,2.04-4.23,5.44-5.63,8.53c-1.2,2.65-2.76,4.36-5.33,5.64c-2.69,1.34-4.02,4.05-5.29,6.68c-0.77,1.58-0.46,3.25,0.82,4.02
		c1.05,0.63,2.89,1.31,4.01,0.07c1.92-2.13,3.94-1.09,5.21,0.13c2.17,2.08,4.58,2.56,7.2,2.09c2.13-0.38,4.55,2.02,6.39-0.68"/>
	<path class="st0" d="M705.09,469.83c-0.35,4.54,0.18,8.27,0.98,12.38c0.47,2.46,0.81,5,0.74,7.49c-0.21,7.9,0.47,15.75,0.75,23.63
		c0.11,3.24-2.13,5.95-2.33,9.36c-0.72,11.95-3.92,23.46-7.35,34.89c-1.5,5-2.14,10.3-2.07,15.37c0.14,10.67-1.65,21.24-1.24,31.87
		c0.25,6.39,0.45,12.81,1.71,19.15c0.42,2.14,0.17,4.57-0.36,6.71c-0.96,3.85-0.32,7.82-1.34,11.67c-0.4,1.5-0.11,3.21,0.42,4.87
		c1.44,4.58,1.09,9.01-0.95,13.53c-1.46,3.23-2.2,6.71-0.4,10.5c2.78,5.85-0.99,15.45-6.68,17.88c-0.91,0.39-2.22-0.18-3.34-0.3"/>
	<path class="st0" d="M696.73,170.2c3,4.63,4.88,7.08,7.11,10.88c6.76,9.37,13.47,17.03,20.24,25.51c0.29,0.37,1.11,1.73,1.23,2.23"
		/>
	<path class="st0" d="M665.6,414.33c0.04,3.76-1.73,6.96-3.41,10.1c-3.67,6.83-2.77,20.66,1.91,26.65"/>
	<path class="st0" d="M203.04,653.2c0.79,2.33-0.13,4.57-0.63,6.73c-1.09,4.71-1.48,9.73-1.41,14.26c0.11,7.33,0.8,15.52,8.27,20.19
		c2.39,1.5,6.02,1,9.34,1.19"/>
	<path class="st0" d="M192.89,295.58c0.54,1.92,0.83,4.01,0.95,5.58c0.77,9.4,0.54,18.83,0.25,28.23
		c-0.16,5.08-1.1,10.15-0.97,15.26c0.11,4.33,0.07,8.72,0.82,12.95c0.73,4.13,0.33,8.19,0.15,12.22c-0.3,6.64,1.31,13,2.1,19.44
		c1.16,9.41,4.11,18.64,2.96,28.23c-0.28,2.31-0.23,4.33,0.12,6.52"/>
	<path class="st0" d="M559.1,517.83c2.6,2.93,1.73,6.78,2.47,10.16c1.04,4.77,2.56,9.34,4.34,13.82c1.99,4.98,2.98,10.1,3.31,15.4
		c0.15,2.39-1.12,4.48-1.47,6.75c-0.16,1.02-0.16,1.02-0.33,3.72"/>
	<path class="st0" d="M165.73,142.83c2.23,2.06,2.22,4.87,2.2,7.5c-0.06,9.15,0.67,18.26,1.25,27.37c0.47,7.5,2.16,14.87,4.13,22.11
		c1.13,4.17,4.68,7.09,6.71,10.88c4.07,7.62,11.19,10.83,19.05,13.28c3.52,1.1,6.81,3.06,10.54,3.6c3.85,0.55,7.66,1.84,11.62,0.77"
		/>
	<path class="st0" d="M247.48,629.2c-1.04,0.86-2.26,0.13-3.78,0.51c0.18,3.55,0.58,7.13,1.45,10.76c1.49,6.24,1.25,12.4-2.54,17.99
		c-0.48,0.71-0.93,1.41-1.88,1.49"/>
	<path class="st0" d="M565.85,574.83c-2.86,2.47-2.68,6.28-4.07,9.4c-2.66,5.93-3.69,12.28-4.19,18.73
		c-0.03,0.38-0.24,0.75-0.36,1.13"/>
	<path class="st0" d="M658.67,392.01c2.99,4.22,3.49,9.28,3.75,14.07c0.24,4.47-0.66,9.1-2.06,13.49"/>
	<path class="st0" d="M248.23,410.95c0.67,9.24-0.12,18.36-2.25,27.38"/>
	<path class="st0" d="M206.79,617.95c-0.32,5.69-1.36,11.25-3.6,16.48c-2.3,5.35-1.61,10.71-0.72,16.14
		c0.14,0.84-0.05,0.3,0.86,4.09"/>
	<path class="st0" d="M-58.9,176.2c1.05,7.09-0.38,14.28,1.06,21.39c1.38,6.82,0.43,13.73,0.1,20.61c-0.13,2.74,0.35,5.5,0.31,8.25
		c-0.2,13.54-0.04,27.06,1.85,40.51c0.24,1.69,0.41,3.54-0.32,5.24"/>
	<path class="st0" d="M559.1,517.26c-1.72-1.33-2.86-3.19-4.82-4.4c-4.02-2.48-8.16-1.64-10.13,2.73c-0.73,1.62-1.63,3.08-2.67,4.48
		"/>
	<path class="st0" d="M446.89,324.77c-0.02,1.31-0.25,3.53-0.27,4.43c-0.28,10.66-2.23,21.17-2.61,31.86
		c-0.15,4.31-0.15,8.05-1.84,12.41c-0.19,0.5-0.6,2.64-0.47,3.26"/>
	<path class="st0" d="M663.35,673.45c-2.87,1.87-6.56,2.15-9.03,4.85c-1.62,1.77-1.87,3.07,0.78,3.75c1.71,0.43,2.75,1.77,4.12,2.65
		"/>
	<path class="st0" d="M688.1,146.2c-1.24,2.97-0.02,5.66,1.17,8.23c1.44,3.09,3.21,6.02,4.83,9.02"/>
	<path class="st0" d="M531.35,536.95c-0.38-0.38-0.7-0.82-1.13-1.11c-4.79-3.31-5.66-3.3-8.48,1.94c-0.94,1.74-1.46,2.96-3.45,3.82
		c-1.88,0.81-3.55,8.35-2.29,11.47c0.48,1.18,1.23,2.26,1.85,3.38"/>
	<path class="st0" d="M260.6,620.58c-1.12-3,0.14-6.86-4.08-8.73c-3.4-1.51-4.37-1.58-6.42,1.98"/>
	<path class="st0" d="M-57.02,272.01c0,0,1.59,1.21,1.51,2.44c-0.69,10.38,0.38,20.75,0.37,31.12c0,5.62,0.15,11.34-0.31,16.85
		c-0.46,5.47-1.24,11.06-1.72,16.55c-0.52,5.9-1.17,11.86,0.26,18.04c1.48,6.4,4.09,12.88,2.61,19.83
		c-0.41,1.93-1.43,3.64-1.59,5.61"/>
	<path class="st0" d="M632.6,681.33c-0.25,0.88-0.35,1.84-0.78,2.61c-0.85,1.51-0.12,2.08,1.15,2.67c1.8,0.84,3.66,1.88,5.62,1.42
		c5.11-1.21,9.75,1.39,14.64,1.48c2.53,0.04,4.55,1.07,6.33,2.39c3.56,2.64,7.23,4.03,11.68,2.98c1.18-0.28,2.49-0.08,3.74-0.03
		c0.5,0.02,1.09,0.47,1.49,0.32c2.72-0.99,3.69-4.08,6.34-5.31c0.93-0.43,0.33-2.14,0.42-3.27"/>
	<path class="st0" d="M210.73,436.83c1.62,1.03,0.89,2.89,0.97,4.13c0.29,4.57,1.75,8.43,5.03,11.62"/>
	<path class="st0" d="M562.67,621.7c-0.12,5.64,1.95,10.61,4.69,15.38"/>
	<path class="st0" d="M251.98,630.33c0.85-4.21,3.3-7.16,7.13-9c2.92-1.4,4.44,0.47,5.57,2.65c0.65,1.24,1.33,2.12,2.67,2.62
		c3.47,1.31,3.9,3.3,1.53,5.99c-1.24,1.42-2.68,2.51-4.33,3.36"/>
	<path class="st0" d="M694.1,447.7c-0.88,1.25-2.04,2.39-2.57,3.77c-1.35,3.57-3.67,5.52-7.56,5.65c-0.64,0.02-1.25,0.7-1.88,1.08"
		/>
	<path class="st0" d="M653.98,673.08c-0.87,0.12-1.86,0.03-2.61,0.41c-5.31,2.65-7.85,2.03-6.78,10.84c0.1,0.86,0.01,1.75,0.01,2.62
		"/>
	<path class="st0" d="M41.23,572.45"/>
	<path class="st0" d="M41.23,563.58"/>
	<path class="st0" d="M254.6,616.45c-1.86-0.66-3.24-3.14-5.61-1.84c-3.2,1.74-5.04,4.54-5.24,8.22c-0.13,2.24-0.02,4.5-0.02,6.75"
		/>
	<path class="st0" d="M652.59,139.11c0,3.59,2.67,9.02,4.23,11.68c0.59,1,0.79,2.53,2.04,4.03"/>
	<path class="st0" d="M184.85,218.2c-1.12,2.99,0.59,5.74,0.74,8.63c0.07,1.25,0.09,3.25,0.41,5.25"/>
	<path class="st0" d="M343.48,674.58c-3.64-0.27-5.08,3.29-7.87,4.51c-4.58,2-9.08,4.47-14.25,1.86"/>
	<path class="st0" d="M534.73,525.33c-4.99,0.29-6.27,1.7-7.5,8.25"/>
	<path class="st0" d="M673.48,673.08c-0.39,3.49-3.21,5.43-5.7,6.58c-4.47,2.06-7.55,5.44-10.8,8.79"/>
	<path class="st0" d="M210.73,416.58c0,3.25,0,6.5,0,9.75"/>
	<path class="st0" d="M717.73,208.83c3.2,1.19,5.02,3.83,5.89,6.78c0.91,3.1,1.87,5.75,1.67,9.72"/>
	<path class="st0" d="M667.48,680.95c0.2,1.59,1,2.5,2.6,3.08c1.06,0.38,2.16,1.67,1.45,2.87c-0.69,1.16-1.7,2.33-3.69,1.62
		c-2.23-0.8-4.72-0.83-6.72-2.32"/>
	<path class="st0" d="M324.13,687.33c-0.89,1.12-2.48,3.32-3.92,3.69c-1.43,0.37-2.31,0.35-3.46,1.79"/>
	<path class="st0" d="M243.73,451.83c-1.44,4.04-4.49,6.93-7.13,10.13"/>
	<path class="st0" d="M542.23,523.83c0.05-1.68,0.19-3.52-1.89-4.09c-1.92-0.52-3.21,0.56-4.12,2.21c-1.4,2.52-1.15,5.04,0.03,7.49
		c1.21,2.51,3.39,2.28,5.6,1.7"/>
	<path class="st0" d="M561.35,531.33c-3.73,2.7-7.98,1.35-12,1.43c-2.35,0.04-4.13,0.17-4.12,3.07"/>
	<path class="st0" d="M698.98,433.08c1.86,3.08-0.43,6-0.33,9c0.09,2.78-1.67,5.13-1.54,7.88"/>
	<path class="st0" d="M640.48,671.58c-2.65,1.71-5.09,3.58-5.25,7.13"/>
	<path class="st0" d="M226.1,221.58c-0.72,3.16-3.75,1.99-5.63,3"/>
	<path class="st0" d="M539.23,532.08c-0.52,1.98-0.21,3.84,0.75,5.63"/>
	<path class="st0" d="M538.1,533.95c-1.13,0.5-2.22,1.09-3.38,1.48c-3.41,1.15-4.53,3.37-3.37,6.77"/>
	<path class="st0" d="M-59.27,187.45"/>
	<path class="st0" d="M325.33,682.05c10.92-1.83-0.25,2.44-1.2,5.27"/>
</g>
<line class="st0" x1="242" y1="461.95" x2="240.17" y2="466.22"/>
<path class="st0" d="M-48.33,378.22c0,0,10.67,7.33,14.33,23c0,0,4,0,3-2s0-13.33-6.67-13.33"/>
<path class="st0" d="M-30.84,418.89c0,0-4.16,9.87-2.83,17.94"/>
<path class="st0" d="M332.42,677.56c0,0-17.6,9.19-18.48,13.13"/>
<path class="st0" d="M525.82,547.7c0,0-7.85-1.18-2.96-11.87"/>
<g>
	<path class="st0" d="M-5.82,702.48c-1.6,1.91-3.59,3.37-5.77,4.6c-0.52,0.29-0.73,0.84-1.19,1.16c-2.58,1.83-5.47,3.16-8.55,3.83
		c-1.67,0.36-3.07,1.19-4.67,1.57c-1.54,0.36-3.09,0.73-4.55,1.31c-1.36,0.54-2.67,1.16-3.65,2.37c-0.95,1.18-2.31,1.83-3.92,2.14
		c-1.65,0.32-3.17,0.8-4.95,0.36c-1.64-0.41-2.75-0.94-2.75-2.71"/>
	<path class="st0" d="M-54.12,695c-0.16,0.08-0.44,0.13-0.46,0.23c-0.86,3.48-2.99,6.15-5.78,8.41c-1.14,0.92-1.9,2.06-2.45,3.43
		c-0.69,1.72-1.74,3.31-2.59,4.98c-0.31,0.62-0.57,1.28-0.72,1.96c-0.31,1.39,1.08,2.68,2.87,2.89c2.25,0.26,4.41,0.1,6.36-1.07
		c0.54-0.32,0.97-0.06,1.46-0.09"/>
	<path class="st0" d="M34.31,672.99c-2.53,1.63-8.77,6.58-11.65,7.62c-1.91,0.69-3.84,1.4-5.64,2.32c-2.07,1.06-4.14,2.17-6.21,3.18
		c-2.36,1.16-4.3,2.67-5.98,4.46"/>
	<path class="st0" d="M-28.17,645c-0.84,0.81-1.44,1.45-2.25,2.11c-0.88,0.71-1.37,1.2-2.55,2.29c-0.7,0.5-1.17,1.11-1.82,1.7
		c-1.5,1.33-2.83,2.76-4.24,4.12c-1.12,1.5-2.28,3-3.44,4.65c-0.13,0.18-0.2,0.35-0.36,0.57c-0.88,1.18-1.66,2.18-2.63,3.41
		c-0.84,1.06-1.8,2.23-2.64,3.4c-1.76,2.46-3.52,4.93-5.78,7.02c-1.35,1.24-2.6,2.57-4.15,3.64c-0.75,0.52-1.51,1.15-2.2,1.74
		c-0.68,0.59-1.18,1.51-1.94,2.1c-2.35,1.81-4.12,4.26-6.84,5.65c-0.79,0.4-3.56,2.42-4.18,3.02c-1.86,1.8-3.77,3.51-6.27,4.47
		c-0.75,0.29-1.34,0.8-1.9,1.3c-1.08,0.96-2.01,2.06-3.03,3.08c-0.54,0.55-1.36,0.86-1.86,1.33c-1.9,1.75-3.97,3.54-3.42,6.51"/>
	<path class="st0" d="M-43.19,698.45c-0.47,1.07-0.93,2.08-1.75,3.04c-2.42,2.82-5.62,5-7.59,8.16c-1.29,2.08-2.44,4.27-2.71,6.77
		c-0.08,0.73,0.3,0.95,0.75,1.27c1.32,0.95,2.85,0.71,4.33,0.68c1.51-0.04,2.77-0.92,4.18-1.34c0.97-0.29,1.3-1.59,1.71-2.57
		c0.57-1.35,1.23-2.61,2.11-3.83c1.4-1.95,3.62-3.09,4.98-5.04"/>
	<path class="st0" d="M-66.38,706.86c0.02,1.57-0.41,2.99-1.69,4.02c-1.24,1-2.56,0.91-3.95,0.23c-0.56-0.27-1.05-0.68-1.57-1.03"/>
	<path class="st0" d="M-17.94,635.49c-0.88,0.87-0.64,0.57-3.57,3.07c-1.04,0.89-1.55,1.85-2.4,2.57c-1.4,1.19,0.39-0.37-1.11,1.02
		c-0.92,0.74-4.44,4.09-5.41,4.95"/>
	<path class="st0" d="M-79.72,698.11c2.78,0,4.89,1.12,5.68,3.08c-1.2,0.66-2.44,1.29-3.63,2c-0.73,0.43-1.48,0.39-2.16,0.09
		c-2.21-0.97-4.44-1.22-6.74-0.33"/>
	<path class="st0" d="M-64.94,692.58c0.19,1.07-0.14,2.09-0.63,2.98c-0.69,1.22-1.62,2.36-2.87,3.1c-0.86,0.51-1.35,1.21-1.77,1.99
		c-1.16,2.17-2.47,4.3-3.3,6.59c-0.54,1.47-1.72,2.63-1.83,4.35c-0.1,1.63,0.41,2.64,2.11,3.02c2.03,0.44,4.97,1.52,7.11,0.21"/>
	<path class="st0" d="M4.83,690.57c-1.8,1.73-6.58,8.49-8.83,9.87c-0.68,0.42-1.07,1.27-1.59,1.92"/>
	<path class="st0" d="M-12.52,611.25c0,1.33,0.28,10.1,0.2,11.29c-0.08,1.23-0.69,6.71-1.44,8.3c-0.94,2.01-2.97,3.3-4.45,4.95"/>
	<path class="st0" d="M-57.49,711.47c-1.16,2.51-3.78,3.57-6.25,2.53"/>
	<path class="st0" d="M-42.95,712.51c0.96,0.12,1.92,0.25,2.88,0.34c1.17,0.11,1.36,0.35,1.08,1.5c-0.02,0.07,0.01,0.15,0,0.23
		c-0.51,3.33-0.18,2.37-3.6,2.99c-0.58,0.11-2.01-0.94-2.4-1.34"/>
	<path class="st0" d="M-47.8,713.31c-0.23,1.76-2.47,2.63-4.16,1.74c-0.36-0.19-0.79-0.27-1.08-0.58"/>
	<path class="st0" d="M-86.08,711.47c1.69,1.02,3.56,1.26,5.52,1.43c1.66,0.14,3.87,0.04,5.17-0.69"/>
	<path class="st0" d="M-10.98,608.6"/>
	<path class="st0" d="M-11.12,603.87"/>
	<path class="st0" d="M35.75,626.11c0.2,1.27,0.33,2.55,0.62,3.8c0.42,1.87,0.74,3.7,0.67,5.65c-0.06,1.7-0.68,3.16-1.25,4.65
		c-0.08,0.41,0.02-0.07-0.29,1c-0.09,0.46,0.23-0.6,0,0c-1.17,1.75-0.39,4.32-0.27,6.09c0.08,1.27,0.25,2.53,0.28,3.8
		c0.04,1.63,0.25,3.23,0.49,4.84"/>
	<path class="st0" d="M-71.07,704.67c0.72,0.83,2.68,1.48,3.69,1.75"/>
	<path class="st0" d="M-57.19,710.54c-1.33,0.11-3.11-1.14-4.39-1.38"/>
	<path class="st0" d="M-89.69,707.09c-0.09,1.35,2.5,3.83,3.88,4.54"/>
	<path class="st0" d="M-51.12,711.24c1.14,0.33,2.6,1.26,3.81,0.97"/>
	<path class="st0" d="M36.49,659.48c0.19,1.52,1.32,8.69-0.69,11.58"/>
	<path class="st0" d="M39.47,599.61c-0.24,2.19-0.52,4.37-0.71,6.57c-0.12,1.41,0,2.71-0.12,4.26c-0.25,1.37-0.4,2.76-0.62,4.14"/>
	<path class="st0" d="M35.03,643.48c-0.25,1.56-1.82,3.08-2.21,4.08c-0.1,0.27-0.94,1.36-0.31,1.01"/>
	<path class="st0" d="M38.02,614.75c-0.04,0.29-2.24,10.07-2.24,11.54"/>
	<path class="st0" d="M-43.55,696.26c-0.17,0.74,0.28,1.38,0.21,2.05"/>
	<path class="st0" d="M36.11,656.64c0.12,0.81,0.24,1.61,0.36,2.42"/>
	<path class="st0" d="M-35.98,703.12c0.02,0.72-0.68,1.2-0.72,1.9"/>
	<path class="st0" d="M33.59,616.78c0.19,1.72-0.04,3.49,0.2,5.17c0.18,1.23,0.13,2.69,1.24,3.7"/>
	<path class="st0" d="M40.19,592.24c-0.12,0.81-0.27,1.61-0.35,2.42c-0.15,1.46-0.25,3.49-0.37,4.95"/>
	<path class="st0" d="M37.65,617.12"/>
	<path class="st0" d="M-34.42,701.33c-0.69,0.24-0.8,1-1.32,1.38"/>
	<path class="st0" d="M35.81,671.06c-0.35,0.81-0.92,1.35-1.5,1.93"/>
	<path class="st0" d="M41.15,585.21"/>
	<path class="st0" d="M-44.99,701.33"/>
	<path class="st0" d="M37.19,618.39"/>
	<path class="st0" d="M37.07,619.08"/>
	<path class="st0" d="M-58.69,678.52"/>
	<path class="st0" d="M-75.39,711.24"/>
	<path class="st0" d="M-54,712.85"/>
	<path class="st0" d="M40.07,595"/>
	<path class="st0" d="M-78.28,703.64"/>
	<path class="st0" d="M39.59,599.27"/>
</g>
<path class="st0" d="M274.05,637.37c0,0-1.72-1.65-6.38,3.85"/>
<path class="st0" d="M265.88,625.68c0,0-4.71,0.41-8.21,6.14"/>
</svg>
