<?xml version="1.0" encoding="UTF-8" standalone="no"?>
<svg
   width="297mm"
   height="210mm"
   viewBox="0 0 1122.5201 793.70024"
   version="1.1"
   id="svg19900"
   sodipodi:docname="寸关尺部位.svg"
   inkscape:version="1.2.2 (732a01da63, 2022-12-09)"
   xml:space="preserve"
   xmlns:inkscape="http://www.inkscape.org/namespaces/inkscape"
   xmlns:sodipodi="http://sodipodi.sourceforge.net/DTD/sodipodi-0.dtd"
   xmlns:xlink="http://www.w3.org/1999/xlink"
   xmlns="http://www.w3.org/2000/svg"
   xmlns:svg="http://www.w3.org/2000/svg"><defs
     id="defs19904"><inkscape:path-effect
       effect="spiro"
       id="path-effect26970"
       is_visible="true"
       lpeversion="1" /><inkscape:path-effect
       effect="spiro"
       id="path-effect26958"
       is_visible="true"
       lpeversion="1" /><pattern
       inkscape:collect="always"
       xlink:href="#SvgjsPattern1080-6-8"
       id="pattern826"
       patternTransform="scale(0.99585849,0.99241676)" /><pattern
       id="SvgjsPattern1080"
       x="0"
       y="0"
       width="100"
       height="100"
       patternUnits="userSpaceOnUse"><image
         id="SvgjsImage1081"
         xlink:href="https://iconsapi.com/5ee26427e4b0b788a932e46f.svg"
         width="100"
         height="100"
         preserveAspectRatio="none"
         crossOrigin="anonymous"
         x="0"
         y="0" /></pattern><pattern
       id="SvgjsPattern1080-6"
       x="0"
       y="0"
       width="100"
       height="100"
       patternUnits="userSpaceOnUse"><image
         id="SvgjsImage1081-0"
         xlink:href="https://iconsapi.com/5ee26427e4b0b788a932e46f.svg"
         width="100"
         height="100"
         preserveAspectRatio="none"
         crossOrigin="anonymous"
         x="0"
         y="0" /></pattern><pattern
       id="SvgjsPattern1010"
       x="0"
       y="0"
       width="277.9315113311668"
       height="194.91229569284667"
       patternUnits="userSpaceOnUse"><image
         id="SvgjsImage1011"
         xlink:href="https://iconsapi.com/5ee264cfe4b0b788a93303a5.svg"
         width="277.9315113311668"
         height="194.91229569284667"
         preserveAspectRatio="none"
         crossOrigin="anonymous"
         x="0"
         y="0" /></pattern><pattern
       id="SvgjsPattern1080-6-8"
       x="0"
       y="0"
       width="100"
       height="100"
       patternUnits="userSpaceOnUse"><image
         id="SvgjsImage1081-0-9"
         xlink:href="https://iconsapi.com/5ee26427e4b0b788a932e46f.svg"
         width="100"
         height="100"
         preserveAspectRatio="none"
         crossOrigin="anonymous"
         x="0"
         y="0" /></pattern><pattern
       id="SvgjsPattern1010-1"
       x="0"
       y="0"
       width="277.9315113311668"
       height="194.91229569284667"
       patternUnits="userSpaceOnUse"><image
         id="SvgjsImage1011-4"
         xlink:href="https://iconsapi.com/5ee264cfe4b0b788a93303a5.svg"
         width="277.9315113311668"
         height="194.91229569284667"
         preserveAspectRatio="none"
         crossOrigin="anonymous"
         x="0"
         y="0" /></pattern><inkscape:path-effect
       effect="spiro"
       id="path-effect26970-4"
       is_visible="true"
       lpeversion="1" /><inkscape:path-effect
       effect="spiro"
       id="path-effect26970-0"
       is_visible="true"
       lpeversion="1" /><clipPath
       id="clip_2_17_0"><path
         d="m 114.333,140.33 h 74.211 v 74.21 h -74.211 z"
         id="path37243" /></clipPath></defs><sodipodi:namedview
     id="namedview19902"
     pagecolor="#ffffff"
     bordercolor="#000000"
     borderopacity="0.25"
     inkscape:showpageshadow="2"
     inkscape:pageopacity="0.0"
     inkscape:pagecheckerboard="0"
     inkscape:deskcolor="#d1d1d1"
     showgrid="false"
     inkscape:zoom="0.75073422"
     inkscape:cx="286.38631"
     inkscape:cy="418.25721"
     inkscape:window-width="1920"
     inkscape:window-height="986"
     inkscape:window-x="-11"
     inkscape:window-y="-11"
     inkscape:window-maximized="1"
     inkscape:current-layer="svg19900"
     inkscape:document-units="mm" /><clipPath
     id="clip_4_11_0"><path
       d="m 125.427,147.568 h 74.21 v 74.21 h -74.21 z"
       id="path19831" /></clipPath><path
     d="m 368.70737,229.43165 c 0,15.93141 -19.13643,28.8465 -42.74243,28.8465 -23.60601,0 -42.74244,-12.91509 -42.74244,-28.8465 0,-15.93154 19.13643,-28.84649 42.74244,-28.84649 23.606,0 42.74243,12.91495 42.74243,28.84649 z"
     fill="#19191a"
     fill-opacity="0"
     id="path19846"
     style="stroke-width:1.29025" /><path
     d="m 802.35001,231.70507 c 0,67.78112 -63.78857,122.72847 -142.47523,122.72847 -78.68599,0 -142.47389,-54.94735 -142.47389,-122.72847 0,-67.78122 63.7879,-122.72868 142.47389,-122.72868 78.68666,0 142.47523,54.94746 142.47523,122.72868 z"
     fill="#19191a"
     fill-opacity="0"
     id="path19894"
     style="stroke-width:1.29025" /><path
     d="m 527.47091,583.86048 c 0,74.60032 -62.62366,135.07559 -139.87303,135.07559 -77.24909,0 -139.87211,-60.47527 -139.87211,-135.07559 0,-74.60014 62.62302,-135.07557 139.87211,-135.07557 77.24937,0 139.87303,60.47543 139.87303,135.07557 z"
     fill="#fef3a4"
     fill-opacity="0"
     id="path13159"
     style="stroke-width:0.913716" /><path
     d="m 517.1366,583.86048 c 0,69.09522 -58.00165,125.10697 -129.55044,125.10697 -71.54813,0 -129.5495,-56.01175 -129.5495,-125.10697 0,-69.09459 58.00137,-125.10696 129.5495,-125.10696 71.54879,0 129.55044,56.01237 129.55044,125.10696 z"
     fill="#f25c9b"
     fill-opacity="0"
     id="path13163"
     style="stroke-width:0.913716" /><path
     d="m 503.73481,417.02839 c 0,35.5113 -31.27992,64.29851 -69.86617,64.29851 -38.58626,0 -69.8667,-28.78721 -69.8667,-64.29851 0,-35.51143 31.28044,-64.29901 69.8667,-64.29901 38.58625,0 69.86617,28.78758 69.86617,64.29901 z"
     fill="#f25c9b"
     fill-opacity="0"
     id="path13193"
     style="stroke-width:1.29025" /><path
     d="m 347.71231,271.21953 c 0,80.44913 -68.21692,145.66577 -152.36586,145.66577 -84.14859,0 -152.364811,-65.21664 -152.364811,-145.66577 0,-80.44897 68.216221,-145.66582 152.364811,-145.66582 84.14894,0 152.36586,65.21685 152.36586,145.66582 z"
     fill="#fef3a4"
     fill-opacity="0"
     id="path13159-6"
     style="stroke-width:0.990326" /><path
     d="m 336.45497,271.21953 c 0,74.51241 -63.18208,134.91561 -141.12125,134.91561 -77.93849,0 -141.120269,-60.4032 -141.120269,-134.91561 0,-74.51175 63.181779,-134.91563 141.120269,-134.91563 77.93917,0 141.12125,60.40388 141.12125,134.91563 z"
     fill="#f25c9b"
     fill-opacity="0"
     id="path13163-9"
     style="stroke-width:0.990326" /><path
     d="m 247.956,271.21905 c 0,27.78043 -23.55585,50.30061 -52.61389,50.30061 -29.05803,0 -52.61429,-22.52018 -52.61429,-50.30061 0,-27.78052 23.55626,-50.30099 52.61429,-50.30099 29.05804,0 52.61389,22.52047 52.61389,50.30099 z"
     fill="#f25c9b"
     fill-opacity="0"
     id="path13193-4"
     style="stroke-width:0.990326" /><path
     id="SvgjsPath1079"
     d="M 386.90192,24.988843 H 572.86134 V 204.57129 H 386.90192 Z"
     stroke="none"
     fill="url(#SvgjsPattern1080)"
     style="fill:url(#pattern39767);stroke-width:1.82743" /><g
     id="g21655"
     transform="matrix(0.29491781,0,0,0.322133,271.56293,211.74103)"><path
       id="path21653"
       d="M 0,0 H 100 V 100 H 0 Z"
       stroke="none"
       fill="url(#SvgjsPattern1080)"
       style="display:none;fill:url(#pattern826)" /></g><g
     inkscape:groupmode="layer"
     id="layer1"
     inkscape:label="Layer 1" /><path
     d="m 681.81404,434.36682 c 0,157.1645 -131.7249,284.56925 -294.21616,284.56925 -162.48975,0 -294.214086,-127.40475 -294.214086,-284.56925 0,-157.16308 131.724336,-284.56925 294.214086,-284.56925 162.49126,0 294.21616,127.40617 294.21616,284.56925 z"
     fill="#f26957"
     fill-opacity="0"
     id="path37235"
     style="stroke-width:2.07671" /><path
     d="m 681.81404,434.36682 c 0,157.1645 -131.7249,284.56925 -294.21616,284.56925 -162.48975,0 -294.214086,-127.40475 -294.214086,-284.56925 0,-157.16308 131.724336,-284.56925 294.214086,-284.56925 162.49126,0 294.21616,127.40617 294.21616,284.56925 z"
     fill="none"
     stroke="#19191a"
     stroke-opacity="1"
     stroke-width="4.15343"
     stroke-dasharray="none"
     id="path37237"
     style="fill:none" /><path
     d="m 497.3001,434.36926 c 0,58.59557 -49.11034,106.09599 -109.69188,106.09599 -60.58152,0 -109.69273,-47.50042 -109.69273,-106.09599 0,-58.59574 49.11121,-106.0968 109.69273,-106.0968 60.58154,0 109.69188,47.50106 109.69188,106.0968 z"
     fill="#ffcfd5"
     fill-opacity="0"
     id="path37239"
     style="stroke-width:2.07671" /><path
     d="m 497.3001,434.36926 c 0,58.59557 -49.11034,106.09599 -109.69188,106.09599 -60.58152,0 -109.69273,-47.50042 -109.69273,-106.09599 0,-58.59574 49.11121,-106.0968 109.69273,-106.0968 60.58154,0 109.69188,47.50106 109.69188,106.0968 z"
     fill="none"
     stroke="#19191a"
     stroke-opacity="1"
     stroke-width="4.15343"
     stroke-dasharray="none"
     id="path37241" /><path
     style="display:inline;fill:none;fill-rule:evenodd;stroke:#000000;stroke-width:1.4121px;stroke-linecap:butt;stroke-linejoin:miter;stroke-dasharray:1.4121, 4.23629;stroke-dashoffset:0;stroke-opacity:1"
     d="M 50.381814,398.97493 729.5833,397.30641"
     id="path659"
     inkscape:connector-type="polyline"
     inkscape:connector-curvature="0" /><path
     style="display:inline;fill:none;fill-rule:evenodd;stroke:#000000;stroke-width:1.4121px;stroke-linecap:butt;stroke-linejoin:miter;stroke-dasharray:1.4121, 4.23629;stroke-dashoffset:0;stroke-opacity:1"
     d="m 55.5869,470.49466 679.20149,-1.66852"
     id="path659-4"
     inkscape:connector-type="polyline"
     inkscape:connector-curvature="0" /><text
     xml:space="preserve"
     style="font-size:30.1247px;fill:#ff0000;stroke-width:1.31749;stroke-linecap:round;stroke-linejoin:bevel;stroke-miterlimit:4.9;stroke-dasharray:1.4121, 4.23629;stroke-dashoffset:0;paint-order:fill markers stroke"
     x="42.109505"
     y="354.03162"
     id="text1291"
     transform="scale(1.0243678,0.9762119)"><tspan
       sodipodi:role="line"
       id="tspan1289"
       x="42.109505"
       y="354.03162"
       style="font-size:30.1247px;stroke-width:1.31749">上</tspan></text><text
     xml:space="preserve"
     style="font-size:30.1247px;fill:#ff0000;stroke-width:1.31749;stroke-linecap:round;stroke-linejoin:bevel;stroke-miterlimit:4.9;stroke-dasharray:1.4121, 4.23629;stroke-dashoffset:0;paint-order:fill markers stroke"
     x="212.679"
     y="293.98502"
     id="text1291-8"
     transform="scale(1.0243678,0.9762119)"><tspan
       sodipodi:role="line"
       id="tspan1289-0"
       x="212.679"
       y="293.98502"
       style="font-size:30.1247px;stroke-width:1.31749">寸部浮取</tspan></text><text
     xml:space="preserve"
     style="font-size:30.1247px;fill:#ff0000;stroke-width:1.31749;stroke-linecap:round;stroke-linejoin:bevel;stroke-miterlimit:4.9;stroke-dasharray:1.4121, 4.23629;stroke-dashoffset:0;paint-order:fill markers stroke"
     x="124.24376"
     y="452.14389"
     id="text1291-8-1"
     transform="scale(1.0243678,0.9762119)"><tspan
       sodipodi:role="line"
       id="tspan1289-0-12"
       x="124.24376"
       y="452.14389"
       style="font-size:30.1247px;stroke-width:1.31749">关部浮取</tspan></text><text
     xml:space="preserve"
     style="font-size:30.1247px;fill:#ff0000;stroke-width:1.31749;stroke-linecap:round;stroke-linejoin:bevel;stroke-miterlimit:4.9;stroke-dasharray:1.4121, 4.23629;stroke-dashoffset:0;paint-order:fill markers stroke"
     x="320.87958"
     y="386.55106"
     id="text1291-8-7"
     transform="scale(1.0243678,0.9762119)"><tspan
       sodipodi:role="line"
       id="tspan1289-0-1"
       x="320.87958"
       y="386.55106"
       style="font-size:30.1247px;stroke-width:1.31749">寸部沉取</tspan></text><text
     xml:space="preserve"
     style="font-size:30.1247px;fill:#ff0000;stroke-width:1.31749;stroke-linecap:round;stroke-linejoin:bevel;stroke-miterlimit:4.9;stroke-dasharray:1.4121, 4.23629;stroke-dashoffset:0;paint-order:fill markers stroke"
     x="42.082195"
     y="453.9646"
     id="text1291-7"
     transform="scale(1.0243678,0.9762119)"><tspan
       sodipodi:role="line"
       id="tspan1289-8"
       x="42.082195"
       y="453.9646"
       style="font-size:30.1247px;stroke-width:1.31749">中</tspan></text><text
     xml:space="preserve"
     style="font-size:30.1247px;fill:#ff0000;stroke-width:1.31749;stroke-linecap:round;stroke-linejoin:bevel;stroke-miterlimit:4.9;stroke-dasharray:1.4121, 4.23629;stroke-dashoffset:0;paint-order:fill markers stroke"
     x="43.635052"
     y="544.61066"
     id="text1291-74"
     transform="scale(1.0243678,0.9762119)"><tspan
       sodipodi:role="line"
       id="tspan1289-3"
       x="43.635052"
       y="544.61066"
       style="font-size:30.1247px;stroke-width:1.31749">下</tspan></text><text
     xml:space="preserve"
     style="font-size:30.1247px;fill:#ff0000;stroke-width:1.31749;stroke-linecap:round;stroke-linejoin:bevel;stroke-miterlimit:4.9;stroke-dasharray:1.4121, 4.23629;stroke-dashoffset:0;paint-order:fill markers stroke"
     x="202.86493"
     y="624.86688"
     id="text1291-8-1-3"
     transform="scale(1.0243678,0.9762119)"><tspan
       sodipodi:role="line"
       id="tspan1289-0-12-8"
       x="202.86493"
       y="624.86688"
       style="font-size:30.1247px;stroke-width:1.31749">尺部浮取</tspan></text><text
     xml:space="preserve"
     style="font-size:30.1247px;fill:#ff0000;stroke-width:1.31749;stroke-linecap:round;stroke-linejoin:bevel;stroke-miterlimit:4.9;stroke-dasharray:1.4121, 4.23629;stroke-dashoffset:0;paint-order:fill markers stroke"
     x="320.13229"
     y="452.27032"
     id="text1291-8-7-0"
     transform="scale(1.0243678,0.9762119)"><tspan
       sodipodi:role="line"
       id="tspan1289-0-1-6"
       x="320.13229"
       y="452.27032"
       style="font-size:30.1247px;stroke-width:1.31749">关部沉取</tspan></text><text
     xml:space="preserve"
     style="font-size:30.1247px;fill:#ff0000;stroke-width:1.31749;stroke-linecap:round;stroke-linejoin:bevel;stroke-miterlimit:4.9;stroke-dasharray:1.4121, 4.23629;stroke-dashoffset:0;paint-order:fill markers stroke"
     x="321.52002"
     y="520.68207"
     id="text1291-8-7-8"
     transform="scale(1.0243678,0.9762119)"><tspan
       sodipodi:role="line"
       id="tspan1289-0-1-4"
       x="321.52002"
       y="520.68207"
       style="font-size:30.1247px;stroke-width:1.31749">尺部沉取</tspan></text></svg>
