<?xml version="1.0" encoding="UTF-8" standalone="no"?>
<svg
   xmlns:dc="http://purl.org/dc/elements/1.1/"
   xmlns:cc="http://creativecommons.org/ns#"
   xmlns:rdf="http://www.w3.org/1999/02/22-rdf-syntax-ns#"
   xmlns:svg="http://www.w3.org/2000/svg"
   xmlns="http://www.w3.org/2000/svg"
   xmlns:sodipodi="http://sodipodi.sourceforge.net/DTD/sodipodi-0.dtd"
   xmlns:inkscape="http://www.inkscape.org/namespaces/inkscape"
   inkscape:version="1.0 (4035a4fb49, 2020-05-01)"
   sodipodi:docname="toubeimian.svg"
   xml:space="preserve"
   viewBox="0 0 1122.5196 793.7008"
   y="0px"
   x="0px"
   id="图层_1"
   version="1.1"
   width="297mm"
   height="210mm"><metadata
   id="metadata3022"><rdf:RDF><cc:Work
       rdf:about=""><dc:format>image/svg+xml</dc:format><dc:type
         rdf:resource="http://purl.org/dc/dcmitype/StillImage" /><dc:title></dc:title></cc:Work></rdf:RDF></metadata><defs
   id="defs3020" /><sodipodi:namedview
   inkscape:current-layer="图层_1"
   inkscape:window-maximized="1"
   inkscape:window-y="-11"
   inkscape:window-x="1525"
   inkscape:cy="337.8988"
   inkscape:cx="499.07007"
   inkscape:zoom="0.58247143"
   showgrid="false"
   id="namedview3018"
   inkscape:window-height="986"
   inkscape:window-width="1920"
   inkscape:pageshadow="2"
   inkscape:pageopacity="0"
   guidetolerance="10"
   gridtolerance="10"
   objecttolerance="10"
   borderopacity="1"
   bordercolor="#666666"
   pagecolor="#ffffff"
   inkscape:document-rotation="0"
   units="mm" />
<style
   id="style2993"
   type="text/css">
	.st0{fill:none;stroke:#000000;stroke-width:6;stroke-linecap:round;stroke-linejoin:round;stroke-miterlimit:10;}
	.st1{fill:none;stroke:#000000;stroke-width:3;stroke-linecap:round;stroke-linejoin:round;stroke-miterlimit:10;}
	.st2{fill:none;stroke:#000000;stroke-width:4;stroke-linecap:round;stroke-linejoin:round;stroke-miterlimit:10;}
</style>
<path
   id="path2995"
   d="m 284.07151,728.76036 c 0,0 136.14881,-55.68632 120.85978,-172.21508 -15.28903,-116.52877 -26.20977,-97.62635 -30.57806,-104.49433 -4.3683,-6.87829 -10.18905,-22.68702 -13.83657,-41.24913 -3.6366,-18.56209 -7.64452,-15.12811 -9.46828,-18.90241"
   class="st0" />
<path
   id="path2997"
   d="m 406.12165,573.72554 c 0,0 -10.29825,3.7846 -19.39522,-46.74558 -9.09698,-50.53016 -33.4939,-60.15152 -50.23539,-76.65117 -16.74148,-16.49964 -30.57805,-21.99609 -31.30975,-48.46771 -0.73169,-26.47163 -2.54453,-48.80802 12.7445,-59.81123 0,0 7.28414,-6.18736 16.3811,4.12491 0,0 13.83658,0.69093 13.46527,7.2186 -0.3713,6.52767 2.91584,12.71504 5.46037,13.74626 2.54453,1.03124 -12.3732,-24.05854 -17.1128,-79.74485 -4.72867,-55.68632 7.28414,-139.55609 100.11039,-193.870865 0,0 24.69177,-17.871187 114.27457,-18.56211 89.58279,-0.690923 174.76452,36.783905 195.8743,150.899595 0,0 8.0049,26.12101 6.19205,56.02661 -1.82375,29.90563 -8.37619,51.90172 -5.09998,61.87369 0,0 -8.73658,19.25303 -8.73658,28.53408 l 9.0096,-32.9993 c 0,0 2.59914,11.85912 13.7929,5.15614 0,0 -10.64772,4.12492 0,-8.76544 10.6477,-12.89034 29.08192,4.64053 27.98984,18.95398 -1.09208,14.31343 3.96422,10.96195 3.82225,27.20379 -0.14196,16.24184 -8.19054,41.24912 -42.1868,71.5466 0,0 -5.18734,8.64169 -8.87854,17.78868 -3.69122,9.147 -21.02243,17.14933 -35.08833,15.21061 -14.06592,-1.9387 22.80249,0.39188 16.97082,5.37271 0,0 -7.45887,20.44924 -8.92224,33.5149 -1.46339,13.06566 -16.19546,35.75269 -20.38902,36.09299"
   class="st0" />
<path
   id="path2999"
   d="m 729.99789,391.8891 c 0,0 -7.09848,13.40596 -6.27943,45.37403 0,0 -23.47957,51.3036 -24.84467,62.38929 -1.36509,11.08571 -9.0096,67.80325 -4.91433,76.8265 4.09528,9.02324 -6.27942,75.53745 49.14331,111.88824 55.42273,36.35079 60.8831,39.96008 60.8831,39.96008"
   class="st0" />
<path
   id="path3001"
   d="m 378.35021,487.53549 c 0,0 4.41198,1.0003 9.55565,0"
   class="st1" />
<path
   id="path3003"
   d="m 761.66802,353.21805 c 0,0 7.91754,-3.8671 4.36829,12.89035"
   class="st2" />
<path
   id="path3005"
   d="m 780.50629,352.83649 c 0,0 -6.55244,1.9284 -6.27943,5.27989 0.27302,3.3515 -0.0109,13.14816 -0.0109,13.14816"
   class="st2" />
<path
   id="path3007"
   d="m 761.66802,404.77945 c 0,0 -6.27942,5.92956 -9.28263,19.59333"
   class="st2" />
<path
   id="path3009"
   d="m 737.36939,447.0598 c 0,0 -5.46037,10.82789 -11.19376,15.98404"
   class="st2" />
<path
   id="path3011"
   d="m 506.94188,422.56814 c 0,0 19.3843,-2.57807 29.48598,6.18736 10.10168,8.76544 24.02562,-2.83587 27.30183,-4.38272 3.27624,-1.54684 8.73659,-5.15614 14.46998,-4.89832"
   class="st0" />
<path
   id="path3013"
   d="m 508.66735,502.57081 c 0,0 13.46527,41.94004 8.3762,74.58872 -5.09998,32.65899 -16.74148,48.12741 -17.83355,51.2211"
   class="st2" />
<path
   id="path3015"
   d="m 584.75211,513.91432 c 0,0 -2.91583,67.37011 11.65242,98.30696"
   class="st2" />
<rect
   name="项"
   y="529.04578"
   x="466.74673"
   height="152.25557"
   width="171.53093"
   id="rect3024"
   style="fill:#0000ff;fill-opacity:0.0879121;stroke-width:1.80406;stroke-miterlimit:10" /></svg>
