<?xml version="1.0" encoding="UTF-8" standalone="no"?>
<!-- Created with Inkscape (http://www.inkscape.org/) -->

<svg
   width="53.026386mm"
   height="31.207134mm"
   viewBox="0 0 53.026386 31.207134"
   version="1.1"
   id="svg77015"
   xml:space="preserve"
   inkscape:version="1.2.2 (732a01da63, 2022-12-09)"
   sodipodi:docname="寸口脉.svg"
   xmlns:inkscape="http://www.inkscape.org/namespaces/inkscape"
   xmlns:sodipodi="http://sodipodi.sourceforge.net/DTD/sodipodi-0.dtd"
   xmlns="http://www.w3.org/2000/svg"
   xmlns:svg="http://www.w3.org/2000/svg"><sodipodi:namedview
     id="namedview77017"
     pagecolor="#ffffff"
     bordercolor="#000000"
     borderopacity="0.25"
     inkscape:showpageshadow="2"
     inkscape:pageopacity="0.0"
     inkscape:pagecheckerboard="0"
     inkscape:deskcolor="#d1d1d1"
     inkscape:document-units="mm"
     showgrid="false"
     inkscape:zoom="9.8958612"
     inkscape:cx="148.648"
     inkscape:cy="58.004047"
     inkscape:window-width="1920"
     inkscape:window-height="986"
     inkscape:window-x="-11"
     inkscape:window-y="-11"
     inkscape:window-maximized="1"
     inkscape:current-layer="layer1" /><defs
     id="defs77012"><rect
       x="134.83095"
       y="-12.441483"
       width="53.52731"
       height="37.613785"
       id="rect2058" /></defs><g
     inkscape:label="图层 1"
     inkscape:groupmode="layer"
     id="layer1"
     transform="translate(-32.624636,-108.4348)"><path
       style="fill:#000000;stroke-width:0.264583"
       d="m 41.637488,139.3308 c -0.930532,-0.3336 -1.719792,-1.1545 -1.719792,-1.78872 0,-0.5193 0.977233,-1.49273 1.237388,-1.23258 0.0967,0.0967 -0.09512,0.46421 -0.42626,0.81669 l -0.60207,0.64087 1.152242,0.59145 c 1.00198,0.51432 1.531784,0.58728 4.062659,0.55955 4.563305,-0.05 8.987922,-0.35435 9.271293,-0.63773 0.06921,-0.0692 0.928518,0.0295 1.909567,0.21943 0.981046,0.18989 2.34927,0.34964 3.040494,0.35499 0.761111,0.006 1.256771,0.12908 1.256771,0.31235 0,0.3257 -3.391136,0.1482 -4.884664,-0.25567 -0.430993,-0.11655 -1.383493,-0.12548 -2.116666,-0.0198 -5.545614,0.79897 -10.662817,0.98349 -12.180962,0.43922 z m 19.711458,0.082 c 0,-0.17915 0.808638,-0.28377 2.19337,-0.28377 3.158606,0 6.617933,-0.98923 8.914402,-2.54917 0.990539,-0.67285 1.327645,-0.76915 1.327645,-0.37926 0,0.42692 -1.544463,1.36936 -3.788238,2.3116 -1.956192,0.82148 -2.477333,0.92238 -5.406033,1.04674 -2.216031,0.0941 -3.241146,0.0479 -3.241146,-0.14614 z m -16.492361,-1.51849 c -0.09701,-0.097 -0.172768,-0.36491 -0.168343,-0.59532 0.0066,-0.34403 0.05824,-0.3326 0.288836,0.0639 0.284896,0.48993 0.202302,0.85417 -0.120493,0.53137 z m 4.006613,-0.68952 c -0.361972,-0.75906 -0.363997,-0.90201 -0.01737,-1.22581 0.340413,-0.31799 0.368941,-0.29268 0.215385,0.19114 -0.09735,0.30672 -0.04169,0.81049 0.123679,1.11949 0.165372,0.309 0.252838,0.60966 0.194369,0.66813 -0.05847,0.0585 -0.290698,-0.28036 -0.516063,-0.75295 z m -0.743418,0.20445 c 0,-0.21828 0.04679,-0.39688 0.103984,-0.39688 0.05719,0 0.172517,0.1786 0.256279,0.39688 0.08376,0.21828 0.03697,0.39687 -0.103984,0.39687 -0.140954,0 -0.256279,-0.17859 -0.256279,-0.39687 z m 3.96875,-0.39587 c 0,-0.32076 0.742027,-0.67009 0.960113,-0.45201 0.07895,0.079 -0.104781,0.27644 -0.408286,0.43887 -0.382637,0.20479 -0.551827,0.20881 -0.551827,0.0131 z m -10.318751,-0.73814 c 0,-0.37122 0.668513,-0.58578 1.82513,-0.58578 0.920848,0 3.263208,-0.34125 4.789454,-0.69775 0.569811,-0.1331 0.478163,-0.20296 -0.661458,-0.50424 -0.727605,-0.19236 -2.156355,-0.37453 -3.175,-0.40484 -1.018646,-0.0303 -2.126579,-0.15698 -2.462072,-0.2815 -0.335494,-0.12452 -1.347525,-0.24111 -2.248959,-0.25908 -0.901433,-0.018 -1.877095,-0.16187 -2.168136,-0.31977 -0.291042,-0.15789 -0.737526,-0.2552 -0.992188,-0.21624 -0.254661,0.039 -0.463021,-0.0593 -0.463021,-0.21845 0,-0.15912 -0.416718,-0.65519 -0.926041,-1.10238 -0.646442,-0.56758 -0.926042,-1.03794 -0.926042,-1.55783 0,-0.56571 -0.222564,-0.88232 -0.925717,-1.31689 -0.791252,-0.48902 -0.901231,-0.67471 -0.757149,-1.27835 0.297964,-1.24834 0.646312,-1.67166 1.793049,-2.17891 1.013609,-0.44837 1.112043,-0.5733 1.008348,-1.27982 -0.126255,-0.86023 1.020226,-2.67145 1.690997,-2.67145 0.554964,0 0.445958,0.28864 -0.463278,1.22673 -1.479886,1.52686 -0.331365,2.37669 2.813125,2.08153 4.01496,-0.37687 7.682144,-0.4497 7.387372,-0.14672 -0.297207,0.30549 -2.535668,0.50189 -7.898763,0.69301 -3.555189,0.1267 -4.860822,0.57186 -5.299282,1.80678 -0.566939,1.59679 1.128095,2.40895 4.553902,2.18197 2.324155,-0.15399 3.011164,0.17331 0.95526,0.45511 -1.896431,0.25993 -3.397217,0.20015 -3.746614,-0.14925 -0.246944,-0.24694 -0.3175,-0.14035 -0.3175,0.47967 0,1.49951 2.211527,2.97868 4.53987,3.03649 0.77729,0.0193 1.949036,0.15424 2.60388,0.29988 0.654844,0.14564 1.807272,0.24571 2.56095,0.22238 0.753679,-0.0233 2.003835,0.13772 2.778125,0.3579 2.384964,0.67821 3.936155,0.76456 4.319382,0.24047 0.296785,-0.40588 0.346255,-0.37204 0.476339,0.32588 0.07984,0.42833 0.134045,0.98191 0.12046,1.23017 -0.02943,0.53776 -0.465672,0.34814 -0.465672,-0.20241 0,-0.20969 -0.215183,-0.38126 -0.478183,-0.38126 -0.855186,0 -8.983911,1.0508 -9.41835,1.21751 -0.23222,0.0891 -0.422218,0.043 -0.422218,-0.10256 z m 32.280353,-0.12276 c -5.29e-4,-0.10914 0.523989,-0.19844 1.165868,-0.19844 0.641876,0 1.921798,-0.23659 2.844271,-0.52575 0.978294,-0.30667 2.429528,-0.52718 3.482554,-0.52917 1.582515,-0.003 1.79284,0.0537 1.704078,0.45961 -0.05569,0.25466 -0.27278,0.41309 -0.48242,0.35207 -1.169638,-0.34045 -2.544715,-0.27611 -4.517512,0.21136 -2.136053,0.52781 -4.194384,0.64077 -4.196839,0.23032 z m -16.223549,-0.5617 c -0.08148,-0.21235 -0.08081,-1.03861 0.0016,-1.83614 0.102415,-0.9923 0.01357,-1.84943 -0.281408,-2.71517 -0.442603,-1.29897 -0.576196,-2.46251 -0.244673,-2.13098 0.102515,0.10251 0.228409,0.50014 0.279762,0.8836 0.05135,0.38347 0.220739,0.93521 0.376412,1.22608 0.260567,0.48688 0.364662,4.61058 0.122497,4.85275 -0.05827,0.0583 -0.172611,-0.0678 -0.254095,-0.28014 z m 6.324843,-0.85599 c -1.929807,-1.98706 -3.364994,-4.66444 -3.303312,-6.16242 0.02005,-0.48676 0.103105,-0.3536 0.283853,0.45506 0.331351,1.48246 1.74339,3.85071 3.148065,5.27989 0.611603,0.62227 1.048433,1.19498 0.970733,1.27268 -0.0777,0.0777 -0.572405,-0.30264 -1.099339,-0.84521 z m 9.368354,0.4255 c 0,-0.14552 0.12201,-0.26458 0.271132,-0.26458 0.432723,0 0.866679,-1.37486 0.504589,-1.59865 -0.350213,-0.21644 -0.08228,-1.84094 0.303636,-1.84094 0.33755,0 0.305779,2.1238 -0.04691,3.13552 -0.266525,0.76456 -1.032449,1.18641 -1.032449,0.56865 z m -26.811111,-2.29306 c -0.09701,-0.097 -0.168843,-0.42443 -0.159619,-0.7276 0.01542,-0.50684 0.03718,-0.50019 0.270268,0.0825 0.259109,0.64776 0.205362,0.96111 -0.110649,0.64509 z m 24.165277,-0.48507 c -0.183734,-0.22138 -0.212386,-0.39687 -0.06479,-0.39687 0.14552,0 0.412803,0.17859 0.59396,0.39687 0.183735,0.22139 0.212386,0.39688 0.06479,0.39688 -0.145521,0 -0.412803,-0.1786 -0.59396,-0.39688 z M 45.79011,131.58843 c 0.0054,-0.43656 0.06469,-0.58312 0.131773,-0.32569 0.06708,0.25743 0.06267,0.61462 -0.0098,0.79375 -0.07248,0.17913 -0.127363,-0.0315 -0.121971,-0.46806 z m -5.322359,-0.022 c 0.0127,-0.30822 0.07539,-0.37092 0.159852,-0.15985 0.07643,0.191 0.06703,0.4192 -0.02089,0.50712 -0.08792,0.0879 -0.150453,-0.0683 -0.138965,-0.34727 z m 10.915243,-0.48014 c -0.610005,-0.79785 -3.958865,-1.59152 -6.372069,-1.51016 -1.108878,0.0374 -1.653646,-0.0452 -1.653646,-0.25074 0,-0.49165 5.889471,0.0553 7.540626,0.70025 0.470568,0.18381 0.488955,0.15727 0.16604,-0.23971 -0.308004,-0.37865 -0.307624,-0.44641 0.0025,-0.44641 0.433591,0 1.023905,0.87513 1.183322,1.75426 0.146043,0.80538 -0.247897,0.80197 -0.866774,-0.007 z m 17.456537,-0.68217 c -0.755126,-0.6961 -2.124345,-1.68702 -3.042709,-2.20204 -1.788138,-1.0028 -4.183292,-3.20638 -4.183292,-3.8487 0,-0.21491 0.327422,0.0451 0.727604,0.57786 0.400182,0.53273 1.918229,1.79038 3.373437,2.79477 2.878852,1.98701 4.839071,3.60021 4.630209,3.81053 -0.07276,0.0733 -0.750123,-0.43633 -1.505249,-1.13242 z m 7.701388,0.48799 c -0.07807,-0.12632 0.90687,-0.22028 2.188766,-0.20879 2.688844,0.0241 2.6407,0.1497 -0.122632,0.31994 -1.058301,0.0652 -1.98806,0.0152 -2.066134,-0.11115 z m 2.336673,-1.22086 c 2.010207,-0.0601 2.844271,-0.17941 2.844271,-0.40683 0,-0.20975 0.4606,-0.32178 1.322917,-0.32178 1.685425,0 1.746062,0.388 0.06615,0.42325 -1.024329,0.0215 -1.134433,0.0656 -0.595313,0.23821 0.392335,0.12565 -0.791805,0.1997 -2.910416,0.18202 -3.396602,-0.0284 -3.432305,-0.034 -0.727605,-0.11487 z m -38.166146,-0.3133 c 0,-0.13539 0.53563,-0.22469 1.190289,-0.19844 1.550357,0.0622 1.550646,0.44459 3.36e-4,0.44459 -0.654844,0 -1.190625,-0.11077 -1.190625,-0.24615 z m 24.011531,-0.30073 c -0.545378,-0.28792 -1.706238,-1.22277 -2.579688,-2.07744 -1.421392,-1.39083 -1.585119,-1.66098 -1.559758,-2.57367 l 0.02833,-1.01972 0.251986,1.12532 c 0.298469,1.33291 2.307707,3.46651 4.186714,4.44586 0.656246,0.34204 1.074111,0.62217 0.92859,0.62252 -0.145521,2.6e-4 -0.710801,-0.23495 -1.256178,-0.52287 z m 9.855136,-1.26111 c 0,-0.92076 0.116277,-1.63159 0.266896,-1.63159 0.168391,0 0.203652,0.56147 0.09554,1.52135 -0.230402,2.0456 -0.362437,2.08577 -0.362436,0.11024 z m -34.986077,0.23204 c -0.182874,-0.65117 -0.07348,-1.02805 0.214748,-0.73982 0.08452,0.0845 0.111842,0.43178 0.06072,0.7717 l -0.09295,0.61803 z m 6.940244,0.004 c 0,-0.61542 -0.429054,-0.94887 -0.617972,-0.48028 -0.07707,0.19116 -0.142877,0.20906 -0.15489,0.0421 -0.02497,-0.3469 0.874398,-1.42955 1.187542,-1.42955 0.121176,0 0.08721,0.13311 -0.07548,0.2958 -0.166931,0.16693 -0.232537,0.68564 -0.15059,1.19063 0.07987,0.49215 0.0701,0.89482 -0.0217,0.89482 -0.0918,0 -0.16691,-0.23109 -0.16691,-0.51355 z m 10.339638,-1.22832 c 0.0127,-0.30823 0.07539,-0.37092 0.159851,-0.15986 0.07643,0.191 0.06703,0.4192 -0.02087,0.50712 -0.08792,0.0879 -0.150453,-0.0683 -0.138965,-0.34726 z m 3.725053,-0.11025 c 0,-0.3638 0.06006,-0.51263 0.133454,-0.33073 0.0734,0.1819 0.0734,0.47956 0,0.66146 -0.0734,0.1819 -0.133454,0.0331 -0.133454,-0.33073 z m -4.183689,-1.5875 c -0.155366,-0.58208 -0.192871,-1.05833 -0.08334,-1.05833 0.10953,0 0.271074,0.28659 0.358989,0.63688 0.08792,0.35028 0.232622,0.82653 0.321572,1.05833 0.08895,0.2318 0.05453,0.42146 -0.0765,0.42146 -0.131027,0 -0.365348,-0.47625 -0.520716,-1.05834 z m -4.853919,-0.26458 c 0,-0.15434 -0.881944,-0.26458 -2.116667,-0.26458 -1.372578,0 -2.116666,-0.10309 -2.116666,-0.29323 0,-0.20032 0.712646,-0.25798 2.248958,-0.18198 2.128858,0.10531 2.249459,0.0821 2.258334,-0.43438 0.0052,-0.30009 0.190283,-0.84328 0.411393,-1.20708 l 0.402017,-0.66146 -0.148598,0.79375 c -0.08173,0.43656 -0.222903,1.1807 -0.31372,1.65365 -0.149805,0.78013 -0.625051,1.23276 -0.625051,0.59531 z m -11.1125,-1.83647 c 0,-0.29963 0.119062,-0.54478 0.264583,-0.54478 0.145521,0 0.264583,0.17157 0.264583,0.38126 0,0.20969 -0.119062,0.45484 -0.264583,0.54478 -0.145521,0.0899 -0.264583,-0.0816 -0.264583,-0.38126 z m 6.093831,-1.40468 c 0.0046,-0.1819 0.183222,-0.56184 0.396875,-0.84432 0.414575,-0.54811 0.478884,-0.37995 0.221697,0.57974 -0.168468,0.62864 -0.632889,0.82728 -0.618572,0.26458 z m 13.749919,-0.31511 c 0,-0.35522 0.10509,-0.71079 0.233534,-0.79018 0.128442,-0.0794 0.219001,0.21125 0.20124,0.64585 -0.03852,0.94256 -0.434774,1.0741 -0.434774,0.14433 z m -22.489584,0.003 c 0,-0.41991 1.02303,-0.84674 2.613172,-1.09027 0.818575,-0.12537 1.1048,-0.0913 0.976573,0.11615 -0.09977,0.16142 -0.442255,0.29611 -0.761089,0.29931 -0.318833,0.003 -1.085713,0.2355 -1.704176,0.51623 -0.856066,0.38858 -1.12448,0.42643 -1.12448,0.15858 z m 4.233334,-0.95351 c 0,-0.14095 0.178594,-0.25628 0.396875,-0.25628 0.218281,0 0.396875,0.0468 0.396875,0.10399 0,0.0572 -0.178594,0.17251 -0.396875,0.25627 -0.218281,0.0838 -0.396875,0.037 -0.396875,-0.10398 z m 1.81997,-0.51886 c 0.34614,-0.15109 2.072546,-0.3448 3.836458,-0.43046 1.763913,-0.0857 3.794271,-0.32195 4.511907,-0.5251 1.558504,-0.44118 2.882301,-0.50236 2.267082,-0.10478 -0.218282,0.14107 -0.714375,0.25831 -1.102431,0.26054 -0.388055,0.002 -0.752243,0.14411 -0.809305,0.3153 -0.0686,0.20581 -1.03959,0.3352 -2.866319,0.38196 -1.519414,0.0389 -3.596008,0.13969 -4.614654,0.22399 -1.404468,0.11622 -1.699982,0.0869 -1.222738,-0.12145 z m 30.635587,-0.17839 c -0.09701,-0.097 -0.17639,-0.34972 -0.17639,-0.56156 0,-0.31238 0.07501,-0.32293 0.396875,-0.0558 0.218281,0.18115 0.396875,0.43386 0.396875,0.56156 0,0.27398 -0.366091,0.30707 -0.61736,0.0558 z m 1.150577,-0.0127 c -0.006,-0.47762 0.901528,-0.87454 1.896785,-0.82956 0.800489,0.0362 0.813594,0.0493 0.149685,0.14986 -0.400182,0.0606 -0.727604,0.21764 -0.727604,0.34893 0,0.13129 -0.190611,0.16556 -0.423577,0.0762 -0.232968,-0.0894 -0.528801,0.004 -0.657407,0.20674 -0.158023,0.24957 -0.235143,0.26508 -0.237882,0.0479 z m -14.556134,-0.42819 c 0,-0.24253 -0.18233,-0.44097 -0.405178,-0.44097 -0.22285,0 -0.473387,-0.17774 -0.556752,-0.39499 -0.107458,-0.28003 -0.355317,-0.34426 -0.851593,-0.2207 -0.611685,0.15231 -0.657114,0.1222 -0.360008,-0.23861 0.285988,-0.3473 0.26598,-0.40683 -0.125907,-0.37462 -0.256257,0.0211 -0.468794,-0.1403 -0.472305,-0.35858 -0.0035,-0.22075 -0.299927,-0.43652 -0.66784,-0.48621 -0.363802,-0.0491 -0.899584,-0.30359 -1.190625,-0.56546 -0.291042,-0.26186 -1.04702,-0.73613 -1.679948,-1.05393 -2.793595,-1.4027 -4.725793,-4.28445 -3.976031,-5.93 0.418867,-0.91931 1.668564,-0.92961 4.150867,-0.0342 1.008544,0.36381 2.160289,0.66146 2.559431,0.66146 0.833499,0 2.827772,1.03503 2.625347,1.36256 -0.0744,0.12039 0.03043,0.15529 0.232952,0.0776 0.47996,-0.18418 1.130665,0.55353 0.714902,0.81048 -0.161131,0.0996 -0.732462,-0.12041 -1.269619,-0.48889 -0.537157,-0.36848 -1.333839,-0.7424 -1.770401,-0.83093 -0.436563,-0.0885 -1.944167,-0.52953 -3.350231,-0.97998 -1.406065,-0.45044 -2.760754,-0.7406 -3.010421,-0.6448 -1.115691,0.42813 0.554231,3.82388 2.358223,4.79539 0.635984,0.3425 0.838078,0.57457 0.620659,0.71272 -0.182602,0.11603 0.150403,0.20661 0.767977,0.20891 0.951267,0.004 1.170673,-0.11386 1.719792,-0.92019 0.346178,-0.50832 0.718714,-0.92504 0.827855,-0.92604 0.414218,-0.004 0.162263,0.4119 -0.914985,1.50953 -0.965504,0.98378 -1.038733,1.1345 -0.551214,1.1345 0.309213,0 0.601892,0.0988 0.650401,0.21956 0.04851,0.12076 0.946817,0.72692 1.996244,1.34702 1.719451,1.01602 2.513664,1.90511 2.084859,2.33391 -0.08605,0.0861 -0.156451,-0.042 -0.156451,-0.28452 z m 17.4625,-0.42121 c 0,-0.1283 0.625078,-0.28176 1.389063,-0.34103 1.40159,-0.10872 1.729777,-0.0635 1.464593,0.20165 -0.254924,0.25492 -2.853656,0.38185 -2.853656,0.13938 z M 55.26353,118.49156 c 0,-0.14552 0.185621,-0.26458 0.41249,-0.26458 0.22687,0 0.338905,0.11906 0.248968,0.26458 -0.08994,0.14552 -0.275558,0.26458 -0.412491,0.26458 -0.136932,0 -0.248967,-0.11906 -0.248967,-0.26458 z m 1.165574,-0.22405 c 0.190532,-0.30829 1.744842,-0.32863 1.744842,-0.0228 0,0.13579 -0.423746,0.24689 -0.941657,0.24689 -0.517911,0 -0.879343,-0.10083 -0.803185,-0.22405 z m 16.947504,-0.0581 c -0.284763,-0.46076 0.03956,-0.55834 0.402448,-0.12108 0.20869,0.25145 0.228764,0.40326 0.05332,0.40326 -0.154749,0 -0.359844,-0.12698 -0.455766,-0.28218 z m 9.271297,-0.11057 c 0.436562,-0.20742 0.978297,-0.3825 1.203854,-0.38906 0.225557,-0.007 0.541504,-0.14334 0.702104,-0.30394 0.204332,-0.20433 0.438674,-0.20991 0.780521,-0.0186 0.453212,0.25364 0.440711,0.29126 -0.172937,0.52053 -0.363803,0.13592 -1.256771,0.31936 -1.984375,0.40766 -1.295435,0.1572 -1.306428,0.1527 -0.529167,-0.21659 z M 71.93228,117.03246 c -0.509323,-0.34101 -1.283229,-0.90991 -1.719792,-1.26422 -1.32565,-1.07587 -2.784065,-1.68031 -5.55625,-2.30278 -3.055855,-0.68617 -3.759092,-0.97794 -3.347979,-1.38905 0.19789,-0.19789 0.616098,-0.15688 1.417468,0.139 0.625218,0.23084 2.148599,0.62019 3.385291,0.86521 2.089483,0.41399 2.421869,0.57579 4.69918,2.28746 1.347859,1.01307 2.382821,1.9517 2.299917,2.08584 -0.0829,0.13414 -0.173472,0.23369 -0.201263,0.22123 -0.02779,-0.0125 -0.467249,-0.30167 -0.976572,-0.64269 z m -14.2875,-2.50965 c 0.15576,-0.29104 0.416528,-0.52917 0.579482,-0.52917 0.162954,0 0.08078,0.23813 -0.182607,0.52917 -0.26339,0.29104 -0.524156,0.52917 -0.579483,0.52917 -0.05533,0 0.02685,-0.23813 0.182608,-0.52917 z"
       id="path1838" /><text
       xml:space="preserve"
       style="font-size:5.64444px;line-height:normal;font-family:sans-serif;text-decoration-color:#000000;fill:none;stroke:#000000;stroke-width:0.665001;stroke-dasharray:0.665001, 0.665001;stroke-dashoffset:1.33;-inkscape-stroke:none;paint-order:fill markers stroke;stop-color:#000000"
       x="69.612"
       y="121.15807"
       id="text1948"><tspan
         sodipodi:role="line"
         id="tspan1946"
         style="stroke-width:0.665001"
         x="69.612"
         y="121.15807" /></text><text
       xml:space="preserve"
       transform="matrix(0.26458333,0,0,0.26458333,32.624636,108.4348)"
       id="text2056"
       style="fill:none;stroke-width:2.513389;paint-order:fill markers stroke;font-size:21.33329151px;stroke:#000000;stop-color:#000000;line-height:normal;font-family:sans-serif;text-decoration-color:#000000;stroke-dasharray:2.513389, 2.513389;stroke-dashoffset:5.026768;-inkscape-stroke:none;white-space:pre;shape-inside:url(#rect2058)" /><text
       xml:space="preserve"
       style="font-style:normal;font-variant:normal;font-weight:normal;font-stretch:normal;font-size:3.70911px;line-height:normal;font-family:'Microsoft YaHei UI';-inkscape-font-specification:'Microsoft YaHei UI, Normal';font-variant-ligatures:normal;font-variant-caps:normal;font-variant-numeric:normal;font-variant-east-asian:normal;text-decoration-color:#000000;fill:#000000;fill-opacity:1;stroke:#000000;stroke-width:0;stroke-dasharray:none;stroke-dashoffset:1.33;paint-order:fill markers stroke;stop-color:#000000"
       x="84.665955"
       y="109.40884"
       id="text2642"
       transform="scale(0.88557676,1.1292076)"><tspan
         sodipodi:role="line"
         id="tspan2640"
         style="font-style:normal;font-variant:normal;font-weight:normal;font-stretch:normal;font-size:3.70911px;font-family:'Microsoft YaHei UI';-inkscape-font-specification:'Microsoft YaHei UI, Normal';font-variant-ligatures:normal;font-variant-caps:normal;font-variant-numeric:normal;font-variant-east-asian:normal;fill:#000000;fill-opacity:1;stroke-width:0;stroke-dasharray:none"
         x="84.665955"
         y="109.40884">寸</tspan></text><text
       xml:space="preserve"
       style="font-style:normal;font-variant:normal;font-weight:normal;font-stretch:normal;font-size:3.70911px;line-height:normal;font-family:'Microsoft YaHei UI';-inkscape-font-specification:'Microsoft YaHei UI, Normal';font-variant-ligatures:normal;font-variant-caps:normal;font-variant-numeric:normal;font-variant-east-asian:normal;text-decoration-color:#000000;fill:#000000;fill-opacity:1;stroke:#000000;stroke-width:0;stroke-dasharray:none;stroke-dashoffset:1.33;paint-order:fill markers stroke;stop-color:#000000"
       x="88.712456"
       y="108.77334"
       id="text2642-5"
       transform="scale(0.88557676,1.1292076)"><tspan
         sodipodi:role="line"
         id="tspan2640-4"
         style="font-style:normal;font-variant:normal;font-weight:normal;font-stretch:normal;font-size:3.70911px;font-family:'Microsoft YaHei UI';-inkscape-font-specification:'Microsoft YaHei UI, Normal';font-variant-ligatures:normal;font-variant-caps:normal;font-variant-numeric:normal;font-variant-east-asian:normal;fill:#000000;fill-opacity:1;stroke-width:0;stroke-dasharray:none"
         x="88.712456"
         y="108.77334">关</tspan></text><text
       xml:space="preserve"
       style="font-style:normal;font-variant:normal;font-weight:normal;font-stretch:normal;font-size:3.70911px;line-height:normal;font-family:'Microsoft YaHei UI';-inkscape-font-specification:'Microsoft YaHei UI, Normal';font-variant-ligatures:normal;font-variant-caps:normal;font-variant-numeric:normal;font-variant-east-asian:normal;text-decoration-color:#000000;fill:#000000;fill-opacity:1;stroke:#000000;stroke-width:0;stroke-dasharray:none;stroke-dashoffset:1.33;paint-order:fill markers stroke;stop-color:#000000"
       x="92.644623"
       y="108.18192"
       id="text2642-5-7"
       transform="scale(0.88557676,1.1292076)"
       inkscape:transform-center-x="1.8126709"
       inkscape:transform-center-y="0.59627332"><tspan
         sodipodi:role="line"
         id="tspan2640-4-2"
         style="font-style:normal;font-variant:normal;font-weight:normal;font-stretch:normal;font-size:3.70911px;font-family:'Microsoft YaHei UI';-inkscape-font-specification:'Microsoft YaHei UI, Normal';font-variant-ligatures:normal;font-variant-caps:normal;font-variant-numeric:normal;font-variant-east-asian:normal;fill:#000000;fill-opacity:1;stroke-width:0;stroke-dasharray:none"
         x="92.644623"
         y="108.18192">尺</tspan></text></g></svg>
