<?xml version="1.0" encoding="UTF-8" standalone="no"?>
<!-- Generator: Adobe Illustrator 23.0.2, SVG Export Plug-In . SVG Version: 6.00 Build 0)  -->

<svg
   version="1.1"
   id="图层_1"
   x="0px"
   y="0px"
   viewBox="0 0 632.83139 721.07073"
   xml:space="preserve"
   sodipodi:docname="手臂.svg"
   width="632.83142"
   height="721.07074"
   inkscape:version="1.4 (86a8ad7, 2024-10-11)"
   xmlns:inkscape="http://www.inkscape.org/namespaces/inkscape"
   xmlns:sodipodi="http://sodipodi.sourceforge.net/DTD/sodipodi-0.dtd"
   xmlns="http://www.w3.org/2000/svg"
   xmlns:svg="http://www.w3.org/2000/svg"><defs
   id="defs38" /><sodipodi:namedview
   id="namedview38"
   pagecolor="#ffffff"
   bordercolor="#000000"
   borderopacity="0.25"
   inkscape:showpageshadow="2"
   inkscape:pageopacity="0.0"
   inkscape:pagecheckerboard="0"
   inkscape:deskcolor="#d1d1d1"
   inkscape:zoom="0.92292341"
   inkscape:cx="243.79054"
   inkscape:cy="386.27257"
   inkscape:window-width="1920"
   inkscape:window-height="991"
   inkscape:window-x="-9"
   inkscape:window-y="-9"
   inkscape:window-maximized="1"
   inkscape:current-layer="图层_1" />
<style
   type="text/css"
   id="style1">
	.st0{fill:none;stroke:#000000;stroke-width:2;stroke-linecap:round;stroke-linejoin:round;stroke-miterlimit:10;}
</style>
<path
   class="st0"
   d="m 111.75571,2.22 c 0,0 -8.67,5.33 -8,8 0.67,2.67 -9.000004,9.33 -10.330004,9.67 -1.33,0.33 -24.67,26 -31,72 -6.33,46 11,64.67 19.67,75.33 0,0 2.67,-0.67 0,11.33 -2.67,12 2,102 7.67,117.33 5.67,15.33 -19,41.33 -19,49.67 0,0 -11.33,23 -6,75.67 5.33,52.67 -11.5,87.17 -10.17,125 0,0 -7.83,14.67 -16.17,18.33 0,0 -9.67,7 -15.17,21 -5.5,14 -5.83,19.67 -15.6699999,43 -9.83,23.33 -7.00000005,23.33 -2.17,21.17 4.8299999,-2.16 15.6699999,2.33 25.1699999,-25.5 0,0 2.5,-14.33 10.83,-14.67 0,0 3,-1.5 2.83,13.5 -0.17,15 5.33,18.33 6.17,45.67 0.83,27.33 11.17,48.5 15.83,47.5 4.67,-1 6.5,-4.33 6.17,-20.17 -0.33,-15.83 -1.5,-42.17 -1.5,-42.17 0,0 1.5,60 4.83,63.5 3.33,3.5 12.17,5.83 13.67,-8 1.5,-13.83 -0.5,-63 -0.5,-63 0,0 -0.17,54.17 5.17,57 5.33,2.83 12.830004,3.83 14.170004,-14.17 1.33,-18 2.83,-52.5 2,-53.83 -0.83,-1.33 -4.67,1.33 -4.67,1.33 0,0 8.33,-4.5 9.17,-5.5 l -4.95,4.39 c 0,0 -0.39,46.95 1.95,52.95 2.33,6 8.5,2.17 10,-6.17 1.5,-8.33 6.83,-40.83 4.5,-96.83 0,0 -0.17,-13.33 -12.17,-36.33 0,0 0.33,-14.67 8.67,-38.33 8.33,-23.67 10.33,-36 28,-76.33 0,0 9.67,-50 10.67,-65.33 1,-15.33 4,-15 3.33,-28.33 -0.67,-13.33 -4.67,-50 -2,-65 2.67,-15 6,-83.33 6,-89 0,-5.67 -10.33,-19 -15.67,-32.67 -5.33,-13.67 -4,-16 -12.67,-19.33 0,0 6.67,-2.75 13.58,20.08 0,0 13.42,32.42 26.75,38.42"
   id="path1" />
<path
   class="st0"
   d="m 97.755706,263.89 c 0,0 2,21.33 6.000004,26.33"
   id="path2" />
<path
   class="st0"
   d="m 149.41571,249.56 c 0,0 -3.33,37 -8.33,40.67 0,0 -0.67,2 -5.33,6.33"
   id="path3" />





















<path
   class="st0"
   d="m 58.835706,689.14 c 0,0 6.5,-2 8,0"
   id="path25" />
<path
   class="st0"
   d="m 78.335706,689.14 c 0,0 4,-1.5 6,0"
   id="path26" />
<path
   class="st0"
   d="m 96.585706,679.89 c 0,0 4.750004,-1.5 6.750004,0"
   id="path27" />
<line
   class="st0"
   x1="115.58571"
   y1="664.14001"
   x2="118.08571"
   y2="664.14001"
   id="line27" />
<path
   class="st0"
   d="m 115.58571,648.14 c 0,0 3,-0.5 3.75,0"
   id="path28" />
<path
   class="st0"
   d="m 77.085706,666.39 c 0,0 5.75,-2 7.25,0"
   id="path29" />
<path
   class="st0"
   d="m 96.585706,660.39 c 0,0 2,-1.5 4.500004,0"
   id="path30" />
<path
   class="st0"
   d="m 57.335706,665.95 c 0,0 5,-1.56 8,0.44"
   id="path31" />
<path
   class="st0"
   d="m 6.5557061,631.03 c 0,0 5.2799999,-0.64 4.0299999,4.86 -1.2499999,5.5 -1.9199999,12.25 -1.9199999,12.25"
   id="path32" />
<path
   class="st0"
   d="m 65.335706,647.92 c 0,0 7,-2.22 10.5,0"
   id="path33" />
<path
   class="st0"
   d="m 84.335706,645.89 c 0,0 4.58,-1.5 6.54,0"
   id="path34" />
<path
   class="st0"
   d="m 46.415706,608.06 c 0,0 2,-3.5 4,-3.17"
   id="path35" />
<path
   class="st0"
   d="m 56.585706,608.06 c 0,0 14.83,-2.17 18.17,-4.83"
   id="path36" />
<path
   class="st0"
   d="m 45.585706,631 c 0,0 2.17,-3.11 4.83,-1.95 2.67,1.17 4.67,-0.33 5.17,-1"
   id="path37" />
<path
   class="st0"
   d="m 45.585706,635.45 c 0,0 1.83,1.94 5,1.27"
   id="path38" />
<path
   class="st0"
   d="m 521.07571,1 c 0,0 8.67,5.33 8,8 -0.67,2.67 9,9.33 10.33,9.67 1.33,0.33 24.67,26 31,72 6.33,46 -11,64.67 -19.67,75.33 0,0 -2.67,-0.67 0,11.33 2.67,12 -2,102 -7.67,117.33 -5.67,15.33 19,41.33 19,49.67 0,0 11.33,23 6,75.67 -5.33,52.67 11.5,87.17 10.17,125 0,0 7.83,14.67 16.17,18.33 0,0 9.67,7 15.17,21 5.5,14 5.83,19.67 15.67,43 9.83,23.33 7,23.33 2.17,21.17 -4.83,-2.16 -15.67,2.33 -25.17,-25.5 0,0 -2.5,-14.33 -10.83,-14.67 0,0 -3,-1.5 -2.83,13.5 0.17,15 -5.33,18.33 -6.17,45.67 -0.83,27.33 -11.17,48.5 -15.83,47.5 -4.67,-1 -6.5,-4.33 -6.17,-20.17 0.33,-15.83 1.5,-42.17 1.5,-42.17 0,0 -1.5,60 -4.83,63.5 -3.33,3.5 -12.17,5.83 -13.67,-8 -1.5,-13.83 0.5,-63 0.5,-63 0,0 0.17,54.17 -5.17,57 -5.33,2.83 -12.83,3.83 -14.17,-14.17 -1.33,-18 -2.83,-52.5 -2,-53.83 0.83,-1.33 4.67,1.33 4.67,1.33 0,0 -8.33,-4.5 -9.17,-5.5 l 4.95,4.39 c 0,0 0.39,46.95 -1.95,52.95 -2.33,6 -8.5,2.17 -10,-6.17 -1.5,-8.33 -6.83,-40.83 -4.5,-96.83 0,0 0.17,-13.33 12.17,-36.33 0,0 -0.33,-14.67 -8.67,-38.33 -8.33,-23.67 -10.33,-36 -28,-76.33 0,0 -9.67,-50 -10.67,-65.33 -1,-15.33 -4,-15 -3.33,-28.33 0.67,-13.33 4.67,-50 2,-65 -2.67,-15 -6,-83.33 -6,-89 0,-5.67 10.33,-19 15.67,-32.67 5.33,-13.67 4,-16 12.67,-19.33 0,0 -6.67,-2.75 -13.58,20.08 0,0 -13.42,32.42 -26.75,38.42"
   id="path1-0"
   style="fill:none;stroke:#000000;stroke-width:2;stroke-linecap:round;stroke-linejoin:round;stroke-miterlimit:10" /><path
   class="st0"
   d="m 535.07571,262.67 c 0,0 -2,21.33 -6,26.33"
   id="path2-9"
   style="fill:none;stroke:#000000;stroke-width:2;stroke-linecap:round;stroke-linejoin:round;stroke-miterlimit:10" /><path
   class="st0"
   d="m 483.41571,248.34 c 0,0 3.33,37 8.33,40.67 0,0 0.67,2 5.33,6.33"
   id="path3-4"
   style="fill:none;stroke:#000000;stroke-width:2;stroke-linecap:round;stroke-linejoin:round;stroke-miterlimit:10" /><path
   class="st0"
   d="m 573.99571,687.92 c 0,0 -6.5,-2 -8,0"
   id="path25-8"
   style="fill:none;stroke:#000000;stroke-width:2;stroke-linecap:round;stroke-linejoin:round;stroke-miterlimit:10" /><path
   class="st0"
   d="m 554.49571,687.92 c 0,0 -4,-1.5 -6,0"
   id="path26-8"
   style="fill:none;stroke:#000000;stroke-width:2;stroke-linecap:round;stroke-linejoin:round;stroke-miterlimit:10" /><path
   class="st0"
   d="m 536.24571,678.67 c 0,0 -4.75,-1.5 -6.75,0"
   id="path27-2"
   style="fill:none;stroke:#000000;stroke-width:2;stroke-linecap:round;stroke-linejoin:round;stroke-miterlimit:10" /><line
   class="st0"
   x1="517.24573"
   y1="662.92004"
   x2="514.74573"
   y2="662.92004"
   id="line27-4"
   style="fill:none;stroke:#000000;stroke-width:2;stroke-linecap:round;stroke-linejoin:round;stroke-miterlimit:10" /><path
   class="st0"
   d="m 517.24571,646.92 c 0,0 -3,-0.5 -3.75,0"
   id="path28-5"
   style="fill:none;stroke:#000000;stroke-width:2;stroke-linecap:round;stroke-linejoin:round;stroke-miterlimit:10" /><path
   class="st0"
   d="m 555.74571,665.17 c 0,0 -5.75,-2 -7.25,0"
   id="path29-5"
   style="fill:none;stroke:#000000;stroke-width:2;stroke-linecap:round;stroke-linejoin:round;stroke-miterlimit:10" /><path
   class="st0"
   d="m 536.24571,659.17 c 0,0 -2,-1.5 -4.5,0"
   id="path30-1"
   style="fill:none;stroke:#000000;stroke-width:2;stroke-linecap:round;stroke-linejoin:round;stroke-miterlimit:10" /><path
   class="st0"
   d="m 575.49571,664.73 c 0,0 -5,-1.56 -8,0.44"
   id="path31-7"
   style="fill:none;stroke:#000000;stroke-width:2;stroke-linecap:round;stroke-linejoin:round;stroke-miterlimit:10" /><path
   class="st0"
   d="m 626.27571,629.81 c 0,0 -5.28,-0.64 -4.03,4.86 1.25,5.5 1.92,12.25 1.92,12.25"
   id="path32-1"
   style="fill:none;stroke:#000000;stroke-width:2;stroke-linecap:round;stroke-linejoin:round;stroke-miterlimit:10" /><path
   class="st0"
   d="m 567.49571,646.7 c 0,0 -7,-2.22 -10.5,0"
   id="path33-1"
   style="fill:none;stroke:#000000;stroke-width:2;stroke-linecap:round;stroke-linejoin:round;stroke-miterlimit:10" /><path
   class="st0"
   d="m 548.49571,644.67 c 0,0 -4.58,-1.5 -6.54,0"
   id="path34-5"
   style="fill:none;stroke:#000000;stroke-width:2;stroke-linecap:round;stroke-linejoin:round;stroke-miterlimit:10" /><path
   class="st0"
   d="m 586.41571,606.84 c 0,0 -2,-3.5 -4,-3.17"
   id="path35-2"
   style="fill:none;stroke:#000000;stroke-width:2;stroke-linecap:round;stroke-linejoin:round;stroke-miterlimit:10" /><path
   class="st0"
   d="m 576.24571,606.84 c 0,0 -14.83,-2.17 -18.17,-4.83"
   id="path36-7"
   style="fill:none;stroke:#000000;stroke-width:2;stroke-linecap:round;stroke-linejoin:round;stroke-miterlimit:10" /><path
   class="st0"
   d="m 587.24571,629.78 c 0,0 -2.17,-3.11 -4.83,-1.95 -2.67,1.17 -4.67,-0.33 -5.17,-1"
   id="path37-6"
   style="fill:none;stroke:#000000;stroke-width:2;stroke-linecap:round;stroke-linejoin:round;stroke-miterlimit:10" /><path
   class="st0"
   d="m 587.24571,634.23 c 0,0 -1.83,1.94 -5,1.27"
   id="path38-1"
   style="fill:none;stroke:#000000;stroke-width:2;stroke-linecap:round;stroke-linejoin:round;stroke-miterlimit:10" /></svg>
