<?xml version="1.0" encoding="UTF-8" standalone="no"?>
<!-- Generator: Adobe Illustrator 23.0.2, SVG Export Plug-In . SVG Version: 6.00 Build 0)  -->

<svg
   version="1.1"
   id="图层_1"
   x="0px"
   y="0px"
   viewBox="0 0 268.36836 597.22411"
   xml:space="preserve"
   sodipodi:docname="腿脚.svg"
   width="268.36838"
   height="597.22412"
   inkscape:version="1.4 (86a8ad7, 2024-10-11)"
   xmlns:inkscape="http://www.inkscape.org/namespaces/inkscape"
   xmlns:sodipodi="http://sodipodi.sourceforge.net/DTD/sodipodi-0.dtd"
   xmlns="http://www.w3.org/2000/svg"
   xmlns:svg="http://www.w3.org/2000/svg"><defs
   id="defs114">
	
	
	
	
	
	
	
	
	
	
	
	
	
	
	
	
	
	
	
	
	
	
	
	
	
	
	
	
	
	
	
	
	
	
	
	
	
	
	
	
	
	
	
	
	
	
	
	
	
	
	
	
	
	
	
	
	
	
	
	
	
	
	
	
</defs><sodipodi:namedview
   id="namedview114"
   pagecolor="#ffffff"
   bordercolor="#000000"
   borderopacity="0.25"
   inkscape:showpageshadow="2"
   inkscape:pageopacity="0.0"
   inkscape:pagecheckerboard="0"
   inkscape:deskcolor="#d1d1d1"
   inkscape:zoom="0.92292341"
   inkscape:cx="230.78838"
   inkscape:cy="322.34528"
   inkscape:window-width="1920"
   inkscape:window-height="991"
   inkscape:window-x="-9"
   inkscape:window-y="-9"
   inkscape:window-maximized="1"
   inkscape:current-layer="图层_1" />
<style
   type="text/css"
   id="style1">
	.st0{fill:none;stroke:#000000;stroke-width:2;stroke-linecap:round;stroke-linejoin:round;stroke-miterlimit:10;}
</style>
<path
   class="st0"
   d="m 10.007863,96.7 c -0.8799997,6.38 -1.6199997,12.77 -2.6499997,19.12 -1.81,11.07 -1.47,22.25 -1.73,33.38 -0.14,6.23 -0.02,12.5 0.11,18.75 0.3,14.43 1.69,28.76 2.59,43.13 0.69,11.03 1.53,22.07 3.0599997,32.95 1.29,9.13 1.35,18.44 3.59,27.39 1.65,6.62 3.92,13.11 6.36,19.49 1.94,5.08 2.46,10.55 5.03,15.48 1.12,2.15 -0.29,5.08 -1.09,7.39 -1.83,5.25 -1.12,10.31 0.16,15.4 0.37,1.45 0.43,2.75 -0.04,4.14 -1.57,4.65 -2.23,9.17 -1.42,14.29 0.66,4.15 -0.7,8.87 -2.08,13.04 -2.55,7.74 -4.3,15.67 -4.97,23.68 -0.75,8.95 -0.05,17.99 0.53,26.99 0.41,6.36 0.28,12.75 0.44,19.12 0.06,2.5 0.27,5 0.35,7.5 0.04,1.09 0.16,2.25 0.15,3.33"
   id="path5" /><path
   class="st0"
   d="m 97.817863,124.95 c 0,3.13 -0.05,2.59 -0.08,3.62 -0.08,3 -0.78,6.1 -0.25,8.98 1.24,6.64 2.659997,13.16 7.649997,18.5 4.11,4.39 4.26,10.35 3.04,16.01 -1.17,5.45 -1.93,10.96 -4.28,16.21 -1.9,4.22 -2.01,9.19 -1.87,13.8 0.13,4.09 -0.24,8.14 -1.05,11.97 -2.059997,9.72 -4.969997,19.25 -7.319997,28.92 -1.82,7.52 -1.43,15.18 -1.29,22.87 0.12,6.99 -0.21,14.01 -1.23,21.02 -1.04,7.15 -2.97,13.51 -3.64,21.3 -0.03,0.42 -0.12,0.56 -0.25,0.81 -3.61,6.52 -2.24,13.4 -1.52,20.25 0.41,3.94 -1.16,7.64 -2.35,11.21 -2.18,6.52 -3.18,15.99 -5.98,22.31 0.53,2.4 -14.63,7.67 -0.32,1.03 1.38,1.41 1.04,3.51 0.69,5.18 -0.32,1.56 -0.35,1.9 -0.17,3.87"
   id="path9" /><path
   class="st0"
   d="m 38.507863,2.58 c -3.41,0.78 -3.7,3.56 -4.6,6.34 -2.3,7.1 -5.8,13.76 -7.96,20.98 -0.97,3.25 0.22,6.29 -0.66,9.51 -0.53,1.95 -0.48,4.18 -1.3,6.34 -1.3,3.45 -1.95,7.11 -2.48,10.82 -0.54,3.71 -2.09,7.28 -3.25,10.89 -1.87,5.81 -3.97,11.52 -4.98,17.61 -0.49,2.98 -1.54,4.78 -2.43,7.73 -0.16,0.53 -0.67,2.57 -1.0399997,5.46"
   id="path15" /><path
   class="st0"
   d="m 18.447863,439.45 c -0.44,5.82 1.87,11.1 3.44,16.48 2.25,7.75 2.97,15.69 3.4,23.65 0.23,4.35 2.39,8.12 2.75,12.37 0.39,4.68 2.4,9.12 2.18,13.87 -0.08,1.74 0.32,3.93 0.97,4.75 3.87,4.89 0.78,8.96 -0.91,13.26 -0.89,2.25 -1.66,4.54 -2.65,6.74 -0.88,1.93 -1.05,3.8 0.05,5.63 0.86,1.43 0.51,2.87 -0.06,4.12 -2.6,5.73 -4.67,11.67 -9.97,15.91 -2.55,2.04 -4.23,5.44 -5.63,8.53 -1.2,2.65 -2.7599997,4.36 -5.3299997,5.64 -2.69,1.34 -4.02,4.05 -5.29,6.68 -0.76999999,1.58 -0.45999999,3.25 0.82,4.02 1.05,0.63 2.89,1.31 4.01,0.07 1.92,-2.13 3.9399997,-1.09 5.2099997,0.13 2.17,2.08 4.58,2.56 7.2,2.09 2.13,-0.38 4.55,2.02 6.39,-0.68"
   id="path16" /><path
   class="st0"
   d="m 77.617863,370.83 c -0.35,4.54 0.18,8.27 0.98,12.38 0.47,2.46 0.81,5 0.74,7.49 -0.21,7.9 0.47,15.75 0.75,23.63 0.11,3.24 -2.13,5.95 -2.33,9.36 -0.72,11.95 -3.92,23.46 -7.35,34.89 -1.5,5 -2.14,10.3 -2.07,15.37 0.14,10.67 -1.65,21.24 -1.24,31.87 0.25,6.39 0.45,12.81 1.71,19.15 0.42,2.14 0.17,4.57 -0.36,6.71 -0.96,3.85 -0.32,7.82 -1.34,11.67 -0.4,1.5 -0.11,3.21 0.42,4.87 1.44,4.58 1.09,9.01 -0.95,13.53 -1.46,3.23 -2.2,6.71 -0.4,10.5 2.78,5.85 -0.99,15.45 -6.68,17.88 -0.91,0.39 -2.22,-0.18 -3.34,-0.3"
   id="path17" /><path
   class="st0"
   d="m 69.257863,71.2 c 3,4.63 4.88,7.08 7.11,10.88 6.76,9.37 13.47,17.03 20.24,25.51 0.29,0.37 1.11,1.73 1.23,2.23"
   id="path18" /><path
   class="st0"
   d="m 38.127863,315.33 c 0.04,3.76 -1.73,6.96 -3.41,10.1 -3.67,6.83 -2.77,20.66 1.91,26.65"
   id="path19" /><path
   class="st0"
   d="m 31.197863,293.01 c 2.99,4.22 3.49,9.28 3.75,14.07 0.24,4.47 -0.66,9.1 -2.06,13.49"
   id="path26" /><path
   class="st0"
   d="m 35.877863,574.45 c -2.87,1.87 -6.56,2.15 -9.03,4.85 -1.62,1.77 -1.87,3.07 0.78,3.75 1.71,0.43 2.75,1.77 4.12,2.65"
   id="path32" /><path
   class="st0"
   d="m 60.627863,47.2 c -1.24,2.97 -0.02,5.66 1.17,8.23 1.44,3.09 3.21,6.02 4.83,9.02"
   id="path33" /><path
   class="st0"
   d="m 5.1278633,582.33 c -0.25,0.88 -0.35,1.84 -0.78,2.61 -0.85,1.51 -0.12,2.08 1.15,2.67 1.8,0.84 3.66,1.88 5.6199997,1.42 5.11,-1.21 9.75,1.39 14.64,1.48 2.53,0.04 4.55,1.07 6.33,2.39 3.56,2.64 7.23,4.03 11.68,2.98 1.18,-0.28 2.49,-0.08 3.74,-0.03 0.5,0.02 1.09,0.47 1.49,0.32 2.72,-0.99 3.69,-4.08 6.34,-5.31 0.93,-0.43 0.33,-2.14 0.42,-3.27"
   id="path37" /><path
   class="st0"
   d="m 66.627863,348.7 c -0.88,1.25 -2.04,2.39 -2.57,3.77 -1.35,3.57 -3.67,5.52 -7.56,5.65 -0.64,0.02 -1.25,0.7 -1.88,1.08"
   id="path41" /><path
   class="st0"
   d="m 26.507863,574.08 c -0.87,0.12 -1.86,0.03 -2.61,0.41 -5.31,2.65 -7.85,2.03 -6.78,10.84 0.1,0.86 0.01,1.75 0.01,2.62"
   id="path42" /><path
   class="st0"
   d="m 25.117863,40.11 c 0,3.59 2.67,9.02 4.23,11.68 0.59,1 0.79,2.53 2.04,4.03"
   id="path46" /><path
   class="st0"
   d="m 46.007863,574.08 c -0.39,3.49 -3.21,5.43 -5.7,6.58 -4.47,2.06 -7.55,5.44 -10.8,8.79"
   id="path50" /><path
   class="st0"
   d="m 90.257863,109.83 c 3.2,1.19 5.02,3.83 5.89,6.78 0.91,3.1 1.87,5.75 1.67,9.72"
   id="path52" /><path
   class="st0"
   d="m 40.007863,581.95 c 0.2,1.59 1,2.5 2.6,3.08 1.06,0.38 2.16,1.67 1.45,2.87 -0.69,1.16 -1.7,2.33 -3.69,1.62 -2.23,-0.8 -4.72,-0.83 -6.72,-2.32"
   id="path53" /><path
   class="st0"
   d="m 71.507863,334.08 c 1.86,3.08 -0.43,6 -0.33,9 0.09,2.78 -1.67,5.13 -1.54,7.88"
   id="path58" /><path
   class="st0"
   d="m 13.007863,572.58 c -2.65,1.71 -5.0899997,3.58 -5.2499997,7.13"
   id="path59" /><path
   class="st0"
   d="m 258.36052,95.12 c 0.88,6.38 1.62,12.77 2.65,19.12 1.81,11.07 1.47,22.25 1.73,33.38 0.14,6.23 0.02,12.5 -0.11,18.75 -0.3,14.43 -1.69,28.76 -2.59,43.13 -0.69,11.03 -1.53,22.07 -3.06,32.95 -1.29,9.13 -1.35,18.44 -3.59,27.39 -1.65,6.62 -3.92,13.11 -6.36,19.49 -1.94,5.08 -2.46,10.55 -5.03,15.48 -1.12,2.15 0.29,5.08 1.09,7.39 1.83,5.25 1.12,10.31 -0.16,15.4 -0.37,1.45 -0.43,2.75 0.04,4.14 1.57,4.65 2.23,9.17 1.42,14.29 -0.66,4.15 0.7,8.87 2.08,13.04 2.55,7.74 4.3,15.67 4.97,23.68 0.75,8.95 0.05,17.99 -0.53,26.99 -0.41,6.36 -0.28,12.75 -0.44,19.12 -0.06,2.5 -0.27,5 -0.35,7.5 -0.04,1.09 -0.16,2.25 -0.15,3.33"
   id="path5-4"
   style="fill:none;stroke:#000000;stroke-width:2;stroke-linecap:round;stroke-linejoin:round;stroke-miterlimit:10" /><path
   class="st0"
   d="m 170.55052,123.37 c 0,3.13 0.05,2.59 0.08,3.62 0.08,3 0.78,6.1 0.25,8.98 -1.24,6.64 -2.66,13.16 -7.65,18.5 -4.11,4.39 -4.26,10.35 -3.04,16.01 1.17,5.45 1.93,10.96 4.28,16.21 1.9,4.22 2.01,9.19 1.87,13.8 -0.13,4.09 0.24,8.14 1.05,11.97 2.06,9.72 4.97,19.25 7.32,28.92 1.82,7.52 1.43,15.18 1.29,22.87 -0.12,6.99 0.21,14.01 1.23,21.02 1.04,7.15 2.97,13.51 3.64,21.3 0.03,0.42 0.12,0.56 0.25,0.81 3.61,6.52 2.24,13.4 1.52,20.25 -0.41,3.94 1.16,7.64 2.35,11.21 2.18,6.52 3.18,15.99 5.98,22.31 -0.53,2.4 14.63,7.67 0.32,1.03 -1.38,1.41 -1.04,3.51 -0.69,5.18 0.32,1.56 0.35,1.9 0.17,3.87"
   id="path9-2"
   style="fill:none;stroke:#000000;stroke-width:2;stroke-linecap:round;stroke-linejoin:round;stroke-miterlimit:10" /><path
   class="st0"
   d="m 229.86052,1 c 3.41,0.78 3.7,3.56 4.6,6.34 2.3,7.1 5.8,13.76 7.96,20.98 0.97,3.25 -0.22,6.29 0.66,9.51 0.53,1.95 0.48,4.18 1.3,6.34 1.3,3.45 1.95,7.11 2.48,10.82 0.54,3.71 2.09,7.28 3.25,10.89 1.87,5.81 3.97,11.52 4.98,17.61 0.49,2.98 1.54,4.78 2.43,7.73 0.16,0.53 0.67,2.57 1.04,5.46"
   id="path15-3"
   style="fill:none;stroke:#000000;stroke-width:2;stroke-linecap:round;stroke-linejoin:round;stroke-miterlimit:10" /><path
   class="st0"
   d="m 249.92052,437.87 c 0.44,5.82 -1.87,11.1 -3.44,16.48 -2.25,7.75 -2.97,15.69 -3.4,23.65 -0.23,4.35 -2.39,8.12 -2.75,12.37 -0.39,4.68 -2.4,9.12 -2.18,13.87 0.08,1.74 -0.32,3.93 -0.97,4.75 -3.87,4.89 -0.78,8.96 0.91,13.26 0.89,2.25 1.66,4.54 2.65,6.74 0.88,1.93 1.05,3.8 -0.05,5.63 -0.86,1.43 -0.51,2.87 0.06,4.12 2.6,5.73 4.67,11.67 9.97,15.91 2.55,2.04 4.23,5.44 5.63,8.53 1.2,2.65 2.76,4.36 5.33,5.64 2.69,1.34 4.02,4.05 5.29,6.68 0.77,1.58 0.46,3.25 -0.82,4.02 -1.05,0.63 -2.89,1.31 -4.01,0.07 -1.92,-2.13 -3.94,-1.09 -5.21,0.13 -2.17,2.08 -4.58,2.56 -7.2,2.09 -2.13,-0.38 -4.55,2.02 -6.39,-0.68"
   id="path16-2"
   style="fill:none;stroke:#000000;stroke-width:2;stroke-linecap:round;stroke-linejoin:round;stroke-miterlimit:10" /><path
   class="st0"
   d="m 190.75052,369.25 c 0.35,4.54 -0.18,8.27 -0.98,12.38 -0.47,2.46 -0.81,5 -0.74,7.49 0.21,7.9 -0.47,15.75 -0.75,23.63 -0.11,3.24 2.13,5.95 2.33,9.36 0.72,11.95 3.92,23.46 7.35,34.89 1.5,5 2.14,10.3 2.07,15.37 -0.14,10.67 1.65,21.24 1.24,31.87 -0.25,6.39 -0.45,12.81 -1.71,19.15 -0.42,2.14 -0.17,4.57 0.36,6.71 0.96,3.85 0.32,7.82 1.34,11.67 0.4,1.5 0.11,3.21 -0.42,4.87 -1.44,4.58 -1.09,9.01 0.95,13.53 1.46,3.23 2.2,6.71 0.4,10.5 -2.78,5.85 0.99,15.45 6.68,17.88 0.91,0.39 2.22,-0.18 3.34,-0.3"
   id="path17-2"
   style="fill:none;stroke:#000000;stroke-width:2;stroke-linecap:round;stroke-linejoin:round;stroke-miterlimit:10" /><path
   class="st0"
   d="m 199.11052,69.62 c -3,4.63 -4.88,7.08 -7.11,10.88 -6.76,9.37 -13.47,17.03 -20.24,25.51 -0.29,0.37 -1.11,1.73 -1.23,2.23"
   id="path18-1"
   style="fill:none;stroke:#000000;stroke-width:2;stroke-linecap:round;stroke-linejoin:round;stroke-miterlimit:10" /><path
   class="st0"
   d="m 230.24052,313.75 c -0.04,3.76 1.73,6.96 3.41,10.1 3.67,6.83 2.77,20.66 -1.91,26.65"
   id="path19-6"
   style="fill:none;stroke:#000000;stroke-width:2;stroke-linecap:round;stroke-linejoin:round;stroke-miterlimit:10" /><path
   class="st0"
   d="m 237.17052,291.43 c -2.99,4.22 -3.49,9.28 -3.75,14.07 -0.24,4.47 0.66,9.1 2.06,13.49"
   id="path26-8"
   style="fill:none;stroke:#000000;stroke-width:2;stroke-linecap:round;stroke-linejoin:round;stroke-miterlimit:10" /><path
   class="st0"
   d="m 232.49052,572.87 c 2.87,1.87 6.56,2.15 9.03,4.85 1.62,1.77 1.87,3.07 -0.78,3.75 -1.71,0.43 -2.75,1.77 -4.12,2.65"
   id="path32-5"
   style="fill:none;stroke:#000000;stroke-width:2;stroke-linecap:round;stroke-linejoin:round;stroke-miterlimit:10" /><path
   class="st0"
   d="m 207.74052,45.62 c 1.24,2.97 0.02,5.66 -1.17,8.23 -1.44,3.09 -3.21,6.02 -4.83,9.02"
   id="path33-7"
   style="fill:none;stroke:#000000;stroke-width:2;stroke-linecap:round;stroke-linejoin:round;stroke-miterlimit:10" /><path
   class="st0"
   d="m 263.24052,580.75 c 0.25,0.88 0.35,1.84 0.78,2.61 0.85,1.51 0.12,2.08 -1.15,2.67 -1.8,0.84 -3.66,1.88 -5.62,1.42 -5.11,-1.21 -9.75,1.39 -14.64,1.48 -2.53,0.04 -4.55,1.07 -6.33,2.39 -3.56,2.64 -7.23,4.03 -11.68,2.98 -1.18,-0.28 -2.49,-0.08 -3.74,-0.03 -0.5,0.02 -1.09,0.47 -1.49,0.32 -2.72,-0.99 -3.69,-4.08 -6.34,-5.31 -0.93,-0.43 -0.33,-2.14 -0.42,-3.27"
   id="path37-6"
   style="fill:none;stroke:#000000;stroke-width:2;stroke-linecap:round;stroke-linejoin:round;stroke-miterlimit:10" /><path
   class="st0"
   d="m 201.74052,347.12 c 0.88,1.25 2.04,2.39 2.57,3.77 1.35,3.57 3.67,5.52 7.56,5.65 0.64,0.02 1.25,0.7 1.88,1.08"
   id="path41-1"
   style="fill:none;stroke:#000000;stroke-width:2;stroke-linecap:round;stroke-linejoin:round;stroke-miterlimit:10" /><path
   class="st0"
   d="m 241.86052,572.5 c 0.87,0.12 1.86,0.03 2.61,0.41 5.31,2.65 7.85,2.03 6.78,10.84 -0.1,0.86 -0.01,1.75 -0.01,2.62"
   id="path42-8"
   style="fill:none;stroke:#000000;stroke-width:2;stroke-linecap:round;stroke-linejoin:round;stroke-miterlimit:10" /><path
   class="st0"
   d="m 243.25052,38.53 c 0,3.59 -2.67,9.02 -4.23,11.68 -0.59,1 -0.79,2.53 -2.04,4.03"
   id="path46-9"
   style="fill:none;stroke:#000000;stroke-width:2;stroke-linecap:round;stroke-linejoin:round;stroke-miterlimit:10" /><path
   class="st0"
   d="m 222.36052,572.5 c 0.39,3.49 3.21,5.43 5.7,6.58 4.47,2.06 7.55,5.44 10.8,8.79"
   id="path50-2"
   style="fill:none;stroke:#000000;stroke-width:2;stroke-linecap:round;stroke-linejoin:round;stroke-miterlimit:10" /><path
   class="st0"
   d="m 178.11052,108.25 c -3.2,1.19 -5.02,3.83 -5.89,6.78 -0.91,3.1 -1.87,5.75 -1.67,9.72"
   id="path52-7"
   style="fill:none;stroke:#000000;stroke-width:2;stroke-linecap:round;stroke-linejoin:round;stroke-miterlimit:10" /><path
   class="st0"
   d="m 228.36052,580.37 c -0.2,1.59 -1,2.5 -2.6,3.08 -1.06,0.38 -2.16,1.67 -1.45,2.87 0.69,1.16 1.7,2.33 3.69,1.62 2.23,-0.8 4.72,-0.83 6.72,-2.32"
   id="path53-9"
   style="fill:none;stroke:#000000;stroke-width:2;stroke-linecap:round;stroke-linejoin:round;stroke-miterlimit:10" /><path
   class="st0"
   d="m 196.86052,332.5 c -1.86,3.08 0.43,6 0.33,9 -0.09,2.78 1.67,5.13 1.54,7.88"
   id="path58-5"
   style="fill:none;stroke:#000000;stroke-width:2;stroke-linecap:round;stroke-linejoin:round;stroke-miterlimit:10" /><path
   class="st0"
   d="m 255.36052,571 c 2.65,1.71 5.09,3.58 5.25,7.13"
   id="path59-4"
   style="fill:none;stroke:#000000;stroke-width:2;stroke-linecap:round;stroke-linejoin:round;stroke-miterlimit:10" />








</svg>
