<?xml version="1.0" encoding="UTF-8" standalone="no"?>
<!DOCTYPE svg PUBLIC "-//W3C//DTD SVG 1.1//EN"
 "http://www.w3.org/Graphics/SVG/1.1/DTD/svg11.dtd">
<!-- Generated by graphviz version 2.38.0 (20140413.2041)
 -->
<!-- Title: g1 Pages: 1 -->
<svg width="981pt" height="981pt"
 viewBox="0.00 0.00 981.07 981.07" xmlns="http://www.w3.org/2000/svg" xmlns:xlink="http://www.w3.org/1999/xlink">
<g id="graph0" class="graph" transform="scale(1 1) rotate(0) translate(4 977.075)">
<title>g1</title>
<polygon fill="white" stroke="none" points="-4,4 -4,-977.075 977.075,-977.075 977.075,4 -4,4"/>
<!-- 手太阴肺经 -->
<g id="node1" class="node"><title>手太阴肺经</title>
<ellipse fill="none" stroke="black" cx="814.023" cy="-293.892" rx="51.9908" ry="51.9908"/>
<text text-anchor="middle" x="814.023" y="-290.192" font-family="Times New Roman,serif" font-size="14.00">手太阴肺经</text>
</g>
<!-- 手阳明大肠经 -->
<g id="node2" class="node"><title>手阳明大肠经</title>
<ellipse fill="none" stroke="black" cx="679.182" cy="-159.052" rx="60.3893" ry="60.3893"/>
<text text-anchor="middle" x="679.182" y="-155.352" font-family="Times New Roman,serif" font-size="14.00">手阳明大肠经</text>
</g>
<!-- 手太阴肺经&#45;&gt;手阳明大肠经 -->
<g id="edge1" class="edge"><title>手太阴肺经&#45;&gt;手阳明大肠经</title>
<path fill="none" stroke="black" d="M777.177,-257.047C762.436,-242.305 745.221,-225.09 729.368,-209.238"/>
<polygon fill="black" stroke="black" points="731.74,-206.66 722.194,-202.064 726.79,-211.61 731.74,-206.66"/>
<text text-anchor="middle" x="733.773" y="-236.942" font-family="Times New Roman,serif" font-size="14.00">食指端</text>
</g>
<!-- 足阳明胃经 -->
<g id="node3" class="node"><title>足阳明胃经</title>
<ellipse fill="none" stroke="black" cx="494.987" cy="-109.697" rx="51.9908" ry="51.9908"/>
<text text-anchor="middle" x="494.987" y="-105.997" font-family="Times New Roman,serif" font-size="14.00">足阳明胃经</text>
</g>
<!-- 手阳明大肠经&#45;&gt;足阳明胃经 -->
<g id="edge2" class="edge"><title>手阳明大肠经&#45;&gt;足阳明胃经</title>
<path fill="none" stroke="black" d="M620.648,-143.368C599.732,-137.763 576.14,-131.442 555.094,-125.802"/>
<polygon fill="black" stroke="black" points="555.872,-122.387 545.306,-123.18 554.06,-129.149 555.872,-122.387"/>
<text text-anchor="middle" x="568.371" y="-138.385" font-family="Times New Roman,serif" font-size="14.00">鼻翼旁</text>
</g>
<!-- 足太阴脾经 -->
<g id="node4" class="node"><title>足太阴脾经</title>
<ellipse fill="none" stroke="black" cx="310.791" cy="-159.052" rx="51.9908" ry="51.9908"/>
<text text-anchor="middle" x="310.791" y="-155.352" font-family="Times New Roman,serif" font-size="14.00">足太阴脾经</text>
</g>
<!-- 足阳明胃经&#45;&gt;足太阴脾经 -->
<g id="edge3" class="edge"><title>足阳明胃经&#45;&gt;足太阴脾经</title>
<path fill="none" stroke="black" d="M444.654,-123.183C421.811,-129.304 394.619,-136.59 370.729,-142.991"/>
<polygon fill="black" stroke="black" points="369.816,-139.613 361.062,-145.582 371.627,-146.374 369.816,-139.613"/>
<text text-anchor="middle" x="407.692" y="-121.887" font-family="Times New Roman,serif" font-size="14.00">足大趾端</text>
</g>
<!-- 手少阴心经 -->
<g id="node5" class="node"><title>手少阴心经</title>
<ellipse fill="none" stroke="black" cx="175.95" cy="-293.892" rx="51.9908" ry="51.9908"/>
<text text-anchor="middle" x="175.95" y="-290.192" font-family="Times New Roman,serif" font-size="14.00">手少阴心经</text>
</g>
<!-- 足太阴脾经&#45;&gt;手少阴心经 -->
<g id="edge4" class="edge"><title>足太阴脾经&#45;&gt;手少阴心经</title>
<path fill="none" stroke="black" d="M273.945,-195.898C257.297,-212.545 237.494,-232.349 220.061,-249.781"/>
<polygon fill="black" stroke="black" points="217.348,-247.545 212.751,-257.091 222.297,-252.495 217.348,-247.545"/>
<text text-anchor="middle" x="234.003" y="-226.639" font-family="Times New Roman,serif" font-size="14.00">心中</text>
</g>
<!-- 手太阳小肠经 -->
<g id="node6" class="node"><title>手太阳小肠经</title>
<ellipse fill="none" stroke="black" cx="126.595" cy="-478.088" rx="60.3893" ry="60.3893"/>
<text text-anchor="middle" x="126.595" y="-474.388" font-family="Times New Roman,serif" font-size="14.00">手太阳小肠经</text>
</g>
<!-- 手少阴心经&#45;&gt;手太阳小肠经 -->
<g id="edge5" class="edge"><title>手少阴心经&#45;&gt;手太阳小肠经</title>
<path fill="none" stroke="black" d="M162.464,-344.225C157.043,-364.454 150.709,-388.094 144.885,-409.831"/>
<polygon fill="black" stroke="black" points="141.457,-409.1 142.25,-419.665 148.219,-410.912 141.457,-409.1"/>
<text text-anchor="middle" x="134.174" y="-380.828" font-family="Times New Roman,serif" font-size="14.00">小指端</text>
</g>
<!-- 足太阳膀胱经 -->
<g id="node7" class="node"><title>足太阳膀胱经</title>
<ellipse fill="none" stroke="black" cx="175.95" cy="-662.284" rx="60.3893" ry="60.3893"/>
<text text-anchor="middle" x="175.95" y="-658.584" font-family="Times New Roman,serif" font-size="14.00">足太阳膀胱经</text>
</g>
<!-- 手太阳小肠经&#45;&gt;足太阳膀胱经 -->
<g id="edge6" class="edge"><title>手太阳小肠经&#45;&gt;足太阳膀胱经</title>
<path fill="none" stroke="black" d="M142.279,-536.622C147.159,-554.832 152.581,-575.07 157.625,-593.891"/>
<polygon fill="black" stroke="black" points="154.253,-594.833 160.222,-603.586 161.015,-593.021 154.253,-594.833"/>
<text text-anchor="middle" x="130.452" y="-569.057" font-family="Times New Roman,serif" font-size="14.00">目内眦</text>
</g>
<!-- 足少阴肾经 -->
<g id="node8" class="node"><title>足少阴肾经</title>
<ellipse fill="none" stroke="black" cx="310.791" cy="-797.124" rx="51.9908" ry="51.9908"/>
<text text-anchor="middle" x="310.791" y="-793.424" font-family="Times New Roman,serif" font-size="14.00">足少阴肾经</text>
</g>
<!-- 足太阳膀胱经&#45;&gt;足少阴肾经 -->
<g id="edge7" class="edge"><title>足太阳膀胱经&#45;&gt;足少阴肾经</title>
<path fill="none" stroke="black" d="M218.985,-705.319C234.087,-720.421 251.075,-737.409 266.295,-752.628"/>
<polygon fill="black" stroke="black" points="264.062,-755.345 273.608,-759.941 269.011,-750.395 264.062,-755.345"/>
<text text-anchor="middle" x="216.64" y="-732.773" font-family="Times New Roman,serif" font-size="14.00">足小趾端</text>
</g>
<!-- 手厥阴心包经 -->
<g id="node9" class="node"><title>手厥阴心包经</title>
<ellipse fill="none" stroke="black" cx="494.987" cy="-846.479" rx="60.3893" ry="60.3893"/>
<text text-anchor="middle" x="494.987" y="-842.779" font-family="Times New Roman,serif" font-size="14.00">手厥阴心包经</text>
</g>
<!-- 足少阴肾经&#45;&gt;手厥阴心包经 -->
<g id="edge8" class="edge"><title>足少阴肾经&#45;&gt;手厥阴心包经</title>
<path fill="none" stroke="black" d="M361.123,-810.611C381.352,-816.031 404.992,-822.365 426.729,-828.19"/>
<polygon fill="black" stroke="black" points="425.998,-831.617 436.564,-830.825 427.81,-824.856 425.998,-831.617"/>
<text text-anchor="middle" x="380.926" y="-823.2" font-family="Times New Roman,serif" font-size="14.00">胸中</text>
</g>
<!-- 手少阳三焦经 -->
<g id="node10" class="node"><title>手少阳三焦经</title>
<ellipse fill="none" stroke="black" cx="679.182" cy="-797.124" rx="60.3893" ry="60.3893"/>
<text text-anchor="middle" x="679.182" y="-793.424" font-family="Times New Roman,serif" font-size="14.00">手少阳三焦经</text>
</g>
<!-- 手厥阴心包经&#45;&gt;手少阳三焦经 -->
<g id="edge9" class="edge"><title>手厥阴心包经&#45;&gt;手少阳三焦经</title>
<path fill="none" stroke="black" d="M553.52,-830.795C571.73,-825.916 591.969,-820.493 610.79,-815.45"/>
<polygon fill="black" stroke="black" points="611.731,-818.821 620.485,-812.852 609.92,-812.06 611.731,-818.821"/>
<text text-anchor="middle" x="582.155" y="-811.923" font-family="Times New Roman,serif" font-size="14.00">无名指端</text>
</g>
<!-- 足少阳胆经 -->
<g id="node11" class="node"><title>足少阳胆经</title>
<ellipse fill="none" stroke="black" cx="814.023" cy="-662.284" rx="51.9908" ry="51.9908"/>
<text text-anchor="middle" x="814.023" y="-658.584" font-family="Times New Roman,serif" font-size="14.00">足少阳胆经</text>
</g>
<!-- 手少阳三焦经&#45;&gt;足少阳胆经 -->
<g id="edge10" class="edge"><title>手少阳三焦经&#45;&gt;足少阳胆经</title>
<path fill="none" stroke="black" d="M722.217,-754.089C737.319,-738.987 754.307,-721.999 769.527,-706.78"/>
<polygon fill="black" stroke="black" points="772.243,-709.013 776.84,-699.467 767.294,-704.063 772.243,-709.013"/>
<text text-anchor="middle" x="726.372" y="-719.235" font-family="Times New Roman,serif" font-size="14.00">目外眦</text>
</g>
<!-- 足厥阴肝经 -->
<g id="node12" class="node"><title>足厥阴肝经</title>
<ellipse fill="none" stroke="black" cx="863.378" cy="-478.088" rx="51.9908" ry="51.9908"/>
<text text-anchor="middle" x="863.378" y="-474.388" font-family="Times New Roman,serif" font-size="14.00">足厥阴肝经</text>
</g>
<!-- 足少阳胆经&#45;&gt;足厥阴肝经 -->
<g id="edge11" class="edge"><title>足少阳胆经&#45;&gt;足厥阴肝经</title>
<path fill="none" stroke="black" d="M827.509,-611.951C833.63,-589.108 840.916,-561.916 847.318,-538.026"/>
<polygon fill="black" stroke="black" points="850.7,-538.925 849.908,-528.359 843.939,-537.113 850.7,-538.925"/>
<text text-anchor="middle" x="817.913" y="-578.789" font-family="Times New Roman,serif" font-size="14.00">足大趾</text>
</g>
<!-- 足厥阴肝经&#45;&gt;手太阴肺经 -->
<g id="edge12" class="edge"><title>足厥阴肝经&#45;&gt;手太阴肺经</title>
<path fill="none" stroke="black" d="M849.891,-427.756C843.771,-404.913 836.485,-377.721 830.083,-353.83"/>
<polygon fill="black" stroke="black" points="833.462,-352.917 827.493,-344.164 826.701,-354.729 833.462,-352.917"/>
<text text-anchor="middle" x="826.987" y="-394.593" font-family="Times New Roman,serif" font-size="14.00">肺中</text>
</g>
<!-- 肺 -->
<g id="node13" class="node"><title>肺</title>
<ellipse fill="none" stroke="black" cx="892.7" cy="-248.468" rx="18.6979" ry="18.6979"/>
<text text-anchor="middle" x="892.7" y="-244.768" font-family="Times New Roman,serif" font-size="14.00">肺</text>
</g>
<!-- 肺&#45;&gt;手太阴肺经 -->
<g id="edge13" class="edge"><title>肺&#45;&gt;手太阴肺经</title>
<path fill="none" stroke="black" d="M876.014,-258.101C873.488,-259.56 870.773,-261.127 867.941,-262.763"/>
<polygon fill="black" stroke="black" points="866.073,-259.8 859.163,-267.831 869.573,-265.862 866.073,-259.8"/>
</g>
<!-- 大肠 -->
<g id="node14" class="node"><title>大肠</title>
<ellipse fill="none" stroke="black" cx="728.831" cy="-73.0575" rx="27.0966" ry="27.0966"/>
<text text-anchor="middle" x="728.831" y="-69.3575" font-family="Times New Roman,serif" font-size="14.00">大肠</text>
</g>
<!-- 大肠&#45;&gt;手阳明大肠经 -->
<g id="edge14" class="edge"><title>大肠&#45;&gt;手阳明大肠经</title>
<path fill="none" stroke="black" d="M715.001,-97.0117C714.834,-97.3006 714.667,-97.5909 714.498,-97.8825"/>
<polygon fill="black" stroke="black" points="711.399,-96.2508 709.43,-106.661 717.461,-99.7509 711.399,-96.2508"/>
</g>
<!-- 胃 -->
<g id="node15" class="node"><title>胃</title>
<ellipse fill="none" stroke="black" cx="494.987" cy="-18.8483" rx="18.6979" ry="18.6979"/>
<text text-anchor="middle" x="494.987" y="-15.1483" font-family="Times New Roman,serif" font-size="14.00">胃</text>
</g>
<!-- 胃&#45;&gt;足阳明胃经 -->
<g id="edge15" class="edge"><title>胃&#45;&gt;足阳明胃经</title>
<path fill="none" stroke="black" d="M494.987,-38.1149C494.987,-41.0317 494.987,-44.1668 494.987,-47.4375"/>
<polygon fill="black" stroke="black" points="491.487,-47.5738 494.987,-57.5738 498.487,-47.5738 491.487,-47.5738"/>
</g>
<!-- 脾 -->
<g id="node16" class="node"><title>脾</title>
<ellipse fill="none" stroke="black" cx="265.367" cy="-80.3748" rx="18.6979" ry="18.6979"/>
<text text-anchor="middle" x="265.367" y="-76.6748" font-family="Times New Roman,serif" font-size="14.00">脾</text>
</g>
<!-- 脾&#45;&gt;足太阴脾经 -->
<g id="edge16" class="edge"><title>脾&#45;&gt;足太阴脾经</title>
<path fill="none" stroke="black" d="M275,-97.0601C276.458,-99.5861 278.026,-102.301 279.661,-105.134"/>
<polygon fill="black" stroke="black" points="276.698,-107.002 284.729,-113.912 282.76,-103.502 276.698,-107.002"/>
</g>
<!-- 心 -->
<g id="node17" class="node"><title>心</title>
<ellipse fill="none" stroke="black" cx="97.2733" cy="-248.468" rx="18.6979" ry="18.6979"/>
<text text-anchor="middle" x="97.2733" y="-244.768" font-family="Times New Roman,serif" font-size="14.00">心</text>
</g>
<!-- 心&#45;&gt;手少阴心经 -->
<g id="edge17" class="edge"><title>心&#45;&gt;手少阴心经</title>
<path fill="none" stroke="black" d="M113.959,-258.101C116.485,-259.56 119.2,-261.127 122.032,-262.763"/>
<polygon fill="black" stroke="black" points="120.4,-265.862 130.811,-267.831 123.9,-259.8 120.4,-265.862"/>
</g>
<!-- 小肠 -->
<g id="node18" class="node"><title>小肠</title>
<ellipse fill="none" stroke="black" cx="27.2976" cy="-478.088" rx="27.0966" ry="27.0966"/>
<text text-anchor="middle" x="27.2976" y="-474.388" font-family="Times New Roman,serif" font-size="14.00">小肠</text>
</g>
<!-- 小肠&#45;&gt;手太阳小肠经 -->
<g id="edge18" class="edge"><title>小肠&#45;&gt;手太阳小肠经</title>
<path fill="none" stroke="black" d="M54.6939,-478.088C55.0276,-478.088 55.363,-478.088 55.6999,-478.088"/>
<polygon fill="black" stroke="black" points="55.8497,-481.588 65.8496,-478.088 55.8496,-474.588 55.8497,-481.588"/>
</g>
<!-- 膀胱 -->
<g id="node19" class="node"><title>膀胱</title>
<ellipse fill="none" stroke="black" cx="89.956" cy="-711.933" rx="27.0966" ry="27.0966"/>
<text text-anchor="middle" x="89.956" y="-708.233" font-family="Times New Roman,serif" font-size="14.00">膀胱</text>
</g>
<!-- 膀胱&#45;&gt;足太阳膀胱经 -->
<g id="edge19" class="edge"><title>膀胱&#45;&gt;足太阳膀胱经</title>
<path fill="none" stroke="black" d="M113.91,-698.103C114.199,-697.936 114.489,-697.768 114.781,-697.6"/>
<polygon fill="black" stroke="black" points="116.649,-700.563 123.56,-692.531 113.149,-694.5 116.649,-700.563"/>
</g>
<!-- 肾 -->
<g id="node20" class="node"><title>肾</title>
<ellipse fill="none" stroke="black" cx="265.367" cy="-875.801" rx="18.6979" ry="18.6979"/>
<text text-anchor="middle" x="265.367" y="-872.101" font-family="Times New Roman,serif" font-size="14.00">肾</text>
</g>
<!-- 肾&#45;&gt;足少阴肾经 -->
<g id="edge20" class="edge"><title>肾&#45;&gt;足少阴肾经</title>
<path fill="none" stroke="black" d="M275,-859.116C276.458,-856.59 278.026,-853.875 279.661,-851.042"/>
<polygon fill="black" stroke="black" points="282.76,-852.674 284.729,-842.264 276.698,-849.174 282.76,-852.674"/>
</g>
<!-- 心包 -->
<g id="node21" class="node"><title>心包</title>
<ellipse fill="none" stroke="black" cx="494.987" cy="-945.777" rx="27.0966" ry="27.0966"/>
<text text-anchor="middle" x="494.987" y="-942.077" font-family="Times New Roman,serif" font-size="14.00">心包</text>
</g>
<!-- 心包&#45;&gt;手厥阴心包经 -->
<g id="edge21" class="edge"><title>心包&#45;&gt;手厥阴心包经</title>
<path fill="none" stroke="black" d="M494.987,-918.381C494.987,-918.047 494.987,-917.712 494.987,-917.375"/>
<polygon fill="black" stroke="black" points="498.487,-917.225 494.987,-907.225 491.487,-917.225 498.487,-917.225"/>
</g>
<!-- 三焦 -->
<g id="node22" class="node"><title>三焦</title>
<ellipse fill="none" stroke="black" cx="728.831" cy="-883.119" rx="27.0966" ry="27.0966"/>
<text text-anchor="middle" x="728.831" y="-879.419" font-family="Times New Roman,serif" font-size="14.00">三焦</text>
</g>
<!-- 三焦&#45;&gt;手少阳三焦经 -->
<g id="edge22" class="edge"><title>三焦&#45;&gt;手少阳三焦经</title>
<path fill="none" stroke="black" d="M715.001,-859.164C714.834,-858.875 714.667,-858.585 714.498,-858.294"/>
<polygon fill="black" stroke="black" points="717.461,-856.425 709.43,-849.515 711.399,-859.925 717.461,-856.425"/>
</g>
<!-- 胆 -->
<g id="node23" class="node"><title>胆</title>
<ellipse fill="none" stroke="black" cx="892.7" cy="-707.708" rx="18.6979" ry="18.6979"/>
<text text-anchor="middle" x="892.7" y="-704.008" font-family="Times New Roman,serif" font-size="14.00">胆</text>
</g>
<!-- 胆&#45;&gt;足少阳胆经 -->
<g id="edge23" class="edge"><title>胆&#45;&gt;足少阳胆经</title>
<path fill="none" stroke="black" d="M876.014,-698.075C873.488,-696.616 870.773,-695.049 867.941,-693.413"/>
<polygon fill="black" stroke="black" points="869.573,-690.314 859.163,-688.345 866.073,-696.376 869.573,-690.314"/>
</g>
<!-- 肝 -->
<g id="node24" class="node"><title>肝</title>
<ellipse fill="none" stroke="black" cx="954.226" cy="-478.088" rx="18.6979" ry="18.6979"/>
<text text-anchor="middle" x="954.226" y="-474.388" font-family="Times New Roman,serif" font-size="14.00">肝</text>
</g>
<!-- 肝&#45;&gt;足厥阴肝经 -->
<g id="edge24" class="edge"><title>肝&#45;&gt;足厥阴肝经</title>
<path fill="none" stroke="black" d="M934.96,-478.088C932.043,-478.088 928.908,-478.088 925.637,-478.088"/>
<polygon fill="black" stroke="black" points="925.501,-474.588 915.501,-478.088 925.501,-481.588 925.501,-474.588"/>
</g>
</g>
</svg>
