<svg id="SvgjsSvg1016" width="1014.4375305175781" height="743.3958282470703" xmlns="http://www.w3.org/2000/svg" version="1.1" xmlns:xlink="http://www.w3.org/1999/xlink" xmlns:svgjs="http://svgjs.com/svgjs"><defs id="SvgjsDefs1017"><marker id="SvgjsMarker1069" markerWidth="16" markerHeight="12" refX="16" refY="6" viewBox="0 0 16 12" orient="auto" markerUnits="userSpaceOnUse" stroke-dasharray="0,0"><path id="SvgjsPath1070" d="M0,2 L14,6 L0,11 L0,2" fill="#323232" stroke="#323232" stroke-width="2"></path></marker><marker id="SvgjsMarker1077" markerWidth="16" markerHeight="12" refX="16" refY="6" viewBox="0 0 16 12" orient="auto" markerUnits="userSpaceOnUse" stroke-dasharray="0,0"><path id="SvgjsPath1078" d="M0,2 L14,6 L0,11 L0,2" fill="#323232" stroke="#323232" stroke-width="2"></path></marker><marker id="SvgjsMarker1081" markerWidth="16" markerHeight="12" refX="16" refY="6" viewBox="0 0 16 12" orient="auto" markerUnits="userSpaceOnUse" stroke-dasharray="0,0"><path id="SvgjsPath1082" d="M0,2 L14,6 L0,11 L0,2" fill="#323232" stroke="#323232" stroke-width="2"></path></marker><marker id="SvgjsMarker1109" markerWidth="16" markerHeight="12" refX="16" refY="6" viewBox="0 0 16 12" orient="auto" markerUnits="userSpaceOnUse" stroke-dasharray="0,0"><path id="SvgjsPath1110" d="M0,2 L14,6 L0,11 L0,2" fill="#33ff33" stroke="#33ff33" stroke-width="2"></path></marker><marker id="SvgjsMarker1117" markerWidth="16" markerHeight="12" refX="16" refY="6" viewBox="0 0 16 12" orient="auto" markerUnits="userSpaceOnUse" stroke-dasharray="0,0"><path id="SvgjsPath1118" d="M0,2 L14,6 L0,11 L0,2" fill="#33ff33" stroke="#33ff33" stroke-width="2"></path></marker><marker id="SvgjsMarker1121" markerWidth="16" markerHeight="12" refX="16" refY="6" viewBox="0 0 16 12" orient="auto" markerUnits="userSpaceOnUse" stroke-dasharray="0,0"><path id="SvgjsPath1122" d="M0,2 L14,6 L0,11 L0,2" fill="#33ff33" stroke="#33ff33" stroke-width="2"></path></marker><marker id="SvgjsMarker1125" markerWidth="16" markerHeight="12" refX="16" refY="6" viewBox="0 0 16 12" orient="auto" markerUnits="userSpaceOnUse" stroke-dasharray="0,0"><path id="SvgjsPath1126" d="M0,2 L14,6 L0,11 L0,2" fill="#33ff33" stroke="#33ff33" stroke-width="2"></path></marker><marker id="SvgjsMarker1169" markerWidth="16" markerHeight="12" refX="16" refY="6" viewBox="0 0 16 12" orient="auto" markerUnits="userSpaceOnUse" stroke-dasharray="0,0"><path id="SvgjsPath1170" d="M0,2 L14,6 L0,11 L0,2" fill="#ccff99" stroke="#ccff99" stroke-width="2"></path></marker><marker id="SvgjsMarker1177" markerWidth="16" markerHeight="12" refX="16" refY="6" viewBox="0 0 16 12" orient="auto" markerUnits="userSpaceOnUse" stroke-dasharray="0,0"><path id="SvgjsPath1178" d="M0,2 L14,6 L0,11 L0,2" fill="#99ff33" stroke="#99ff33" stroke-width="2"></path></marker><marker id="SvgjsMarker1185" markerWidth="16" markerHeight="12" refX="16" refY="6" viewBox="0 0 16 12" orient="auto" markerUnits="userSpaceOnUse" stroke-dasharray="0,0"><path id="SvgjsPath1186" d="M0,2 L14,6 L0,11 L0,2" fill="#99ff33" stroke="#99ff33" stroke-width="2"></path></marker><marker id="SvgjsMarker1193" markerWidth="16" markerHeight="12" refX="16" refY="6" viewBox="0 0 16 12" orient="auto" markerUnits="userSpaceOnUse" stroke-dasharray="0,0"><path id="SvgjsPath1194" d="M0,2 L14,6 L0,11 L0,2" fill="#323232" stroke="#323232" stroke-width="2"></path></marker><marker id="SvgjsMarker1201" markerWidth="16" markerHeight="12" refX="16" refY="6" viewBox="0 0 16 12" orient="auto" markerUnits="userSpaceOnUse" stroke-dasharray="0,0"><path id="SvgjsPath1202" d="M0,2 L14,6 L0,11 L0,2" fill="#323232" stroke="#323232" stroke-width="2"></path></marker><marker id="SvgjsMarker1205" markerWidth="16" markerHeight="12" refX="16" refY="6" viewBox="0 0 16 12" orient="auto" markerUnits="userSpaceOnUse" stroke-dasharray="0,0"><path id="SvgjsPath1206" d="M0,2 L14,6 L0,11 L0,2" fill="#80ff00" stroke="#80ff00" stroke-width="2"></path></marker><marker id="SvgjsMarker1213" markerWidth="16" markerHeight="12" refX="16" refY="6" viewBox="0 0 16 12" orient="auto" markerUnits="userSpaceOnUse" stroke-dasharray="0,0"><path id="SvgjsPath1214" d="M0,2 L14,6 L0,11 L0,2" fill="#323232" stroke="#323232" stroke-width="2"></path></marker><marker id="SvgjsMarker1221" markerWidth="16" markerHeight="12" refX="16" refY="6" viewBox="0 0 16 12" orient="auto" markerUnits="userSpaceOnUse" stroke-dasharray="0,0"><path id="SvgjsPath1222" d="M0,2 L14,6 L0,11 L0,2" fill="#00ff00" stroke="#00ff00" stroke-width="2"></path></marker><marker id="SvgjsMarker1229" markerWidth="16" markerHeight="12" refX="16" refY="6" viewBox="0 0 16 12" orient="auto" markerUnits="userSpaceOnUse" stroke-dasharray="0,0"><path id="SvgjsPath1230" d="M0,2 L14,6 L0,11 L0,2" fill="#323232" stroke="#323232" stroke-width="2"></path></marker><marker id="SvgjsMarker1233" markerWidth="16" markerHeight="12" refX="16" refY="6" viewBox="0 0 16 12" orient="auto" markerUnits="userSpaceOnUse" stroke-dasharray="0,0"><path id="SvgjsPath1234" d="M0,2 L14,6 L0,11 L0,2" fill="#80ff00" stroke="#80ff00" stroke-width="2"></path></marker><marker id="SvgjsMarker1273" markerWidth="16" markerHeight="12" refX="16" refY="6" viewBox="0 0 16 12" orient="auto" markerUnits="userSpaceOnUse" stroke-dasharray="0,0"><path id="SvgjsPath1274" d="M0,2 L14,6 L0,11 L0,2" fill="#323232" stroke="#323232" stroke-width="2"></path></marker><marker id="SvgjsMarker1311" markerWidth="16" markerHeight="12" refX="16" refY="6" viewBox="0 0 16 12" orient="auto" markerUnits="userSpaceOnUse" stroke-dasharray="0,0"><path id="SvgjsPath1312" d="M0,2 L14,6 L0,11 L0,2" fill="#323232" stroke="#323232" stroke-width="2"></path></marker><marker id="SvgjsMarker1315" markerWidth="16" markerHeight="12" refX="16" refY="6" viewBox="0 0 16 12" orient="auto" markerUnits="userSpaceOnUse" stroke-dasharray="0,0"><path id="SvgjsPath1316" d="M0,2 L14,6 L0,11 L0,2" fill="#323232" stroke="#323232" stroke-width="2"></path></marker><marker id="SvgjsMarker1325" markerWidth="16" markerHeight="12" refX="16" refY="6" viewBox="0 0 16 12" orient="auto" markerUnits="userSpaceOnUse" stroke-dasharray="0,0"><path id="SvgjsPath1326" d="M0,2 L14,6 L0,11 L0,2" fill="#323232" stroke="#323232" stroke-width="2"></path></marker><marker id="SvgjsMarker1335" markerWidth="16" markerHeight="12" refX="16" refY="6" viewBox="0 0 16 12" orient="auto" markerUnits="userSpaceOnUse" stroke-dasharray="0,0"><path id="SvgjsPath1336" d="M0,2 L14,6 L0,11 L0,2" fill="#323232" stroke="#323232" stroke-width="2"></path></marker></defs><g id="SvgjsG1018" transform="translate(648.2899123805181,242.6228276949263)"><path id="SvgjsPath1019" d="M 0 4Q 0 0 4 0L 235 0Q 239 0 239 4L 239 343Q 239 347 235 347L 4 347Q 0 347 0 343Z" stroke="rgba(50,50,50,1)" stroke-width="4" fill-opacity="1" fill="#ffffff"></path><g id="SvgjsG1020"><text id="SvgjsText1021" font-family="微软雅黑" text-anchor="middle" font-size="13px" width="219px" fill="#323232" font-weight="400" align="middle" anchor="middle" family="微软雅黑" size="13px" weight="400" font-style="" opacity="1" y="163.55" transform="rotate(0)"></text></g></g><g id="SvgjsG1022" transform="translate(704.9054800180271,402.02732316685115)"><path id="SvgjsPath1023" d="M 0 78.46153846153847C 0 -26.153846153846157 152.4871168870211 -26.153846153846157 152.4871168870211 78.46153846153847C 152.4871168870211 183.0769230769231 0 183.0769230769231 0 78.46153846153847Z" stroke="rgba(50,50,50,1)" stroke-width="2" fill-opacity="1" fill="#ffffff"></path><g id="SvgjsG1024"><text id="SvgjsText1025" font-family="微软雅黑" text-anchor="middle" font-size="13px" width="133px" fill="#323232" font-weight="400" align="middle" anchor="middle" family="微软雅黑" size="13px" weight="400" font-style="" opacity="1" y="68.51153846153846" transform="rotate(0)"></text></g></g><g id="SvgjsG1026" transform="translate(340.1105769230768,240.37414923370613)"><path id="SvgjsPath1027" d="M 0 4Q 0 0 4 0L 235 0Q 239 0 239 4L 239 343Q 239 347 235 347L 4 347Q 0 347 0 343Z" stroke="rgba(50,50,50,1)" stroke-width="4" fill-opacity="1" fill="#ffffff"></path><g id="SvgjsG1028"><text id="SvgjsText1029" font-family="微软雅黑" text-anchor="middle" font-size="13px" width="219px" fill="#323232" font-weight="400" align="middle" anchor="middle" family="微软雅黑" size="13px" weight="400" font-style="" opacity="1" y="163.55" transform="rotate(0)"></text></g></g><g id="SvgjsG1030" transform="translate(370.9500663288311,257.18116932069734)"><path id="SvgjsPath1031" d="M 0 140.5C 0 -46.833333333333336 177 -46.833333333333336 177 140.5C 177 327.8333333333333 0 327.8333333333333 0 140.5Z" stroke="rgba(50,50,50,1)" stroke-width="2" fill-opacity="1" fill="#ffffff"></path><path id="SvgjsPath1032" d="M 3 140.5C 3 -42.833333333333336 174 -42.833333333333336 174 140.5C 174 323.8333333333333 3 323.8333333333333 3 140.5" stroke="rgba(50,50,50,1)" stroke-width="2" fill-opacity="1" fill="#ffffff"></path><g id="SvgjsG1033"><text id="SvgjsText1034" font-family="微软雅黑" text-anchor="middle" font-size="13px" width="120px" fill="#323232" font-weight="400" align="middle" anchor="middle" family="微软雅黑" size="13px" weight="400" font-style="" opacity="1" y="286.05" transform="rotate(0)"></text></g></g><g id="SvgjsG1035" transform="translate(30.110576923076934,245.23244882884785)"><path id="SvgjsPath1036" d="M 0 4Q 0 0 4 0L 235 0Q 239 0 239 4L 239 343Q 239 347 235 347L 4 347Q 0 347 0 343Z" stroke="rgba(50,50,50,1)" stroke-width="4" fill-opacity="1" fill="#ffffff"></path><g id="SvgjsG1037"><text id="SvgjsText1038" font-family="微软雅黑" text-anchor="middle" font-size="13px" width="219px" fill="#323232" font-weight="400" align="middle" anchor="middle" family="微软雅黑" size="13px" weight="400" font-style="" opacity="1" y="163.55" transform="rotate(0)"></text></g></g><g id="SvgjsG1039" transform="translate(123.11057692307693,286.1427077822357)"><path id="SvgjsPath1040" d="M 0 26.5C 0 -8.833333333333334 53 -8.833333333333334 53 26.5C 53 61.833333333333336 0 61.833333333333336 0 26.5Z" stroke="rgba(50,50,50,1)" stroke-width="2" fill-opacity="1" fill="#ffffff"></path><g id="SvgjsG1041"><text id="SvgjsText1042" font-family="微软雅黑" text-anchor="middle" font-size="13px" width="33px" fill="#323232" font-weight="400" align="middle" anchor="middle" family="微软雅黑" size="13px" weight="400" font-style="" opacity="1" y="16.55" transform="rotate(0)"><tspan id="SvgjsTspan1043" dy="16" x="26.5"><tspan id="SvgjsTspan1044" style="text-decoration:;">胃</tspan></tspan></text></g></g><g id="SvgjsG1045" transform="translate(83.6875,367.23244882884774)"><path id="SvgjsPath1046" d="M 0 26.5C 0 -8.833333333333334 53 -8.833333333333334 53 26.5C 53 61.833333333333336 0 61.833333333333336 0 26.5Z" stroke="rgba(50,50,50,1)" stroke-width="2" fill-opacity="1" fill="#ffffff"></path><g id="SvgjsG1047"><text id="SvgjsText1048" font-family="微软雅黑" text-anchor="middle" font-size="13px" width="33px" fill="#323232" font-weight="400" align="middle" anchor="middle" family="微软雅黑" size="13px" weight="400" font-style="" opacity="1" y="16.55" transform="rotate(0)"><tspan id="SvgjsTspan1049" dy="16" x="26.5"><tspan id="SvgjsTspan1050" style="text-decoration:;">小肠</tspan></tspan></text></g></g><g id="SvgjsG1051" transform="translate(88.6875,453.23244882884774)"><path id="SvgjsPath1052" d="M 0 21C 0 -7 43 -7 43 21C 43 49 0 49 0 21Z" stroke="rgba(50,50,50,1)" stroke-width="2" fill-opacity="1" fill="#ffffff"></path><g id="SvgjsG1053"><text id="SvgjsText1054" font-family="微软雅黑" text-anchor="middle" font-size="13px" width="23px" fill="#323232" font-weight="400" align="middle" anchor="middle" family="微软雅黑" size="13px" weight="400" font-style="" opacity="1" y="3.05" transform="rotate(0)"><tspan id="SvgjsTspan1055" dy="16" x="21.5"><tspan id="SvgjsTspan1056" style="text-decoration:;">回</tspan></tspan><tspan id="SvgjsTspan1057" dy="16" x="21.5"><tspan id="SvgjsTspan1058" style="text-decoration:;">肠</tspan></tspan></text></g></g><g id="SvgjsG1059" transform="translate(88.6875,528.2324488288476)"><path id="SvgjsPath1060" d="M 0 21C 0 -7 43 -7 43 21C 43 49 0 49 0 21Z" stroke="rgba(50,50,50,1)" stroke-width="2" fill-opacity="1" fill="#ffffff"></path><g id="SvgjsG1061"><text id="SvgjsText1062" font-family="微软雅黑" text-anchor="middle" font-size="13px" width="23px" fill="#323232" font-weight="400" align="middle" anchor="middle" family="微软雅黑" size="13px" weight="400" font-style="" opacity="1" y="3.05" transform="rotate(0)"><tspan id="SvgjsTspan1063" dy="16" x="21.5"><tspan id="SvgjsTspan1064" style="text-decoration:;">大</tspan></tspan><tspan id="SvgjsTspan1065" dy="16" x="21.5"><tspan id="SvgjsTspan1066" style="text-decoration:;">肠</tspan></tspan></text></g></g><g id="SvgjsG1067"><path id="SvgjsPath1068" d="M149.61057692307693 336.23244882884774L149.61057692307693 351.73244882884774L110.1875 351.73244882884774L110.1875 367.23244882884774" stroke="#323232" stroke-width="2" fill="none" marker-end="url(#SvgjsMarker1069)"></path><rect id="SvgjsRect1071" width="13" height="16" x="123.39903846153845" y="343.73244882884774" fill="#ffffff"></rect><text id="SvgjsText1072" font-family="微软雅黑" text-anchor="middle" font-size="13px" width="13px" fill="#323232" font-weight="400" align="top" anchor="middle" family="微软雅黑" size="13px" weight="400" font-style="" opacity="1" y="341.78244882884775" transform="rotate(0)"><tspan id="SvgjsTspan1073" dy="16" x="129.89903846153845"><tspan id="SvgjsTspan1074" style="text-decoration:;">浊</tspan></tspan></text></g><g id="SvgjsG1075"><path id="SvgjsPath1076" d="M110.1875 422.23244882884774L110.1875 437.73244882884774L110.1875 437.73244882884774L110.1875 453.23244882884774" stroke="#323232" stroke-width="2" fill="none" marker-end="url(#SvgjsMarker1077)"></path></g><g id="SvgjsG1079"><path id="SvgjsPath1080" d="M110.1875 495.23244882884774L110.1875 511.7324488288476L110.1875 511.7324488288476L110.1875 528.2324488288476" stroke="#323232" stroke-width="2" fill="none" marker-end="url(#SvgjsMarker1081)"></path></g><g id="SvgjsG1083" transform="translate(173.610576923077,462.1427077822357)"><path id="SvgjsPath1084" d="M 0 26.5C 0 -8.833333333333334 53 -8.833333333333334 53 26.5C 53 61.833333333333336 0 61.833333333333336 0 26.5Z" stroke="rgba(50,50,50,1)" stroke-width="2" fill-opacity="1" fill="#ffffff"></path><g id="SvgjsG1085"><text id="SvgjsText1086" font-family="微软雅黑" text-anchor="middle" font-size="13px" width="33px" fill="#323232" font-weight="400" align="middle" anchor="middle" family="微软雅黑" size="13px" weight="400" font-style="" opacity="1" y="16.55" transform="rotate(0)"><tspan id="SvgjsTspan1087" dy="16" x="26.5"><tspan id="SvgjsTspan1088" style="text-decoration:;">膀胱</tspan></tspan></text></g></g><g id="SvgjsG1089" transform="translate(433.1105769230768,270.7580923976203)"><path id="SvgjsPath1090" d="M 0 21.127191643965887C 0 -7.042397214655296 44.49797570850228 -7.042397214655296 44.49797570850228 21.127191643965887C 44.49797570850228 49.29678050258707 0 49.29678050258707 0 21.127191643965887Z" stroke="rgba(50,50,50,1)" stroke-width="2" fill-opacity="1" fill="#ffffff"></path><g id="SvgjsG1091"><text id="SvgjsText1092" font-family="微软雅黑" text-anchor="middle" font-size="13px" width="25px" fill="#323232" font-weight="400" align="middle" anchor="middle" family="微软雅黑" size="13px" weight="400" font-style="" opacity="1" y="11.177191643965887" transform="rotate(0)"><tspan id="SvgjsTspan1093" dy="16" x="22.5"><tspan id="SvgjsTspan1094" style="text-decoration:;">肺</tspan></tspan></text></g></g><g id="SvgjsG1095" transform="translate(433.1105769230768,373.0124756855521)"><path id="SvgjsPath1096" d="M 0 19.917678879340144C 0 -6.639226293113381 44.49797570850228 -6.639226293113381 44.49797570850228 19.917678879340144C 44.49797570850228 46.47458405179367 0 46.47458405179367 0 19.917678879340144Z" stroke="rgba(50,50,50,1)" stroke-width="2" fill-opacity="1" fill="#ffff99"></path><g id="SvgjsG1097"><text id="SvgjsText1098" font-family="微软雅黑" text-anchor="middle" font-size="13px" width="25px" fill="#323232" font-weight="400" align="middle" anchor="middle" family="微软雅黑" size="13px" weight="400" font-style="" opacity="1" y="9.967678879340145" transform="rotate(0)"><tspan id="SvgjsTspan1099" dy="16" x="22.5"><tspan id="SvgjsTspan1100" style="text-decoration:;">脾</tspan></tspan></text></g></g><g id="SvgjsG1101" transform="translate(436.5559210526318,460.52648615247074)"><path id="SvgjsPath1102" d="M 0 19.61580312257479C 0 -6.538601040858263 45.34412955465564 -6.538601040858263 45.34412955465564 19.61580312257479C 45.34412955465564 45.77020728600784 0 45.77020728600784 0 19.61580312257479Z" stroke="rgba(50,50,50,1)" stroke-width="2" fill-opacity="1" fill="#cfcfcf"></path><g id="SvgjsG1103"><text id="SvgjsText1104" font-family="微软雅黑" text-anchor="middle" font-size="13px" width="26px" fill="#323232" font-weight="400" align="middle" anchor="middle" family="微软雅黑" size="13px" weight="400" font-style="" opacity="1" y="9.66580312257479" transform="rotate(0)"><tspan id="SvgjsTspan1105" dy="16" x="23"><tspan id="SvgjsTspan1106" style="text-decoration:;">肾</tspan></tspan></text></g></g><g id="SvgjsG1107"><path id="SvgjsPath1108" d="M176.11057692307693 312.6427077822357C 283.40038450999174 322.0293496579684 330.7259615384616 312.12179792844336 433.1105769230768 392.9301545648923" stroke="#33ff33" stroke-width="2" fill="none" marker-end="url(#SvgjsMarker1109)"></path><rect id="SvgjsRect1111" width="13" height="16" x="299.95002399893923" y="318.0032881382954" fill="#ffffff"></rect><text id="SvgjsText1112" font-family="微软雅黑" text-anchor="middle" font-size="13px" width="13px" fill="#323232" font-weight="400" align="top" anchor="middle" family="微软雅黑" size="13px" weight="400" font-style="" opacity="1" y="316.0532881382954" transform="rotate(0)"><tspan id="SvgjsTspan1113" dy="16" x="306.45002399893923"><tspan id="SvgjsTspan1114" style="text-decoration:;">清</tspan></tspan></text></g><g id="SvgjsG1115"><path id="SvgjsPath1116" d="M136.6875 393.73244882884774C 236.87980769230774 365.9679517745972 292.26442307692315 349.0448748515203 433.1105769230768 392.9301545648923" stroke="#33ff33" stroke-width="2" fill="none" marker-end="url(#SvgjsMarker1117)"></path></g><g id="SvgjsG1119"><path id="SvgjsPath1120" d="M455.35956477732793 373.0124756855521L455.35956477732793 343.0124756855521L455.35956477732793 343.0124756855521L455.35956477732793 313.0124756855521" stroke="#33ff33" stroke-width="2" fill="none" marker-end="url(#SvgjsMarker1121)"></path></g><g id="SvgjsG1123"><path id="SvgjsPath1124" d="M477.6085526315791 291.88528404158626C 528.2335917434687 296.3144010544331 516.3669715294471 397.76281965695904 547.9500663288311 397.6811693206972" stroke="#33ff33" stroke-width="2" fill="none" marker-end="url(#SvgjsMarker1125)"></path><rect id="SvgjsRect1127" width="78" height="16" x="480.92003859739464" y="338.4747644370575" fill="#ffffff"></rect><text id="SvgjsText1128" font-family="微软雅黑" text-anchor="middle" font-size="13px" width="78px" fill="#323232" font-weight="400" align="top" anchor="middle" family="微软雅黑" size="13px" weight="400" font-style="" opacity="1" y="336.5247644370575" transform="rotate(0)"><tspan id="SvgjsTspan1129" dy="16" x="519.9200385973946"><tspan id="SvgjsTspan1130" style="text-decoration:;">肃降清中之浊</tspan></tspan></text></g><g id="SvgjsG1131" transform="translate(323.1105769230768,252.18116932069734)"><path id="SvgjsPath1132" d="M 0 0L 120 0L 120 42L 0 42Z" stroke="none" fill="none"></path><g id="SvgjsG1133"><text id="SvgjsText1134" font-family="微软雅黑" text-anchor="middle" font-size="13px" width="120px" fill="#323232" font-weight="400" align="middle" anchor="middle" family="微软雅黑" size="13px" weight="400" font-style="" opacity="1" y="11.05" transform="rotate(0)"><tspan id="SvgjsTspan1135" dy="16" x="60"><tspan id="SvgjsTspan1136" style="text-decoration:;">三焦水道</tspan></tspan></text></g></g><g id="SvgjsG1137" transform="translate(740.802884615384,248.46716674530262)"><path id="SvgjsPath1138" d="M 0 26.5C 0 -8.833333333333334 53 -8.833333333333334 53 26.5C 53 61.833333333333336 0 61.833333333333336 0 26.5Z" stroke="rgba(50,50,50,1)" stroke-width="2" fill-opacity="1" fill="#ffffff"></path><g id="SvgjsG1139"><text id="SvgjsText1140" font-family="微软雅黑" text-anchor="middle" font-size="13px" width="33px" fill="#323232" font-weight="400" align="middle" anchor="middle" family="微软雅黑" size="13px" weight="400" font-style="" opacity="1" y="16.55" transform="rotate(0)"><tspan id="SvgjsTspan1141" dy="16" x="26.5"><tspan id="SvgjsTspan1142" style="text-decoration:;">皮毛</tspan></tspan></text></g></g><g id="SvgjsG1143" transform="translate(742.3413461538454,323.1427077822357)"><path id="SvgjsPath1144" d="M 0 26.5C 0 -8.833333333333334 53 -8.833333333333334 53 26.5C 53 61.833333333333336 0 61.833333333333336 0 26.5Z" stroke="rgba(50,50,50,1)" stroke-width="2" fill-opacity="1" fill="#ffffff"></path><g id="SvgjsG1145"><text id="SvgjsText1146" font-family="微软雅黑" text-anchor="middle" font-size="13px" width="33px" fill="#323232" font-weight="400" align="middle" anchor="middle" family="微软雅黑" size="13px" weight="400" font-style="" opacity="1" y="16.55" transform="rotate(0)"><tspan id="SvgjsTspan1147" dy="16" x="26.5"><tspan id="SvgjsTspan1148" style="text-decoration:;">肌肤</tspan></tspan></text></g></g><g id="SvgjsG1149" transform="translate(725.4182692307685,422.9111015370861)"><path id="SvgjsPath1150" d="M 0 26.5C 0 -8.833333333333334 53 -8.833333333333334 53 26.5C 53 61.833333333333336 0 61.833333333333336 0 26.5Z" stroke="rgba(50,50,50,1)" stroke-width="2" fill-opacity="1" fill="#ffffff"></path><g id="SvgjsG1151"><text id="SvgjsText1152" font-family="微软雅黑" text-anchor="middle" font-size="13px" width="33px" fill="#323232" font-weight="400" align="middle" anchor="middle" family="微软雅黑" size="13px" weight="400" font-style="" opacity="1" y="16.55" transform="rotate(0)"><tspan id="SvgjsTspan1153" dy="16" x="26.5"><tspan id="SvgjsTspan1154" style="text-decoration:;">骨节</tspan></tspan></text></g></g><g id="SvgjsG1155" transform="translate(797.9267194304763,445.9324185189681)"><path id="SvgjsPath1156" d="M 0 26.5C 0 -8.833333333333334 53 -8.833333333333334 53 26.5C 53 61.833333333333336 0 61.833333333333336 0 26.5Z" stroke="rgba(50,50,50,1)" stroke-width="2" fill-opacity="1" fill="#ffffff"></path><g id="SvgjsG1157"><text id="SvgjsText1158" font-family="微软雅黑" text-anchor="middle" font-size="13px" width="33px" fill="#323232" font-weight="400" align="middle" anchor="middle" family="微软雅黑" size="13px" weight="400" font-style="" opacity="1" y="16.55" transform="rotate(0)"><tspan id="SvgjsTspan1159" dy="16" x="26.5"><tspan id="SvgjsTspan1160" style="text-decoration:;">脑髓</tspan></tspan></text></g></g><g id="SvgjsG1161" transform="translate(754.6490384615377,496.0016795980788)"><path id="SvgjsPath1162" d="M 0 26.5C 0 -8.833333333333334 53 -8.833333333333334 53 26.5C 53 61.833333333333336 0 61.833333333333336 0 26.5Z" stroke="rgba(50,50,50,1)" stroke-width="2" fill-opacity="1" fill="#ffffff"></path><g id="SvgjsG1163"><text id="SvgjsText1164" font-family="微软雅黑" text-anchor="middle" font-size="13px" width="33px" fill="#323232" font-weight="400" align="middle" anchor="middle" family="微软雅黑" size="13px" weight="400" font-style="" opacity="1" y="16.55" transform="rotate(0)"><tspan id="SvgjsTspan1165" dy="16" x="26.5"><tspan id="SvgjsTspan1166" style="text-decoration:;">脏腑</tspan></tspan></text></g></g><g id="SvgjsG1167"><path id="SvgjsPath1168" d="M477.6085526315791 291.88528404158626C 581.5008541343853 310.2042998844296 636.9105831125777 293.28618258814595 740.802884615384 274.9671667453026" stroke="#ccff99" stroke-width="2" fill="none" marker-end="url(#SvgjsMarker1169)"></path><rect id="SvgjsRect1171" width="78" height="16" x="570.2057186234815" y="289.16548727557694" fill="#ffffff"></rect><text id="SvgjsText1172" font-family="微软雅黑" text-anchor="middle" font-size="13px" width="78px" fill="#323232" font-weight="400" align="top" anchor="middle" family="微软雅黑" size="13px" weight="400" font-style="" opacity="1" y="287.21548727557695" transform="rotate(0)"><tspan id="SvgjsTspan1173" dy="16" x="609.2057186234815"><tspan id="SvgjsTspan1174" style="text-decoration:;">宣发清中之清</tspan></tspan></text></g><g id="SvgjsG1175"><path id="SvgjsPath1176" d="M547.9500663288311 397.6811693206972C 628.0456726592553 397.6811693206972 663.46257205743 363.5511638606417 742.3413461538454 349.6427077822357" stroke="#99ff33" stroke-width="2" fill="none" marker-end="url(#SvgjsMarker1177)"></path><rect id="SvgjsRect1179" width="52" height="16" x="619.6020183290916" y="370.8776095808687" fill="#ffffff"></rect><text id="SvgjsText1180" font-family="微软雅黑" text-anchor="middle" font-size="13px" width="52px" fill="#323232" font-weight="400" align="top" anchor="middle" family="微软雅黑" size="13px" weight="400" font-style="" opacity="1" y="368.9276095808687" transform="rotate(0)"><tspan id="SvgjsTspan1181" dy="16" x="645.6020183290916"><tspan id="SvgjsTspan1182" style="text-decoration:;">清稀之津</tspan></tspan></text></g><g id="SvgjsG1183"><path id="SvgjsPath1184" d="M547.9500663288311 397.6811693206972C 618.9341386737419 397.6811693206972 633.9214076731163 480.4888616283896 704.9054800180271 480.4888616283896" stroke="#99ff33" stroke-width="2" fill="none" marker-end="url(#SvgjsMarker1185)"></path><rect id="SvgjsRect1187" width="52" height="16" x="600.4277731734292" y="431.0850154745434" fill="#ffffff"></rect><text id="SvgjsText1188" font-family="微软雅黑" text-anchor="middle" font-size="13px" width="52px" fill="#323232" font-weight="400" align="top" anchor="middle" family="微软雅黑" size="13px" weight="400" font-style="" opacity="1" y="429.1350154745434" transform="rotate(0)"><tspan id="SvgjsTspan1189" dy="16" x="626.4277731734292"><tspan id="SvgjsTspan1190" style="text-decoration:;">粘稠之液</tspan></tspan></text></g><g id="SvgjsG1191"><path id="SvgjsPath1192" d="M767.7899123805181 589.6228276949258C 638.4182692307693 615.1987210053665 504.5721153846155 595.1987210053665 459.4500663288311 538.1811693206971" stroke="#323232" stroke-width="2" fill="none" marker-end="url(#SvgjsMarker1193)"></path><rect id="SvgjsRect1195" width="13" height="16" x="575.5263915694379" y="586.8745403809777" fill="#ffffff"></rect><text id="SvgjsText1196" font-family="微软雅黑" text-anchor="middle" font-size="13px" width="13px" fill="#323232" font-weight="400" align="top" anchor="middle" family="微软雅黑" size="13px" weight="400" font-style="" opacity="1" y="584.9245403809776" transform="rotate(0)"><tspan id="SvgjsTspan1197" dy="16" x="582.0263915694379"><tspan id="SvgjsTspan1198" style="text-decoration:;">浊</tspan></tspan></text></g><g id="SvgjsG1199"><path id="SvgjsPath1200" d="M459.4500663288311 538.1811693206971L459.2279858299594 499.7580923976203" stroke="#323232" stroke-width="2" fill="none" marker-end="url(#SvgjsMarker1201)"></path></g><g id="SvgjsG1203"><path id="SvgjsPath1204" d="M459.2279858299594 460.52648615247074L370.4596893491125 397.6811693206972" stroke-dasharray="8,5" stroke="#80ff00" stroke-width="2" fill="none" marker-end="url(#SvgjsMarker1205)"></path><rect id="SvgjsRect1207" width="52" height="16" x="388.84383758953595" y="421.103827736584" fill="#ffffff"></rect><text id="SvgjsText1208" font-family="微软雅黑" text-anchor="middle" font-size="13px" width="52px" fill="#323232" font-weight="400" align="top" anchor="middle" family="微软雅黑" size="13px" weight="400" font-style="" opacity="1" y="419.153827736584" transform="rotate(0)"><tspan id="SvgjsTspan1209" dy="16" x="414.84383758953595"><tspan id="SvgjsTspan1210" style="text-decoration:;">浊中之清</tspan></tspan></text></g><g id="SvgjsG1211"><path id="SvgjsPath1212" d="M436.5559210526318 480.1422892750455L226.61057692307702 488.6427077822357" stroke="#323232" stroke-width="2" fill="none" marker-end="url(#SvgjsMarker1213)"></path><rect id="SvgjsRect1215" width="52" height="16" x="305.5832489878544" y="476.3924985286406" fill="#ffffff"></rect><text id="SvgjsText1216" font-family="微软雅黑" text-anchor="middle" font-size="13px" width="52px" fill="#323232" font-weight="400" align="top" anchor="middle" family="微软雅黑" size="13px" weight="400" font-style="" opacity="1" y="474.4424985286406" transform="rotate(0)"><tspan id="SvgjsTspan1217" dy="16" x="331.5832489878544"><tspan id="SvgjsTspan1218" style="text-decoration:;">浊中之浊</tspan></tspan></text></g><g id="SvgjsG1219"><path id="SvgjsPath1220" d="M200.11057692307702 462.1427077822357C 249.18750000000006 447.50641331305883 273.80288461538464 329.0448748515203 434.31567382812506 294.1811693206972" stroke-dasharray="3,3" stroke="#00ff00" stroke-width="2" fill="none" marker-end="url(#SvgjsMarker1221)"></path><rect id="SvgjsRect1223" width="52" height="16" x="249.42467557466955" y="377.7472176995838" fill="#ffffff"></rect><text id="SvgjsText1224" font-family="微软雅黑" text-anchor="middle" font-size="13px" width="52px" fill="#323232" font-weight="400" align="top" anchor="middle" family="微软雅黑" size="13px" weight="400" font-style="" opacity="1" y="375.7972176995838" transform="rotate(0)"><tspan id="SvgjsTspan1225" dy="16" x="275.42467557466955"><tspan id="SvgjsTspan1226" style="text-decoration:;">浊中之清</tspan></tspan></text></g><g id="SvgjsG1227"><path id="SvgjsPath1228" d="M131.6875 474.23244882884774L152.61057692307696 474.23244882884774L152.61057692307696 488.6427077822357L173.610576923077 488.6427077822357" stroke="#323232" stroke-width="2" fill="none" marker-end="url(#SvgjsMarker1229)"></path></g><g id="SvgjsG1231"><path id="SvgjsPath1232" d="M370.4596893491125 397.6811693206972L433.1105769230768 291.88528404158626" stroke-dasharray="8,5" stroke="#80ff00" stroke-width="2" fill="none" marker-end="url(#SvgjsMarker1233)"></path></g><g id="SvgjsG1235" transform="translate(32.77721228966348,90.83501547454347)"><path id="SvgjsPath1236" d="M 0 0L 219 0L 219 67L 0 67Z" stroke="none" fill="none"></path><g id="SvgjsG1237"><text id="SvgjsText1238" font-family="微软雅黑" text-anchor="middle" font-size="20px" width="219px" fill="#323232" font-weight="400" align="middle" anchor="middle" family="微软雅黑" size="20px" weight="400" font-style="" opacity="1" y="18" transform="rotate(0)"><tspan id="SvgjsTspan1239" dy="25" x="109.5"><tspan id="SvgjsTspan1240" style="text-decoration:;">腑-化物而不藏-炼油厂</tspan></tspan></text></g></g><g id="SvgjsG1241" transform="translate(350.68750000000006,90.83501547454347)"><path id="SvgjsPath1242" d="M 0 0L 219 0L 219 67L 0 67Z" stroke="none" fill="none"></path><g id="SvgjsG1243"><text id="SvgjsText1244" font-family="微软雅黑" text-anchor="middle" font-size="20px" width="219px" fill="#323232" font-weight="400" align="middle" anchor="middle" family="微软雅黑" size="20px" weight="400" font-style="" opacity="1" y="18" transform="rotate(0)"><tspan id="SvgjsTspan1245" dy="25" x="109.5"><tspan id="SvgjsTspan1246" style="text-decoration:;">藏-藏精气而不泄</tspan></tspan></text></g></g><g id="SvgjsG1247" transform="translate(420.77843438592953,321.2580923976203)"><path id="SvgjsPath1248" d="M 0 0L 77 0L 77 26L 0 26Z" stroke="none" fill="none"></path><g id="SvgjsG1249"><text id="SvgjsText1250" font-family="微软雅黑" text-anchor="middle" font-size="12px" width="77px" fill="#323232" font-weight="400" align="middle" anchor="middle" family="微软雅黑" size="12px" weight="400" font-style="" opacity="1" y="3.7" transform="rotate(0)"><tspan id="SvgjsTspan1251" dy="15" x="38.5"><tspan id="SvgjsTspan1252" style="text-decoration:;">上焦如雾</tspan></tspan></text></g></g><g id="SvgjsG1253" transform="translate(462.16118421052636,397.03123892573535)"><path id="SvgjsPath1254" d="M 0 0L 77 0L 77 26L 0 26Z" stroke="none" fill="none"></path><g id="SvgjsG1255"><text id="SvgjsText1256" font-family="微软雅黑" text-anchor="middle" font-size="12px" width="77px" fill="#323232" font-weight="400" align="middle" anchor="middle" family="微软雅黑" size="12px" weight="400" font-style="" opacity="1" y="3.7" transform="rotate(0)"><tspan id="SvgjsTspan1257" dy="15" x="38.5"><tspan id="SvgjsTspan1258" style="text-decoration:;">中焦如沤</tspan></tspan></text></g></g><g id="SvgjsG1259" transform="translate(451.6348684210527,440.3510769824155)"><path id="SvgjsPath1260" d="M 0 0L 77 0L 77 26L 0 26Z" stroke="none" fill="none"></path><g id="SvgjsG1261"><text id="SvgjsText1262" font-family="微软雅黑" text-anchor="middle" font-size="12px" width="77px" fill="#323232" font-weight="400" align="middle" anchor="middle" family="微软雅黑" size="12px" weight="400" font-style="" opacity="1" y="3.7" transform="rotate(0)"><tspan id="SvgjsTspan1263" dy="15" x="38.5"><tspan id="SvgjsTspan1264" style="text-decoration:;">下焦如渎</tspan></tspan></text></g></g><g id="SvgjsG1265" transform="translate(659.6934171597621,27.67712073770133)"><path id="SvgjsPath1266" d="M 0 0L 219 0L 219 67L 0 67Z" stroke="none" fill="none"></path><g id="SvgjsG1267"><text id="SvgjsText1268" font-family="微软雅黑" text-anchor="middle" font-size="25px" width="219px" fill="#323232" font-weight="700" align="middle" anchor="middle" family="微软雅黑" size="25px" weight="700" font-style="" opacity="1" y="12.25" transform="rotate(0)"><tspan id="SvgjsTspan1269" dy="31" x="109.5"><tspan id="SvgjsTspan1270" style="text-decoration:;">使用水液</tspan></tspan></text></g></g><g id="SvgjsG1271"><path id="SvgjsPath1272" d="M200.11057692307702 515.1427077822357L200.11057692307702 648.3970991011084" stroke="#323232" stroke-width="2" fill="none" marker-end="url(#SvgjsMarker1273)"></path><rect id="SvgjsRect1275" width="52" height="16" x="174.11057692307702" y="573.7699034416721" fill="#ffffff"></rect><text id="SvgjsText1276" font-family="微软雅黑" text-anchor="middle" font-size="13px" width="52px" fill="#323232" font-weight="400" align="top" anchor="middle" family="微软雅黑" size="13px" weight="400" font-style="" opacity="1" y="571.8199034416721" transform="rotate(0)"><tspan id="SvgjsTspan1277" dy="16" x="200.11057692307702"><tspan id="SvgjsTspan1278" style="text-decoration:;">浊中之浊</tspan></tspan></text></g><g id="SvgjsG1279" transform="translate(165.11057692307702,648.3970991011084)"><path id="SvgjsPath1280" d="M 0 35C 0 -11.666666666666666 70 -11.666666666666666 70 35C 70 81.66666666666667 0 81.66666666666667 0 35Z" stroke="rgba(50,50,50,1)" stroke-width="2" fill-opacity="1" fill="#ffffff"></path><g id="SvgjsG1281"><text id="SvgjsText1282" font-family="微软雅黑" text-anchor="middle" font-size="13px" width="50px" fill="#323232" font-weight="400" align="middle" anchor="middle" family="微软雅黑" size="13px" weight="400" font-style="" opacity="1" y="25.05" transform="rotate(0)"><tspan id="SvgjsTspan1283" dy="16" x="35"><tspan id="SvgjsTspan1284" style="text-decoration:;">小便</tspan></tspan></text></g></g><g id="SvgjsG1285" transform="translate(339.17644425412584,25.005055960373397)"><path id="SvgjsPath1286" d="M 0 0L 219 0L 219 67L 0 67Z" stroke="none" fill="none"></path><g id="SvgjsG1287"><text id="SvgjsText1288" font-family="微软雅黑" text-anchor="middle" font-size="25px" width="219px" fill="#323232" font-weight="700" align="middle" anchor="middle" family="微软雅黑" size="25px" weight="700" font-style="" opacity="1" y="12.25" transform="rotate(0)"><tspan id="SvgjsTspan1289" dy="31" x="109.5"><tspan id="SvgjsTspan1290" style="text-decoration:;">管理水液</tspan></tspan></text></g></g><g id="SvgjsG1291" transform="translate(25.00328947368456,25.57185757980659)"><path id="SvgjsPath1292" d="M 0 0L 219 0L 219 67L 0 67Z" stroke="none" fill="none"></path><g id="SvgjsG1293"><text id="SvgjsText1294" font-family="微软雅黑" text-anchor="middle" font-size="25px" width="219px" fill="#323232" font-weight="700" align="middle" anchor="middle" family="微软雅黑" size="25px" weight="700" font-style="" opacity="1" y="12.25" transform="rotate(0)"><tspan id="SvgjsTspan1295" dy="31" x="109.5"><tspan id="SvgjsTspan1296" style="text-decoration:;">补充水液</tspan></tspan></text></g></g><g id="SvgjsG1297" transform="translate(644.3717105263152,89.78238389559607)"><path id="SvgjsPath1298" d="M 0 0L 219 0L 219 67L 0 67Z" stroke="none" fill="none"></path><g id="SvgjsG1299"><text id="SvgjsText1300" font-family="微软雅黑" text-anchor="middle" font-size="20px" width="219px" fill="#323232" font-weight="400" align="middle" anchor="middle" family="微软雅黑" size="20px" weight="400" font-style="" opacity="1" y="18" transform="rotate(0)"><tspan id="SvgjsTspan1301" dy="25" x="109.5"><tspan id="SvgjsTspan1302" style="text-decoration:;">机体组织</tspan></tspan></text></g></g><g id="SvgjsG1303" transform="translate(118.51948380566859,153.9166628764226)"><path id="SvgjsPath1304" d="M 0 33.46153846153848C 0 -11.15384615384616 64.51417004048528 -11.15384615384616 64.51417004048528 33.46153846153848C 64.51417004048528 78.07692307692312 0 78.07692307692312 0 33.46153846153848Z" stroke="rgba(50,50,50,1)" stroke-width="2" fill-opacity="1" fill="#ffffff"></path><g id="SvgjsG1305"><text id="SvgjsText1306" font-family="微软雅黑" text-anchor="middle" font-size="13px" width="45px" fill="#323232" font-weight="400" align="middle" anchor="middle" family="微软雅黑" size="13px" weight="400" font-style="" opacity="1" y="23.511538461538482" transform="rotate(0)"><tspan id="SvgjsTspan1307" dy="16" x="32.5"><tspan id="SvgjsTspan1308" style="text-decoration:;">饮</tspan></tspan></text></g></g><g id="SvgjsG1309"><path id="SvgjsPath1310" d="M150.77656882591123 220.83973979949957L149.61057692307693 286.1427077822357" stroke="#323232" stroke-width="2" fill="none" marker-end="url(#SvgjsMarker1311)"></path></g><g id="SvgjsG1313"><path id="SvgjsPath1314" d="M110.1875 570.2324488288476L110.1875 639.8141056207511" stroke="#323232" stroke-width="2" fill="none" marker-end="url(#SvgjsMarker1315)"></path></g><g id="SvgjsG1317" transform="translate(75.1875,639.8141056207511)"><path id="SvgjsPath1318" d="M 0 35C 0 -11.666666666666666 70 -11.666666666666666 70 35C 70 81.66666666666667 0 81.66666666666667 0 35Z" stroke="rgba(50,50,50,1)" stroke-width="2" fill-opacity="1" fill="#ffffff"></path><g id="SvgjsG1319"><text id="SvgjsText1320" font-family="微软雅黑" text-anchor="middle" font-size="13px" width="50px" fill="#323232" font-weight="400" align="middle" anchor="middle" family="微软雅黑" size="13px" weight="400" font-style="" opacity="1" y="25.05" transform="rotate(0)"><tspan id="SvgjsTspan1321" dy="16" x="35"><tspan id="SvgjsTspan1322" style="text-decoration:;">大便</tspan></tspan></text></g></g><g id="SvgjsG1323"><path id="SvgjsPath1324" d="M795.3413461538454 349.6427077822357L919.4438946063703 349.6427077822357" stroke="#323232" stroke-width="2" fill="none" marker-end="url(#SvgjsMarker1325)"></path></g><g id="SvgjsG1327" transform="translate(919.4438946063703,314.6427077822357)"><path id="SvgjsPath1328" d="M 0 35C 0 -11.666666666666666 70 -11.666666666666666 70 35C 70 81.66666666666667 0 81.66666666666667 0 35Z" stroke="rgba(50,50,50,1)" stroke-width="2" fill-opacity="1" fill="#ffffff"></path><g id="SvgjsG1329"><text id="SvgjsText1330" font-family="微软雅黑" text-anchor="middle" font-size="13px" width="50px" fill="#323232" font-weight="400" align="middle" anchor="middle" family="微软雅黑" size="13px" weight="400" font-style="" opacity="1" y="25.05" transform="rotate(0)"><tspan id="SvgjsTspan1331" dy="16" x="35"><tspan id="SvgjsTspan1332" style="text-decoration:;">汗</tspan></tspan></text></g></g><g id="SvgjsG1333"><path id="SvgjsPath1334" d="M793.802884615384 274.9671667453026L919.4438946063703 349.6427077822357" stroke="#323232" stroke-width="2" fill="none" marker-end="url(#SvgjsMarker1335)"></path></g></svg>